<svg xmlns="http://www.w3.org/2000/svg" viewBox="0 0 24 24" fill="currentColor" stroke="none" aria-hidden="true">
  <!-- Open-arrow chat bubble, representational of Mattermost's mark. -->
  <path d="M12.081 0C7.048-.034 2.339 3.125.637 8.153c-2.125 6.276 1.24 13.086 7.516 15.21 6.276 2.125 13.086-1.24 15.21-7.516 1.727-5.1-.172-10.552-4.311-13.557l.126 2.547c2.065 2.282 2.88 5.512 1.852 8.549-1.534 4.532-6.594 6.915-11.3 5.321-4.708-1.593-7.28-6.559-5.745-11.092 1.031-3.046 3.655-5.121 6.694-5.67l1.642-1.94A4.87 4.87 0 0 0 12.08 0z"/>
</svg>
