<?xml version="1.0" encoding="UTF-8" standalone="no"?>
<!-- Created with Inkscape (http://www.inkscape.org/) -->

<svg
   xmlns:dc="http://purl.org/dc/elements/1.1/"
   xmlns:cc="http://creativecommons.org/ns#"
   xmlns:rdf="http://www.w3.org/1999/02/22-rdf-syntax-ns#"
   xmlns:svg="http://www.w3.org/2000/svg"
   xmlns="http://www.w3.org/2000/svg"
   xmlns:xlink="http://www.w3.org/1999/xlink"
   xmlns:sodipodi="http://sodipodi.sourceforge.net/DTD/sodipodi-0.dtd"
   xmlns:inkscape="http://www.inkscape.org/namespaces/inkscape"
   width="574.03125"
   height="625.25"
   id="svg19911"
   version="1.1"
   inkscape:version="0.48.4 r9939"
   sodipodi:docname="Nieuw document 130">
  <defs
     id="defs19913">
    <linearGradient
       y2="207.52499"
       x2="1777.8749"
       y1="207.52499"
       x1="1596.7238"
       gradientTransform="matrix(-1,0,0,1,1994.4364,179.24669)"
       gradientUnits="userSpaceOnUse"
       id="linearGradient19783"
       xlink:href="#linearGradient4070-6-1-6-0-4"
       inkscape:collect="always" />
    <linearGradient
       id="linearGradient4070-6-1-6-0-4">
      <stop
         style="stop-color:#a3a3a3;stop-opacity:1;"
         offset="0"
         id="stop4072-2-3-0-9-5" />
      <stop
         style="stop-color:#b0b0b0;stop-opacity:1;"
         offset="0.14285725"
         id="stop4074-3-2-5-9-2" />
      <stop
         id="stop4076-8-1-4-5-2"
         offset="0.32142863"
         style="stop-color:#d1d1d1;stop-opacity:1;" />
      <stop
         style="stop-color:#bdbdbd;stop-opacity:1;"
         offset="0.5"
         id="stop4078-2-6-6-11-5" />
      <stop
         id="stop4080-6-3-7-1-8"
         offset="0.75"
         style="stop-color:#e5e5e5;stop-opacity:1;" />
      <stop
         style="stop-color:#cccccc;stop-opacity:1;"
         offset="0.875"
         id="stop4082-2-8-9-23-6" />
      <stop
         id="stop4084-7-3-34-39-9"
         offset="1"
         style="stop-color:#cccccc;stop-opacity:1;" />
    </linearGradient>
    <linearGradient
       inkscape:collect="always"
       xlink:href="#linearGradient7293-4-5-5-3-0-83-8-1-2-9-9"
       id="linearGradient19680"
       x1="-542.0625"
       y1="483.47952"
       x2="-66.062508"
       y2="483.47952"
       gradientUnits="userSpaceOnUse"
       gradientTransform="matrix(-1,0,0,1,-28.099061,20.821974)" />
    <linearGradient
       id="linearGradient7293-4-5-5-3-0-83-8-1-2-9-9">
      <stop
         style="stop-color:#cc992d;stop-opacity:1;"
         offset="0"
         id="stop5392-3-6-1-0-6-0-8-4-6-7" />
      <stop
         style="stop-color:#e1a832;stop-opacity:1;"
         offset="0.14285725"
         id="stop7305-6-3-4-7-8-1-3-1-3-7" />
      <stop
         id="stop8194-1-0-7-8-2-8-7-5-0-7-1"
         offset="0.32142863"
         style="stop-color:#e5cf5c;stop-opacity:1;" />
      <stop
         style="stop-color:#e5c547;stop-opacity:1;"
         offset="0.5"
         id="stop7301-0-2-2-9-5-6-7-7-3-8-6" />
      <stop
         id="stop7303-5-9-4-8-5-1-4-1-7-8-5"
         offset="0.75"
         style="stop-color:#ffffa3;stop-opacity:1;" />
      <stop
         style="stop-color:#ffd94d;stop-opacity:1;"
         offset="0.875"
         id="stop7526-6-9-6-4-2-6-6-4-3-2-0" />
      <stop
         id="stop7297-8-3-4-1-67-7-7-9-9-1"
         offset="1"
         style="stop-color:#ffdb4e;stop-opacity:1;" />
    </linearGradient>
  </defs>
  <sodipodi:namedview
     id="base"
     pagecolor="#ffffff"
     bordercolor="#666666"
     borderopacity="1.0"
     inkscape:pageopacity="0.0"
     inkscape:pageshadow="2"
     inkscape:zoom="0.35"
     inkscape:cx="353.5"
     inkscape:cy="303.76282"
     inkscape:document-units="px"
     inkscape:current-layer="layer1"
     showgrid="false"
     fit-margin-top="0"
     fit-margin-left="0"
     fit-margin-right="0"
     fit-margin-bottom="0"
     inkscape:window-width="1600"
     inkscape:window-height="837"
     inkscape:window-x="-8"
     inkscape:window-y="-8"
     inkscape:window-maximized="1" />
  <metadata
     id="metadata19916">
    <rdf:RDF>
      <cc:Work
         rdf:about="">
        <dc:format>image/svg+xml</dc:format>
        <dc:type
           rdf:resource="http://purl.org/dc/dcmitype/StillImage" />
        <dc:title></dc:title>
      </cc:Work>
    </rdf:RDF>
  </metadata>
  <g
     inkscape:label="Laag 1"
     inkscape:groupmode="layer"
     id="layer1"
     transform="translate(-21.5,-210.875)">
    <path
       style="fill:#0575c9;fill-opacity:1;stroke:#000000;stroke-width:1px;stroke-linecap:butt;stroke-linejoin:miter;stroke-opacity:0"
       d="m 308.55991,211.95181 -285.850651,0 0,346.9292 C 30.057999,706.46522 143.50723,834.5784 308.55991,835.46843 z"
       id="path4288"
       inkscape:connector-curvature="0"
       sodipodi:nodetypes="ccccc" />
    <path
       style="fill:#0576ca;fill-opacity:1;stroke:#000000;stroke-width:1px;stroke-linecap:butt;stroke-linejoin:miter;stroke-opacity:0"
       d="m 308.56212,211.95968 285.85065,0 0,346.9292 C 587.06403,706.47309 473.6148,834.58627 308.56212,835.4763 L 281.41926,532.45244 z"
       id="path4288-5"
       inkscape:connector-curvature="0"
       sodipodi:nodetypes="cccccc" />
    <path
       style="fill:#000000;fill-opacity:0.08490565;stroke:#000000;stroke-width:1px;stroke-linecap:butt;stroke-linejoin:miter;stroke-opacity:0"
       d="m 35.334879,226.25517 3.03045,2.9042 2.90419,0 0,329.8829 C 49.851709,716.17785 172.20664,804.10159 308.55862,820.64941 137.98311,807.43376 41.082799,692.69257 35.334879,559.04227 z"
       id="path4865-0"
       inkscape:connector-curvature="0"
       sodipodi:nodetypes="ccccccc" />
    <path
       style="fill:#ffffff;fill-opacity:0.16037735;stroke:#000000;stroke-width:1px;stroke-linecap:butt;stroke-linejoin:miter;stroke-opacity:0"
       d="m 580.35939,226.29141 -3.0304,2.9042 -0.032,-0.0362 -0.221,329.8829 C 568.49419,717.09571 443.48766,810.49927 307.13568,820.68565 477.71119,807.47 574.61149,692.72881 580.35939,559.07851 z"
       id="path4865-6-7"
       inkscape:connector-curvature="0"
       sodipodi:nodetypes="ccccccc" />
    <path
       style="fill:#000000;fill-opacity:0.10377359;stroke:#000000;stroke-width:1px;stroke-linecap:butt;stroke-linejoin:miter;stroke-opacity:0"
       d="m 35.334879,226.25517 3.03045,2.9042 538.987961,0 3.0022,-2.9042 z"
       id="path4885-2"
       inkscape:connector-curvature="0" />
    <path
       style="fill:#ffffff;fill-opacity:0.53773582;stroke:#000000;stroke-width:1px;stroke-linecap:butt;stroke-linejoin:miter;stroke-opacity:0"
       d="m 22.707969,212.11307 2.65165,2.6516 0,344.2776 c 4.88398,147.29162 119.973461,270.86465 283.199001,276.58742 -6.88607,-7.5e-4 -13.78183,-0.35195 -20.68719,-0.79006 -14.65187,-0.92959 -29.26847,-3.14455 -43.72884,-6.37627 C 131.61874,803.31566 30.891519,706.41665 22.707969,559.04227 z"
       id="path4887-5"
       inkscape:connector-curvature="0"
       sodipodi:nodetypes="ccccsscc" />
    <path
       style="opacity:0.30952382;fill:#000000;fill-opacity:0.53773582;stroke:#000000;stroke-width:1px;stroke-linecap:butt;stroke-linejoin:miter;stroke-opacity:0"
       d="m 594.43489,212.0968 -2.6516,2.6516 0,344.2776 c -4.884,147.29161 -119.97348,270.86464 -283.19902,276.58742 6.88607,-7.5e-4 13.78183,-0.35195 20.68719,-0.79006 14.65187,-0.92959 29.26847,-3.14455 43.72884,-6.37627 C 485.52415,803.29939 586.25139,706.40038 594.43489,559.026 z"
       id="path4887-7-5"
       inkscape:connector-curvature="0"
       sodipodi:nodetypes="ccccsscc" />
    <path
       style="fill:#ffffff;fill-opacity:0.31132076;stroke:#000000;stroke-width:1px;stroke-linecap:butt;stroke-linejoin:miter;stroke-opacity:0"
       d="m 22.707969,212.11307 2.65165,2.6516 566.377571,0 2.5937,-2.6516 z"
       id="path4907-2"
       inkscape:connector-curvature="0" />
    <path
       style="fill:url(#linearGradient19680);fill-opacity:1"
       d="m 295.62311,777.50965 c -4.45693,-2.37836 -6.86907,-3 -11.64076,-3 -4.68347,0 -6.0189,0.33281 -6.0189,1.5 0,1.78458 -9.41634,1.88839 -50.67742,0.55869 -21.4603,-0.69159 -26.59099,-1.13329 -28.47251,-2.45115 -1.26229,-0.88415 -3.55991,-1.60754 -5.10582,-1.60754 -2.9226,0 -10.67651,-3.61982 -14.38274,-6.71442 -1.17618,-0.98207 -3.06337,-3.92308 -4.19377,-6.53558 l -2.05528,-4.75 -11.10882,0 c -14.51044,0 -23.12086,-2.00933 -35.32821,-8.24421 -10.85818,-5.54579 -11.20113,-5.99373 -12.18283,-15.91253 -0.3453,-3.48879 -1.28161,-7.91826 -2.08069,-9.84326 -0.79908,-1.925 -1.78287,-6.2 -2.1862,-9.5 l -0.73333,-6 -4.22762,-0.56476 c -4.87498,-0.65124 -4.64521,-0.47752 -6.016901,-4.54932 -0.84792,-2.51702 -0.67591,-3.95499 0.897191,-7.5 2.10806,-4.75058 4.23689,-6.83328 10.22079,-9.99935 3.22942,-1.70868 5.361,-1.99808 12.94797,-1.7579 l 9.08213,0.28751 2.21576,-5.05573 c 2.92894,-6.683 8.57273,-11.1922 14.48794,-11.57539 4.18582,-0.27116 4.48847,-0.1048 6.20754,3.41224 1.61317,3.30037 2.31099,3.75954 6.5,4.27698 5.13585,0.63441 13.34898,4.30992 13.9566,6.2458 0.21062,0.67105 -0.95663,2.03473 -2.59389,3.03041 l -2.97682,1.81031 2.65346,3.11217 c 1.45941,1.71169 3.89097,3.88727 5.40347,4.83461 2.65143,1.6607 2.75,1.652 2.75,-0.24283 0,-1.76323 0.941,-2.03206 9.15362,-2.61501 5.0345,-0.35736 15.272,-0.65078 22.75,-0.65204 7.47801,-10e-4 24.06575,-0.29833 36.86165,-0.66015 l 23.26527,-0.65784 -0.63882,-3.58986 c -0.87643,-4.9251 -3.81991,-7.82375 -8.75077,-8.61748 -3.06623,-0.49358 -5.37187,-1.86257 -8.88374,-5.27478 -4.03718,-3.92262 -4.84228,-5.35814 -5.41147,-9.64894 -0.56402,-4.25175 -1.38802,-5.74569 -5.26448,-9.54469 -2.52769,-2.47718 -5.68196,-6.86646 -7.00947,-9.75396 -2.20286,-4.79146 -2.70307,-5.25 -5.72725,-5.25 -3.60548,0 -4.70012,1.42358 -16.84454,21.9064 -5.75174,9.70089 -7.76529,10.89273 -18.61351,11.01752 -10.56212,0.1215 -15.67396,-1.32103 -25.06702,-7.07378 -6.93029,-4.24444 -9.03279,-6.10951 -10.65777,-9.45422 -1.94143,-3.99604 -2.28648,-4.21234 -8.42493,-5.2813 -3.52033,-0.61304 -6.98876,-1.11462 -7.70762,-1.11462 -0.71886,0 -7.78801,-4.8375 -15.70922,-10.75 l -14.40221,-10.75 -5.95886,-11.24311 c -5.57605,-10.52082 -5.95886,-11.67585 -5.95886,-17.97934 0,-5.88711 0.39016,-7.30799 3.09513,-11.27193 2.83864,-4.15982 3.93666,-4.84569 13.25,-8.27654 l 10.15487,-3.74086 23.5,-0.12567 c 12.925,-0.0691 28.67036,-0.40397 34.9897,-0.74411 14.37414,-0.7737 14.89028,-1.61411 6.35731,-10.35138 -7.63037,-7.81304 -10.04161,-8.76706 -22.15834,-8.76706 -15.40248,0 -22.96516,-3.17792 -31.32535,-13.16325 l -4.3155,-5.1544 5.37116,0.71251 c 2.95414,0.39189 7.08796,1.58836 9.18626,2.65883 3.20829,1.63675 6.00836,1.95763 17.60492,2.01746 7.58441,0.0391 17.38984,0.42649 21.78984,0.8608 10.24281,1.01103 12.5,-0.0924 12.5,-6.11061 0,-5.12665 1.65836,-7.40558 17.00927,-23.37417 6.37264,-6.62905 12.54724,-13.99441 13.72133,-16.36745 l 2.1347,-4.31463 0.58321,3.36745 c 0.79579,4.595 0.89373,6.42441 0.70993,13.26055 -0.15123,5.6248 -0.35193,6.05731 -4.40844,9.5 -11.93928,10.13268 -18.39187,19.42365 -15.72306,22.63937 0.53191,0.64091 4.00594,2.68562 7.72008,4.5438 3.71414,1.85818 9.11719,4.86611 12.00677,6.68428 4.09401,2.57601 5.66282,3.08687 7.10667,2.31414 1.01908,-0.54539 7.20487,-6.54295 13.7462,-13.32789 20.23025,-20.98367 38.89911,-32.05978 63.62035,-37.74555 6.52438,-1.50057 11.79239,-2.10477 16,-1.83506 5.47962,0.35125 6.91832,0.90368 11.37545,4.36796 4.73321,3.67886 5.22262,4.47244 6.76282,10.96586 2.08643,8.79631 2.18907,28.74233 0.1965,38.18462 -0.79103,3.74846 -3.04103,9.88558 -5,13.63804 -4.57852,8.77025 -4.60466,12.43936 -0.14138,19.84101 3.2194,5.33888 3.43262,6.25846 3.71803,16.03571 0.2836,9.71509 0.13462,10.6548 -2.35205,14.83633 -1.46015,2.45536 -4.83088,6.31256 -7.4905,8.57156 -3.95708,3.36103 -6.04076,4.31713 -11.46832,5.2623 -4.79551,0.83511 -7.41813,0.85639 -9.46847,0.0768 -3.0493,-1.15929 -36.35697,-7.94637 -38.99715,-7.94637 -1.40374,0 -1.37828,0.32513 0.21535,2.75 0.99401,1.5125 5.36493,9.5 9.71313,17.75 4.34821,8.25 9.86127,17.79771 12.25125,21.21714 9.98305,14.28313 10.72081,15.05986 15.45833,16.27495 2.475,0.6348 7.73461,2.93739 11.68802,5.11688 4.86079,2.67971 9.71728,4.42521 15,5.39124 4.29659,0.7857 9.93265,2.09299 12.52457,2.90508 7.06043,2.21215 21.91496,3.59471 38.62227,3.59471 10.70041,0 16.11477,0.42377 19.16514,1.5 2.82362,0.99623 8.07146,1.5 15.62573,1.5 l 11.37427,0 -1.3e-4,-3.75 c -1e-4,-2.78171 -1.26345,-5.7217 -4.8927,-11.38604 -5.64006,-8.80269 -7.10717,-14.28499 -7.10717,-26.55805 0,-8.52016 0.0488,-8.68663 5.55724,-18.95602 4.66204,-8.69146 5.50775,-11.04416 5.25,-14.60514 l -0.30724,-4.24475 -5,-0.54974 c -2.75,-0.30235 -7.25,-1.71563 -10,-3.14062 -4.37908,-2.26914 -5.52778,-3.58163 -9.25,-10.56893 l -4.25,-7.97805 0,-11.17581 c 0,-13.31241 2.02478,-22.55478 6.42305,-29.31888 1.69232,-2.60262 3.34843,-4.74012 3.68023,-4.75 0.33181,-0.01 2.72119,3.16707 5.30974,7.05989 4.30574,6.47523 6.85832,12.54293 14.27045,33.92214 1.43013,4.125 2.7614,7.6875 2.95838,7.91667 1.24647,1.45013 1.93128,-2.78651 2.46454,-15.24719 l 0.60639,-14.16948 -7.26936,-20.82964 c -6.65222,-19.06131 -7.68884,-21.31104 -12.21065,-26.5 -4.13417,-4.74414 -5.55394,-5.72208 -8.69191,-5.98698 -2.06283,-0.17414 -5.51252,0.38836 -7.66597,1.25 -10.2804,4.1134 -20.87489,-0.43192 -20.87489,-8.95589 0,-3.65571 -1.55643,-5.47749 -4.67968,-5.47749 -1.66887,0 -2.85051,-1.11893 -4.41019,-4.17616 -2.86474,-5.61535 -2.2017,-11.65645 1.82725,-16.64854 2.43648,-3.01893 3.71677,-3.73069 7.16889,-3.98546 2.88432,-0.21286 4.36902,-0.84025 4.73298,-2 2.40828,-7.67403 3.64679,-9.1973 8.69744,-10.69718 9.83983,-2.92212 19.84558,-0.70426 20.45792,4.53467 0.2508,2.14578 1.0686,2.70027 5.5,3.72914 9.37528,2.17674 13.525,10.47501 8.65697,17.31153 -1.82918,2.56885 -1.91918,3.30811 -0.84087,6.90718 0.94845,3.16566 0.94298,4.83446 -0.0255,7.77763 -1.19249,3.62392 -0.9995,4.25709 5.8666,19.24719 6.47811,14.14306 11.21183,21.25977 12.91356,19.41438 0.34904,-0.37851 0.13593,-0.86781 -0.47357,-1.08735 -0.6095,-0.21954 -1.9595,-1.06483 -3,-1.87843 -1.77402,-1.38717 -1.72059,-1.44044 0.85819,-0.85553 2.51812,0.57115 2.75,0.37571 2.75,-2.31788 0,-1.6179 0.49849,-5.4238 1.10776,-8.45758 1.0456,-5.2064 0.95903,-5.75154 -1.5425,-9.71422 -4.4357,-7.02662 -6.63622,-15.61341 -5.92065,-23.10339 0.55305,-5.78896 1.30086,-7.54494 6.83604,-16.05234 5.24048,-8.05445 13.71714,-17.72714 16.40203,-18.7163 1.03643,-0.38184 5.86544,15.95616 7.15796,24.21754 0.59794,3.82189 1.29179,7.27997 1.54188,7.68462 0.25009,0.40465 3.93383,-0.86138 8.18609,-2.8134 4.25227,-1.95202 10.54389,-4.61873 13.98139,-5.92603 l 6.25,-2.3769 0,4.57343 c 0,5.87605 -4.31661,18.38138 -8.29145,24.02052 -1.95477,2.77326 -5.6199,5.89053 -9.95121,8.46372 -7.01774,4.16916 -13.75733,9.51641 -13.75733,10.91519 0,0.43057 2.03448,1.08795 4.52107,1.46084 5.48377,0.82234 8.47893,3.70929 8.47893,8.17257 0,4.71555 -1.41863,7.72744 -4.38827,9.31674 -3.62433,1.93969 -3.29369,2.8706 1.8236,5.13422 3.40897,1.50795 4.50815,2.56917 4.75,4.58596 0.27255,2.27278 1.05085,2.8077 5.81467,3.99635 6.78639,1.69333 9.98784,5.11702 9.99503,10.6889 0.003,2.25441 -0.82571,5.01221 -2.0026,6.665 -1.61578,2.26915 -1.81093,3.33655 -1,5.46947 1.52328,4.00651 1.21234,7.67181 -0.95195,11.22135 -2.5785,4.22889 -6.75326,6.25968 -13.78065,6.70353 -7.23078,0.4567 -13.73606,3.31627 -12.08098,5.31053 0.88454,1.0658 0.43957,2.08297 -2.0224,4.62307 -1.95986,2.02207 -3.15645,4.28109 -3.15645,5.95903 0,1.48631 0.2875,2.70239 0.63888,2.70239 0.35138,0 4.17145,-3.375 8.48904,-7.5 6.55326,-6.26095 8.40043,-7.5 11.18094,-7.5 l 3.33079,0 1.29917,8 c 1.27829,7.87138 2.32167,9.33951 4.84451,6.81667 1.97934,-1.97934 2.3471,-0.42844 2.3471,9.89794 0,12.44634 -0.29774,13.57961 -6.79724,25.87177 -2.93325,5.54751 -5.33319,10.5728 -5.33319,11.1673 0,0.5945 2.025,1.85426 4.5,2.79947 6.72845,2.56962 6.02837,4.49255 -3.48008,9.55886 -7.55341,4.02462 -8.06773,4.51584 -9.61931,9.18722 -1.69147,5.09254 -1.14371,6.64294 2.362,6.68546 0.69444,0.008 2.30917,2.37781 3.58831,5.26531 1.27913,2.8875 3.07346,5.8676 3.98739,6.62244 1.69417,1.39928 2.06634,4.01985 1.088,7.66112 -0.3005,1.11846 -2.64068,3.14346 -5.20038,4.5 -2.5597,1.35654 -7.82019,4.772 -11.68997,7.58992 -14.98361,10.91083 -24.22891,14.2784 -55.91511,20.36693 -17.0281,3.27197 -17.62085,3.45417 -17.62085,5.41633 0,1.90752 -26.79966,14.25342 -35.75848,16.473 -6.30596,1.56232 -12.70644,2.01108 -34.51583,2.42004 -22.25862,0.41738 -27.18592,0.77176 -29.21482,2.10114 -3.66788,2.40329 -8.59288,1.93871 -14.85121,-1.40092 z M 508.45008,580.55179 c 0.34177,-1.07683 -0.0599,-3.21433 -0.89258,-4.75 l -1.51397,-2.79214 -0.04,4.75 c -0.0406,4.81958 1.31285,6.36422 2.44659,2.79214 z m -15.67017,-15.75668 c -0.45095,-2.34157 -5.72186,-3.67669 -11.24522,-2.84841 -6.28539,0.94255 -6.17404,3.32699 0.17876,3.82791 11.02245,0.86913 11.41577,0.83432 11.06646,-0.9795 z M 37.963449,324.44852 l 0,-96.26603 53.25,0.66256 c 29.287501,0.3644 75.482261,0.66301 102.655031,0.66357 l 49.40503,0.001 -0.6635,13.25 c -2.73522,54.62174 -19.07048,97.22332 -48.61575,126.78758 -32.26863,32.28937 -74.73346,47.36891 -142.280811,50.52488 l -13.75,0.64243 0,-96.26602 z"
       id="path19088"
       inkscape:connector-curvature="0" />
    <path
       style="fill:#000000"
       d="m 295.24932,777.31531 c -6.7557,-3.55369 -15.8779,-4.23309 -17.9933,-1.3401 -1.1172,1.52789 -4.208,1.57726 -38.8623,0.62075 -27.776,-0.76666 -38.0518,-1.37387 -39.1865,-2.31558 -0.8459,-0.70203 -3.7424,-1.62488 -6.4366,-2.05079 -7.5796,-1.19818 -15.0075,-6.4735 -17.9422,-12.74265 l -2.421,-5.17163 -10.8816,0 c -13.3557,0 -22.4746,-1.95655 -33.376,-7.16116 -11.3718,-5.42917 -13.0869,-7.22376 -13.8195,-14.45942 -0.6286,-6.20909 -1.6554,-10.93438 -3.4505,-15.87942 -0.599,-1.65 -1.3509,-5.1375 -1.671,-7.75 -0.5419,-4.42245 -0.7791,-4.75 -3.439,-4.75 -4.4104,0 -5.833101,-0.90222 -7.000501,-4.43937 -1.6475,-4.99201 1.491301,-11.43394 7.650401,-15.70106 4.7031,-3.25845 5.0965,-3.34624 15.0229,-3.35282 l 10.1933,-0.007 2.2811,-4.86416 c 4.6828,-9.98547 15.5674,-15.33072 19.9284,-9.78657 1.0471,1.33125 1.9039,2.98857 1.9039,3.68293 0,0.77419 2.576,1.71109 6.6602,2.42232 3.6631,0.6379 7.9381,1.82065 9.5,2.62833 3.6217,1.87285 3.7589,5.11723 0.2723,6.4428 l -2.5674,0.97614 1.9595,2.74911 c 1.0778,1.512 2.9542,3.64804 4.1699,4.74674 3.7652,3.40294 5.0542,6.76989 3.6644,9.57172 -0.9732,1.96193 -2.0689,2.47757 -5.6823,2.67401 -2.4621,0.13385 -6.9168,0.51343 -9.8992,0.84352 l -5.4226,0.60016 4.4497,2.76958 c 2.4474,1.52327 5.0007,3.97886 5.6741,5.45687 1.1632,2.55285 1.0509,2.7598 -2.245,4.13689 -4.576,1.91201 -4.3711,1.9568 -9.4243,-2.0601 -2.4149,-1.91941 -4.7293,-3.49004 -5.143,-3.49004 -1.0881,0 -1.9663,2.71633 -1.9663,6.08179 0,2.44609 -0.4045,2.91821 -2.5,2.91821 -2.2381,0 -2.5,-0.40739 -2.5,-3.88922 0,-2.31835 0.7604,-4.82821 1.8825,-6.21404 1.6789,-2.07333 2.1737,-2.19217 4.5738,-1.09859 1.4802,0.67443 4.3851,2.58737 6.4552,4.25099 3.2335,2.59852 4.1391,2.88212 6.4262,2.01256 3.6472,-1.38667 3.3608,-2.46802 -1.5877,-5.99336 -7.1649,-5.10437 -10.0327,-7.80189 -9.3936,-8.83596 1.0563,-1.70914 7.3147,-4.23238 10.4977,-4.23238 1.6785,0 4.1999,0.5231 5.6031,1.16244 3.0419,1.38598 3.6544,0.98024 2.8963,-1.91862 -0.7371,-2.81863 -7.8317,-6.24508 -12.9192,-6.23952 -3.0369,0.003 -5.1318,0.91223 -9.1843,3.98465 l -5.25,3.98034 0,-3.39287 c 0,-3.14457 0.4782,-3.65575 6.5344,-6.98465 5.0264,-2.76284 7.6804,-3.59177 11.5,-3.59177 4.5683,0 4.9656,-0.19113 4.9656,-2.38871 0,-1.94682 -0.6599,-2.51251 -3.5674,-3.05796 -4.3817,-0.822 -12.3,1.6228 -16.3827,5.05815 l -2.8881,2.43013 0.7201,-2.77081 c 0.5019,-1.93096 2.1405,-3.52856 5.4063,-5.2708 3.774,-2.01334 4.571,-2.88933 4.0945,-4.5 -2.0278,-6.85394 -9.1124,-6.97025 -14.8697,-0.24413 -4.4798,5.23359 -6.9555,12.45017 -5.5444,16.16166 1.1918,3.13468 1.3899,10.58332 0.2814,10.58068 -0.4125,-9.8e-4 -2.0385,-2.04124 -3.6133,-4.53391 -3.1643,-5.00869 -7.632,-7.47276 -13.5088,-7.45065 -5.8198,0.0219 -7.838,0.95485 -10.4605,4.83536 -3.604,5.3329 -4.1359,7.82987 -1.9207,9.01543 1.425,0.76263 2.8304,0.32299 6.1985,-1.9391 2.5756,-1.72977 5.6748,-2.92534 7.5832,-2.92534 7.9535,0 18.7886,7.83197 14.501,10.48185 -0.5339,0.32994 -2.3115,-0.0935 -3.9504,-0.94098 -1.6388,-0.84748 -4.9753,-1.54087 -7.4143,-1.54087 -3.61,0 -4.735,0.45839 -6.0497,2.46482 -2.1461,3.27534 -2.0475,7.83383 0.2137,9.88019 4.002,3.62173 12.7439,0.87273 17.2215,-5.41551 3.2008,-4.49517 4.9498,-3.82893 4.9498,1.88557 l 0,4.81507 -6.25,2.24155 c -3.4375,1.23285 -7.7411,3.51022 -9.5636,5.06082 -2.9464,2.50689 -3.2788,3.29921 -3,7.15083 0.297,4.102 0.6174,4.51142 6.0455,7.72553 6.7065,3.97109 18.5398,6.56878 34.8839,7.65789 11.7945,0.78595 15.8477,2.58916 21.4289,9.53324 1.5472,1.925 4.3617,5.1494 6.2544,7.16533 3.2817,3.49521 3.6795,3.64141 8.5712,3.14973 3.7869,-0.38064 7.6166,0.19688 14.6297,2.20616 l 9.5,2.72178 32.9457,-0.65051 c 18.1201,-0.35778 33.0932,-0.79804 33.2735,-0.97837 0.1803,-0.18033 0.071,-0.99826 -0.2438,-1.81763 -0.6854,-1.78613 -17.9809,-2.78709 -48.2575,-2.79283 -14.8709,-0.003 -20.1034,-0.34682 -22.8721,-1.50366 -2.0464,-0.85501 -7.085,-1.5624 -11.7179,-1.64513 -7.172,-0.12806 -6.6026,-0.24223 4.8421,-0.97088 10.7415,-0.68388 13.3556,-0.57304 15.2148,0.64513 2.8961,1.89762 44.7006,2.16367 48.7682,0.31036 1.989,-0.90625 3.1495,-0.86617 5.297,0.18296 1.5125,0.73891 5.225,1.59864 8.25,1.91052 5.338,0.55034 5.5092,0.66275 5.8134,3.81704 l 0.3133,3.25 8.2367,0 c 4.5301,0 8.6641,-0.42517 9.1866,-0.94482 0.5225,-0.51966 11.9614,-1.26657 25.4198,-1.65982 21.7846,-0.63653 24.061,-0.85654 20.7439,-2.00495 -2.8315,-0.9803 -9.1257,-1.14417 -26.2198,-0.68266 -12.3717,0.33401 -22.4939,0.98641 -22.4939,1.44977 0,0.46337 -1.8,0.84248 -4,0.84248 -2.2,0 -4,-0.45 -4,-1 0,-0.55 1.3641,-1 3.0314,-1 1.7721,0 3.2705,-0.62314 3.607,-1.5 0.4879,-1.27138 3.9796,-1.5 22.9096,-1.5 13.8106,0 22.5698,-0.38163 22.952,-1 0.3399,-0.55 4.7409,-1 9.78,-1 l 9.162,0 5.7528,-5.69282 c 3.1641,-3.13105 6.0046,-5.44112 6.3122,-5.1335 0.3076,0.30762 0.2756,2.33398 -0.071,4.50301 -0.5586,3.49325 -1.162,4.19171 -5.2832,6.11517 -3.1935,1.49054 -7.0044,2.25563 -12.1525,2.43981 l -7.5,0.26833 3.3041,2.08552 c 3.1153,1.96632 3.7007,2.01051 10.2444,0.7732 6.8514,-1.29553 14.7317,-4.57295 16.2131,-6.74305 0.4188,-0.61362 1.2598,-3.02817 1.8687,-5.36567 l 1.1071,-4.25 8.298,0 c 4.5639,0 8.4479,-0.43304 8.6313,-0.96232 0.4566,-1.31819 20.1032,-5.03093 26.6418,-5.03465 10.5439,-0.006 19.4165,-1.95421 23.4634,-5.15199 2.0745,-1.63925 6.237,-4.07066 9.25,-5.40313 5.3392,-2.36125 6.7156,-3.86873 4.2752,-4.68221 -0.6616,-0.22053 -5.2741,1.65447 -10.25,4.16667 l -9.0471,4.56763 -15,0.59906 c -8.25,0.32949 -16.4568,1.08394 -18.2373,1.67656 -4.0661,1.35335 -30.07,3.75042 -30.9659,2.85448 -2.0771,-2.07702 10.0075,-6.00037 15.7032,-5.09816 1.9681,0.31176 7.2203,-0.30657 12,-1.41275 13.258,-3.06832 17.9384,-3.42248 22.7364,-1.72039 3.8807,1.3767 4.6782,1.34805 9.5,-0.34125 8.4099,-2.94643 15.1065,-6.05016 17.2636,-8.00135 1.1,-0.99501 3.6875,-2.11009 5.75,-2.47796 3.5323,-0.63004 3.75,-0.52001 3.75,1.8955 0,2.28209 0.3027,2.49568 2.75,1.94038 1.5125,-0.34319 3.65,-1.61353 4.75,-2.82299 1.1,-1.20945 3.2312,-2.9685 4.7361,-3.90899 3.8513,-2.40702 6.3827,-6.46334 4.9362,-7.90986 -0.8334,-0.83336 -1.6304,-0.66771 -3.0743,0.639 -1.072,0.97022 -2.7702,1.5957 -3.7736,1.38997 -1.0034,-0.20572 -2.2744,0.17698 -2.8244,0.85045 -0.5919,0.72476 -2.1531,0.99223 -3.8255,0.65538 -2.369,-0.47715 -2.7309,-0.94619 -2.2398,-2.90285 0.3221,-1.28355 1.7394,-3.48738 3.1494,-4.89739 3.0334,-3.03345 2.7452,-4.8897 -0.8254,-5.31498 -2.7555,-0.3282 -3.056,0.17145 -4.2039,6.98999 -0.6042,3.58861 -0.714,3.6694 -4.3373,3.19016 -6.7662,-0.89493 -12.6966,-2.50362 -14.2175,-3.85669 -4.4842,-3.98941 -14.1978,-4.83929 -82.7317,-7.23855 l -14.2316,-0.49823 2.6769,5.53147 c 3.1341,6.47633 3.9904,6.79547 16.005,5.96526 7.9283,-0.54784 10.7544,-2.27527 3.7224,-2.27527 -1.8926,0 -3.441,-0.49418 -3.441,-1.09819 0,-1.6166 12.2902,-0.0323 13.2997,1.71446 0.5876,1.01674 3.1891,1.38373 9.809,1.38373 6.3286,0 8.8059,0.32918 8.3256,1.10627 -0.4397,0.71143 -3.5838,0.97912 -8.809,0.75 -10.5248,-0.46148 -11.9149,1.43178 -1.6253,2.21357 l 7.5,0.56984 -8.6334,0.18016 c -7.8722,0.16428 -8.6794,0.004 -9.1563,-1.81984 -0.3986,-1.52413 -1.3641,-2 -4.0577,-2 -1.944,0 -3.8288,0.47615 -4.1885,1.0581 -0.3964,0.64134 -4.1688,0.98085 -9.5777,0.86196 -6.7655,-0.14871 -9.3426,0.17086 -10.6551,1.32131 -4.0479,3.54793 -8.1597,4.75863 -16.1614,4.75863 -10.3731,0 -15.7657,-2.0276 -17.6991,-6.65489 -1.4276,-3.41692 -2.3522,-3.79842 -5.8708,-2.42237 -3.0152,1.17921 -9.7255,-1.52848 -13.5393,-5.46329 -2.418,-2.4947 -4.2258,-3.45945 -6.4825,-3.45945 -2.0062,0 -3.935,-0.85729 -5.3732,-2.38825 -1.3245,-1.40982 -2.98,-2.1957 -4.0409,-1.91826 -0.9885,0.2585 -4.6592,-0.9747 -8.1571,-2.74044 l -6.3598,-3.21043 -12.5236,0.62071 c -6.888,0.34139 -28.2736,0.69238 -47.5236,0.77999 l -35,0.15927 -0.3011,-3.4962 -0.3011,-3.4962 10.7066,-0.6551 c 5.8887,-0.3603 17.0892,-0.65509 24.8899,-0.65509 7.8008,0 23.6661,-0.29532 35.2562,-0.65628 l 21.073,-0.65627 -0.544,-3.59373 c -0.7532,-4.97475 -3.715,-7.88652 -8.7974,-8.64867 -6.3373,-0.95034 -12.8623,-7.97428 -14.5354,-15.64691 -0.9997,-4.58423 -1.9494,-6.26989 -4.8451,-8.59983 -2.0606,-1.65805 -4.8569,-5.52938 -6.5355,-9.04814 -2.7912,-5.8512 -3.1072,-6.14863 -6.5,-6.11856 -3.9655,0.0351 -3.1949,-0.95174 -15.6873,20.09053 -6.0669,10.2192 -6.4761,10.66492 -10.7853,11.75 -5.542,1.3955 -13.6469,1.44525 -20.6009,0.12645 -7.8809,-1.49458 -22.1271,-10.75294 -24.4407,-15.88355 -1.7414,-3.8616 -1.8436,-3.91592 -9.6622,-5.1322 -7.8723,-1.22463 -7.9571,-1.27052 -22.3956,-12.12199 l -14.4934,-10.89271 -5.6399,-11.23407 c -5.3749,-10.70616 -5.6307,-11.56053 -5.4418,-18.18136 0.1694,-5.93954 0.6243,-7.52681 3.1361,-10.94228 2.5225,-3.43007 4.3718,-4.53341 13.078,-7.8027 l 10.14,-3.80773 35.3635,0 35.3634,0 0,-2.77889 c 0,-2.09778 -1.5319,-4.2594 -6.25,-8.81937 -3.4375,-3.32226 -7.5087,-6.57176 -9.0471,-7.22111 -1.5383,-0.64935 -7.1942,-1.18063 -12.5684,-1.18063 -17.0434,0 -25.2216,-3.9171 -34.0367,-16.30259 -1.3563,-1.90559 -1.2424,-1.94618 3.4765,-1.23854 2.6833,0.40239 6.5682,1.59349 8.633,2.6469 3.1886,1.62669 7.1098,2.03772 26.0235,2.72784 26.1156,0.95291 26.7692,0.79897 26.7692,-6.30475 0,-3.84007 0.6469,-5.192 4.8934,-10.22694 2.6913,-3.19106 7.9111,-8.72692 11.5993,-12.30192 7.0947,-6.87672 14.0082,-15.50727 15.4218,-19.25184 1.2744,-3.37596 2.5098,7.9179 1.7067,15.60209 -0.5599,5.35681 -1.0398,6.4216 -3.8801,8.60885 -6.5854,5.07137 -13.6224,12.27107 -15.1593,15.50969 -2.7991,5.89882 -2.2901,6.77465 6.6682,11.47178 4.5375,2.37917 10.3912,5.66515 13.0083,7.30217 5.9676,3.73284 5.7301,3.86922 20.3587,-11.68946 18.7922,-19.98693 38.7369,-31.77168 63.3696,-37.44321 14.5832,-3.3577 21.2828,-2.58851 28.4243,3.26343 3.9028,3.19804 4.5292,4.3222 5.9745,10.72222 2.0969,9.28507 2.1249,29.11305 0.054,37.90428 -0.8423,3.575 -3.0856,9.32799 -4.9852,12.78442 -4.6991,8.55042 -4.6884,13.38169 0.046,20.78303 3.4501,5.39338 3.4996,5.62438 3.4688,16.20197 -0.036,12.44828 -1.0912,14.94697 -9.4907,22.47871 -4.2044,3.76993 -5.9843,4.63992 -11.4519,5.59726 -5.6202,0.98404 -7.4003,0.87825 -13.5,-0.8023 -9.3625,-2.57951 -35.4735,-7.4291 -36.1825,-6.72017 -0.309,0.30906 0.3423,1.83172 1.4474,3.3837 1.1051,1.55197 4.8913,8.45072 8.4138,15.33056 6.8878,13.45276 13.4902,24.14079 20.1322,32.59021 3.156,4.01483 5.1304,5.54947 8.1629,6.34495 2.2,0.5771 7.825,3.02042 12.5,5.42961 5.7444,2.9603 10.3908,4.60439 14.3326,5.07147 3.2079,0.38012 8.2684,1.52916 11.2454,2.55343 7.4665,2.56884 21.5077,3.97315 39.726,3.97315 12.8522,0 16.3532,0.33382 21.2808,2.02916 5.064,1.7423 7.2934,1.93305 15.7696,1.34926 l 9.8717,-0.6799 -0.4745,-4.21 c -0.31,-2.75048 -2.0982,-6.71997 -5.1581,-11.44999 -5.3275,-8.23562 -6.5935,-13.19592 -6.5935,-25.83512 0,-8.32499 0.1165,-8.73972 5,-17.79858 4.2899,-7.95772 5,-10.06532 5,-14.8399 l 0,-5.56493 -4.0285,0 c -2.4715,0 -6.282,-1.13753 -9.859,-2.94324 -5.403,-2.72739 -6.1342,-3.52693 -9.9715,-10.90269 -4.1306,-7.93953 -4.141,-7.98737 -4.141,-19.10125 0,-13.27663 2.0289,-22.5271 6.423,-29.28485 1.6924,-2.60262 3.3578,-4.74012 3.7009,-4.75 0.3432,-0.01 2.875,3.46953 5.6262,7.73203 3.6941,5.72322 6.3615,11.8193 10.1998,23.31022 5.628,16.84911 6.6197,19.05684 7.8001,17.36447 0.4125,-0.59142 2.2125,-1.92595 4,-2.96561 3.789,-2.20382 3.9083,-2.86715 1.2881,-7.16446 -1.4995,-2.45928 -1.8295,-4.32141 -1.4178,-8 0.3403,-3.04062 -0.01,-6.25793 -0.9545,-8.79462 -0.8202,-2.2 -4.6638,-12.93111 -8.5415,-23.84691 -6.6464,-18.70999 -7.3723,-20.21372 -12.6718,-26.25 -3.1634,-3.60312 -6.443,-6.40309 -7.5,-6.40309 -1.0332,0 -4.1618,0.9 -6.9525,2 -6.1592,2.42775 -11.7753,2.55166 -16.3688,0.36117 -4.0118,-1.91307 -5.6312,-4.9063 -5.6312,-10.40822 0,-3.82912 -0.1065,-3.95295 -3.4012,-3.95295 -2.8375,0 -3.7491,-0.58955 -5.5,-3.55716 -5.0901,-8.62702 0.3605,-21.44284 9.1197,-21.44284 2.7837,0 3.9969,-0.48278 4.3977,-1.75 2.0984,-6.6358 3.8337,-9.24062 6.7711,-10.16401 10.92,-3.4327 21.1624,-1.58769 22.2827,4.01389 0.3811,1.90553 1.1946,2.90012 2.3721,2.90012 3.3236,0 10.5607,3.74488 12.2656,6.34685 2.4305,3.70938 2.1193,8.40454 -0.8117,12.24727 -1.3772,1.8056 -2.0913,3.53794 -1.587,3.84963 1.8353,1.13431 2.293,8.2649 0.7251,11.29693 -1.4763,2.85486 -1.3201,3.31115 6.7926,19.84069 4.567,9.30525 9.3246,19.73113 10.5725,23.16863 1.2478,3.4375 2.3429,6.25 2.4335,6.25 0.091,0 0.1493,-1.6875 0.1304,-3.75 -0.019,-2.0625 0.3423,-5.2573 0.8026,-7.09955 0.7536,-3.01612 0.6474,-3.28939 -1.0668,-2.74531 -1.052,0.3339 -2.7752,-0.0758 -3.8514,-0.91579 -1.8529,-1.44618 -1.8139,-1.48972 0.8025,-0.89628 2.4934,0.56555 2.75,0.36267 2.75,-2.17447 0,-1.53901 0.5201,-5.31646 1.1559,-8.39433 1.0991,-5.32138 1.0275,-5.79073 -1.4575,-9.56019 -4.3548,-6.60545 -6.7768,-15.94627 -6.0402,-23.29458 0.5367,-5.35532 1.4691,-7.66601 6.0524,-15 4.6769,-7.48384 15.5627,-20.1695 17.3078,-20.1695 1.6077,0 5.3304,16.31336 5.7512,25.20258 l 0.4592,9.70258 8.8741,-4.45686 c 4.8808,-2.45127 11.8698,-5.58441 15.5312,-6.96254 l 6.657,-2.50569 -0.5848,6.2622 c -0.7194,7.70374 -4.0999,16.99632 -8.0325,22.08031 -1.6262,2.10242 -7.5056,6.91827 -13.0653,10.70189 -5.5597,3.78363 -11.1527,7.7143 -12.4289,8.73484 l -2.3204,1.85553 3.3868,-0.39539 c 5.823,-0.67981 11.3486,1.38767 12.7498,4.7705 1.9773,4.77362 0.5184,9.77411 -3.5524,12.17593 -4.0554,2.39274 -3.6898,3.39523 2.1857,5.99423 3.738,1.65353 4.3709,2.36107 4.3709,4.88668 0,2.43343 0.4138,2.95321 2.3508,2.95321 4.012,0 9.05,2.16941 11.3632,4.89312 2.8648,3.37303 2.9907,9.30842 0.2784,13.11751 -1.6157,2.26915 -1.8109,3.33655 -1,5.46947 1.5233,4.00651 1.2124,7.67181 -0.9519,11.22135 -2.5785,4.22889 -6.7533,6.25968 -13.7807,6.70353 -7.1679,0.45273 -13.548,3.25758 -12.3361,5.42322 0.6123,1.09408 -1.3256,3.95032 -7.1817,10.5851 -12.9672,14.6915 -12.5933,14.00923 -13.7409,25.07567 -0.5604,5.4046 -0.8572,9.98821 -0.6597,10.1858 0.1976,0.19759 1.8798,-3.57368 3.7382,-8.3806 4.5588,-11.79195 10.984,-21.25455 20.7196,-30.5146 12.2884,-11.6881 15.2855,-11.75272 17.1218,-0.36915 1.2099,7.50017 2.3102,8.95834 4.8462,6.42236 1.9937,-1.99365 2.5134,1.48431 2.0117,13.46188 l -0.4694,11.20534 -5.6547,10.58638 c -3.1101,5.82251 -5.6548,11.0728 -5.6548,11.6673 0,0.5945 2.025,1.85426 4.5,2.79947 6.7259,2.56866 6.0278,4.49285 -3.4653,9.551 -7.3203,3.90041 -8.0896,4.60886 -9.5,8.74812 -1.9918,5.84551 -2.0196,5.70425 1.4004,7.12085 1.8357,0.76038 3.3463,2.3954 4.033,4.36517 0.6038,1.73217 2.2371,4.79333 3.6295,6.80258 1.9922,2.87471 2.3961,4.37557 1.8957,7.04331 -0.5229,2.78718 -1.5571,3.89912 -5.8147,6.25181 -2.8482,1.57392 -8.1325,5.02532 -11.7428,7.66979 -13.9635,10.22781 -22.8359,13.26912 -61.321,21.01974 -8.1406,1.63946 -10.9957,2.61522 -11.3239,3.86998 -0.4646,1.77685 -3.4413,3.39328 -20.2909,11.0186 -15.1409,6.85208 -21.0089,7.80556 -51.0277,8.29147 -21.1362,0.34212 -26.0736,0.69544 -28.7004,2.05382 -4.5951,2.37624 -8.3224,2.03324 -14.7719,-1.35939 z m 47.0729,-64.47087 1.619,-2.47087 3.6362,2.47087 c 5.9336,4.032 10.1719,3.14194 10.1719,-2.13612 0,-2.88313 -0.3489,-3.39301 -2.3219,-3.39301 -3.3148,0 -11.5396,-2.92845 -15.9082,-5.66413 -4.2104,-2.63663 -4.7699,-2.78373 -4.7699,-1.25417 0,0.59494 -1.5693,2.99684 -3.4874,5.33757 l -3.4873,4.25586 2.2373,2.07477 c 2.0609,1.91108 4.5131,2.76291 8.9644,3.11392 0.9498,0.0749 2.4554,-0.97571 3.3459,-2.33469 z m -16.9386,-14.29523 c 2.4423,-4.04691 2.491,-4.39373 0.9471,-6.75 -0.8951,-1.36615 -2.4297,-2.4839 -3.4102,-2.4839 -2.1973,0 -7.0299,3.48886 -10.4291,7.52938 -2.2739,2.70284 -2.4084,3.29145 -1.2475,5.46057 0.7156,1.33716 2.8096,2.95915 4.6533,3.60444 3.7941,1.32796 4.6382,0.67303 9.4864,-7.36049 z m 133.3657,-1.3733 c 0,-5.46156 -2.6693,-10.92865 -9.4527,-19.3606 -1.7699,-2.2 -3.7421,-6.11177 -4.3826,-8.69282 -1.4078,-5.67236 -1.5046,-16.73377 -0.1647,-18.80718 0.7302,-1.12996 0.9732,-0.65678 0.9847,1.91809 0.029,6.52071 2.1839,15.82083 4.5623,19.69138 l 2.3906,3.89053 0.031,-3.12788 c 0.017,-1.72033 -0.6438,-4.74337 -1.4688,-6.71788 -1.1133,-2.66458 -1.5175,-7.78718 -1.5677,-19.87212 -0.053,-12.81055 -0.3044,-15.74909 -1.178,-13.78212 -0.6107,1.375 -2.7178,5.2 -4.6823,8.5 l -3.572,6 0.2696,16.4884 0.2696,16.4884 4.7947,5.0116 c 5.7713,6.03247 10.1661,12.72881 10.1661,15.49016 0,1.13017 0.6614,2.02144 1.5,2.02144 1.1388,0 1.5,-1.23771 1.5,-5.1394 z m -151.5923,-3.90055 c 1.4705,-2.22197 3.7803,-4.5442 5.1329,-5.16051 3.7878,-1.72584 2.9771,-4.96332 -1.529,-6.10598 -3.7297,-0.94576 -9.5015,1.18493 -13.0068,4.80153 -2.5275,2.60767 -2.9866,3.72909 -2.4319,5.93949 0.3762,1.49868 1.6387,3.11048 2.8055,3.58176 4.3302,1.74893 6.2879,1.08628 9.0293,-3.05629 z m 168.7166,-1.50292 c 2.4066,-0.84858 5.9507,-3.05087 7.8757,-4.89397 1.925,-1.84311 5.382,-4.29239 7.6822,-5.44285 5.3546,-2.67816 5.8384,-3.56209 2.7257,-4.98032 -2.2098,-1.00686 -3.1219,-0.75515 -7.2186,1.99216 -2.5791,1.72954 -7.2226,5.60211 -10.3188,8.6057 -3.1151,3.02192 -5.9099,5.00734 -6.2574,4.44519 -0.8206,-1.32775 1.2121,-10.8495 3.1346,-14.68304 3.8248,-7.6273 14.3746,-19.92744 23.1881,-27.03554 l 2.4358,-1.96446 -2.3784,4 c -1.3081,2.2 -4.895,7.15 -7.971,11 -6.0147,7.52825 -9.3816,12.47401 -8.8521,13.0034 0.1814,0.18142 3.2046,-1.39918 6.7182,-3.51245 6.2195,-3.74077 14.3215,-12.14976 16.1804,-16.79344 0.9183,-2.29401 3.144,-19.31815 2.5971,-19.86505 -0.1582,-0.15815 -3.1852,2.51857 -6.7267,5.94828 -3.5415,3.42971 -9.3641,7.76831 -12.9391,9.64135 -6.4579,3.38347 -11.4696,8.16817 -15.7188,15.00693 -1.6299,2.62318 -2.2271,5.15401 -2.25,9.53527 -0.027,5.16157 -0.2212,5.76721 -1.4433,4.5 -0.7766,-0.80536 -1.8952,-3.25986 -2.4857,-5.45443 -1.0238,-3.80507 -0.8468,-4.38488 3.8156,-12.5 2.689,-4.68043 6.2834,-11.43486 7.9875,-15.00986 3.2506,-6.81943 6.3757,-11.2355 14.5023,-20.49371 3.4871,-3.97255 4.5978,-5.90084 3.8373,-6.66141 -0.7606,-0.76056 -3.0138,0.31632 -7.7838,3.72015 -7.5717,5.40305 -10.6157,9.62524 -20.0643,27.83068 -5.9086,11.38466 -6.2036,11.76046 -6.8653,8.74763 -0.3803,-1.73145 -0.3653,-7.74798 0.033,-13.37009 l 0.7247,-10.22201 7.9352,-8.28583 c 7.3746,-7.70049 8.7205,-10.11702 6.1178,-10.98457 -0.5678,-0.18929 -4.2819,2.73593 -8.2535,6.5005 l -7.2211,6.84468 0.6635,-12.06301 c 0.4721,-8.58394 0.3105,-12.92823 -0.5603,-15.06301 l -1.2237,-3 -2.1237,4.5 c -2.6185,5.54852 -2.736,16.48984 -0.2753,25.64434 1.272,4.73202 1.6516,10.67827 1.6516,25.86919 l 0,19.72485 3.5,5.76162 c 1.925,3.16889 3.5,6.47739 3.5,7.35222 0,0.93536 1.3388,1.97717 3.25,2.529 4.4321,1.2797 3.9811,1.30125 8.8743,-0.42409 z m -186.7377,-8.33948 c 3.2529,-3.66684 11.4231,-7.09671 16.9315,-7.10788 l 4.8181,-0.01 -2.1547,-3.02596 -2.1547,-3.02596 -10.6634,0.65132 c -13.1494,0.8034 -17.1634,2.66205 -17.1634,7.94759 0,2.37369 0.9458,4.46087 3.1687,6.99263 2.8761,3.27566 3.2582,3.4405 4.1366,1.7848 0.5323,-1.00331 1.9189,-2.89625 3.0813,-4.20654 z m -18.3217,-18.74618 c 0.8608,-0.74057 3.1108,-1.87581 5,-2.52278 3.277,-1.12216 4.8864,-2.46295 4.9198,-4.09869 0.029,-1.39459 -4.8795,-0.76131 -10.554,1.36183 -6.2613,2.34263 -10.4307,1.57367 -10.4307,-1.92372 0,-2.78029 1.1323,-3.37839 3.0721,-1.62283 1.5672,1.41824 2.2317,1.42198 6.8893,0.0388 2.8352,-0.84195 6.4446,-1.27289 8.0209,-0.95763 1.8238,0.36475 3.7018,-0.0122 5.1644,-1.03663 3.3478,-2.3449 5.6769,-2.17737 3.4799,0.25032 -1.3235,1.46237 -1.4688,2.42464 -0.6798,4.5 0.9174,2.41283 1.4781,2.63985 6.5204,2.63985 l 5.5166,0 -1.6668,-4.25 c -1.7165,-4.37643 -8.8329,-15.65239 -10.7419,-17.02039 -0.5913,-0.42371 -4.4501,-0.48056 -8.5751,-0.12632 -8.614,0.73972 -12.2204,2.81525 -18.8663,10.85769 -3.825,4.62881 -3.9502,4.99327 -2.6066,7.59151 0.7763,1.50109 3.2484,4.08019 5.4936,5.73132 4.2256,3.10754 6.9315,3.26585 10.0442,0.58766 z m -64.9621,-6.62147 c 4.1602,-4.87058 14.5588,-21.0497 18.2856,-28.45034 2.2038,-4.37639 2.0857,-8.97558 -0.2629,-10.2325 -1.6382,-0.87672 -2.8555,0.41117 -9.6552,10.21482 -10.4321,15.04097 -10.7966,15.19189 -3.5448,1.46802 3.4148,-6.4625 5.9886,-11.75 5.7195,-11.75 -0.2692,0 -5.5436,5.85 -11.7211,13 -10.9529,12.67735 -14.0585,15.82454 -10.1144,10.25 21.1967,-29.95905 21.3827,-30.25 19.3397,-30.25 -0.468,0 -5.9805,3.62396 -12.25,8.05323 -11.295,7.9796 -10.8593,7.1988 2.628,-4.70981 3.8351,-3.38613 6.7241,-6.40981 6.4202,-6.7193 -1.6226,-1.6522 -40.8379,27.50746 -44.4907,33.08231 -2.8152,4.29649 -1.2364,8.64545 4.3242,11.91169 9.5001,5.58028 19.4465,9.24565 25.2784,9.31539 5.4983,0.0658 5.6084,0.009 10.0435,-5.18351 z m 282.6618,-13.52657 c 2.8955,-2.47019 5.4893,-5.44349 5.7641,-6.60734 1.0768,-4.56054 2.2899,-12.13083 1.9918,-12.42898 -0.9089,-0.90885 -17.5205,21.92037 -17.5205,24.07825 0,1.73389 4.6158,-0.64949 9.7646,-5.04193 z m -231.3155,1.43218 c 3.5304,-4.62856 3.3421,-6.03957 -0.6991,-5.23781 -6.8196,1.35301 -7.2301,1.2559 -7.5785,-1.79282 -0.3584,-3.13697 -0.8865,-3.07903 8.9957,-0.98695 2.1954,0.46478 2.726,0.17538 3,-1.63606 0.5151,-3.40587 6.306,-5.03051 11.9332,-3.34788 2.4198,0.72355 5.3887,1.32238 6.5976,1.33073 1.9904,0.0137 2.1029,-0.25763 1.1908,-2.87396 -0.5539,-1.58902 -2.5906,-4.73902 -4.5259,-7 -3.2739,-3.82487 -3.8786,-4.11193 -8.6908,-4.12617 -3.7081,-0.011 -4.7475,-0.2897 -3.6721,-0.98469 0.825,-0.53316 2.5125,-0.97627 3.75,-0.98469 1.8089,-0.0123 2.25,-0.57986 2.25,-2.89485 0,-2.21443 -1.0762,-3.76141 -4.6594,-6.69756 l -4.6594,-3.81803 0.6198,3.94756 c 0.715,4.55403 -0.9299,7.29274 -5.8686,9.77098 -1.6872,0.84663 -5.6247,4.45187 -8.75,8.01164 -6.6856,7.61499 -7.2917,10.85438 -2.9324,15.67346 2.3674,2.61714 8.2485,6.48321 10.4491,6.86895 0.3845,0.0674 1.847,-1.38244 3.25,-3.22185 z m -96.8541,-8.80286 c 1.0478,-1.18099 13.2675,-10.65294 27.155,-21.04877 13.8875,-10.39584 25.25,-19.50472 25.25,-20.24197 0,-0.73724 -0.8301,-2.36563 -1.8448,-3.61865 l -1.8448,-2.2782 -13.4052,7.0256 c -7.3728,3.86409 -18.1302,10.27948 -23.9052,14.25643 -11.5775,7.97285 -11.474,7.6697 1.0575,-3.09571 6.5217,-5.60265 11.6768,-8.88101 21.6699,-13.78109 l 13.1124,-6.42961 -4.9199,-5.52001 c -2.7059,-3.036 -4.9199,-6.40035 -4.9199,-7.47633 0,-1.9041 -0.6074,-1.93843 -22.75,-1.28567 -28.2913,0.83401 -43.1443,2.73995 -53.3936,6.85148 -6.5287,2.61904 -7.9695,3.64622 -9.8784,7.04276 -1.8289,3.25402 -2.1405,5.00037 -1.715,9.61175 0.8312,9.00901 4.473,15.62374 13.3743,24.29215 15.0544,14.66044 31.6307,21.70034 36.9577,15.69584 z m -24.2764,-10.4711 c -6.2914,-2.97691 -13.7188,-11.22364 -18.292,-20.31004 -2.8139,-5.59072 -3.1242,-6.94847 -2.381,-10.41948 1.2814,-5.98554 3.4297,-5.9807 3.262,0.007 -0.2534,9.05132 7.0842,20.65784 18.2619,28.88641 6.8097,5.01299 6.6396,5.38 -0.8509,1.83576 z m 2.2071,-3.33199 c -1.7697,-3.42221 -1.9632,-7.36368 -0.4961,-10.10505 1.4493,-2.70801 6.2329,-5.02365 8.0295,-3.8869 0.7925,0.50141 3.343,0.91856 5.6679,0.92698 3.2822,0.0119 4.5597,0.52316 5.7158,2.28773 1.8,2.74712 1.1453,5.8792 -1.5854,7.58455 -1.5005,0.93707 -2.3596,0.97113 -3.3688,0.13353 -1.0378,-0.86127 -1.8469,-0.63221 -3.4582,0.97906 -2.7631,2.76309 -4.0304,1.81076 -4.0304,-3.02858 0,-4.43667 -2.1386,-5.41901 -4.0445,-1.85779 -0.8772,1.63896 -0.778,2.45541 0.4648,3.82874 2.0025,2.21273 2.0696,6.08807 0.1054,6.08807 -0.8109,0 -2.1609,-1.32765 -3,-2.95034 z m -12.5156,-19.01219 c -0.5869,-2.1794 -0.7697,-5.14721 -0.4063,-6.59515 0.853,-3.39848 6.0563,-6.69461 8.502,-5.38572 0.9695,0.51887 3.7413,0.9434 6.1595,0.9434 3.6077,0 4.6254,0.42725 5.6709,2.38084 0.7008,1.30946 0.9789,3.31144 0.6179,4.44885 -0.7726,2.434 -4.2962,3.82818 -5.8212,2.30321 -0.7544,-0.75436 -1.7755,-0.29995 -3.4948,1.5552 -2.9176,3.14819 -4.1989,1.94268 -4.2228,-3.97328 -0.014,-3.47361 -0.1799,-3.69708 -2.0153,-2.71482 -2.0969,1.12223 -2.7572,5.41401 -1,6.5 1.8428,1.1389 1.1247,4.5 -0.9615,4.5 -1.439,0 -2.2456,-1.05528 -3.0284,-3.96253 z m 49.0902,-10.92051 c 8.728,-4.50167 13.6671,-6.37517 19.9477,-7.56658 7.0514,-1.33763 8.5593,-1.37164 9.7119,-0.21903 1.1526,1.15261 0.1516,1.56418 -6.4477,2.65079 -4.2967,0.70748 -12.9872,3.20952 -19.3122,5.56009 -16.576,6.16016 -16.6518,6.1519 -3.8997,-0.42527 z m -13.6003,-9.74341 c 12.4088,-4.26981 13.4412,-4.45961 22.702,-4.1734 6.0573,0.1872 10.1709,0.76944 10.9501,1.54985 0.9982,0.99986 -0.7717,1.25 -8.8449,1.25 -7.611,0 -13.3422,0.73769 -23.3072,3 -7.2679,1.65 -13.5037,2.96553 -13.8572,2.9234 -0.3535,-0.0421 5.2072,-2.08956 12.3572,-4.54985 z m 80.5,35.63696 c 1.925,-2.03429 5.5794,-4.61786 8.121,-5.74129 5.6698,-2.50625 6.5826,-3.83431 4.339,-6.31348 -1.4319,-1.5822 -1.5117,-2.1885 -0.4555,-3.46115 0.7043,-0.84861 1.0652,-1.75821 0.8021,-2.02135 -0.6832,-0.68316 -10.3855,2.77881 -16.8291,6.00493 -10.3291,5.17151 -12.1769,8.75456 -7.4263,14.40033 2.2903,2.72186 2.8273,2.91938 5.25,1.93133 1.4844,-0.60535 4.2738,-2.76504 6.1988,-4.79932 z m 97.181,0.84054 c 4.8128,-5.77127 7.1048,-11.59723 7.5718,-19.24627 l 0.4339,-7.10478 -3.9463,-3.80936 -3.9463,-3.80937 -0.7099,10.30725 c -0.795,11.54336 -2.3676,16.0348 -7.9327,22.65609 -2.0083,2.38954 -3.6515,4.58556 -3.6515,4.88006 0,0.29449 2.112,0.29738 4.6933,0.006 3.7615,-0.42398 5.2481,-1.19427 7.4877,-3.88005 z m 125.543,-5.40842 c 1.7904,-5.82861 1.7932,-6.16851 0.074,-9 -0.9829,-1.61845 -1.7894,-4.63013 -1.7923,-6.69263 -0.01,-3.33193 -0.284,-3.75 -2.5053,-3.75 -3.0432,0 -3.0883,0.44323 -0.3909,3.84227 1.9583,2.46778 2.067,3.47966 1.5201,14.15773 -0.6183,12.07345 -0.2268,12.25596 3.0948,1.44263 z m -137.5439,2.80737 c 6.2164,-6.41234 7.5197,-9.38401 8.3648,-19.07267 0.5897,-6.75976 0.4092,-8.95267 -0.9926,-12.06136 l -1.7133,-3.79948 -27.6695,-0.65396 c -15.2182,-0.35968 -31.607,-0.94773 -36.4195,-1.30678 l -8.75,-0.65281 0,5.21551 c 0,4.86673 0.3511,5.61488 5.25,11.1874 13.9536,15.8722 33.3453,25.44009 52.2876,25.79876 4.7463,0.0899 5.3038,-0.17922 9.6425,-4.65461 z m -43.6113,-21.57321 c -19.0302,-5.89757 -19.9656,-6.30625 -20.6939,-9.04058 -0.7204,-2.70474 -0.6132,-2.83429 1.9312,-2.33268 1.4816,0.29212 12.6979,2.00183 24.925,3.79937 12.2271,1.79754 22.1104,3.38894 21.9629,3.53645 -0.1475,0.1475 -7.3951,-0.17991 -16.1058,-0.72759 -8.7106,-0.54767 -15.9908,-0.84254 -16.178,-0.65526 -0.1873,0.18729 5.4938,2.76115 12.6246,5.71971 11.7738,4.88489 14.399,6.16374 12.2152,5.95058 -0.4125,-0.0403 -9.719,-2.85276 -20.6812,-6.25 z m 159.4312,18.32321 c 0,-1.1 -0.506,-2 -1.1246,-2 -0.6185,0 -3.2161,-2.1375 -5.7724,-4.75 -2.5564,-2.6125 -7.049,-6.8875 -9.9836,-9.5 -5.2768,-4.69757 -5.5075,-6.36085 -0.4199,-3.02734 l 2.6291,1.72266 -0.7612,-2.97266 c -1.0089,-3.94053 -2.5412,-14.45726 -2.4728,-16.97266 0.03,-1.1 1.0732,1.71488 2.3185,6.25529 2.5937,9.45681 3.5335,11.01607 3.7137,6.16138 0.08,-2.14884 0.4282,-1.09862 0.9391,2.83021 1.0394,7.99386 1.8676,9.32976 3.4967,5.64036 1.2465,-2.82286 1.2768,-2.77179 1.3562,2.29018 0.068,4.35013 0.5022,5.5086 2.7161,7.25 3.1653,2.48986 4.2292,2.59034 5.0405,0.47608 0.6718,-1.75072 -0.846,-5.72911 -10.4549,-27.4035 -3.5355,-7.975 -6.8562,-15.60675 -7.3793,-16.95945 -0.9407,-2.43286 -0.9828,-2.41057 -3.8915,2.06103 -2.4788,3.8107 -3.1154,6.17827 -4.0541,15.07852 -0.9656,9.15461 -0.8904,11.32596 0.5659,16.3353 2.0002,6.88051 6.396,12.73871 12.4843,16.63758 5.4247,3.47392 11.0542,3.90527 11.0542,0.84702 z m -211,-12.54246 c 1.375,-1.17836 5.0659,-2.6908 8.202,-3.36098 4.3528,-0.93019 5.863,-1.72596 6.3827,-3.36329 0.4246,-1.33805 0.2182,-2.29898 -0.5489,-2.55467 -0.6763,-0.22543 -2.7079,-1.70783 -4.5147,-3.29423 -3.5816,-3.14469 -5.1085,-3.40436 -10.7711,-1.83179 -2.6977,0.7492 -3.75,1.58944 -3.75,2.99442 0,1.65255 0.7307,1.9647 4.75,2.02908 l 4.75,0.0761 -3.112,1.17392 c -1.7116,0.64566 -4.768,2.63925 -6.792,4.4302 -3.6441,3.22457 -3.6624,3.27961 -1.8879,5.65241 1.9169,2.56326 2.0729,2.52152 7.2919,-1.95115 z m 253.0497,3.01678 c 2.5913,-1.34001 2.9503,-2.06302 2.9503,-5.94098 0,-6.01894 1.7112,-6.64204 2.5671,-0.93476 l 0.6954,4.63729 4.3469,-0.59581 c 5.7421,-0.78704 8.2305,-2.42064 9.9791,-6.55112 1.6135,-3.81139 1.1164,-6.56591 -1.7513,-9.70436 -1.9276,-2.10952 -1.9247,-2.11708 1.0345,-2.70892 3.487,-0.69741 4.6697,-3.39335 3.049,-6.95048 -1.4179,-3.1118 -4.8213,-4.72518 -9.9678,-4.72518 -3.5768,0 -3.9529,-0.24413 -3.9529,-2.56574 0,-5.99331 -3.9403,-8.16559 -12.4869,-6.88395 -6.3917,0.95849 -8.6007,3.04727 -9.2423,8.73915 l -0.5309,4.71054 -5.1474,0 c -6.7345,0 -9.5925,1.96704 -9.5925,6.60216 0,2.41461 0.7924,4.28113 2.5736,6.06236 2.283,2.28301 3.1099,2.50248 7.3225,1.94366 5.9132,-0.78443 7.0223,0.15507 3.0412,2.57614 -2.6412,1.6062 -3.0136,2.35379 -2.7464,5.51323 0.2689,3.18012 0.8818,3.957 4.7164,5.97875 5.1226,2.70086 9.0066,2.9367 13.1424,0.79802 z m -6.3947,-8.30306 c -1.966,-2.1724 -2.1304,-5.43717 -0.4123,-8.18828 2.4717,-3.95774 -4.0276,-8.06625 -7.8032,-4.93279 -1.7957,1.49034 -1.8256,0.0423 -0.047,-2.30019 0.9621,-1.26737 2.746,-1.75 6.4682,-1.75 l 5.1398,0 0,-4.5 c 0,-2.83333 -0.4445,-4.5 -1.2,-4.5 -0.842,0 -0.8851,-0.31488 -0.1447,-1.05536 1.9566,-1.95659 6.391,0.0371 7.0143,3.15368 0.7788,3.89372 2.0573,4.72176 7.8558,5.08772 4.4408,0.28027 5.0123,0.58191 5.3265,2.81121 0.3394,2.40801 0.283,2.43481 -1.5787,0.75 -2.6065,-2.35886 -6.2732,-2.30172 -6.2732,0.0978 0,1.01476 0.9,2.6595 2,3.65499 2.3421,2.11957 2.4709,4.05221 0.5,7.5 -1.3932,2.43709 -1.43,2.44426 -1.4646,0.28518 -0.039,-2.41329 -2.6745,-4.28518 -6.0342,-4.28518 -2.61,0 -7.6053,5.69217 -7.183,8.18506 0.3878,2.28876 -0.082,2.28576 -2.1632,-0.0138 z m 10.139,-13.73665 c 0.1617,-1.12473 -0.585,-2.84049 -1.6594,-3.81281 -1.876,-1.69772 -1.9796,-1.68561 -2.6114,0.30517 -0.9485,2.98829 0.335,6.24634 2.3122,5.86968 0.9156,-0.17439 1.7969,-1.23731 1.9586,-2.36204 z m -263.794,6.56539 c 0,-2.54351 0.3853,-3 2.5322,-3 1.6753,0 2.8005,-0.72524 3.325,-2.14298 0.4462,-1.20633 2.2897,-2.62682 4.2178,-3.25 3.2712,-1.0573 3.4387,-1.34647 3.7301,-6.4382 0.3386,-5.91823 -0.6662,-7.78649 -5.217,-9.69998 -2.8643,-1.20433 -2.877,-1.24384 -0.7646,-2.37435 6.3438,-3.39511 16.8265,10.08549 13.164,16.92882 -0.9432,1.76238 -0.8224,2.38554 0.6835,3.52684 2.611,1.97895 3.0038,1.82141 4.2303,-1.69672 2.3163,-6.64455 -4.6075,-19.85466 -12.3875,-23.63448 -6.1274,-2.97689 -16.3334,-1.82659 -23.2664,2.62229 -6.3025,4.04428 -12.2474,10.4571 -12.2474,13.2113 0,3.12671 2.7742,7.91246 7.8776,13.58959 4.2799,4.76113 4.9743,5.15012 9.3724,5.25 4.6351,0.10526 4.75,0.0353 4.75,-2.89213 z m 80.2995,-13.65838 c 12.4425,-0.36212 22.4173,-0.9909 22.1661,-1.3973 -1.3347,-2.15951 1.0227,-7.0017 4.5428,-9.33117 2.1174,-1.40121 5.1528,-4.89926 6.8975,-7.94876 3.0149,-5.26947 3.1188,-5.85287 3.1983,-17.97248 0.076,-11.55522 -0.1272,-12.99308 -2.6204,-18.5486 -1.9747,-4.40023 -3.8179,-6.77937 -6.8432,-8.83284 l -4.1406,-2.81047 3.3698,-0.3223 c 3.6583,-0.34988 8.1011,2.93666 10.5743,7.8223 4.3302,8.55427 4.3259,30.93157 -0.01,40.73709 -1.2731,2.8804 -3.467,6.74787 -4.8754,8.59439 -3.3221,4.35548 -3.2312,5.66852 0.3924,5.66852 2.555,0 3.2321,-0.63051 5.0214,-4.67539 5.0177,-11.34331 7.0255,-20.48545 7.0255,-31.98972 0,-25.25472 -5.3403,-32.79923 -21.8911,-30.92672 -6.006,0.6795 -23.5192,7.65231 -39.6089,15.77007 -8.0668,4.06997 -9.0228,4.88832 -35.2812,30.20042 l -9.2812,8.94675 2.4662,2.58729 c 1.3565,1.42302 3.858,5.3998 5.5591,8.8373 l 3.0928,6.25 13.8105,0 c 7.5958,0 23.9908,-0.29627 36.4333,-0.65838 z m -41.2995,-4.20745 c 0,-3.15763 15.9214,-11.71357 28.2755,-15.1949 5.6235,-1.58466 10.6745,-2.87443 11.2245,-2.86615 0.55,0.008 -3.8027,1.96899 -9.6726,4.35712 -5.87,2.38813 -14.645,6.71403 -19.5,9.6131 -4.8551,2.89907 -9.1649,5.45187 -9.5774,5.67287 -0.4125,0.221 -0.75,-0.49092 -0.75,-1.58204 z m -6.2623,-5.02941 c -0.5801,-2.21796 11.6841,-14.85549 17.0053,-17.52309 5.7961,-2.9057 18.257,-8.47606 18.257,-8.1614 0,0.16857 -4.8884,3.53875 -10.8632,7.48928 -6.9829,4.61714 -12.8997,9.48807 -16.5646,13.63662 -3.1357,3.54961 -6.0698,6.45383 -6.5201,6.45383 -0.4504,0 -1.0419,-0.85286 -1.3144,-1.89524 z m 70.2623,-4.77602 c 0,-0.91919 0.6859,-2.42911 1.5241,-3.35538 1.7721,-1.95813 1.0555,-4.59279 -1.6417,-6.03632 -1.7097,-0.91496 -1.8824,-0.60652 -1.8824,3.36111 0,2.40268 -0.2842,4.65268 -0.6315,5 -1.0374,1.03744 -4.3685,-1.24121 -4.3685,-2.98832 0,-1.47955 -0.1516,-1.48263 -1.7506,-0.0355 -3.4357,3.10926 -8.1852,-2.12636 -6.0935,-6.71717 1.0015,-2.19811 1.8095,-2.5593 5.7546,-2.57246 2.5242,-0.008 5.2379,-0.42557 6.0304,-0.92698 1.7966,-1.13675 6.5802,1.17889 8.0295,3.8869 1.3575,2.53657 1.3049,6.35706 -0.1309,9.50834 -1.2992,2.8515 -4.8395,3.49217 -4.8395,0.87578 z m -70,-5.74078 c 0,-1.90533 3.1485,-4.94709 14.9871,-14.47908 8.2428,-6.63686 17.6928,-13.43292 21,-15.10235 3.3071,-1.66943 6.0129,-2.86755 6.0129,-2.66251 0,0.20505 -2.3625,1.94841 -5.25,3.87412 -2.8875,1.92572 -12.0823,9.63943 -20.433,17.14158 -8.3506,7.50216 -15.4381,13.64028 -15.75,13.64028 -0.3118,0 -0.567,-1.08542 -0.567,-2.41204 z m 71,-21.25922 c 0,-0.91919 0.6859,-2.42911 1.5241,-3.35538 1.7721,-1.95813 1.0555,-4.59279 -1.6417,-6.03632 -1.7097,-0.91496 -1.8824,-0.60652 -1.8824,3.36111 0,2.40268 -0.2842,4.65268 -0.6315,5 -1.0555,1.05555 -4.3685,-1.25568 -4.3685,-3.04762 0,-1.5531 -0.1225,-1.5566 -1.6325,-0.0466 -1.2723,1.27228 -2.1362,1.40299 -3.9152,0.59239 -2.7988,-1.27519 -3.6794,-4.20368 -2.2245,-7.39695 0.9209,-2.02112 1.8167,-2.40176 5.6827,-2.41466 2.5242,-0.008 5.2379,-0.42557 6.0304,-0.92698 1.7966,-1.13675 6.5802,1.17889 8.0295,3.8869 1.3575,2.53657 1.3049,6.35706 -0.1309,9.50834 -1.2992,2.85149 -4.8395,3.49216 -4.8395,0.87577 z m 129.1713,37.01627 c 1.0058,-0.91024 1.8287,-2.34519 1.8287,-3.18878 0,-3.36327 -10.3537,-29.66403 -15.2511,-38.74122 -5.2458,-9.72288 -6.9812,-11.58266 -8.961,-9.6029 -0.7703,0.77025 1.2201,6.44239 6.977,19.88279 4.4301,10.3428 9.0839,22.0676 10.3417,26.0551 1.2579,3.9875 2.5006,7.25 2.7615,7.25 0.2609,0 1.2974,-0.74474 2.3032,-1.65499 z m 17.5564,-14.14528 c 2.2024,-0.65985 4.7396,-1.19973 5.6383,-1.19973 2.4044,0 1.9895,-1.72095 -0.866,-3.59196 -1.375,-0.90093 -2.5,-2.21316 -2.5,-2.91606 0,-0.7029 -0.675,-1.53702 -1.5,-1.85361 -0.825,-0.31658 -1.5,-1.03972 -1.5,-1.60699 0,-1.89356 3.068,-1.06109 5.4124,1.46862 3.106,3.35143 7.9539,3.39679 10.1175,0.0947 1.3944,-2.12801 1.41,-2.80284 0.1354,-5.85326 -1.2505,-2.99296 -2.0077,-3.524 -5.7385,-4.0244 -7.6858,-1.03089 -12.8101,3.61377 -17.3791,15.7524 -2.3763,6.31333 -2.4287,6.86 -0.9348,9.74896 l 1.5827,3.06059 1.7639,-3.93975 c 1.4128,-3.1557 2.5608,-4.17852 5.7682,-5.13948 z m -261.7277,1.30027 c 4.0433,-3.025 6.5974,-5.5 5.6757,-5.5 -1.1207,0 -1.6757,-0.82792 -1.6757,-2.5 0,-2.98696 1.0771,-3.17728 3.4076,-0.6021 0.9447,1.04385 3.2721,2.07938 5.1721,2.3012 l 3.4545,0.40329 -2.7671,-2.32332 c -2.8646,-2.40516 -13.5563,-8.27907 -15.0696,-8.27907 -0.4727,0 -1.4822,1.16339 -2.2432,2.58531 -0.7609,1.42193 -2.5326,3.17948 -3.9369,3.90569 -3.937,2.03592 -9.9408,0.36931 -10.0021,-2.77654 -0.01,-0.43204 1.9601,-1.6323 4.3745,-2.66724 2.4144,-1.03493 4.7023,-2.38725 5.0842,-3.00514 0.3819,-0.61789 1.5564,-0.84981 2.6102,-0.51537 1.6461,0.52245 1.9158,0.10017 1.9158,-2.99916 0,-5.65511 3.1422,-10.37875 12.7794,-19.21079 8.3063,-7.61242 9.0028,-8.55411 9.9842,-13.5 0.5803,-2.92422 0.9513,-5.42384 0.8245,-5.55472 -0.4825,-0.49782 -23.2894,25.40331 -25.3048,28.73796 -1.1635,1.925 -2.4179,5.13223 -2.7876,7.12719 -0.4329,2.33583 -1.6944,4.38295 -3.5435,5.75 -2.9913,2.21158 -8.3834,2.8521 -9.4522,1.12281 -0.3785,-0.6125 -8.3342,-1 -20.5305,-1 -18.9463,0 -20.1807,-0.11863 -25.441,-2.44497 -3.0407,-1.34474 -5.5285,-2.26295 -5.5285,-2.04047 0,1.43139 6.4839,6.13024 11.8432,8.58272 5.8298,2.66777 7.2743,2.90272 17.8461,2.90272 7.4334,0 13.3906,0.54876 16.8386,1.55112 4.7273,1.37428 5.412,1.91585 6.0057,4.75 0.9145,4.36604 7.1259,10.69888 10.4936,10.69888 1.6196,0 5.4306,-2.10179 9.9728,-5.5 z m 269,-31.99065 c 15.3953,-13.15161 24.9676,-23.94653 24.9861,-28.17756 0.01,-1.74252 0.287,-3.88002 0.6209,-4.75 0.8822,-2.29893 -0.7362,-2.01621 -11.666,2.03803 -11.5609,4.2883 -21.8624,11.52309 -26.691,18.7452 l -3.25,4.86101 0,-3.31541 c 0,-2.37333 -0.9235,-4.28571 -3.25,-6.73016 l -3.25,-3.41475 3.1321,1.58184 3.132,1.58183 0.619,-3.09495 c 0.4459,-2.22963 0.01,-4.107 -1.5678,-6.71469 l -2.1869,-3.61974 2.1386,1.86225 c 2.1099,1.83733 2.1475,1.8268 2.8034,-0.78679 0.3657,-1.45697 0.3937,-4.00486 0.062,-5.66196 -0.3954,-1.97705 -0.2423,-2.79024 0.4454,-2.36525 0.5764,0.35622 1.9196,-0.14115 2.9849,-1.10528 2.2696,-2.05389 2.4544,-0.97208 0.437,2.55703 -0.786,1.375 -1.4451,3.78998 -1.4645,5.36663 -0.029,2.38146 0.303,2.77811 1.9645,2.34362 2.5523,-0.66743 2.5282,0.0986 -0.091,2.88609 -1.1498,1.22388 -1.9373,2.91445 -1.75,3.75682 0.2685,1.20769 1.0807,0.92454 3.8405,-1.33896 l 3.5,-2.87055 0,-10.32182 c 0,-9.5707 -1.6185,-18.83104 -3.2885,-18.815 -0.3913,0.004 -1.7207,1.48929 -2.9541,3.30118 -1.2335,1.81189 -4.3415,5.74632 -6.9067,8.74317 -2.5652,2.99685 -5.7668,7.92382 -7.1147,10.94882 -2.3291,5.22715 -2.3896,5.84413 -1.2191,12.43684 0.7503,4.22607 2.3985,8.83339 4.2178,11.79009 2.7461,4.463 3.0954,4.70931 4.344,3.06316 1.7365,-2.28954 1.7361,-1.06168 0,5.46749 -0.8296,3.11616 -1.0939,6.37458 -0.649,8 0.7237,2.64356 0.8647,2.51815 3.9115,-3.47906 1.9438,-3.82601 3.2064,-7.86886 3.2791,-10.5 0.097,-3.49349 0.2343,-3.78552 0.75,-1.59162 l 0.6317,2.6869 3.9001,-3.5879 c 2.2604,-2.07949 4.4395,-5.31119 5.1831,-7.6869 0.8451,-2.69989 1.3059,-3.33101 1.3499,-1.849 0.037,1.2375 0.5469,2.25 1.1336,2.25 2.3068,0 8.3393,-5.68535 10.0663,-9.48687 1.0028,-2.20752 1.833,-3.18906 1.8451,-2.18157 0.02,1.70248 0.2862,1.673 3.7719,-0.41823 l 3.75,-2.24979 -2.9824,3.21556 c -2.4904,2.685 -2.7378,3.37022 -1.5,4.15292 1.2776,0.80784 1.2587,0.93947 -0.1369,0.95267 -0.8907,0.008 -4.0062,1.91567 -6.9233,4.23834 -4.9716,3.9584 -5.1553,4.25812 -2.9317,4.78302 2.0424,0.48216 1.5452,0.92276 -3.5768,3.16972 -3.2719,1.43535 -7.4997,4.23299 -9.395,6.21698 l -3.4462,3.60725 2.9461,0.0742 2.9462,0.0742 -3.7666,1.67583 c -2.2962,1.02162 -4.7239,3.23738 -6.2188,5.67584 -3.0767,5.01879 -3.1745,6.43743 -0.2646,3.84099 1.2375,-1.1042 7.425,-6.42844 13.75,-11.83164 z m -66.75,-11.9014 c 1.2243,-0.9294 1.75,-2.72211 1.75,-5.96819 0,-6.25855 2.5071,-6.41234 3.4371,-0.21084 l 0.6641,4.42891 3.6994,-0.56998 c 7.9979,-1.23228 11.1994,-4.55184 11.1994,-11.6124 0,-2.13161 -0.6783,-3.61796 -2.0388,-4.46761 -2.3332,-1.45712 -1.7533,-3.20784 1.0626,-3.20784 3.0435,0 4.3139,-3.44637 2.5369,-6.88255 -1.6241,-3.14067 -5.9007,-5.11745 -11.0712,-5.11745 -2.8522,0 -3.1607,-0.26921 -2.753,-2.40213 0.8259,-4.32037 -2.7233,-6.59787 -10.2819,-6.59787 -8.1698,0 -11.4546,2.52805 -11.4546,8.81566 l 0,3.90656 -6.0374,0.54745 c -7.3433,0.66587 -8.9626,1.87247 -8.9626,6.67846 0,5.73338 5.2052,9.70195 10.6927,8.15242 4.8141,-1.35937 5.7496,-0.0856 1.8722,2.54913 -3.0407,2.0662 -3.4906,2.84329 -2.977,5.14218 0.3327,1.48948 1.9186,3.94564 3.5243,5.45814 2.4319,2.29083 3.7933,2.74469 8.1536,2.7182 2.8788,-0.0175 6.0217,-0.6296 6.9842,-1.36025 z m -7.0757,-8.9224 c -2.5223,-2.68494 -2.7262,-4.40083 -0.7851,-6.60681 0.9564,-1.08684 1.1197,-2.28669 0.5241,-3.85091 -1.1155,-2.92933 -3.4166,-3.77515 -6.4771,-2.38073 -1.3399,0.61051 -2.4362,0.72477 -2.4362,0.25391 0,-1.69172 2.5902,-2.8892 7.75,-3.58288 l 5.25,-0.70581 0,-3.90616 c 0,-3.00972 -0.3901,-3.90616 -1.7,-3.90616 -1.2155,0 -1.3927,-0.30727 -0.6218,-1.07818 0.593,-0.593 2.3562,-0.9305 3.9182,-0.75 2.2835,0.26388 3.0301,1.01394 3.8103,3.82818 1.0818,3.90183 2.4121,5.22977 4.4775,4.46937 0.7614,-0.2803 2.8989,-0.22549 4.75,0.12179 2.5172,0.47221 3.3658,1.14673 3.3658,2.67512 0,1.84299 -0.1719,1.89849 -1.75,0.56508 -0.9625,-0.81324 -2.5375,-1.29998 -3.5,-1.08166 -2.1387,0.48512 -2.3232,4.0931 -0.25,4.88867 1.5351,0.58909 2.0106,4.86756 0.8709,7.83742 -0.5348,1.39367 -0.797,1.30294 -1.75,-0.60541 -0.6165,-1.23462 -2.5792,-2.62231 -4.3616,-3.08375 -2.8956,-0.74966 -3.557,-0.49015 -6.2114,2.43719 -1.8271,2.01497 -2.7672,3.94986 -2.4419,5.02618 0.7041,2.3303 0.1717,2.2067 -2.4317,-0.56445 z m 10.7939,-12.43555 c -0.039,-2.16129 -2.2916,-5.25 -3.8284,-5.25 -0.636,0 -1.1398,1.54722 -1.1398,3.5 0,3.06667 0.3095,3.5 2.5,3.5 1.7264,0 2.4902,-0.54152 2.4682,-1.75 z m -111.4682,252.75 c 0.3399,-0.55 2.3915,-1 4.559,-1 2.1676,0 3.941,-0.43417 3.941,-0.96482 0,-2.02192 -4.173,-3.03518 -12.5,-3.03518 -4.7473,0 -9.4746,-0.45122 -10.505,-1.0027 -1.2806,-0.68532 -2.0833,-0.6634 -2.5361,0.0693 -0.3644,0.58959 -2.6271,0.95116 -5.0282,0.80351 -2.4011,-0.14766 -4.6803,0.0462 -5.0648,0.43073 -0.3846,0.38456 -2.0164,0.6992 -3.6262,0.6992 -2.0251,0 -3.0786,-0.58006 -3.4192,-1.88257 -0.3627,-1.38676 -1.7588,-2.05056 -5.3009,-2.52045 -2.6448,-0.35084 -5.3612,-1.30368 -6.0366,-2.11743 -1.0644,-1.28251 -0.2794,-1.47955 5.8946,-1.47955 5.0394,0 7.1179,-0.36557 7.1071,-1.25 -0.037,-3.03734 -1.9611,-4.01535 -8.8712,-4.50977 -5.8986,-0.42208 -7.1135,-0.80629 -7.1135,-2.24964 0,-1.75533 3.5626,-2.99063 8.625,-2.99063 2.0848,0 2.375,-0.46594 2.375,-3.81381 l 0,-3.81381 -6.25,0.3927 c -5.1827,0.32565 -6.6529,0.83741 -8.6094,2.99679 -2.4351,2.68761 -2.4785,3.82279 -0.535,13.98813 0.3931,2.05573 0.2217,3.25 -0.4664,3.25 -1.9944,0 -4.1392,-5.83627 -4.1392,-11.26325 0,-4.64451 0.3989,-5.74469 2.9787,-8.21633 2.8171,-2.69893 3.4587,-2.85375 11.8276,-2.85375 8.2488,0 9.1526,0.209 13.3285,3.08205 2.4638,1.69513 6.0978,4.87322 8.0756,7.06242 2.6383,2.92026 4.678,4.16316 7.6587,4.66674 2.2344,0.3775 5.6811,1.97259 7.6592,3.54464 6.5268,5.18683 12.1262,6.34761 26.8662,5.56945 7.1693,-0.37848 12.6779,-0.32901 12.2414,0.10994 -0.4364,0.43895 -6.0096,1.02309 -12.3848,1.29809 -8.0131,0.34565 -11.7188,0.88586 -12.0045,1.75 -0.3153,0.95384 2.4497,1.25 11.6701,1.25 7.3889,0 12.0833,0.38851 12.0833,1 0,0.58333 -3.3333,1 -8,1 -6.4444,0 -8,0.29167 -8,1.5 0,1.2165 -1.6177,1.5 -8.559,1.5 -5.4514,0 -8.3346,-0.36308 -7.941,-1 z m -125,-9.94528 c -3.8725,-1.83247 -3.9093,-1.89541 -1.1544,-1.97377 4.0561,-0.11538 8.6544,-3.66486 8.6544,-6.68043 0,-3.20597 -2.1946,-3.97436 -5.3835,-1.88492 -1.3997,0.91716 -5.3251,1.91966 -8.7229,2.22776 l -6.1779,0.5602 2.2682,-3.06791 c 2.1693,-2.93408 2.6812,-3.09887 11.7368,-3.77779 l 9.4686,-0.70989 -0.5726,-4.12399 c -1.4483,-10.43044 -1.8338,-14.62398 -1.3443,-14.62398 1.7169,0 4.7276,7.64082 4.7276,11.99814 0,2.68611 0.4677,5.17288 1.0394,5.52618 0.5716,0.35329 2.7132,-1.18891 4.7592,-3.42711 3.1325,-3.42696 4.5078,-4.16166 8.7106,-4.65346 4.2134,-0.49303 4.7474,-0.37836 3.4279,0.73613 -0.8595,0.72606 -2.3692,2.69811 -3.3547,4.38233 -0.9854,1.68422 -3.0934,3.93422 -4.6842,5 -1.9598,1.31294 -2.8934,2.78333 -2.8953,4.55998 0,2.29404 0.5063,2.70362 4.066,3.27284 3.8514,0.61586 8.9311,4.52114 8.9311,6.86622 0,1.21146 -8.9262,0.16712 -15.5117,-1.81481 -6.1407,-1.84809 -6.4883,-1.82513 -6.4883,0.42856 0,1.3 -0.9583,2.06667 -3.125,2.5 -4.0765,0.8153 -3.7549,0.866 -8.375,-1.32028 z M 52.743299,453.56531 c -0.003,-0.4125 -1.3524,-28.875 -2.99797,-63.25 -3.5203,-73.53673 -3.39849,-68 -1.49601,-68 0.825,0 1.50085,0.7875 1.50189,1.75 10e-4,0.9625 1.35019,29.65 2.99811,63.75 3.52233,72.88671 3.37827,66.5 1.5,66.5 -0.825,0 -1.50271,-0.3375 -1.50602,-0.75 z m 24.55814,-1.33278 c -0.64347,-1.77615 -21.55212,-127.30108 -21.55212,-129.38805 0,-0.84104 0.60231,-1.52917 1.33847,-1.52917 1.91384,0 23.50183,129.5597 21.86133,131.20019 -0.84565,0.84566 -1.26487,0.77366 -1.64768,-0.28297 z m 7.09548,-67.06704 c -10.35393,-34.18241 -19.07602,-62.80305 -19.38239,-63.60143 -0.38597,-1.00582 0.0106,-1.34229 1.29127,-1.09565 1.51665,0.29208 5.21985,11.48002 20.63822,62.35143 10.3345,34.09751 18.793401,62.55797 18.797601,63.24547 0,0.6875 -0.5609,1.25 -1.2558,1.25 -0.8025,0 -8.132101,-22.67603 -20.088901,-62.14982 z m 37.935701,55.9879 c -4.2876,-10.30996 -47.538711,-120.5839 -47.786701,-121.83808 -0.16313,-0.825 0.31323,-1.5 1.05858,-1.5 0.86254,0 10.25082,22.53833 25.825921,62 13.4588,34.1 24.549,62.39375 24.6448,62.875 0.096,0.48125 -0.3948,1.08338 -1.0901,1.33808 -0.7277,0.26653 -1.8535,-0.95372 -2.6525,-2.875 z m -8.6396,-67.5861 C 96.399019,341.92216 82.117819,315.70017 81.957019,315.29621 c -0.1607,-0.40397 0.3354,-0.97531 1.1024,-1.26965 0.999,-0.38337 10.3718,15.88868 33.042301,57.36447 17.4062,31.84481 31.6476,58.08205 31.6476,58.30498 0,0.22293 -0.5878,0.6309 -1.3063,0.90661 -0.8818,0.33837 -11.5251,-18.19725 -32.75,-57.03533 z m -71.945301,32.99802 c -8.9e-4,-9.2125 -0.29871,-31.9375 -0.66184,-50.5 -0.57992,-29.64521 -0.47756,-33.75 0.84166,-33.75 1.2762,0 1.60106,3.6308 2.16183,24.16193 0.36297,13.28906 0.65995,36.01406 0.65995,50.5 0,22.74495 -0.20463,26.33807 -1.5,26.33807 -1.27357,0 -1.50024,-2.52849 -1.5016,-16.75 z m 123.243901,9.55843 c -2.1489,-2.91964 -18.6609,-25.78343 -36.6934,-50.80843 -32.968601,-45.75306 -39.199101,-53.99699 -31.742101,-42 29.947101,48.17964 42.035101,68.55806 41.176501,69.41667 -0.6198,0.61982 -1.2994,0.63214 -1.8384,0.0333 -0.4703,-0.52247 -11.7348,-18.59528 -25.0323,-40.16177 -21.811401,-35.37469 -24.052701,-39.41126 -22.904401,-41.25 0.7001,-1.12101 1.8129,-2.0382 2.4729,-2.0382 1.2506,0 81.007501,109.74601 80.568901,110.86324 -0.7435,1.8937 -2.5041,0.70542 -6.0077,-4.05481 z M 60.749319,415.81802 c 0,-0.82352 -2.25,-22.06421 -5,-47.20155 -2.75,-25.13734 -5,-45.83856 -5,-46.00271 0,-0.16415 0.63545,-0.29845 1.4121,-0.29845 0.8615,0 1.63932,1.46219 1.99484,3.75 0.88402,5.6889 9.59306,86.53371 9.59306,89.05111 0,1.2879 -0.62144,2.19889 -1.5,2.19889 -0.825,0 -1.5,-0.67378 -1.5,-1.49729 z m 21.5416,-1.66955 c -1.0364,-3.00759 -21.5416,-89.03816 -21.5416,-90.379 0,-0.79979 0.57181,-1.45416 1.27069,-1.45416 0.849,0 4.87133,15.01633 12.12083,45.25 5.96758,24.8875 10.90828,45.64375 10.97928,46.125 0.2169,1.46892 -2.3383,1.88269 -2.8292,0.45816 z m 3.0548,-48.58316 c -8.18767,-24.6125 -15.07224,-45.25443 -15.29902,-45.87096 -0.22678,-0.61652 0.20498,-1.35784 0.95946,-1.64736 1.02863,-0.39472 5.19718,10.81053 16.66406,44.79392 8.4108,24.92618 14.992801,45.80499 14.626701,46.39736 -0.3661,0.59237 -0.9804,1.07704 -1.365,1.07704 -0.3847,0 -7.398501,-20.1375 -15.586201,-44.75 z M 142.05392,356.512 c -23.7574,-27.33318 -43.219901,-50.14669 -43.250001,-50.69669 -0.03,-0.55 0.4968,-1 1.1707,-1 1.519901,0 87.816301,98.64219 87.429601,99.9375 -0.154,0.51562 -0.7018,1.05414 -1.2174,1.19669 -0.5156,0.14256 -20.3754,-22.10431 -44.1329,-49.4375 z m -45.176001,2.09686 c -11.7914,-26.49546 -17.77466,-41.04749 -17.13882,-41.68333 0.53732,-0.53729 1.21022,-0.74355 1.49542,-0.45837 0.7599,0.7599 36.514801,81.09732 36.514801,82.04483 0,0.44183 -0.6201,0.80332 -1.3779,0.80332 -0.8513,0 -8.3016,-15.55767 -19.493501,-40.70645 z m 57.253401,-13.93215 c -26.3351,-25.10123 -47.882,-46.13873 -47.882,-46.75 0,-0.61127 0.4896,-1.1114 1.0881,-1.1114 1.6806,0 97.469,91.59865 96.8447,92.60877 -0.303,0.49018 -0.9149,0.89123 -1.3598,0.89123 -0.445,0 -22.3559,-20.53737 -48.691,-45.6386 z m -21.0861,15.3381 c -11.0323,-14.40973 -24.5952,-32.1208 -30.14,-39.35795 -7.559001,-9.86616 -9.775601,-13.41229 -8.859001,-14.17298 0.9079,-0.75353 8.808901,8.89445 30.712801,37.50406 16.2196,21.18522 29.6277,39.1086 29.7957,39.82974 1.1076,4.7559 -3.8172,-0.694 -21.5095,-23.80287 z m 0.7041,-22.90363 c -17.325,-18.75375 -31.6455,-34.7048 -31.8233,-35.44679 -0.1779,-0.742 0.2721,-1.34137 1,-1.33194 1.5074,0.0195 64.3233,67.66612 64.3233,69.26998 0,0.57542 -0.45,1.17227 -1,1.32634 -0.55,0.15406 -15.175,-15.06385 -32.5,-33.81759 z m 29.5,-5.38246 c -26.4,-21.77096 -48.6557,-40.21706 -49.4571,-40.99134 -0.99,-0.95644 -1.1303,-1.73463 -0.4377,-2.42725 1.1267,-1.12676 100.089,79.87133 99.6448,81.55671 -0.1375,0.52166 -0.5875,1.06029 -1,1.19695 -0.4125,0.13667 -22.35,-17.56412 -48.75,-39.33507 z m -18.5131,-5.01067 c -30.3805,-28.2233 -36.8268,-34.90274 -33.6844,-34.90274 1.3488,0 71.5976,65.85262 71.1028,66.6532 -0.2878,0.46574 -0.9297,0.8468 -1.4265,0.8468 -0.4967,0 -16.6931,-14.66876 -35.9919,-32.59726 z m 24.0131,-10.30939 c -27.225,-18.51363 -49.5,-34.20839 -49.5,-34.87725 0,-0.66885 0.2752,-1.3286 0.6116,-1.4661 0.7589,-0.31027 98.6026,65.97852 99.4792,67.3969 2.8373,4.59084 -7.5539,-1.78748 -50.5908,-31.05355 z m -12.5242,-0.68002 c -21.4367,-15.73153 -39.1121,-28.96892 -39.2786,-29.41642 -0.1665,-0.44749 0.1475,-1.09194 0.6979,-1.43209 1.2007,-0.74203 79.7139,56.63316 79.3549,57.99022 -0.1375,0.51973 -0.5984,1.06109 -1.0242,1.20302 -0.4258,0.14193 -18.3133,-12.6132 -39.75,-28.34473 z m 9.5242,-11.49785 c -23.375,-13.63007 -42.5,-25.37449 -42.5,-26.09872 0,-0.72422 0.5514,-1.20796 1.2253,-1.07498 1.694,0.33424 82.428,47.17912 84.2318,48.87447 0.9079,0.85321 1.0964,1.6921 0.5,2.22532 -0.5606,0.50136 -18.5607,-9.40889 -43.4571,-23.92609 z m 6.5358,-5.44613 c -25.2266,-12.87005 -46.2234,-23.75694 -46.6595,-24.19308 -0.4362,-0.43614 -0.4743,-1.24937 -0.085,-1.80718 0.7486,-1.0717 93.4111,45.63903 93.9917,47.38072 0.1772,0.5318 -0.061,1.20377 -0.5294,1.49327 -0.4684,0.28949 -21.4916,-10.00368 -46.7182,-22.87373 z m 0.4642,-6.61419 c -25.025,-11.56531 -45.8188,-21.33025 -46.2084,-21.69986 -0.3896,-0.36961 -0.3896,-1.16919 0,-1.77685 0.839,-1.30854 94.3754,41.58761 93.8916,43.05905 -0.1695,0.51562 -0.7301,1.0518 -1.2457,1.1915 -0.5156,0.13971 -21.4125,-9.20852 -46.4375,-20.77384 z m 0,-8.84395 c -26.9379,-11.1976 -45.5,-19.4434 -45.5,-20.21237 0,-0.71436 0.675,-1.17107 1.5,-1.01491 0.825,0.15616 21.8167,8.67631 46.6481,18.93367 31.9527,13.19899 45.0005,19.03447 44.643,19.96608 -0.2778,0.72397 -0.7944,1.29938 -1.1481,1.27869 -0.3536,-0.0207 -21.118,-8.54872 -46.143,-18.95116 z m 1.0784,-7.06047 c -23.3318,-8.77829 -42.5449,-16.08386 -42.6956,-16.2346 -0.1507,-0.15073 0.068,-0.82685 0.4852,-1.50249 0.9937,-1.60794 87.132,30.48824 87.132,32.46648 0,0.72593 -0.5625,1.29991 -1.25,1.27551 -0.6875,-0.0244 -20.3397,-7.22661 -43.6716,-16.0049 z m -0.5784,-8.31058 c -28.5517,-8.74479 -40,-12.66458 -40,-13.69566 0,-0.79447 0.45,-1.38305 1,-1.30795 1.6038,0.21901 80.9548,24.48487 81.3458,24.8759 0.5125,0.51249 -0.8375,2.49749 -1.6548,2.43321 -0.3801,-0.0299 -18.691,-5.56736 -40.691,-12.3055 z m 8.1868,-4.1417 c -26.2973,-7.86036 -47.9853,-14.46365 -48.1956,-14.67397 -0.2104,-0.21033 -0.057,-0.90946 0.3414,-1.55362 0.6691,-1.08259 12.5233,2.26187 90.9174,25.65078 4.6949,1.40072 7.25,2.67676 7.25,3.62069 0,0.80171 -0.5625,1.41042 -1.25,1.35267 -0.6875,-0.0577 -22.7659,-6.53619 -49.0632,-14.39655 z m 18.459,-3.13287 c -35.3948,-8.93238 -64.6148,-16.5013 -64.9334,-16.81981 -3.1643,-3.16432 7.4601,-0.94655 65.3101,13.63307 35.1876,8.86814 64.2963,16.39704 64.6859,16.73088 0.3896,0.33384 0.3896,1.07714 0,1.65178 -0.4632,0.68309 -22.9868,-4.57748 -65.0626,-15.19592 z m -15.6356,-11.20556 c -38.8289,-7.15601 -47.0451,-8.95034 -47.3082,-10.33164 -0.2231,-1.17088 0.2232,-1.54626 1.4898,-1.25314 0.9945,0.23015 21.8332,4.02703 46.3082,8.4375 24.475,4.41047 45.7375,8.27264 47.25,8.5826 2.9914,0.61303 3.8506,3.46124 1,3.31468 -0.9625,-0.0495 -22.8954,-3.98698 -48.7398,-8.75 z m 19.4898,-5.71846 c -34.925,-4.04167 -64.2875,-7.36943 -65.25,-7.39503 -0.9625,-0.0256 -1.75,-0.72154 -1.75,-1.54654 0,-0.825 0.7875,-1.49838 1.75,-1.49641 1.8046,0.004 121.4181,13.47501 129,14.52845 4.5173,0.62764 6.2623,3.56184 2,3.36299 -1.2375,-0.0577 -30.825,-3.41179 -65.75,-7.45346 z m -25.5,-9.99982 c -19.8,-0.69299 -37.2375,-1.30088 -38.75,-1.35087 -3.0288,-0.10009 -4.007,-3.1048 -1,-3.07151 0.9625,0.0107 21.775,0.67694 46.25,1.48063 24.475,0.80369 46.1875,1.46997 48.25,1.48063 2.6581,0.0137 3.75,0.45615 3.75,1.51937 0,1.80793 -5.3317,1.80262 -58.5,-0.0582 z"
       id="path19733"
       inkscape:connector-curvature="0" />
    <path
       inkscape:connector-curvature="0"
       style="fill:url(#linearGradient19783);fill-opacity:1;stroke:#000000;stroke-width:3.20638967px;stroke-linecap:butt;stroke-linejoin:miter;stroke-opacity:1"
       d="m 218.9014,284.44786 -0.7368,121.24593 c 14.4879,114.66114 170.3952,107.92316 177.9448,-0.72603 l 0,-120.15688 -177.208,-0.36302 z"
       id="path3019-7-7-1-4-8"
       sodipodi:nodetypes="ccccc" />
    <path
       inkscape:connector-curvature="0"
       style="fill:#000000;fill-opacity:0;stroke:#000000;stroke-width:0.01241043px;stroke-linecap:butt;stroke-linejoin:miter;stroke-opacity:0"
       d="m 260.2395,319.48536 c -0.054,-6.99727 1.9178,-14.50941 -12.2212,-19.66485 -2.746,-1.25518 -4.9066,-0.77534 -7.1291,0 -9.142,2.12933 -10.4902,14.17662 -2.6479,16.5802 2.0004,0.94348 3.9886,1.94523 6.51801,0.38558 2.2418,-0.49194 3.24699,-1.76415 3.87,-3.27749 l 0.20369,22.36395 23.0167,0 -0.2036,-22.36395 c 1.1704,0.70692 1.8585,2.37775 5.0922,3.08466 8.3295,3.63956 17.65281,-11.5853 3.25901,-16.77295 -3.05531,-1.83718 -6.11061,-0.82111 -9.16591,-0.19291 -8.73379,2.4592 -10.66199,10.95687 -10.5919,19.85764 z"
       id="path2841-40-4-3-0-3"
       sodipodi:nodetypes="ccccccccccccc" />
    <path
       inkscape:connector-curvature="0"
       style="fill:#000000;fill-opacity:0;stroke:#000000;stroke-width:0.01241043px;stroke-linecap:butt;stroke-linejoin:miter;stroke-opacity:0"
       d="m 251.2773,298.27814 c 3.8254,2.92359 7.4767,5.97078 9.166,10.41085 0.54111,-4.40311 3.3406,-7.73738 7.129,-10.60364 l -16.295,0.1929 z"
       id="path2843-9-0-5-7-5"
       sodipodi:nodetypes="cccc" />
    <path
       inkscape:connector-curvature="0"
       style="fill:#000000;fill-opacity:0;stroke:#000000;stroke-width:0.01241043px;stroke-linecap:butt;stroke-linejoin:miter;stroke-opacity:0"
       d="m 260.99571,363.05655 c -0.054,6.99726 1.91769,14.50935 -12.22131,19.66485 -2.746,1.25518 -4.9066,0.77534 -7.1291,0 -9.1419,-2.12932 -10.4902,-14.17664 -2.6479,-16.58019 2.0004,-0.9435 3.9886,-1.94529 6.51801,-0.38559 2.24179,0.49193 3.24699,1.76412 3.87009,3.27747 l 0.2036,-22.36396 23.0168,0 -0.20369,22.36396 c 1.17039,-0.7069 1.8584,-2.37776 5.09219,-3.08468 8.3295,-3.63954 17.6529,11.58534 3.25901,16.77299 -3.05531,1.83718 -6.11061,0.82107 -9.16601,0.1929 -8.7337,-2.45919 -10.66189,-10.95687 -10.59169,-19.85764 z"
       id="path2841-1-4-9-9-3-5"
       sodipodi:nodetypes="ccccccccccccc" />
    <path
       inkscape:connector-curvature="0"
       style="fill:#000000;fill-opacity:0;stroke:#000000;stroke-width:0.01241043px;stroke-linecap:butt;stroke-linejoin:miter;stroke-opacity:0"
       d="m 252.0334,384.26373 c 3.82551,-2.92355 7.47681,-5.97076 9.16591,-10.41078 0.5412,4.40302 3.34069,7.73735 7.12909,10.6036 l -16.295,-0.19291 z"
       id="path2843-7-8-4-8-4-0"
       sodipodi:nodetypes="cccc" />
    <path
       inkscape:connector-curvature="0"
       style="fill:#000000;fill-opacity:0;stroke:#000000;stroke-width:0.01241043px;stroke-linecap:butt;stroke-linejoin:miter;stroke-opacity:0"
       d="m 248.9447,338.26526 c -2.7757,1.95396 -1.7868,3.90798 0,5.86196 l 25.0611,0 c 2.1324,-2.04487 1.6548,-3.68077 -0.4321,-5.72567 l -24.629,-0.13627 z"
       id="path2870-82-8-4-9-5"
       sodipodi:nodetypes="ccccc" />
    <path
       inkscape:connector-curvature="0"
       style="fill:#ff0000;fill-opacity:1;stroke:#000000;stroke-width:0.01241043px;stroke-linecap:butt;stroke-linejoin:miter;stroke-opacity:0"
       d="m 259.8029,319.48536 c -0.054,-6.99727 1.9177,-14.50941 -12.2213,-19.66485 -2.74599,-1.25518 -4.9066,-0.77534 -7.1291,0 -9.1419,2.12933 -10.4902,14.17662 -2.648,16.5802 2.00051,0.94348 3.9887,1.94523 6.5181,0.38558 2.2418,-0.49194 3.247,-1.76415 3.87,-3.27749 l 0.20371,22.36395 23.01679,0 -0.20369,-22.36395 c 1.17039,0.70692 1.8585,2.37775 5.0922,3.08466 8.3295,3.63956 17.6528,-11.5853 3.25899,-16.77295 -3.0553,-1.83718 -6.1106,-0.82111 -9.166,-0.19291 -8.7337,2.4592 -10.6619,10.95687 -10.5917,19.85764 z"
       id="path2841-4-4-8-0-4-8"
       sodipodi:nodetypes="ccccccccccccc" />
    <path
       inkscape:connector-curvature="0"
       style="fill:#ff0000;fill-opacity:1;stroke:#000000;stroke-width:0.01241043px;stroke-linecap:butt;stroke-linejoin:miter;stroke-opacity:0"
       d="m 250.84061,298.27814 c 3.8254,2.92359 7.47669,5.97078 9.16589,10.41085 0.5412,-4.40311 3.34061,-7.73738 7.12911,-10.60364 l -16.295,0.1929 z"
       id="path2843-0-55-2-7-5-1"
       sodipodi:nodetypes="cccc" />
    <path
       inkscape:connector-curvature="0"
       style="fill:#ff0000;fill-opacity:1;stroke:#000000;stroke-width:0.01241043px;stroke-linecap:butt;stroke-linejoin:miter;stroke-opacity:0"
       d="m 260.559,363.05655 c -0.054,6.99726 1.91771,14.50935 -12.2213,19.66485 -2.74599,1.25518 -4.9066,0.77534 -7.1291,0 -9.1419,-2.12932 -10.4902,-14.17664 -2.648,-16.58019 2.0005,-0.9435 3.9887,-1.94529 6.5181,-0.38559 2.2418,0.49193 3.247,1.76412 3.8701,3.27747 l 0.20361,-22.36396 23.01669,0 -0.2036,22.36396 c 1.17041,-0.7069 1.8585,-2.37776 5.0922,-3.08468 8.3295,-3.63954 17.6528,11.58534 3.259,16.77299 -3.0553,1.83718 -6.11059,0.82107 -9.1659,0.1929 -8.7338,-2.45919 -10.662,-10.95687 -10.5918,-19.85764 z"
       id="path2841-1-9-1-4-6-6-5"
       sodipodi:nodetypes="ccccccccccccc" />
    <path
       inkscape:connector-curvature="0"
       style="fill:#ff0000;fill-opacity:1;stroke:#000000;stroke-width:0.01241043px;stroke-linecap:butt;stroke-linejoin:miter;stroke-opacity:0"
       d="m 251.59671,384.26373 c 3.8254,-2.92355 7.47679,-5.97076 9.166,-10.41078 0.54109,4.40302 3.34059,7.73735 7.12899,10.6036 l -16.29499,-0.19291 z"
       id="path2843-7-4-71-5-3-8-0"
       sodipodi:nodetypes="cccc" />
    <path
       inkscape:connector-curvature="0"
       style="fill:#ff0000;fill-opacity:1;stroke:#000000;stroke-width:0.01241043px;stroke-linecap:butt;stroke-linejoin:miter;stroke-opacity:0"
       d="m 248.508,338.26526 c -2.7757,1.95396 -1.7868,3.90798 0,5.86196 l 25.061,0 c 2.1325,-2.04487 1.6549,-3.68077 -0.43199,-5.72567 L 248.508,338.26528 z"
       id="path2870-8-1-5-6-9-7"
       sodipodi:nodetypes="ccccc" />
    <path
       inkscape:connector-curvature="0"
       style="fill:#ff0000;fill-opacity:1;stroke:#000000;stroke-width:0.01241043px;stroke-linecap:butt;stroke-linejoin:miter;stroke-opacity:0"
       d="m 350.6477,319.09978 c -0.055,-6.99727 1.9178,-14.5094 -12.2213,-19.66485 -2.7459,-1.25518 -4.9065,-0.77536 -7.129,0 -9.1419,2.12932 -10.4902,14.17663 -2.648,16.58018 2.0005,0.94348 3.9886,1.94527 6.5181,0.3856 2.2418,-0.49194 3.247,-1.76417 3.87,-3.27749 l 0.2037,22.36395 23.0167,0 -0.2036,-22.36395 c 1.1704,0.70691 1.8585,2.37779 5.0922,3.08466 8.3295,3.63959 17.6528,-11.58529 3.259,-16.77295 -3.0553,-1.83721 -6.1107,-0.82109 -9.166,-0.19292 -8.7337,2.4592 -10.6619,10.95688 -10.5917,19.85765 z"
       id="path2841-4-1-5-1-1-8-3"
       sodipodi:nodetypes="ccccccccccccc" />
    <path
       inkscape:connector-curvature="0"
       style="fill:#ff0000;fill-opacity:1;stroke:#000000;stroke-width:0.01241043px;stroke-linecap:butt;stroke-linejoin:miter;stroke-opacity:0"
       d="m 341.6855,297.89259 c 3.8254,2.92355 7.4767,5.97077 9.1659,10.41079 0.5412,-4.40306 3.3406,-7.73736 7.1291,-10.60361 l -16.295,0.1929 z"
       id="path2843-0-5-2-7-5-9-4"
       sodipodi:nodetypes="cccc" />
    <path
       inkscape:connector-curvature="0"
       style="fill:#ff0000;fill-opacity:1;stroke:#000000;stroke-width:0.01241043px;stroke-linecap:butt;stroke-linejoin:miter;stroke-opacity:0"
       d="m 351.4038,362.67097 c -0.055,6.99725 1.9178,14.50939 -12.2212,19.66485 -2.746,1.25518 -4.9066,0.77532 -7.1291,0 -9.142,-2.12934 -10.4902,-14.17659 -2.648,-16.5802 2.0005,-0.94347 3.9886,-1.94526 6.5181,-0.38558 2.2418,0.49196 3.247,1.76412 3.8701,3.27747 l 0.2036,-22.36393 23.0168,0 -0.2037,22.36393 c 1.1704,-0.70688 1.8585,-2.37775 5.0922,-3.08465 8.3295,-3.63959 17.6528,11.58527 3.259,16.77296 -3.0553,1.83719 -6.1106,0.8211 -9.1659,0.19291 -8.7338,-2.45923 -10.662,-10.95688 -10.5918,-19.85764 z"
       id="path2841-1-9-2-7-1-4-9-1"
       sodipodi:nodetypes="ccccccccccccc" />
    <path
       inkscape:connector-curvature="0"
       style="fill:#ff0000;fill-opacity:1;stroke:#000000;stroke-width:0.01241043px;stroke-linecap:butt;stroke-linejoin:miter;stroke-opacity:0"
       d="m 342.4416,383.87813 c 3.8254,-2.92354 7.4767,-5.97073 9.166,-10.41078 0.5411,4.40307 3.3406,7.73737 7.129,10.6036 l -16.295,-0.1929 z"
       id="path2843-7-4-7-6-1-2-7-5"
       sodipodi:nodetypes="cccc" />
    <path
       inkscape:connector-curvature="0"
       style="fill:#ff0000;fill-opacity:1;stroke:#000000;stroke-width:0.01241043px;stroke-linecap:butt;stroke-linejoin:miter;stroke-opacity:0"
       d="m 339.3529,337.87966 c -2.7757,1.954 -1.7868,3.90799 0,5.86197 l 25.0611,0 c 2.1324,-2.04486 1.6547,-3.68077 -0.4322,-5.72565 l -24.6289,-0.13625 z"
       id="path2870-8-6-1-5-0-0-6"
       sodipodi:nodetypes="ccccc" />
    <path
       inkscape:connector-curvature="0"
       style="fill:#ff0000;fill-opacity:1;stroke:#000000;stroke-width:0.01241043px;stroke-linecap:butt;stroke-linejoin:miter;stroke-opacity:0"
       d="m 307.0585,410.09798 c -0.055,-6.99726 1.91771,-14.50939 -12.22129,-19.66489 -2.74591,-1.25515 -4.90661,-0.77532 -7.1291,0 -9.14191,2.12937 -10.49021,14.17664 -2.64791,16.58019 2.0004,0.94352 3.9886,1.94529 6.518,0.3856 2.24181,-0.49193 3.2471,-1.76411 3.8701,-3.27748 l 0.2036,22.36396 23.0168,0 -0.2037,-22.36396 c 1.1704,0.70695 1.8585,2.37777 5.0922,3.08469 8.3295,3.63957 17.6529,-11.5853 3.259,-16.773 -3.0553,-1.83712 -6.1106,-0.82106 -9.1659,-0.19261 -8.7338,2.4592 -10.662,10.95688 -10.5918,19.85765 z"
       id="path2841-4-2-4-2-9-8-4"
       sodipodi:nodetypes="ccccccccccccc" />
    <path
       inkscape:connector-curvature="0"
       style="fill:#ff0000;fill-opacity:1;stroke:#000000;stroke-width:0.01241043px;stroke-linecap:butt;stroke-linejoin:miter;stroke-opacity:0"
       d="m 298.09621,388.89078 c 3.82549,2.92356 7.47669,5.97077 9.16599,10.41081 0.5411,-4.40307 3.3406,-7.73736 7.1291,-10.60361 l -16.2951,0.19291 z"
       id="path2843-0-3-2-7-7-4-1"
       sodipodi:nodetypes="cccc" />
    <path
       inkscape:connector-curvature="0"
       style="fill:#ff0000;fill-opacity:1;stroke:#000000;stroke-width:0.01241043px;stroke-linecap:butt;stroke-linejoin:miter;stroke-opacity:0"
       d="m 307.8146,453.66918 c -0.055,6.99724 1.9177,14.50935 -12.22129,19.66484 -2.7459,1.25519 -4.9065,0.77534 -7.1291,0 -9.14191,-2.12933 -10.49021,-14.17663 -2.6479,-16.58019 2.00039,-0.9435 3.98859,-1.94524 6.51799,-0.38557 2.24181,0.49188 3.24701,1.76411 3.8701,3.27747 l 0.2036,-22.36395 23.0168,0 -0.2037,22.36395 c 1.1704,-0.70691 1.8585,-2.37778 5.0922,-3.08469 8.3295,-3.63959 17.6528,11.58533 3.259,16.77298 -3.0553,1.83718 -6.1106,0.82107 -9.1659,0.1929 -8.7338,-2.45923 -10.662,-10.95685 -10.5918,-19.85764 z"
       id="path2841-1-9-22-3-6-3-5-7"
       sodipodi:nodetypes="ccccccccccccc" />
    <path
       inkscape:connector-curvature="0"
       style="fill:#ff0000;fill-opacity:1;stroke:#000000;stroke-width:0.01241043px;stroke-linecap:butt;stroke-linejoin:miter;stroke-opacity:0"
       d="m 298.8523,462.8764 c 3.8255,-2.9236 7.4768,-5.97081 9.16601,-10.41087 0.54109,4.40306 3.3406,7.73739 7.1291,10.60364 l -16.29511,-0.19291 z"
       id="path2843-7-4-1-2-1-7-6-0"
       sodipodi:nodetypes="cccc" />
    <path
       inkscape:connector-curvature="0"
       style="fill:#ff0000;fill-opacity:1;stroke:#000000;stroke-width:0.01241043px;stroke-linecap:butt;stroke-linejoin:miter;stroke-opacity:0"
       d="m 295.7637,428.87785 c -2.77569,1.95402 -1.7869,3.90801 0,5.862 l 25.061,0 c 2.1324,-2.04485 1.6548,-3.68079 -0.4321,-5.72566 l -24.6289,-0.13627 z"
       id="path2870-8-68-2-4-2-9-4"
       sodipodi:nodetypes="ccccc" />
  </g>
</svg>
