<?xml version="1.0" encoding="UTF-8"?>
<svg xmlns="http://www.w3.org/2000/svg" xmlns:xlink="http://www.w3.org/1999/xlink" version="1.1" id="Layer_1" x="0px" y="0px" viewBox="0 0 287.6 111.4" style="enable-background:new 0 0 287.6 111.4;" xml:space="preserve">
<style type="text/css">
	.st0{fill:#FFFFFF;}
	.st1{fill:#E37222;}
	.st2{fill:#00747A;}
</style>
<g>
	<path class="st1" d="M139.6,65h3.7c1.4,0,2.8,0.3,2.8,1.9c0,1.4-1.1,2-2.5,2h-4.1V65 M135.6,78.9h8.9c3.3,0,6.6-1.4,6.6-4.8   c0-2-1.2-3.6-3.4-4.2c1.6-0.8,2.5-1.9,2.5-3.6c0-3.1-2.3-4.1-5.9-4.1h-8.6V78.9z M139.6,71.4h4.4c1.7,0,3,0.8,3,2.5   c0,1.7-1.4,2.2-3.1,2.2h-4.2V71.4z"></path>
	<path class="st1" d="M157.9,70.5c0.2-1.3,0.9-1.7,2.3-1.7c1.4,0,2.5,0.2,2.5,1.6c0,1.4-2.2,1.3-4.4,1.6c-2.3,0.3-4.5,0.9-4.5,3.8   c0,2.5,2,3.8,4.5,3.8c1.6,0,3.3-0.5,4.5-1.6c0,0.3,0,0.8,0.2,1.1h3.7c-0.3-0.5-0.5-1.6-0.5-2.7v-6.4c0-2.8-3.1-3.4-5.9-3.4   c-3,0-5.9,0.9-6.2,4.1H157.9 M162.7,74.3c0,0.8-0.2,2.8-3,2.8c-1.2,0-2.3-0.3-2.3-1.6s1.1-1.6,2.2-1.7c1.1-0.2,2.5-0.3,3.1-0.8   V74.3z"></path>
	<path class="st1" d="M170,66.8h3.4v2.3h0.2c0.6-1.6,2.3-2.7,4.2-2.7c0.2,0,0.5,0.2,0.8,0.2v3.1c-0.3-0.2-0.9-0.2-1.2-0.2   c-2.8,0-3.7,1.9-3.7,3.9v5.5H170V66.8"></path>
	<path class="st1" d="M181.4,66.8h3.4v1.7h0.2c0.9-1.4,2.5-2,4.1-2c3.9,0,4.8,2,4.8,5v7.5h-3.6v-6.9c0-1.9-0.6-3-2.3-3   c-2,0-3,1.1-3,3.6v6.3h-3.6V66.8"></path>
	<path class="st1" d="M210.3,73.8c0.2-3.8-2-7.3-6.6-7.3c-4.1,0-6.7,2.8-6.7,6.4c0,3.9,2.5,6.6,6.7,6.6c3.1,0,5.3-1.3,6.2-4.2h-3.1   c-0.3,0.8-1.6,1.6-3,1.6c-2,0-3.1-0.9-3.3-3H210.3 M200.6,71.6c0-0.9,0.8-2.7,3.1-2.7c1.7,0,2.5,0.9,2.8,2.7H200.6z"></path>
	<polyline class="st1" points="220.8,78.9 216.5,78.9 212,66.8 215.9,66.8 218.7,75.2 221.5,66.8 225.1,66.8 220.8,78.9  "></polyline>
	<path class="st1" d="M240.3,73.8c0.3-3.8-1.9-7.3-6.6-7.3c-3.9,0-6.7,2.8-6.7,6.4c0,3.9,2.7,6.6,6.7,6.6c3.1,0,5.3-1.3,6.2-4.2   h-3.1c-0.3,0.8-1.4,1.6-3,1.6c-2,0-3.1-0.9-3.3-3H240.3 M230.6,71.6c0.2-0.9,0.8-2.7,3.1-2.7c1.7,0,2.5,0.9,2.8,2.7H230.6z"></path>
	<rect x="243.4" y="62.2" class="st1" width="3.7" height="16.7"></rect>
	<path class="st1" d="M260.4,78.9h3.4V62.2h-3.6v6.1h-0.2c-0.8-1.3-2.3-1.9-3.9-1.9c-3.9,0-5.9,3.1-5.9,6.4c0,3.3,2,6.6,6.1,6.6   c1.7,0,3.1-0.6,4.1-2V78.9 M260.4,72.8c0,2-0.8,3.9-3.3,3.9c-2.2,0-3.1-1.9-3.1-3.9c0-2,0.8-3.9,3.1-3.9   C259.6,68.9,260.4,70.8,260.4,72.8z"></path>
</g>
<g>
	<path class="st2" d="M77.4,66.3c4.5,2.7,8.6,5.6,9.8,8c0.6,1.1,1.1,0,1.1,0c1.1,1.3,3.3,0.8,5.3-0.3c2-0.9,0.5-2.8,0.5-2.8   c0.5,0,1.4,0.3,2.7-0.5c1.4-0.6,0.9-1.3,0.9-1.6c-0.2-0.2,0.3-0.6,0.6-0.6c0.3,0.2,0.3,0.3,0.8-0.5c0.6-0.6,0-2.8-0.2-3.1   c0-0.5-2.3-6.3-2.7-6.9c-0.3-0.5-2.5-4.2-6.2-9.5C86.1,43.2,72.7,33,72.7,33c-0.3,0-1.7-0.8-4.2-2.5C66,28.8,61,26.4,61,26.4   s-0.5-0.2-0.5,0v0.2c-0.3,0.3-1.4,0-1.4,0c-0.5,0.2-0.9-0.8-0.9-0.8c-4.8-3.4-4.5-1.7-4.8-1.6c-0.3,0.3-0.2,0.8,0.3,1.4   c0.5,0.5,0.6,2.2,0.6,2.2s0.9,1.1,1.4,1.6C56.3,29.9,56,30,56,30l1.2,0.8v0.5c0.5,0.2,2.2,1.6,2.8,2.3c0.5,0.6,3.1,3.1,3.1,3.1   l-2.3-1.4l5.8,4.8c-0.6,0.2-6.2-2.8-6.2-2.8c-5.9-3.1-12.3-3.6-14-4.2c-1.6-0.5-2.5-1.3-2.5-1.3c-8.3-2.8-12.3-2.7-12.9-2   c-0.8,0.8,0.9,2.3,0.9,2.3c-0.3,0.8,1.9,1.6,3.3,1.7c1.4,0.3,3,0.9,3.3,1.4c0.5,0.5,1.7,1.4,2.7,1.7c0.9,0.3,2.7,1.4,3.4,1.9   l10.3,6.4c1.7,1.3-0.3,0.3-0.3,0.3c-6.2-2.8-14.2-3.6-14.2-3.6s0.6,1.3-2.2,0.3c-3-0.9-12.2-0.8-12.9-0.9c-0.9,0-0.3,0.3-1.1,0.5   c-0.6,0.2,0.5,1.1,0.5,1.1c0.5,0-0.2,0.8,0.2,0.8c0.3,0.2,0.8,0.6,1.4,1.3c0.5,0.8,2.2,2.5,2.8,2.3c0.6,0,2,0.5,2,0.5   s0.5,0.6,2.5,0.6c2,0.2,5.5,1.7,5.5,1.7L36.2,50c0,0,0.3,0,8.1,2.5c7.8,2.5,12.2,3,12.2,3l2,1.3l-0.8,0.2l2.7,1.1   c0,0-5.5-0.8-6.1-0.6c0,0,1.2,1.4,4.7,2.3c3.3,1.1,12.8,4.1,13.4,4.4c0.6,0.3,4.8,2,4.8,2L77.4,66.3"></path>
	<path class="st2" d="M108.6,38.3c0.5-0.2,0.9,0.5,0.9,0.9c-0.2,0.6-0.5,1.3-0.6,2c-0.2,0.6-0.8,1.1-1.2,1.7   c1.7-1.1,4.1-1.6,5.6-0.5c1.7,0.9,1.4,3,0.6,4.4c1.2,0.3,2.8,0.6,3.7,1.6c0.8,0.8,1.1,1.9,1.2,3c-0.2,1.3,0,2.2-0.5,3.3   c-0.5,0.9-1.4,1.1-2.2,0.6c0.2-1.3,0.9-2.8,0.2-4.1c-1.4-1.4-3.3-1.9-4.7-3c0-0.9,0.5-1.7,0.6-2.7c0-0.2-0.2-0.5-0.2-0.5   c-2-0.2-5,1.4-6.2-0.9c-0.9-1.9,0.8-3.4,0.9-5.2c-1.7-1.3-3.9,0.9-5.3,2c-0.3,0.2-0.8,0.5-0.9,0.3c-0.9-2.7,1.9-4.4,3.9-4.7   C106.1,36.4,108.1,36.6,108.6,38.3"></path>
	<path class="st2" d="M121.1,86.9c1.4-12.5-7-24.2-7.6-25c-2-2.8,1.1-2.3,1.1-2.3c0.5,0,1.6,0.2,1.7,0.3c0.3-0.3-2.5-2.5-3-2.8   c-0.5-0.2-0.3-0.3-0.6-0.2c0.5,0.3,1.4,1.6,1.7,2c0,0-2.3-0.3-3,1.3c-0.5,2.7,7.8,13.9,8.9,26.7c0,0,0,0.6,0.3,0.8   C120.9,87.7,121.1,86.9,121.1,86.9"></path>
</g>
<g>
	<path class="st1" d="M163.1,54.3c0,1.4-0.4,2.4-1.2,3.1c-0.8,0.7-1.9,1-3.3,1c-0.5,0-0.9,0-1.4-0.1c-0.5-0.1-0.9-0.3-1.3-0.5   c-0.4-0.2-0.7-0.5-1-0.9c-0.3-0.4-0.4-0.8-0.5-1.3h2c0.1,0.3,0.2,0.5,0.3,0.7c0.1,0.2,0.3,0.3,0.5,0.4c0.2,0.1,0.4,0.2,0.6,0.2   c0.2,0,0.5,0,0.7,0c0.8,0,1.4-0.2,1.8-0.6c0.4-0.4,0.6-1,0.6-1.7v-1.4h0c-0.3,0.5-0.7,0.9-1.2,1.2c-0.5,0.3-1,0.4-1.6,0.4   c-0.7,0-1.4-0.1-1.9-0.4c-0.5-0.3-0.9-0.6-1.3-1c-0.3-0.4-0.6-1-0.7-1.5c-0.2-0.6-0.2-1.2-0.2-1.9c0-0.6,0.1-1.2,0.3-1.8   c0.2-0.6,0.5-1,0.8-1.5c0.4-0.4,0.8-0.8,1.3-1c0.5-0.2,1.1-0.4,1.7-0.4c0.6,0,1.1,0.1,1.6,0.4c0.5,0.2,0.9,0.6,1.1,1.1h0v-1.3h2   V54.3z M158.6,53.2c0.4,0,0.8-0.1,1.1-0.3c0.3-0.2,0.6-0.4,0.8-0.7c0.2-0.3,0.3-0.6,0.4-1c0.1-0.4,0.1-0.8,0.1-1.2   c0-0.4,0-0.8-0.1-1.1c-0.1-0.4-0.2-0.7-0.4-1c-0.2-0.3-0.4-0.5-0.8-0.7c-0.3-0.2-0.7-0.2-1.1-0.2c-0.4,0-0.8,0.1-1.1,0.3   c-0.3,0.2-0.6,0.4-0.7,0.7c-0.2,0.3-0.3,0.6-0.4,1c-0.1,0.4-0.1,0.8-0.1,1.1c0,0.4,0,0.7,0.1,1.1c0.1,0.4,0.2,0.7,0.4,1   c0.2,0.3,0.4,0.5,0.7,0.7C157.8,53.1,158.2,53.2,158.6,53.2z"></path>
	<path class="st1" d="M167.6,50.8c0,0.4,0.1,0.7,0.2,1s0.3,0.6,0.5,0.9c0.2,0.2,0.5,0.4,0.8,0.6c0.3,0.1,0.7,0.2,1.1,0.2   c0.6,0,1.1-0.1,1.4-0.4s0.6-0.6,0.8-1.1h1.9c-0.1,0.5-0.3,0.9-0.5,1.3c-0.3,0.4-0.6,0.7-0.9,1c-0.4,0.3-0.8,0.5-1.2,0.6   s-0.9,0.2-1.4,0.2c-0.7,0-1.4-0.1-1.9-0.4c-0.6-0.2-1-0.6-1.4-1c-0.4-0.4-0.7-0.9-0.9-1.5c-0.2-0.6-0.3-1.2-0.3-1.9   c0-0.6,0.1-1.3,0.3-1.8c0.2-0.6,0.5-1.1,0.9-1.5c0.4-0.4,0.8-0.8,1.4-1.1c0.5-0.3,1.2-0.4,1.8-0.4c0.7,0,1.4,0.2,1.9,0.5   c0.6,0.3,1,0.7,1.4,1.2c0.4,0.5,0.7,1.1,0.8,1.7c0.2,0.6,0.2,1.3,0.1,2H167.6z M172.3,49.4c0-0.3-0.1-0.6-0.2-0.9   c-0.1-0.3-0.3-0.6-0.5-0.8c-0.2-0.2-0.4-0.4-0.7-0.5c-0.3-0.1-0.6-0.2-0.9-0.2c-0.4,0-0.7,0.1-1,0.2c-0.3,0.1-0.5,0.3-0.7,0.5   c-0.2,0.2-0.4,0.5-0.5,0.8c-0.1,0.3-0.2,0.6-0.2,1H172.3z"></path>
	<path class="st1" d="M176.7,45.7h1.9v1.3h0.1c0.2-0.2,0.3-0.4,0.5-0.6c0.2-0.2,0.4-0.3,0.6-0.5c0.2-0.1,0.5-0.2,0.8-0.3   c0.3-0.1,0.6-0.1,1-0.1c0.6,0,1.1,0.1,1.5,0.4c0.5,0.2,0.8,0.6,1,1.1c0.3-0.5,0.7-0.8,1.2-1.1c0.4-0.3,1-0.4,1.7-0.4   c1,0,1.7,0.2,2.3,0.7c0.5,0.5,0.8,1.3,0.8,2.4v6.3h-2v-5.3c0-0.4,0-0.7,0-1c0-0.3-0.1-0.6-0.2-0.8c-0.1-0.2-0.3-0.4-0.5-0.5   c-0.2-0.1-0.5-0.2-0.9-0.2c-0.7,0-1.2,0.2-1.5,0.6c-0.3,0.4-0.5,1-0.5,1.8v5.4h-2v-5.9c0-0.6-0.1-1.1-0.3-1.4   c-0.2-0.3-0.7-0.5-1.3-0.5c-0.3,0-0.5,0.1-0.8,0.2c-0.2,0.1-0.5,0.3-0.6,0.5c-0.2,0.2-0.3,0.4-0.4,0.7c-0.1,0.3-0.2,0.6-0.2,1v5.4   h-2V45.7z"></path>
	<path class="st1" d="M194.6,50.8c0,0.4,0.1,0.7,0.2,1c0.1,0.3,0.3,0.6,0.5,0.9c0.2,0.2,0.5,0.4,0.8,0.6c0.3,0.1,0.7,0.2,1.1,0.2   c0.6,0,1.1-0.1,1.4-0.4s0.6-0.6,0.8-1.1h1.9c-0.1,0.5-0.3,0.9-0.5,1.3c-0.3,0.4-0.6,0.7-0.9,1c-0.4,0.3-0.8,0.5-1.2,0.6   c-0.5,0.1-0.9,0.2-1.4,0.2c-0.7,0-1.4-0.1-1.9-0.4c-0.6-0.2-1-0.6-1.4-1c-0.4-0.4-0.7-0.9-0.9-1.5c-0.2-0.6-0.3-1.2-0.3-1.9   c0-0.6,0.1-1.3,0.3-1.8c0.2-0.6,0.5-1.1,0.9-1.5c0.4-0.4,0.8-0.8,1.4-1.1c0.5-0.3,1.2-0.4,1.8-0.4c0.7,0,1.4,0.2,1.9,0.5   c0.6,0.3,1,0.7,1.4,1.2c0.4,0.5,0.7,1.1,0.8,1.7c0.2,0.6,0.2,1.3,0.1,2H194.6z M199.3,49.4c0-0.3-0.1-0.6-0.2-0.9   c-0.1-0.3-0.3-0.6-0.5-0.8c-0.2-0.2-0.4-0.4-0.7-0.5S197.3,47,197,47c-0.4,0-0.7,0.1-1,0.2c-0.3,0.1-0.5,0.3-0.7,0.5   c-0.2,0.2-0.4,0.5-0.5,0.8c-0.1,0.3-0.2,0.6-0.2,1H199.3z"></path>
	<path class="st1" d="M205.3,50.8c0,0.4,0.1,0.7,0.2,1c0.1,0.3,0.3,0.6,0.5,0.9c0.2,0.2,0.5,0.4,0.8,0.6c0.3,0.1,0.7,0.2,1.1,0.2   c0.6,0,1.1-0.1,1.4-0.4s0.6-0.6,0.8-1.1h1.9c-0.1,0.5-0.3,0.9-0.5,1.3c-0.3,0.4-0.6,0.7-0.9,1c-0.4,0.3-0.8,0.5-1.2,0.6   c-0.5,0.1-0.9,0.2-1.4,0.2c-0.7,0-1.4-0.1-1.9-0.4c-0.6-0.2-1-0.6-1.4-1c-0.4-0.4-0.7-0.9-0.9-1.5c-0.2-0.6-0.3-1.2-0.3-1.9   c0-0.6,0.1-1.3,0.3-1.8c0.2-0.6,0.5-1.1,0.9-1.5c0.4-0.4,0.8-0.8,1.4-1.1c0.5-0.3,1.2-0.4,1.8-0.4c0.7,0,1.4,0.2,1.9,0.5   c0.6,0.3,1,0.7,1.4,1.2c0.4,0.5,0.7,1.1,0.8,1.7c0.2,0.6,0.2,1.3,0.1,2H205.3z M210,49.4c0-0.3-0.1-0.6-0.2-0.9   c-0.1-0.3-0.3-0.6-0.5-0.8c-0.2-0.2-0.4-0.4-0.7-0.5c-0.3-0.1-0.6-0.2-0.9-0.2c-0.4,0-0.7,0.1-1,0.2c-0.3,0.1-0.5,0.3-0.7,0.5   c-0.2,0.2-0.4,0.5-0.5,0.8c-0.1,0.3-0.2,0.6-0.2,1H210z"></path>
	<path class="st1" d="M214.4,45.7h1.9V47l0,0c0.3-0.5,0.7-0.9,1.2-1.2c0.5-0.3,1-0.4,1.6-0.4c1,0,1.8,0.3,2.4,0.8   c0.6,0.5,0.9,1.3,0.9,2.3v6.3h-2v-5.7c0-0.7-0.2-1.2-0.5-1.6c-0.3-0.3-0.7-0.5-1.3-0.5c-0.3,0-0.6,0.1-0.9,0.2   c-0.3,0.1-0.5,0.3-0.7,0.5c-0.2,0.2-0.3,0.5-0.4,0.8c-0.1,0.3-0.2,0.6-0.2,0.9v5.4h-2V45.7z"></path>
	<path class="st1" d="M224.5,45.7h1.5v-2.7h2v2.7h1.8v1.5h-1.8V52c0,0.2,0,0.4,0,0.5c0,0.2,0.1,0.3,0.1,0.4c0.1,0.1,0.2,0.2,0.3,0.2   c0.1,0.1,0.3,0.1,0.5,0.1c0.1,0,0.3,0,0.4,0c0.1,0,0.3,0,0.4-0.1v1.6c-0.2,0-0.4,0-0.7,0.1c-0.2,0-0.4,0-0.7,0   c-0.5,0-1-0.1-1.3-0.2c-0.3-0.1-0.6-0.2-0.8-0.4c-0.2-0.2-0.3-0.4-0.4-0.7c-0.1-0.3-0.1-0.6-0.1-1v-5.4h-1.5V45.7z"></path>
	<path class="st1" d="M233.8,50.8c0,0.4,0.1,0.7,0.2,1c0.1,0.3,0.3,0.6,0.5,0.9c0.2,0.2,0.5,0.4,0.8,0.6c0.3,0.1,0.7,0.2,1.1,0.2   c0.6,0,1.1-0.1,1.4-0.4s0.6-0.6,0.8-1.1h1.9c-0.1,0.5-0.3,0.9-0.5,1.3c-0.3,0.4-0.6,0.7-0.9,1c-0.4,0.3-0.8,0.5-1.2,0.6   c-0.5,0.1-0.9,0.2-1.4,0.2c-0.7,0-1.4-0.1-1.9-0.4c-0.6-0.2-1-0.6-1.4-1c-0.4-0.4-0.7-0.9-0.9-1.5c-0.2-0.6-0.3-1.2-0.3-1.9   c0-0.6,0.1-1.3,0.3-1.8c0.2-0.6,0.5-1.1,0.9-1.5c0.4-0.4,0.8-0.8,1.4-1.1c0.5-0.3,1.2-0.4,1.8-0.4c0.7,0,1.4,0.2,1.9,0.5   c0.6,0.3,1,0.7,1.4,1.2c0.4,0.5,0.7,1.1,0.8,1.7c0.2,0.6,0.2,1.3,0.1,2H233.8z M238.5,49.4c0-0.3-0.1-0.6-0.2-0.9   c-0.1-0.3-0.3-0.6-0.5-0.8c-0.2-0.2-0.4-0.4-0.7-0.5c-0.3-0.1-0.6-0.2-0.9-0.2c-0.4,0-0.7,0.1-1,0.2c-0.3,0.1-0.5,0.3-0.7,0.5   c-0.2,0.2-0.4,0.5-0.5,0.8c-0.1,0.3-0.2,0.6-0.2,1H238.5z"></path>
</g>
</svg>
