<svg xmlns="http://www.w3.org/2000/svg" xmlns:xlink="http://www.w3.org/1999/xlink" viewBox="0 0 241.63 301.8"><defs><style>.cls-1{fill:none;}.cls-2{clip-path:url(#clip-path);}.cls-3{fill:url(#Naamloos_verloop_8);}.cls-4{clip-path:url(#clip-path-2);}.cls-5{fill:#ee7203;}.cls-6{clip-path:url(#clip-path-3);}.cls-7{fill:url(#Naamloos_verloop_3);}.cls-8{fill:url(#Naamloos_verloop_3-2);}.cls-9{clip-path:url(#clip-path-5);}.cls-10{fill:url(#Naamloos_verloop_5);}.cls-11{fill:url(#Naamloos_verloop_5-2);}.cls-12{fill:#5e1964;}</style><clipPath id="clip-path"><path class="cls-1" d="M55.68,97h51c23.81,0,48.48-14.46,48.48-49.33v-1c-10.9-6.36-23.84-9.13-36.33-9.13C89.73,37.49,58,56,55.68,97"/></clipPath><linearGradient id="Naamloos_verloop_8" x1="-197.66" y1="598.9" x2="-196.66" y2="598.9" gradientTransform="matrix(110.38, 0, 0, -110.38, 21864.54, 66172.21)" gradientUnits="userSpaceOnUse"><stop offset="0" stop-color="#5d241f"/><stop offset="1" stop-color="#ee7203"/></linearGradient><clipPath id="clip-path-2"><rect class="cls-1" width="241.63" height="301.8"/></clipPath><clipPath id="clip-path-3"><path class="cls-1" d="M155.19,47.63C155.19,82.5,130.52,97,106.71,97h-51v63.62h64.79C150.7,160.58,182,142.23,182,98c0-26-11.34-42.3-26.83-51.34Z"/></clipPath><linearGradient id="Naamloos_verloop_3" x1="-198.24" y1="598.71" x2="-197.24" y2="598.71" gradientTransform="matrix(136.6, 0, 0, -136.6, 27113.37, 81885.44)" gradientUnits="userSpaceOnUse"><stop offset="0" stop-color="#fff"/><stop offset="0" stop-color="#e1d7e7"/><stop offset="0.9" stop-color="#5e1965"/><stop offset="1" stop-color="#5e1965"/></linearGradient><linearGradient id="Naamloos_verloop_3-2" x1="-198.49" y1="598.37" x2="-197.49" y2="598.37" gradientTransform="matrix(151.96, 0, 0, -151.96, 30196.01, 91031.21)" xlink:href="#Naamloos_verloop_3"/><clipPath id="clip-path-5"><path class="cls-1" d="M55.68,50.61V97C58,56,89.73,37.49,118.85,37.49c12.49,0,25.43,2.77,36.33,9.13C154.68,12.51,129,0,105.44,0,81.63,0,55.68,15.74,55.68,50.61"/></clipPath><linearGradient id="Naamloos_verloop_5" x1="-197.58" y1="598.74" x2="-196.58" y2="598.74" gradientTransform="matrix(107.6, 0, 0, -107.6, 21307.72, 64471.46)" gradientUnits="userSpaceOnUse"><stop offset="0" stop-color="#ee7203"/><stop offset="0.1" stop-color="#ee7203"/><stop offset="1" stop-color="#feebdc"/></linearGradient><linearGradient id="Naamloos_verloop_5-2" x1="-197.98" y1="598.56" x2="-196.98" y2="598.56" gradientTransform="matrix(123.4, 0, 0, -123.4, 24481.87, 73913.04)" xlink:href="#Naamloos_verloop_5"/></defs><g id="Layer_2" data-name="Layer 2"><g id="Laag_1" data-name="Laag 1"><g class="cls-2"><rect class="cls-3" x="47.63" y="14.33" width="115.62" height="105.78" transform="translate(-19.49 72.63) rotate(-35)"/></g><g class="cls-4"><path class="cls-5" d="M58.82,295.1v-.57c-1.51-.14-2-.69-2-2.4l0-.17.28-9.75-4.42.52v.68c1.74.54,2.23,1.06,2.17,2.65l-.2,7.27a4.9,4.9,0,0,1-2.62.88,2.69,2.69,0,0,1-2.11-.88c-.46-.6-.6-1.31-.6-3.42l0-.31.08-7.39-3.85.52v.68c1.2.28,1.6.91,1.6,2.45V292c0,2.43,1.28,3.94,3.36,3.94,1.35,0,2.31-.4,4.11-1.77l-.2,1.57.77.4Z"/><path class="cls-5" d="M78.81,283.13v-.6H73.88v.6c1.42.19,1.76.42,1.76,1.13a6,6,0,0,1-.39,1.8l-2.14,6.1-2.37-7.1a3.76,3.76,0,0,1-.2-1c0-.54.2-.71,1.17-.93v-.6h-5.5v.6c1.28.39,1.51.54,2,1.36L65,292.16l-2.37-6.9a2.86,2.86,0,0,1-.2-1c0-.62.43-.94,1.57-1.13v-.6h-5.3v.6a2.15,2.15,0,0,1,1.37,1.36l3.73,11.41H64c.43,0,.77-.4,1.2-1.37l3.54-8.27,2.93,9.84h.2c.48,0,.8-.43,1.37-1.77l4.33-10c.34-.77.57-1,1.2-1.16"/><path class="cls-5" d="M98.11,284v-1.6a20.56,20.56,0,0,1-2.88.31,18.15,18.15,0,0,1-2.14-.19,20.71,20.71,0,0,0-2.59-.32c-3.08,0-5.44,1.91-5.44,4.36,0,1.69,1,3.08,3,4-1.94,1.34-2.54,2-2.54,2.68S86,294.5,87.11,295c-1.88,1-2.85,2.2-2.85,3.45,0,1.94,2.25,3.34,5.41,3.34,4.34,0,7.47-2.25,7.47-5.33a2.35,2.35,0,0,0-1.28-2.06,10.45,10.45,0,0,0-3.74-.6l-1.82-.08c-1.88-.09-2.31-.37-2.31-1.37,0-.6.17-.88.8-1.48a9.71,9.71,0,0,0,1.79.17c3.57,0,5.79-1.83,5.79-4.73a4.56,4.56,0,0,0-.43-2Zm-3.25,13.22c0,1.86-1.77,3.14-4.28,3.14-2.3,0-3.87-1.08-3.87-2.68a4.15,4.15,0,0,1,.88-2.39,17.14,17.14,0,0,0,2.45.28c.72.06,1.4.09,2.08.12,2,.05,2.74.48,2.74,1.53M94,286.66a3.17,3.17,0,0,1-3.31,3.22,3.15,3.15,0,1,1,.09-6.3A3,3,0,0,1,94,286.66"/><path class="cls-5" d="M109.14,293l-.57-.11a9.2,9.2,0,0,1-3.56.86c-2.66,0-4.22-1.91-4.22-5.14v-.74h8.06a12.13,12.13,0,0,0,.2-2.14c0-2.25-1.48-3.56-4.07-3.56-3.91,0-6.36,2.77-6.36,7.24,0,3.77,2,6.36,5,6.36,2.51,0,5.16-1.34,5.5-2.77m-2.25-6.78-.4.48H101c.65-2.11,1.88-3.25,3.47-3.25a2.29,2.29,0,0,1,2.43,2.17Z"/><path class="cls-5" d="M132,295.5v-.69c-1.6-.45-1.77-.74-1.77-3.05v-6.1a4,4,0,0,0-.6-2.53,3,3,0,0,0-2.25-1c-1.63,0-2.79.54-5,2.36-.65-1.85-1.23-2.36-2.74-2.36s-2.68.48-5.13,2.05v-1.85l-.2-.2-3.53.79v.57c1.36.66,1.59,1.09,1.59,3a2.91,2.91,0,0,1,0,.51l-.17,4.73c-.08,2.25-.34,2.68-1.79,3.05v.69h6.1v-.69c-1-.2-1.57-.48-1.77-1a7.4,7.4,0,0,1-.2-2.05v-6.7c2.17-.94,2.6-1.08,3.45-1.08,1.4,0,2.25,1.11,2.25,2.85v.2l-.2,4.73c-.08,2.34-.37,2.8-2,3.05v.69h6.3v-.69c-1-.2-1.57-.48-1.77-1a7,7,0,0,1-.2-2.05v-6.38c1.85-1.12,2.51-1.4,3.45-1.4,1.37,0,2.25,1.11,2.25,2.85v.2l-.2,4.73c-.08,2.34-.4,2.8-2,3.05v.69Z"/><path class="cls-5" d="M143.89,293l-.57-.11a9.16,9.16,0,0,1-3.56.86c-2.65,0-4.22-1.91-4.22-5.14v-.74h8.07a13.17,13.17,0,0,0,.2-2.14c0-2.25-1.48-3.56-4.08-3.56-3.9,0-6.36,2.77-6.36,7.24,0,3.77,2.06,6.36,5,6.36,2.51,0,5.16-1.34,5.5-2.77m-2.25-6.78-.4.48h-5.5c.66-2.11,1.88-3.25,3.48-3.25a2.28,2.28,0,0,1,2.42,2.17Z"/><path class="cls-5" d="M155.81,293l-.57-.11a9.2,9.2,0,0,1-3.56.86c-2.65,0-4.22-1.91-4.22-5.14v-.74h8.07a13.17,13.17,0,0,0,.2-2.14c0-2.25-1.49-3.56-4.08-3.56-3.91,0-6.36,2.77-6.36,7.24,0,3.77,2.05,6.36,5,6.36,2.51,0,5.16-1.34,5.5-2.77m-2.25-6.78-.4.48h-5.5c.65-2.11,1.88-3.25,3.48-3.25a2.28,2.28,0,0,1,2.42,2.17Z"/><path class="cls-5" d="M170.78,295.5v-.69c-1.6-.48-1.77-.74-1.77-3.05v-6.1a3.87,3.87,0,0,0-.77-2.74,3.33,3.33,0,0,0-2.11-.79c-1.37,0-2.51.48-5,2.05v-2l-.28-.17-3.45.88v.57c1.25.57,1.59,1.26,1.59,3.14a2.49,2.49,0,0,1,0,.4l-.17,4.73c-.09,2.25-.35,2.68-1.8,3.05v.69h6.1v-.69c-1-.2-1.57-.48-1.77-1a7.4,7.4,0,0,1-.2-2.05v-6.7a6.88,6.88,0,0,1,3.37-1.05c1.45,0,2.33,1.08,2.33,2.85V287l-.19,4.73c-.09,2.34-.4,2.8-2,3.05v.69Z"/><path class="cls-5" d="M180.16,294.21l-.2-.59a6.4,6.4,0,0,1-2.48.71c-1.2,0-1.86-1.06-1.86-3v-7h3c.8,0,1.37-.43,1.37-1.06a.68.68,0,0,0-.8-.71l-3.54.23.23-3-.77-.28a7.31,7.31,0,0,1-1.34,1.85,6.06,6.06,0,0,1-1.57,1.09l-.08.77,1.34,1.51-.17,7.78c-.06,2.31.88,3.19,3.08,3.19a4.46,4.46,0,0,0,3.82-1.57"/><path class="cls-5" d="M190.68,293l-.57-.11a9.24,9.24,0,0,1-3.57.86c-2.65,0-4.21-1.91-4.21-5.14v-.74h8.06a12.13,12.13,0,0,0,.2-2.14c0-2.25-1.48-3.56-4.08-3.56-3.9,0-6.35,2.77-6.35,7.24,0,3.77,2.05,6.36,5,6.36,2.51,0,5.16-1.34,5.51-2.77m-2.26-6.78-.39.48h-5.51c.66-2.11,1.89-3.25,3.48-3.25a2.28,2.28,0,0,1,2.42,2.17Z"/><path class="cls-5" d="M196,294.19a1.64,1.64,0,0,0-1.62-1.67,1.71,1.71,0,0,0-1.75,1.7,1.65,1.65,0,0,0,1.62,1.68,1.73,1.73,0,0,0,1.75-1.71"/></g><g class="cls-6"><rect class="cls-7" x="34.42" y="20.7" width="168.84" height="165.81" transform="translate(-37.93 86.9) rotate(-35)"/></g><g class="cls-6"><rect class="cls-8" x="34.42" y="20.7" width="168.84" height="165.81" transform="translate(-37.93 86.9) rotate(-35)"/></g><g class="cls-9"><rect class="cls-10" x="36.87" y="-19.77" width="137.12" height="136.49" transform="translate(-8.74 69.24) rotate(-35)"/></g><g class="cls-9"><rect class="cls-11" x="36.87" y="-19.77" width="137.12" height="136.49" transform="matrix(0.82, -0.57, 0.57, 0.82, -8.74, 69.24)"/></g><g class="cls-4"><path class="cls-12" d="M42.33,229.58c0,6.87-3.68,14.35-13.74,14.35s-14.23-7.12-14.23-14V215.22H27.73c10.06,0,14.6,7.49,14.6,14.36m14.23.36c0-15.09-10.55-28-27.72-28H17.21a2.84,2.84,0,0,1-2.85-2.91V183.68H0v46.63c0,15.09,11.29,26.87,28.46,26.87s28.1-12.14,28.1-27.24m47-7.69H76.46a15.27,15.27,0,0,1,14-8.71,14,14,0,0,1,13.13,8.71M77.31,233.78h41.11v-4.05c0-15.82-11-28.09-28-28.09s-29.32,12.27-29.32,28.09,13.62,28.1,30.55,28.1a32.88,32.88,0,0,0,19.21-6,1.6,1.6,0,0,0,.84-1.39,1.68,1.68,0,0,0-.34-1L105.15,242a1.51,1.51,0,0,0-1.3-.51,2.61,2.61,0,0,0-1.46.69,16.1,16.1,0,0,1-10.72,3.73,17.7,17.7,0,0,1-15.57-9.6,2.47,2.47,0,0,1-.26-1,1.54,1.54,0,0,1,1.47-1.57m88.19-11.53H138.38a15.29,15.29,0,0,1,14-8.71,14,14,0,0,1,13.13,8.71m-26.26,11.53h41.1v-4.05c0-15.82-11-28.09-28-28.09s-29.32,12.27-29.32,28.09,13.62,28.1,30.55,28.1a32.85,32.85,0,0,0,19.21-6,1.61,1.61,0,0,0,.85-1.39,1.69,1.69,0,0,0-.35-1L167.07,242a1.5,1.5,0,0,0-1.29-.51,2.64,2.64,0,0,0-1.46.69,16.12,16.12,0,0,1-10.72,3.73,17.7,17.7,0,0,1-15.57-9.6,2.17,2.17,0,0,1-.26-1,1.53,1.53,0,0,1,1.47-1.57m77.43-8.73,21.4-21.85h-16.2l-22,22V183.68H185.8v73.5h14.11V243.85a4.63,4.63,0,0,1,7.73-3.45l16.44,16.78h17.55l-25.06-26.76a4,4,0,0,1-.95-2.6,4.26,4.26,0,0,1,1-2.77"/></g></g></g></svg>