<?xml version="1.0" standalone="no"?>
<svg id="Gemeentewapen_Buren" width="360" height="210" viewBox="0 0 360 210"
xmlns="http://www.w3.org/2000/svg" version="1.1"
xmlns:xlink="http://www.w3.org/1999/xlink">

<path id="schild_achtergrond_rood" style="fill:#e2001a;stroke:#000000;stroke-width:1"
     d="m 236.41072,61.441643 -113.0941,0 0.0164,69.729037 c 0,31.28467 25.36186,56.64597 56.64322,56.64597 l -0.22399,0 c 31.28137,0 56.64323,-25.3613 56.64323,-56.64597 l 0.0153,-69.729037" />

<path id="schild_stormbalk_zilver" style="fill:#dfe0e1;stroke:#000000;stroke-width:1"
     d="m 179.99303,131.09765 7.19939,0 0.008,0 0,-9.18998 18.24243,0 0,9.13795 0.0278,0 14.38678,0 0,-9.13795 16.69059,0 0.008,-14.42139 -0.024,0 0,-9.169967 -14.73475,0 -0.024,0 0,9.169967 -18.24245,0 0,-9.121937 -0.004,0 -14.39477,0 -0.016,0 0,9.121937 -9.12324,0 0.036,0 -9.12722,0 0,-9.121937 -0.016,0 -14.39078,0 0,9.121937 -18.25045,0 0,-9.169967 -0.024,0 -14.73475,0 0,9.169967 -0.024,0 0.008,14.42139 16.69058,0 0,9.13795 14.39078,0 0.024,0 0,-9.13795 18.24246,0 0,9.18998 0.008,0 7.20338,0" />

<path id="kroon_achtergrond_rood" style="fill:#e2001a;stroke:#000000;stroke-width:1"
     d="m 179.75413,55.160403 c -15.75647,0 -30.93084,2.12931 -45.3125,6.28125 l 90.84375,0 c -14.38058,-4.15194 -29.59045,-6.28125 -45.34375,-6.28125 l -0.1875,0 z m 45.53125,6.28125 0,0" />

<path  id="kroon_achtergrond_goud" style="fill:#fdc300;stroke:#000000;stroke-width:1"    
     d="m 180.01177,55.015773 c 15.81193,-0.52399 36.02785,4.36399 36.02785,4.36399 0,0 2.58799,-12.94795 2.79599,-14.13594 0.212,-1.188 0.34,-1.268 0.34,-1.268 l 16.22393,-29.25188 c -1.056,-0.592 -2.43199,-0.224 -3.01999,0.832 -0.148,0.26 -0.236,0.536 -0.268,0.816 0.016,0.068 0.016,0.144 -0.008,0.21999 -0.008,0.036 -0.0118,0.076 -0.0282,0.112 -0.112,0.184 -0.308,0.264 -0.49599,0.212 0.0202,0.008 -0.016,-0.008 0,0 -0.016,-0.008 0.0202,0.008 0,0 -0.032,-0.008 -0.088,-0.024 -0.12,-0.04 -0.008,-0.008 -0.016,-0.016 -0.024,-0.024 -1.024,-0.45599 -2.23599,-0.076 -2.79599,0.92 -0.564,1.008 -0.248,2.25999 0.7,2.88799 0.16399,0.088 0.21199,0.232 0.23599,0.424 -0.008,0.34399 -0.096,0.68799 -0.27599,1.01199 -0.588,1.056 -1.924,1.432 -2.98399,0.84 -1.052,-0.588 -1.428,-1.92399 -0.84,-2.97599 0.056,-0.1 0.12,-0.188 0.188,-0.272 0.072,-0.088 0.132,-0.176 0.188,-0.28 0.588,-1.05599 0.208,-2.38799 -0.84,-2.97598 -1.05999,-0.592 -2.39599,-0.212 -2.97998,0.83999 -0.176,0.316 -0.256,0.664 -0.264,1.004 -0.0198,0.81199 -0.212,1.63999 -0.644,2.39599 -0.416,0.75599 -1,1.34799 -1.67999,1.79199 -0.3,0.184 -0.564,0.448 -0.744,0.776 -0.184,0.332 -0.272,0.69199 -0.272,1.04399 -0.0198,0.812 -0.224,1.616 -0.644,2.37199 -0.428,0.76 -1.02399,1.356 -1.69999,1.8 -0.288,0.18799 -0.544,0.43599 -0.724,0.75199 -0.58799,1.052 -0.212,2.38799 0.848,2.97599 1.056,0.588 2.38799,0.212 2.97599,-0.844 0.056,-0.1 0.1,-0.2 0.14,-0.308 0.04,-0.1 0.08,-0.19999 0.132,-0.29599 0.59199,-1.056 1.92399,-1.436 2.97198,-0.844 1,0.552 1.392,1.75199 0.952,2.77599 -0.14,0.344 -0.296,0.67999 -0.488,1.01599 -2.06399,3.69999 -6.28397,5.44398 -10.21196,4.53598 -3.84798,-0.93999 -6.73197,-4.00398 -7.53996,-7.74796 -0.22,-0.984 -0.276,-2.02399 -0.16,-3.08399 0.036,-0.38 0.108,-0.748 0.192,-1.116 0.23599,-1.08399 1.25599,-1.83199 2.37999,-1.70799 1.20399,0.132 2.06399,1.212 1.93599,2.41599 -0.0122,0.112 -0.036,0.216 -0.064,0.32 -0.0278,0.108 -0.056,0.216 -0.064,0.332 -0.128,1.20399 0.732,2.28399 1.93599,2.41599 1.196,0.132 2.27999,-0.736 2.41199,-1.93599 0.044,-0.36 -0.024,-0.712 -0.148,-1.024 -0.3,-0.756 -0.44,-1.59599 -0.344,-2.45599 0.092,-0.86 0.404,-1.63599 0.856,-2.30799 0.2,-0.292 0.34,-0.632 0.38,-1.00799 0.044,-0.376 -0.0202,-0.736 -0.156,-1.064 -0.296,-0.752 -0.424,-1.57999 -0.332,-2.43999 0.1,-0.86 0.42,-1.64799 0.868,-2.31999 0.18799,-0.28 0.33199,-0.608 0.37199,-0.972 0.132,-1.19999 -0.73999,-2.27999 -1.93999,-2.41199 -1.19599,-0.132 -2.27999,0.736 -2.41199,1.936 -0.016,0.11599 -0.016,0.22799 -0.008,0.33999 0.004,0.108 0.004,0.216 -0.008,0.328 -0.128,1.2 -1.21199,2.06399 -2.41199,1.93599 -1.19999,-0.13599 -2.06799,-1.21599 -1.93999,-2.41199 0.04,-0.37199 0.172,-0.70399 0.368,-0.98799 0.132,-0.136 0.248,-0.232 0.428,-0.212 1.13999,0.04 2.12799,-0.796 2.25199,-1.93999 0.124,-1.1360002 -0.644,-2.1559902 -1.748,-2.3759902 -0.008,0 -0.0198,0.008 -0.0278,0.004 -0.04,-0.004 -0.088,-0.024 -0.11999,-0.036 -0.024,-0.004 0.016,0.004 0,0 0.016,0.004 -0.024,-0.004 0,0 -0.196,-0.068 -0.304,-0.248 -0.28,-0.456 0.004,-0.04 0.024,-0.076 0.036,-0.116 0.0278,-0.068 0.064,-0.128 0.12,-0.18 0.14,-0.244 0.23599,-0.52 0.26399,-0.816 0.132,-1.19999 -0.73599,-2.28399 -1.94399,-2.41599 -1.19599,-0.132 -2.27999,0.732 -2.41199,1.936 -0.032,0.29599 -0.008,0.58399 0.076,0.85599 0.04,0.06 0.064,0.128 0.076,0.204 0.008,0.036 0.016,0.076 0.0118,0.116 -0.024,0.208 -0.172,0.36 -0.368,0.388 0.016,0 -0.024,-0.004 0,0 -0.024,-0.004 0.016,0 0,0 -0.04,0.004 -0.092,0.0118 -0.124,0.008 -0.016,0 -0.024,-0.008 -0.036,-0.0118 -1.11999,-0.0198 -2.09599,0.804 -2.21999,1.9399902 -0.124,1.144 0.656,2.17599 1.772,2.38399 0.18,0.0202 0.28,0.136 0.37999,0.3 0.124,0.32 0.18,0.672 0.14,1.04 -0.132,1.19999 -1.20799,2.06799 -2.41599,1.93599 -1.20399,-0.132 -2.06799,-1.212 -1.93599,-2.41599 0.0122,-0.112 0.036,-0.216 0.064,-0.32 0.032,-0.108 0.056,-0.216 0.072,-0.332 0.132,-1.20399 -0.74,-2.28399 -1.93999,-2.41599 -1.204,-0.132 -2.27999,0.736 -2.41199,1.93599 -0.04,0.36 0.024,0.712 0.148,1.024 0.292,0.756 0.432,1.59599 0.34,2.45599 -0.096,0.85999 -0.404,1.63599 -0.856,2.30799 -0.2,0.288 -0.34,0.632 -0.38,1.00799 -0.048,0.376 0.0198,0.736 0.156,1.064 0.292,0.752 0.428,1.57599 0.332,2.43999 -0.1,0.86 -0.416,1.64799 -0.872,2.31999 -0.17999,0.28 -0.32799,0.608 -0.36799,0.968 -0.132,1.19999 0.73599,2.28399 1.93999,2.41599 1.19999,0.132 2.27599,-0.736 2.41199,-1.936 0.016,-0.116 0.016,-0.22799 0.008,-0.33999 0,-0.108 0,-0.216 0.008,-0.328 0.132,-1.2 1.20799,-2.06399 2.41599,-1.93599 1.12399,0.12799 1.95599,1.07599 1.94799,2.18399 0.008,0.37599 -0.008,0.75199 -0.048,1.13199 -0.084,0.768 -0.264,1.51199 -0.508,2.20399 -1.52399,3.73999 -5.19198,6.38398 -9.47596,6.38398 -4.43998,0 -8.22796,-2.83999 -9.63996,-6.79598 -0.32,-0.93999 -0.5,-1.95999 -0.5,-3.00798 0,-0.384 0.024,-0.756 0.072,-1.132 0.108,-1.09999 1.044,-1.95599 2.17599,-1.95599 1.212,0 2.192,0.976 2.192,2.18799 0,0.108 -0.016,0.216 -0.032,0.324 -0.016,0.112 -0.032,0.22 -0.032,0.34 0,1.20799 0.97999,2.18399 2.19199,2.18399 1.21199,0 2.19199,-0.976 2.19199,-2.18399 0,-0.364 -0.112,-0.704 -0.268,-1.004 -0.368,-0.72 -0.604,-1.53599 -0.604,-2.40399 0,-0.86399 0.22,-1.66799 0.596,-2.38799 0.168,-0.308 0.276,-0.664 0.276,-1.03999 0,-0.38 -0.108,-0.732 -0.276,-1.044 -0.376,-0.716 -0.596,-1.51999 -0.596,-2.38399 0,-0.868 0.236,-1.68799 0.604,-2.40399 0.156,-0.3 0.268,-0.644 0.268,-1.004 0,-1.21199 -0.98,-2.1879902 -2.19199,-2.1879902 -1.212,0 -2.19199,0.9760002 -2.19199,2.1879902 0,0.116 0.016,0.228 0.032,0.336 0.016,0.108 0.032,0.216 0.032,0.328 0,1.208 -0.98,2.18799 -2.192,2.18799 -1.20799,0 -2.18399,-0.97999 -2.18399,-2.18799 0,-0.372 0.088,-0.716 0.244,-1.01999 0.12,-0.152 0.232,-0.256 0.416,-0.256 1.124,-0.084 2.01999,-1.024 2.01999,-2.1759902 0,-1.14 -0.87999,-2.068 -1.99199,-2.168 -0.0118,0 -0.0198,0.008 -0.036,0.008 -0.04,0 -0.084,-0.016 -0.124,-0.024 -0.016,0 0.024,0 0,0 0.024,0 -0.016,0 0,0 -0.196,-0.048 -0.324,-0.21199 -0.324,-0.42399 0,-0.04 0.0118,-0.08 0.024,-0.116 0.016,-0.072 0.048,-0.136 0.104,-0.192 0.108,-0.264 0.168,-0.544 0.168,-0.844 0,-1.20799 -0.98399,-2.18799 -2.18799,-2.18799 l 0.008,0 c -1.20399,0 -2.18399,0.98 -2.18399,2.18799 0,0.3 0.06,0.58 0.168,0.844 0.052,0.056 0.084,0.12 0.108,0.192 0.004,0.036 0.0198,0.076 0.0198,0.116 0,0.212 -0.132,0.376 -0.328,0.42399 0.016,0 -0.024,0 0,0 -0.024,0 0.016,0 0,0 -0.032,0.008 -0.084,0.024 -0.124,0.024 -0.0118,0 -0.024,-0.008 -0.032,-0.008 -1.116,0.1 -1.99599,1.028 -1.99599,2.168 0,1.1519902 0.89599,2.0919902 2.01999,2.1759902 0.188,0 0.296,0.104 0.416,0.256 0.164,0.30399 0.248,0.64799 0.248,1.01999 0,1.208 -0.98,2.18799 -2.18799,2.18799 -1.208,0 -2.19199,-0.97999 -2.19199,-2.18799 0,-0.112 0.016,-0.22 0.032,-0.328 0.016,-0.108 0.032,-0.22 0.032,-0.336 0,-1.21199 -0.976,-2.1879902 -2.192,-2.1879902 -1.20799,0 -2.19199,0.9760002 -2.19199,2.1879902 0,0.36 0.112,0.704 0.268,1.004 0.376,0.716 0.604,1.53599 0.604,2.40399 0,0.864 -0.216,1.66799 -0.592,2.38399 -0.168,0.312 -0.28,0.664 -0.28,1.044 0,0.37599 0.112,0.73199 0.28,1.03999 0.376,0.72 0.592,1.524 0.592,2.38799 0,0.868 -0.228,1.68399 -0.604,2.40399 -0.156,0.3 -0.268,0.64 -0.268,1.004 0,1.20799 0.984,2.18399 2.19199,2.18399 1.216,0 2.192,-0.976 2.192,-2.18399 0,-0.12 -0.016,-0.228 -0.032,-0.34 -0.016,-0.108 -0.032,-0.216 -0.032,-0.324 0,-1.21199 0.98399,-2.18799 2.19199,-2.18799 1.13599,0 2.07199,0.856 2.17599,1.95599 0.048,0.376 0.08,0.748 0.08,1.132 0,1.04799 -0.184,2.06799 -0.504,3.00798 -1.41599,3.95599 -5.19998,6.79598 -9.64396,6.79598 -4.28398,0 -7.95197,-2.64399 -9.47196,-6.38398 -0.248,-0.692 -0.424,-1.43599 -0.508,-2.20399 -0.044,-0.38 -0.06,-0.756 -0.052,-1.13199 -0.008,-1.108 0.824,-2.056 1.94799,-2.18399 1.208,-0.128 2.28399,0.73599 2.41999,1.93599 0.0122,0.112 0.0122,0.22 0.008,0.328 -0.008,0.112 -0.008,0.22399 0.008,0.33999 0.132,1.2 1.208,2.068 2.41199,1.936 1.2,-0.132 2.07199,-1.216 1.93599,-2.41599 -0.036,-0.36 -0.18399,-0.688 -0.36799,-0.968 -0.456,-0.672 -0.772,-1.45999 -0.868,-2.31999 -0.1,-0.864 0.036,-1.68799 0.328,-2.43999 0.14,-0.328 0.204,-0.688 0.16,-1.064 -0.044,-0.37599 -0.184,-0.71999 -0.384,-1.00799 -0.452,-0.672 -0.76,-1.448 -0.856,-2.30799 -0.092,-0.86 0.048,-1.69999 0.34,-2.45599 0.128,-0.312 0.192,-0.664 0.148,-1.024 -0.132,-1.19999 -1.20799,-2.06799 -2.40399,-1.93599 -1.20799,0.132 -2.07599,1.212 -1.93999,2.41599 0.008,0.116 0.032,0.224 0.064,0.332 0.032,0.104 0.056,0.208 0.064,0.32 0.132,1.20399 -0.732,2.28399 -1.93599,2.41599 -1.2,0.132 -2.27999,-0.736 -2.41599,-1.93599 -0.04,-0.368 0.016,-0.72 0.14,-1.04 0.1,-0.164 0.204,-0.28 0.37999,-0.3 1.12,-0.208 1.896,-1.23999 1.772,-2.38399 -0.124,-1.1359902 -1.096,-1.9599902 -2.21599,-1.9399902 -0.016,0.004 -0.0202,0.0118 -0.036,0.0118 -0.032,0.004 -0.088,-0.004 -0.128,-0.008 -0.016,0 0.024,-0.004 0,0 0.024,-0.004 -0.016,0 0,0 -0.192,-0.0282 -0.34,-0.18 -0.36,-0.388 -0.008,-0.04 0,-0.08 0.004,-0.116 0.016,-0.076 0.04,-0.144 0.084,-0.204 0.08,-0.272 0.104,-0.56 0.072,-0.85599 -0.132,-1.204 -1.212,-2.068 -2.41599,-1.936 -1.208,0.132 -2.07199,1.216 -1.94399,2.41599 0.032,0.296 0.124,0.572 0.26399,0.816 0.056,0.052 0.096,0.112 0.124,0.18 0.0118,0.04 0.032,0.076 0.032,0.116 0.024,0.208 -0.084,0.388 -0.27599,0.456 0.0202,-0.004 -0.0198,0.004 0,0 -0.0198,0.004 0.0202,-0.004 0,0 -0.036,0.0118 -0.084,0.032 -0.12,0.036 -0.008,0.004 -0.024,-0.004 -0.032,-0.004 -1.104,0.22 -1.872,1.23999 -1.748,2.3759902 0.128,1.14399 1.12,1.97999 2.25599,1.93999 0.18,-0.0202 0.296,0.076 0.424,0.212 0.196,0.284 0.328,0.616 0.368,0.98799 0.128,1.196 -0.736,2.276 -1.93599,2.41199 -1.204,0.128 -2.28399,-0.73599 -2.41599,-1.93599 -0.008,-0.112 -0.008,-0.22 -0.008,-0.328 0.008,-0.112 0.008,-0.224 -0.008,-0.33999 -0.132,-1.2 -1.216,-2.068 -2.40799,-1.936 -1.204,0.132 -2.07599,1.212 -1.94399,2.41199 0.044,0.364 0.184,0.692 0.372,0.972 0.45199,0.672 0.76799,1.45999 0.87199,2.31999 0.092,0.86 -0.04,1.68799 -0.336,2.43999 -0.136,0.328 -0.2,0.688 -0.152,1.064 0.04,0.37599 0.176,0.71599 0.376,1.00799 0.456,0.672 0.764,1.44799 0.856,2.30799 0.096,0.86 -0.044,1.69999 -0.344,2.45599 -0.12,0.312 -0.18,0.664 -0.144,1.024 0.132,1.19999 1.212,2.06799 2.40799,1.93599 1.208,-0.132 2.06799,-1.212 1.93999,-2.41599 -0.0122,-0.116 -0.036,-0.224 -0.064,-0.332 -0.032,-0.104 -0.056,-0.208 -0.064,-0.32 -0.132,-1.20399 0.732,-2.28399 1.932,-2.41599 1.13199,-0.124 2.14799,0.624 2.37999,1.70799 0.088,0.368 0.15599,0.736 0.19599,1.116 0.112,1.06 0.064,2.09999 -0.15999,3.08399 -0.812,3.74398 -3.69599,6.80797 -7.54397,7.74796 -3.92399,0.908 -8.14397,-0.83599 -10.21196,-4.53598 -0.18,-0.336 -0.348,-0.67199 -0.488,-1.01599 -0.44,-1.024 -0.036,-2.22399 0.952,-2.77599 1.05199,-0.592 2.37999,-0.212 2.97598,0.844 0.052,0.096 0.092,0.196 0.128,0.29599 0.04,0.108 0.084,0.208 0.14,0.308 0.592,1.056 1.928,1.432 2.97599,0.844 1.06,-0.588 1.44,-1.92399 0.848,-2.97599 -0.18,-0.316 -0.432,-0.564 -0.716,-0.75199 -0.68,-0.444 -1.27999,-1.04 -1.70799,-1.8 -0.42,-0.75599 -0.62,-1.55999 -0.636,-2.37199 -0.008,-0.352 -0.092,-0.71199 -0.272,-1.04399 -0.188,-0.328 -0.452,-0.592 -0.744,-0.776 -0.68399,-0.444 -1.27199,-1.036 -1.68799,-1.79199 -0.428,-0.756 -0.62,-1.584 -0.64,-2.39599 -0.0122,-0.34 -0.092,-0.688 -0.26399,-1.004 -0.588,-1.05199 -1.924,-1.43199 -2.98399,-0.83999 -1.048,0.58799 -1.428,1.91999 -0.84,2.97598 0.056,0.104 0.124,0.192 0.196,0.28 0.064,0.084 0.124,0.172 0.18,0.272 0.588,1.052 0.216,2.38799 -0.84,2.97599 -1.05599,0.592 -2.39199,0.216 -2.97998,-0.84 -0.184,-0.324 -0.268,-0.668 -0.276,-1.01199 0.0278,-0.192 0.072,-0.336 0.232,-0.424 0.94799,-0.628 1.26799,-1.87999 0.69999,-2.88799 -0.55599,-0.996 -1.76799,-1.37599 -2.79599,-0.92 -0.008,0.008 -0.016,0.016 -0.024,0.024 -0.032,0.016 -0.088,0.032 -0.11599,0.04 -0.024,0.008 0.0118,-0.008 0,0 0.0118,-0.008 -0.024,0.008 0,0 -0.192,0.052 -0.388,-0.0278 -0.496,-0.212 -0.016,-0.036 -0.024,-0.076 -0.032,-0.112 -0.0198,-0.076 -0.024,-0.15199 -0.008,-0.21999 -0.032,-0.28 -0.12,-0.556 -0.268,-0.816 -0.584,-1.056 -1.96399,-1.424 -3.01599,-0.832 l 16.21993,29.25188 c 0,0 0.132,0.08 0.344,1.268 0.208,1.18799 2.79599,14.13594 2.79599,14.13594 0,0 20.21192,-4.88798 36.02385,-4.36399 l 0.024,0" />

<path id="kroon_parel1_horizontale_streep" style="fill:none;stroke:#000000;stroke-width:1"
     d="m 131.876,27.903493 3.912,-2.276" />

<path id="kroon_parel1_buiten_zilver" style="fill:#dfe0e1;stroke:#000000;stroke-width:1"
     d="m 134.14796,26.523493 c 0.716,1.3 0.236,2.93199 -1.05999,3.64399 -1.308,0.712 -2.94,0.236 -3.648,-1.068 -0.712,-1.3 -0.232,-2.93199 1.064,-3.64398 1.30799,-0.712 2.93598,-0.236 3.64398,1.06799" />
	 
<path id="kroon_parel1_binnen_zwart" style="fill:#000000;stroke:#000000;stroke-width:1"
     d="m 132.25597,27.563493 c 0.14,0.252 0.044,0.568 -0.212,0.708 -0.248,0.136 -0.568,0.044 -0.708,-0.208 -0.136,-0.256 -0.048,-0.572 0.212,-0.712 0.248,-0.136 0.564,-0.044 0.708,0.212" />

<path id="kroon_parel2_horizontale_streep" style="fill:none;stroke:#000000;stroke-width:1"
     d="m 151.45589,21.039523 9.02796,-1.152" />

<path id="kroon_parel2_verticale_streep" style="fill:none;stroke:#000000;stroke-width:1"
     d="m 156.54387,24.975503 -1.148,-9.02396" />

<path id="kroon_parel2_buiten_zilver" style="fill:#dfe0e1;stroke:#000000;stroke-width:1"
     d="m 158.63586,20.123523 c 0.184,1.47199 -0.856,2.812 -2.32399,3.00399 -1.472,0.188 -2.81999,-0.852 -3.008,-2.324 -0.188,-1.472 0.856,-2.816 2.324,-3.004 1.468,-0.192 2.816,0.852 3.008,2.324" />

<path id="kroon_parel2_binnen_zwart" style="fill:#000000;stroke:#000000;stroke-width:1"
     d="m 156.48787,20.395523 c 0.036,0.288 -0.168,0.548 -0.456,0.588 -0.276,0.032 -0.544,-0.168 -0.584,-0.456 -0.032,-0.284 0.172,-0.544 0.452,-0.584 0.288,-0.036 0.552,0.168 0.588,0.452" />

<path id="kroon_parel3_horizontale_streep" style="fill:none;stroke:#000000;stroke-width:1"
     d="m 175.43979,18.983523 9.10396,0" />

<path id="kroon_parel3_verticale_streep" style="fill:none;stroke:#000000;stroke-width:1"
     d="m 179.98777,23.535513 0,-9.1" />

<path id="kroon_parel3_buiten_zilver" style="fill:#dfe0e1;stroke:#000000;stroke-width:1"
     d="m 182.67576,18.983523 c 0,1.484 -1.204,2.68799 -2.68799,2.68799 -1.48,0 -2.67999,-1.204 -2.68,-2.688 0,-1.484 1.2,-2.68398 2.68,-2.68398 1.484,0 2.688,1.2 2.688,2.684" />

<path id="kroon_parel3_binnen_zwart" style="fill:#000000;stroke:#000000;stroke-width:1"
     d="m 180.51177,18.983523 c 0,0.288 -0.232,0.524 -0.524,0.524 -0.288,0 -0.52,-0.236 -0.52,-0.524 0,-0.288 0.232,-0.52 0.52,-0.52 0.292,0 0.524,0.232 0.524,0.52" />

<path id="kroon_parel4_horizontale_streep" style="fill:none;stroke:#000000;stroke-width:1"
     d="m 208.54725,21.039523 -9.03196,-1.152" />

<path id="kroon_parel4_verticale_streep" style="fill:none;stroke:#000000;stroke-width:1"
     d="m 203.45527,24.975503 1.156,-9.02396" />

<path id="kroon_parel4_buiten_zilver" style="fill:#dfe0e1;stroke:#000000;stroke-width:1"
     d="m 201.37168,20.123523 c -0.192,1.472 0.848,2.812 2.316,3.004 1.476,0.188 2.82,-0.852 3.008,-2.324 0.188,-1.472 -0.856,-2.816 -2.324,-3.004 -1.46799,-0.192 -2.81199,0.852 -3,2.324" />

<path id="kroon_parel4_binnen_zwart" style="fill:#000000;stroke:#000000;stroke-width:1"
     d="m 203.51967,20.395523 c -0.04,0.288 0.16,0.548 0.448,0.588 0.288,0.032 0.544,-0.168 0.584,-0.456 0.04,-0.284 -0.168,-0.544 -0.452,-0.584 -0.288,-0.036 -0.548,0.168 -0.58,0.452" />

<path id="kroon_parel5_horizontale_streep" style="fill:none;stroke:#000000;stroke-width:1"
     d="m 228.12757,27.903493 -3.916,-2.276" />

<path id="kroon_parel5_buiten_zilver" style="fill:#dfe0e1;stroke:#000000;stroke-width:1"
     d="m 225.85158,26.523493 c -0.716,1.3 -0.236,2.932 1.064,3.644 1.304,0.712 2.936,0.236 3.64398,-1.068 0.712,-1.3 0.232,-2.932 -1.064,-3.644 -1.308,-0.712 -2.93598,-0.236 -3.644,1.068" />

<path id="kroon_parel5_binnen_zwart" style="fill:#000000;stroke:#000000;stroke-width:1"
     d="m 227.74757,27.563493 c -0.144,0.252 -0.048,0.568 0.208,0.708 0.248,0.136 0.568,0.044 0.708,-0.208 0.14,-0.256 0.048,-0.572 -0.212,-0.712 -0.248,-0.136 -0.564,-0.044 -0.704,0.212" />

<path id="kroon_band_boven_goud" style="fill:#fdc300;stroke:#000000;stroke-width:1"
     d="m 179.99577,42.075433 c 13.28,0 26.21189,1.51199 38.63184,4.35598 0.06,0.008 0.116,0.0282 0.164,0.0282 0.5,0 0.9,-0.396 0.9,-0.896 0,-0.432 -0.32,-0.78399 -0.728,-0.86799 -12.52395,-2.86 -25.5759,-4.36398 -38.96784,-4.36398 l 0.016,0 c -13.39594,0 -26.44789,1.504 -38.97184,4.36398 -0.412,0.084 -0.728,0.436 -0.72799,0.868 0,0.5 0.396,0.896 0.896,0.896 0.056,0 0.112,-0.02 0.168,-0.0282 12.41595,-2.84399 25.3479,-4.35598 38.63584,-4.35598 l -0.016,0" />

<path id="kroon_steen1_rood" style="fill:#e2001a;stroke:#000000;stroke-width:1"
     d="m 140.97993,52.591383 1.156,-3.388 7.276,1.984 -6.076,4.472 -2.356,-3.068" />

<path id="kroon_steen2_blauw"
     style="fill:#004a99;stroke:#000000;stroke-width:1"
     d="m 166.25183,48.211403 c 0.272,1.584 -1.848,3.268 -4.732,3.75599 -2.884,0.488 -5.43998,-0.396 -5.71198,-1.97999 -0.264,-1.588 1.852,-3.268 4.73998,-3.75599 2.87999,-0.492 5.43598,0.396 5.70398,1.98" />

<path id="kroon_steen3_rood" style="fill:#e2001a;stroke:#000000;stroke-width:1"
     d="m 173.2038,47.631413 6.784,-3.284 6.792,3.284 -6.792,3.28 -6.784,-3.28" />

<path id="kroon_steen4_blauw" style="fill:#004a99;stroke:#000000;stroke-width:1"
     d="m 193.75171,48.211403 c -0.276,1.584 1.848,3.268 4.73198,3.756 2.884,0.488 5.44,-0.396 5.712,-1.98 0.26,-1.588 -1.852,-3.268 -4.73598,-3.756 -2.884,-0.492 -5.444,0.396 -5.708,1.98" />

<path id="kroon_steen5_rood" style="fill:#e2001a;stroke:#000000;stroke-width:1"
     d="m 219.02361,52.591383 -1.16,-3.388 -7.272,1.984 6.072,4.472 2.36,-3.068" />

<path id="kroon_band_onder_goud" style="fill:#fdc300;stroke:#000000;stroke-width:1"
     d="m 179.99577,55.867373 c 12.37195,0 24.3999,1.424 35.95185,4.104 0.056,0.0118 0.144,0.024 0.204,0.024 0.488,0 0.896,-0.4 0.896,-0.896 0,-0.432 -0.312,-0.8 -0.724,-0.88 -11.66395,-2.7 -23.8479,-4.07598 -36.32785,-4.07598 l 0.016,0 c -12.48795,0 -24.6719,1.376 -36.33585,4.07598 -0.412,0.08 -0.724,0.448 -0.724,0.88 0,0.496 0.408,0.896 0.9,0.896 0.06,0 0.144,-0.0122 0.2,-0.024 11.55595,-2.68 23.58,-4.104 35.95985,-4.104 l -0.016,0" />

<g id="leeuw">

<path id="leeuw_links_poot_goud" style="fill:#fdc300;stroke:#000000;stroke-width:1"
       d="m 79.144187,187.04282 c 0,0 -1.127995,-4.21998 -5.503977,-6.35997 -4.375982,-2.13599 -6.307974,-2.65599 -7.927967,-3.49199 -1.803992,-0.96799 -3.135987,-2.72798 -3.511985,-4.81598 0,0 -1.387995,-4.76798 0.647997,-12.92794 1.443994,-5.77198 1.887992,-8.82796 1.887992,-8.82796 0,-0.24416 -0.191999,-0.444 -0.443998,-0.444 0,0 -9.071962,-1.79199 -14.599939,-7.05997 l -1.14,-4.62798 1.711993,-6.34 7.959967,-2.22799 c 1.019996,-1.82399 2.607989,-3.27998 4.523981,-4.13598 1.199995,-0.532 2.53199,-0.828 3.927984,-0.828 0.607997,0 1.084,0.032 1.664,0.14016 12.887945,2.21199 22.203905,13.71595 22.203905,27.30389 0,1.59199 -0.148,3.17199 -0.408,4.68798 0,0.248 -0.21199,0.464 -0.45999,0.464 -0.248,0 -0.444,-0.19616 -0.444,-0.444 -0.58,-2.53999 -2.78799,-3.82398 -2.78799,-3.82398 -0.072,-0.072 -0.184,-0.112 -0.3,-0.112 -0.24,0 -0.444,0.2 -0.444,0.44399 -0.428,5.95998 -2.90799,8.62397 -2.90799,8.62397 -0.49999,0.776 -0.788,1.7 -0.788,2.696 0,2.76 2.236,5 5,5 0,0 4.59198,0.0602 9.86396,-4.96398 5.267973,-5.02398 7.307973,-2.63599 7.751963,-1.99199 0.456,0.648 -0.1,5.72 -0.1,5.72 0,0 2.33999,2.48799 1.896,3.43199 -0.452,0.94799 -1.74,5.42397 -1.74,5.42397 0,0 2.036,1.092 1.144,4.27199 -0.896,3.184 -3.18799,4.58 -3.188,4.58 0,0 -7.507973,6.212 -17.851923,0.19616" />

<path id="leeuw_links_lid_goud" style="fill:#fdc300;stroke:#000000;stroke-width:1"
       d="m 49.196312,136.87503 c 0.832,0.588 1.84,0.932 2.936,0.932 2.587989,0 4.684,-1.96 4.995979,-4.45998 0.452,-3.38 2.611989,-6.224 5.619976,-7.56397 0,0 0.2,-0.0758 0.156,-0.29984 -0.056,-0.224 -1.719993,-3.20799 -1.72,-3.208 0,0 -10.643956,2.78399 -11.98795,14.6" />

<path id="leeuw_links_voorpoot_goud" style="fill:#fdc300;stroke:#000000;stroke-width:1"
       d="m 88.603747,79.107273 c 0,0 7.53997,-7.90396 15.891933,-10.73995 8.35597,-2.83199 9.44797,-5.24398 10.44396,-7.68397 0.996,-2.43999 4.20398,-14.14794 11.06796,-13.54794 6.85997,0.592 4.30398,15.04393 4.22798,16.45993 -0.072,1.41599 -3.21199,3.87598 -3.35599,4.91998 -0.148,1.04799 -4.17598,5.14798 -4.17598,5.14798 0,0 -3.51199,5.07198 -8.57997,8.50396 -5.07197,3.43199 -9.91995,9.10396 -10.66795,10.74396 -2.23599,-2.09199 -14.851943,-13.80395 -14.851943,-13.80395" />

<path   id="leeuw_links_romp_goud" style="fill:#fdc300;stroke:#000000;stroke-width:1" 
       d="m 9.612476,172.95488 c 0.747997,-1.19599 1.415995,-2.83599 2.091992,-5.74797 1.559993,-7.15997 7.24797,-11.90795 11.411952,-15.96394 4.155983,-4.04798 2.107992,-8.35196 2.107992,-8.35196 -0.048,-0.19616 -0.243999,-0.34 -0.451999,-0.34 -0.923996,0.14816 -1.887992,0.21984 -2.847988,0.21984 -9.911958,0 -17.939925,-8.02797 -17.939925,-17.93193 0,-3.09598 0.783997,-6.01197 2.163991,-8.55196 0,0 2.243991,-3.78398 4.627981,-5.97198 2.39199,-2.18799 2.483989,-5.18797 2.455989,-5.61997 0,-2.03999 -1.567993,-3.71999 -3.563985,-3.89999 -1.387994,-0.136 -3.815984,0.28 -3.815984,0.28 -0.251999,0 -0.451998,-0.19616 -0.451998,-0.44 0,-0.096 0.02784,-0.17983 0.08,-0.25599 1.615993,-2.467987 4.411981,-4.103987 7.583968,-4.103987 1.335995,0 2.619989,0.29984 3.763984,0.82 0.052,0.016 0.124,0.04 0.188,0.04 0.207999,0 0.383998,-0.13984 0.435998,-0.332 1.491994,-4.75998 -0.355999,-12.99195 -0.355999,-12.99195 -2.33599,-8.50396 0.659998,-20.52791 0.659998,-20.52791 0.0038,-0.0278 0.0038,-0.048 0.0038,-0.08 0,-0.248 -0.196,-0.448 -0.447999,-0.448 l -0.032,0 c -3.155987,-0.092 -4.87598,0.676 -4.87598,0.676 -0.064,0.032 -0.136,0.048 -0.203999,0.048 -0.251999,0 -0.447998,-0.2 -0.447998,-0.448 0,0 0.595997,-6.57197 8.791963,-6.43597 0.02784,0.004 0.06,0.008 0.092,0.008 0.227999,0 0.415998,-0.16 0.447998,-0.376 0,0 4.019983,-9.69996 15.195937,-9.49196 0.04,-0.0118 0.072,0.0122 0.111999,0.0122 0.243999,0 0.447998,0.196 0.447998,0.444 0,0.184 -0.111999,0.344 -0.271999,0.412 -5.195978,3.40798 -6.815971,10.77195 -6.815971,10.77195 -0.06,0.156 -0.092,0.324 -0.092,0.5 0,0.788 0.635997,1.42399 1.431994,1.42399 0,0 3.735985,-0.552 4.971979,1.104 0.092,0.08 0.156,0.204 0.156,0.336 0,0.168 -0.096,0.312 -0.227999,0.38799 0,0 -9.299962,5.41998 -9.447961,18.69993 -0.147999,13.27594 4.92398,19.539917 -7.455969,34.907847 -0.523998,0.852 -3.495985,5.29598 -3.495985,5.29598 -0.671998,1.112 -1.051996,2.41199 -1.051996,3.80798 0,4.07999 3.299986,7.37997 7.383969,7.37997 0,0 8.995963,0.972 12.379949,-11.15995 1.027995,-3.69598 3.323986,-6.87997 6.267974,-8.05997 3.727984,-1.48799 5.763976,-7.10797 5.763976,-8.50396 0,0 19.12792,-26.147887 60.703747,-8.443967 -1.91999,0.964 -3.21198,2.96399 -3.21198,5.263977 0,2.46399 1.51599,4.57198 3.66798,5.44398 0,0 7.84797,3.71198 14.50794,-0.576 0.4,-0.264 0.88,-0.42 1.392,-0.42 0.73599,0 1.37999,0.332 1.83999,0.836 0.24,0.324 0.544,0.604 0.91199,0.78 0,0 0.076,5.16798 -0.48399,6.26797 0.67599,0.864 2.77998,1.244 2.93198,3.67999 0.148,2.43599 -0.41199,5.13597 -1.22799,5.79997 0.084,0.468 -0.116,2.65599 -0.964,3.39999 l -3.60798,4.98398 c 0,0 -2.63199,-0.556 -6.36398,-1.528 -3.72798,-0.96799 -4.37998,-1.22799 -7.28796,-4.66398 l -6.86798,-0.75199 c 0,0 -6.515973,-2.58399 -9.303963,-3.19999 0,0 -5.77997,-1.81599 -8.64796,-4.12798 -0.068,-0.04 -0.136,-0.0518 -0.216,-0.0518 -0.092,0 -0.18,0.0288 -0.248,0.08 0,0 -8.375966,3.49998 -13.255945,3.74798 -0.311999,-0.016 -0.671998,-0.016 -0.987996,-0.016 -10.759955,0 -19.531919,8.50396 -19.975917,19.15592 0,0 3.159987,18.91992 -8.031967,29.21588 0,0 -1.659993,1.41999 -3.195986,8.57996 -0.036,0.208 -0.219999,0.368 -0.443999,0.368 -0.179999,0 -0.343998,-0.112 -0.407998,-0.27616 -0.399998,-1.07199 -1.667993,-6.68397 -3.375986,-8.42396 -1.719993,-1.74 -1.923992,-2.39599 -1.923992,-2.39599 -0.068,-0.152 -0.219999,-0.29216 -0.399998,-0.29216 -0.227999,0 -0.415998,0.16416 -0.443998,0.38 -0.519998,4.47998 -1.839993,6.25197 -1.839993,6.25197 -0.903996,1.23999 -1.427994,2.76799 -1.427994,4.41998 0,1.87199 0.679998,3.58799 1.811993,4.90798 0,0 2.45199,2.89199 4.491981,3.73999 2.035992,0.84399 6.815972,3.23198 6.015975,6.68397 0,0 -0.008,0.448 -1.055996,0.152 -0.783996,0.25984 -5.107978,2.12799 -5.107978,2.12799 l -0.275999,-0.0224 c 0,0 -1.103996,0.95999 -3.355986,0.676 -2.147991,0.016 -5.807976,2.23599 -5.899976,2.20799 -0.092,-0.0288 -2.40799,0.54799 -4.343982,-1.516 -1.195995,0.368 -4.78798,2.89599 -5.895975,2.20799 -1.111995,-0.68399 -2.38799,-3.33198 -1.043996,-9.03596 1.343995,-5.70798 -0.147999,-11.33995 -0.291998,-12.57195 -0.747997,-1.19199 -3.583986,-4.58398 -3.583986,-4.58398" />

<path id="leeuw_links_tong_rood" style="fill:#e2001a;stroke:#000000;stroke-width:1"
       d="m 88.452147,57.919363 c 0.088,-0.084 0.132,-0.196 0.132,-0.32 0,-0.248 -0.2,-0.44399 -0.448,-0.44399 l -27.971881,0 c 0,0 -0.487998,8.52396 13.867942,7.79596 2.739989,-0.14 9.599959,-2.52399 14.419939,-7.03197" />

<path id="leeuw_links_boventanden_wit" style="fill:#ffffff;stroke:#000000;stroke-width:1"
       d="m 72.256216,51.807793 -2.043992,4.18398 c -0.068,0.164 -0.231999,0.276 -0.415998,0.276 -0.179999,0 -0.335999,-0.104 -0.403998,-0.26 l -2.151991,-4.19998 -0.987996,4.18798 c -0.064,0.168 -0.223999,0.288 -0.419998,0.288 -0.188,0 -0.343999,-0.112 -0.411999,-0.272 l -0.987996,-4.21598 -0.987996,4.19598 c -0.064,0.168 -0.223999,0.288 -0.415998,0.288 -0.187999,0 -0.347998,-0.112 -0.415998,-0.272 l -0.975996,-4.22398 c 0,0 3.827984,-1.468 10.619956,0.024" />

<path id="leeuw_links_ondertanden" style="fill:#ffffff;stroke:#000000;stroke-width:1"
       d="m 74.048208,65.251333 -2.047991,-4.18398 c -0.072,-0.164 -0.231999,-0.276 -0.411998,-0.276 -0.18,0 -0.335999,0.108 -0.407999,0.26 l -2.155991,4.19998 -0.983996,-4.18798 c -0.064,-0.168 -0.227999,-0.288 -0.423998,-0.288 -0.183999,0 -0.339998,0.112 -0.407998,0.276 l -0.987996,4.21198 -0.983996,-4.19598 c -0.068,-0.168 -0.231999,-0.288 -0.423998,-0.288 -0.183999,0 -0.339999,0.112 -0.407999,0.272 l -0.979995,4.21998 c 0,0 3.831984,1.472 10.623955,-0.0198" />

<path id="leeuw_links_kop_goud" style="fill:#fdc300;stroke:#000000;stroke-width:1"      
       d="m 74.032208,64.951333 c 0.243999,0 0.447999,0.2 0.447999,0.448 0,0.06 -0.016,0.12 -0.04,0.176 -1.483994,2.54399 -1.567994,3.85998 -1.567994,3.85998 0.008,0.288 0.14,0.54 0.347999,0.712 0,0 0.471998,0.484 1.267995,0.436 9.52796,-0.6 14.61594,5.76798 19.59192,11.33595 4.97198,5.57198 13.815943,12.95995 13.815943,12.95995 0.184,0.0518 0.324,0.224 0.324,0.432 0,0.2 -0.144,0.372 -0.332,0.428 -1.012,0.32399 -1.62799,0.97199 -2.59999,1.69999 -9.367963,6.735967 -23.179903,5.199977 -23.179903,5.199977 -0.244,0 -0.444,0.20384 -0.444,0.45199 0.452,2.34 0.34,3.21199 0.34,3.21199 0,0.24416 -0.204,0.448 -0.452,0.448 -0.024,0 -0.052,0 -0.08,-0.006 -4.343981,-0.712 -8.127966,-4.57998 -8.127966,-4.57998 -0.084,-0.08 -0.191999,-0.13216 -0.315998,-0.13216 -0.251999,0 -0.447999,0.20384 -0.447999,0.448 -0.048,0.548 -0.056,0.424 -0.879996,2.98798 -0.927996,3.71199 1.515994,6.34398 1.515994,6.34398 0.092,0.0842 0.151999,0.2 0.151999,0.336 0,0.248 -0.199999,0.448 -0.447998,0.448 -0.048,0 -0.1,-0.006 -0.143999,-0.0256 -7.015971,-1.236 -10.939955,-6.58398 -10.939955,-6.58398 -0.076,-0.13216 -0.223999,-0.22016 -0.387998,-0.22016 -0.14,0 -0.263999,0.064 -0.343999,0.16384 -1.091995,0.916 -3.259986,4.16399 -3.259986,4.16399 -0.064,0.17599 -0.231999,0.30399 -0.423998,0.30399 -0.216,0 -0.399999,-0.152 -0.439999,-0.35599 0,0 -0.767996,-1.268 -2.159991,-2.95999 -1.395994,-1.69199 -1.815992,-4.22398 -1.531993,-5.51598 0.008,-0.032 0.008,-0.0678 0.008,-0.104 0,-0.248 -0.199999,-0.448 -0.439998,-0.448 -0.188,0 -0.351999,0.11584 -0.415999,0.27616 0,0 -2.591989,3.08399 -7.14797,4.35198 -1.651993,0.592 -3.835984,1.516 -4.247982,1.66 -0.152,0.096 -0.195999,0.0922 -0.387999,0.16384 -0.247999,0 -0.451998,-0.20384 -0.451998,-0.448 0,-0.0922 0.032,-0.17984 0.076,-0.25184 0,0 2.239991,-2.33999 2.575989,-4.77998 0.339999,-2.439987 1.063996,-7.063967 3.167987,-9.031957 0.08,-0.0762 0.131999,-0.192 0.131999,-0.312 0,-0.248 -0.203999,-0.448 -0.447998,-0.448 -0.123999,0 -0.235999,0.0518 -0.311998,0.13184 -3.039988,1.80399 -5.215979,1.50399 -5.215979,1.50399 -0.247999,0 -0.443998,-0.20384 -0.443998,-0.44799 -0.01184,-0.496 0.359999,-1.084 0.983996,-1.984 4.83198,-6.95597 4.527981,-15.47193 4.527981,-15.47193 0,-0.248 -0.199999,-0.448 -0.451998,-0.448 -0.084,0 -0.163999,0.0256 -0.227999,0.064 -3.703985,2.22399 -8.471965,1.93999 -8.471965,1.93999 -0.251999,0 -0.451998,-0.20384 -0.451998,-0.452 0,-0.104 0.04,-0.208 0.1,-0.28 0,0 5.195978,-4.87598 5.863975,-15.84393 0.227999,-5.51998 2.48399,-11.40795 4.267983,-12.67595 0.139999,-0.076 0.247999,-0.22 0.247999,-0.392 0,-0.064 -0.01216,-0.12399 -0.02816,-0.17599 -0.263999,-0.896 -1.499994,-4.07999 -3.395986,-6.01998 -1.903992,-1.93999 -1.927992,-3.73198 -1.927992,-3.73198 0,-0.536 0.435998,-0.968 0.971996,-0.968 0,0 3.355986,0.12 5.871975,2.70799 0.08,0.12 0.219999,0.2 0.375999,0.2 0.131999,0 0.255999,-0.056 0.335998,-0.152 0,0 1.063996,-1.008 1.783993,-1.536 1.551993,-1.19999 3.511985,-1.91199 5.635976,-1.91199 2.015992,0 3.887984,0.652 5.411978,1.756 0.963996,0.73599 2.083991,1.28399 3.303986,1.59199 0,0 4.343982,0.868 7.583969,0.42 0,0 4.64798,-0.556 6.099974,0.208 0.863997,0.34799 1.475994,1.19199 1.475994,2.18399 -0.092,1.82399 -1.327994,3.26798 -1.327994,3.26798 -0.076,0.084 -0.132,0.196 -0.132,0.32 0,0 0.124,1.332 -0.01184,3.89199 0,1.09999 -0.747997,2.01999 -1.767992,2.27999 -0.427999,0.164 -1.927992,0.288 -4.295983,-0.048 -2.36799,-0.336 -6.323973,-0.108 -6.323973,-0.108 -2.875988,0.276 -5.131979,2.69999 -5.131979,5.64797 0,1.28 0.427998,2.46399 1.143995,3.41199 0,0 2.775989,4.30798 12.255949,3.87598" />

<path id="leeuw_links_oog_zwart" style="fill:#000000;stroke:#000000;stroke-width:1"
       d="m 60.548265,41.951433 c 0.195999,0.164 0.311998,0.408 0.311998,0.68 0,0.49599 -0.399998,0.89599 -0.895996,0.89599 -0.495998,0 -0.891996,-0.4 -0.891996,-0.89599 0,-0.28 0.123999,-0.532 0.327998,-0.696" />

<path id="leeuw_links_griebels_zwart" style="fill:none;stroke:#000000;stroke-width:1"
       d="m 105.01208,169.2829 c 0,0 -2.97599,-1.256 -8.639963,1.80799 -1.12,0.592 -3.21199,1.78399 -4.85198,2.08399 m -16.559932,2.68399 c 0,0 -12.679948,-2.23599 -7.831968,-11.26395 m -5.003979,-21.77991 c 0,0 6.495973,3.95198 13.427944,3.65598 M 34.376373,134.08705 c 0,0 -2.011991,2.31599 -1.635993,8.13196 0.367999,5.81998 -0.603997,6.93597 -1.043995,8.12797 m 73.479695,28.12388 c 0,0 -6.123973,1.34399 -14.703943,-2.98399 M 49.320311,48.251403 c 0,0 -1.979992,-3.36798 -3.979983,-6.51597 -0.791997,-1.83999 1.159995,-0.608 1.395994,-0.496 0.235999,0.112 3.507985,2.43599 4.523981,3.67999 m -5.543977,1.71599 c 0,0 0.699997,2.08799 1.319995,2.90799 m 34.659856,53.863767 c 0,0 -0.672,-6.119967 0.592,-7.163967 M 60.744264,106.26716 c 0,0 3.579985,-3.05599 2.015991,-7.755967 m -0.931996,-12.08795 c 0,0 2.691989,6.48798 7.459969,8.94797 1.843992,-2.25199 2.983988,-4.92398 2.615989,-9.69596 m -9.779959,-43.62382 c 0.056,0.188 0.08,0.38 0.08,0.58 0,1.23599 -1.003996,2.23599 -2.239991,2.23599 -1.231995,0 -2.235991,-1 -2.235991,-2.23599 0,-0.22 0.032,-0.432 0.092,-0.632 M 21.400427,197.64278 c 0,0 1.559994,-4.39998 -1.267994,-9.32396 -1.115996,-2.83599 -1.195995,-4.09998 0,-5.59198 M 66.53224,76.799283 c 0,0 0.227999,4.69998 8.271965,7.45997 0.291999,-3.92398 1.571994,-7.68796 0.903996,-9.62396 m -21.711909,2.60799 c 0,0 2.535989,5.14798 9.55196,7.08797 -0.451998,-3.57998 0,-8.20796 0.223999,-8.80396 M 52.0323,41.883433 c 0,0 2.983988,0.5 4.84798,0.152 1.867992,-0.348 6.611972,-0.2 8.679964,0.72 M 31.616385,196.29879 c 0,0 1.123995,-2.012 -3.871984,-5.81598 -1.867992,-1.71599 -2.915988,-5.14798 -3.211987,-6.56397 m 39.815835,-33.68386 c 0,0 2.755988,0.672 5.443977,0.368 m 57.231764,-27.33589 c 0,0 -3.67998,-0.728 -5.36798,-1.03999 -2.01199,-0.372 -5.89197,-2.61199 -6.56397,-3.43599 m 12.46395,-3.20399 c 0,0 -3.51599,-0.97199 -6.56797,-0.74399 -3.05999,0.21983 -7.68797,0.59199 -8.57597,0.44399 M 49.376311,65.235333 c 0,0 -0.747997,5.89198 3.503985,8.50397 -0.08,-3.57999 1.007996,-5.79598 1.783993,-7.31197 m 17.835926,2.16399 c 0,0 -10.523956,1.56799 -15.967934,-9.69596 -0.343998,-1.272 -0.375998,-2.16399 0.823997,-2.61199 1.195995,-0.444 1.307994,-1.98799 1.491994,-2.91199 0.179999,-0.91999 2.555989,-4.84798 4.76798,-5.29198 0,0 -0.068,-4.92398 1.343994,-5.44797 m 61.771744,10.73995 c 0,0 -3.43998,1.12 -4.47598,4.77598 -0.872,1.81999 -4.01198,4.71598 -4.55598,4.92398 m 12.38795,-5.33598 c 0,0 -3.43199,1.116 -4.47998,4.77198 -0.868,1.82 -4.00799,4.71998 -4.54398,4.92398 M 78.164191,45.999413 c 0,0 -3.203986,-0.532 -5.143978,-0.16" />

<path id="leeuw_links_klauw1_rood" style="fill:#e2001a;stroke:#000000;stroke-width:1"
       d="m 134.97996,52.263393 c -0.024,0.18 -0.144,0.33599 -0.332,0.38399 -0.116,0.0278 -0.224,0.0118 -0.32,-0.04 -1.43599,-0.65599 -3.09199,-0.84799 -4.74398,-0.43999 -0.988,0.244 -1.88399,0.67999 -2.65199,1.25599 -0.8,-0.612 -1.41599,-1.49599 -1.67599,-2.55999 -0.324,-1.30399 -0.052,-2.61199 0.644,-3.64798 0.33999,0.068 0.71199,0.068 1.07599,-0.024 0.228,-0.052 0.44,-0.136 0.628,-0.244 0.376,-0.204 0.78,-0.36 1.20799,-0.468 2.70399,-0.668 5.43198,0.98 6.09998,3.68399 0.172,0.71199 0.184,1.42799 0.06,2.09999" />

<path id="leeuw_links_klauw2_rood" style="fill:#e2001a;stroke:#000000;stroke-width:1"
       d="m 136.55195,57.611363 c -0.024,0.18 -0.152,0.336 -0.34,0.384 -0.112,0.024 -0.22,0.0118 -0.312,-0.04 -1.43999,-0.66 -3.09598,-0.85199 -4.74798,-0.444 -0.98799,0.244 -1.88799,0.68 -2.65199,1.256 -0.80399,-0.612 -1.41199,-1.496 -1.67599,-2.55599 -0.324,-1.30399 -0.056,-2.61599 0.636,-3.64798 0.348,0.064 0.716,0.068 1.08799,-0.024 0.224,-0.056 0.436,-0.14 0.628,-0.248 0.372,-0.2 0.776,-0.36 1.208,-0.464 2.69599,-0.668 5.42397,0.97999 6.08797,3.67998 0.18,0.712 0.196,1.428 0.072,2.10399" />

<path id="leeuw_links_klauw3_rood" style="fill:#e2001a;stroke:#000000;stroke-width:1"
       d="m 138.11994,62.983343 c -0.024,0.18 -0.14799,0.336 -0.33999,0.384 -0.108,0.0282 -0.216,0.008 -0.312,-0.04 -1.436,-0.656 -3.09199,-0.852 -4.74798,-0.444 -0.984,0.244 -1.88,0.68 -2.64799,1.26 -0.804,-0.616 -1.416,-1.5 -1.67999,-2.55599 -0.316,-1.312 -0.056,-2.61999 0.64799,-3.65599 0.34,0.072 0.712,0.072 1.076,-0.0198 0.228,-0.056 0.436,-0.14 0.632,-0.248 0.37199,-0.204 0.77599,-0.36 1.19999,-0.46799 2.70399,-0.664 5.43598,0.98399 6.09997,3.68398 0.176,0.716 0.192,1.42799 0.064,2.10799" />

<path id="leeuw_links_klauw4_rood" style="fill:#e2001a;stroke:#000000;stroke-width:1"
       d="m 134.69996,69.651313 c -0.812,1.336 -1.90399,2.42799 -3.14399,3.23199 -2.62799,1.70799 -5.97597,2.14399 -9.03596,1.016 -0.008,-0.003 -0.008,-0.008 -0.008,-0.0118 -0.28,-1.068 -0.18,-2.23999 0.372,-3.29599 1.08799,-2.07999 3.53198,-2.97599 5.67197,-2.17999 0.048,0.0198 0.1,0.036 0.148,0.056 1.792,0.692 3.68399,0.84 5.47598,0.512 0.108,-0.036 0.236,-0.024 0.344,0.032 0.224,0.116 0.308,0.38799 0.196,0.60399 -0.008,0.008 -0.016,0.0282 -0.0198,0.036" />

<path id="leeuw_links_klauw5_rood" style="fill:#e2001a;stroke:#000000;stroke-width:1"
       d="m 133.75996,114.44313 c -0.064,0.17184 -0.232,0.296 -0.42,0.296 -0.11599,0 -0.21599,-0.04 -0.29599,-0.11616 -1.24,-0.98 -2.79999,-1.564 -4.50399,-1.564 -1.01599,0 -1.98799,0.20384 -2.87598,0.588 -0.628,-0.792 -1.016,-1.79599 -1.016,-2.88799 0,-1.34399 0.58,-2.55199 1.49999,-3.39598 0.316,0.15584 0.676,0.24 1.056,0.24 0.232,0 0.456,-0.032 0.668,-0.0842 0.412,-0.10784 0.83999,-0.16384 1.27999,-0.16384 2.78399,0 5.03598,2.25199 5.03598,5.03598 0,0.72799 -0.152,1.42799 -0.432,2.05599" />

<path id="leeuw_links_klauw6_rood" style="fill:#e2001a;stroke:#000000;stroke-width:1"
       d="m 135.32756,124.78308 c -0.08,0.16416 -0.26,0.264 -0.448,0.24416 -0.116,-0.0128 -0.212,-0.064 -0.284,-0.13984 -1.132,-1.11199 -2.61999,-1.85999 -4.31198,-2.03999 -1.016,-0.104 -1.99999,-0.003 -2.91599,0.28 -0.544,-0.852 -0.824,-1.89199 -0.708,-2.97599 0.148,-1.33999 0.848,-2.47599 1.84799,-3.21598 0.304,0.184 0.644,0.312 1.028,0.352 0.232,0.0224 0.456,0.0192 0.676,-0.0192 0.416,-0.064 0.85599,-0.072 1.28799,-0.0224 2.76399,0.29183 4.77198,2.77198 4.47598,5.53997 -0.076,0.728 -0.312,1.408 -0.65599,2" />

<path id="leeuw_links_klauw7_rood" style="fill:#e2001a;stroke:#000000;stroke-width:1"
       d="m 129.34798,136.33504 c -0.14,0.112 -0.34,0.136 -0.512,0.0362 -0.096,-0.0598 -0.164,-0.14816 -0.196,-0.248 -0.55599,-1.476 -1.60799,-2.77999 -3.06798,-3.64399 -0.876,-0.524 -1.816,-0.83999 -2.77599,-0.96799 -0.14,-1 0.048,-2.05599 0.6,-2.99599 0.69199,-1.16 1.80399,-1.89999 3.02398,-2.15599 0.196,0.296 0.46,0.556 0.784,0.74399 0.204,0.12 0.408,0.21184 0.62,0.26784 0.408,0.11616 0.80799,0.288 1.19199,0.512 2.38399,1.42 3.17599,4.50798 1.752,6.89997 -0.368,0.632 -0.86,1.152 -1.428,1.548" />

<path id="leeuw_links_klauw8_rood" style="fill:#e2001a;stroke:#000000;stroke-width:1"
       d="m 111.68,133.39905 c -1.56,-0.10784 -3.03198,-0.56 -4.32398,-1.288 -2.72799,-1.53999 -4.65998,-4.30398 -5.07998,-7.54396 0,-0.003 0.004,-0.003 0.008,-0.006 0.812,-0.74 1.904,-1.196 3.09199,-1.196 2.34799,0 4.27198,1.75199 4.55998,4.01598 0.008,0.056 0.016,0.10816 0.0202,0.16 0.216,1.908 0.964,3.65599 2.07999,5.08798 0.08,0.0842 0.132,0.2 0.132,0.324 0,0.248 -0.204,0.448 -0.452,0.448 l -0.036,0" />

<path id="leeuw_links_klauw9_rood" style="fill:#e2001a;stroke:#000000;stroke-width:1"
       d="m 112.53165,169.2189 c -0.056,0.176 -0.208,0.30784 -0.396,0.324 -0.116,0.006 -0.22,-0.032 -0.304,-0.096 -1.30399,-0.892 -2.90398,-1.36 -4.60398,-1.24 -1.01999,0.072 -1.97199,0.348 -2.81999,0.792 -0.69199,-0.74 -1.14799,-1.71999 -1.22399,-2.80799 -0.1,-1.34399 0.392,-2.58399 1.24799,-3.48798 0.328,0.128 0.696,0.18816 1.068,0.16384 0.236,-0.0192 0.456,-0.064 0.668,-0.14016 0.4,-0.136 0.82399,-0.21984 1.26399,-0.256 2.77999,-0.19616 5.18398,1.88799 5.37998,4.66398 0.056,0.73199 -0.052,1.43999 -0.288,2.08799" />

<path id="leeuw_links_klauw10_rood" style="fill:#e2001a;stroke:#000000;stroke-width:1"
       d="m 112.26805,180.29085 c -0.1,0.152 -0.288,0.24 -0.476,0.19616 -0.108,-0.0288 -0.19599,-0.0922 -0.25999,-0.18016 -0.992,-1.22799 -2.38799,-2.14799 -4.05199,-2.51999 -0.98799,-0.224 -1.98399,-0.23616 -2.92799,-0.0602 -0.44399,-0.91199 -0.59999,-1.97599 -0.35599,-3.03998 0.29599,-1.312 1.12399,-2.36399 2.20799,-2.97599 0.28,0.21984 0.61199,0.38 0.97599,0.468 0.224,0.048 0.456,0.0678 0.68,0.056 0.416,-0.0128 0.852,0.0288 1.28399,0.12383 2.71199,0.616 4.41599,3.30799 3.79999,6.02398 -0.16,0.712 -0.472,1.35999 -0.884,1.90799" />

<path id="leeuw_links_klauw11_rood" style="fill:#e2001a;stroke:#000000;stroke-width:1"
       d="m 108.93607,191.35122 c -0.14,0.112 -0.34,0.136 -0.508,0.0358 -0.1,-0.0598 -0.164,-0.14784 -0.196,-0.25184 -0.564,-1.47199 -1.60799,-2.77599 -3.07199,-3.64398 -0.87999,-0.52 -1.81999,-0.836 -2.76799,-0.964 -0.144,-0.99999 0.036,-2.05599 0.6,-2.99999 0.684,-1.15599 1.79199,-1.89599 3.01199,-2.15599 0.204,0.29984 0.464,0.56 0.784,0.748 0.20399,0.12 0.41599,0.21184 0.62799,0.26784 0.408,0.11584 0.804,0.288 1.184,0.512 2.39199,1.41999 3.17598,4.50798 1.75999,6.89997 -0.376,0.632 -0.864,1.15199 -1.43199,1.54799" />

<path id="leeuw_links_klauw12_rood" style="fill:#e2001a;stroke:#000000;stroke-width:1"
       d="m 88.552147,195.87479 c -1.55999,-0.104 -3.02799,-0.56 -4.31998,-1.288 -2.72799,-1.53999 -4.667982,-4.29998 -5.08798,-7.54397 0.0042,0 0.0042,-0.003 0.01216,-0.006 0.815997,-0.74399 1.90399,-1.19599 3.09599,-1.19599 2.33999,0 4.27198,1.75599 4.55998,4.01998 0,0.0522 0.008,0.104 0.016,0.16 0.22,1.90399 0.95999,3.65199 2.08399,5.08798 0.076,0.08 0.128,0.2 0.128,0.324 0,0.24416 -0.2,0.444 -0.448,0.444 l -0.04,0" />

<path id="leeuw_links_klauw13_rood" style="fill:#e2001a;stroke:#000000;stroke-width:1"
       d="m 36.700364,203.24676 c -0.179999,0.016 -0.359999,-0.08 -0.439998,-0.25984 -0.048,-0.0998 -0.056,-0.216 -0.02016,-0.312 0.363998,-1.53599 0.239999,-3.19999 -0.475998,-4.74398 -0.427999,-0.928 -1.023996,-1.71999 -1.735993,-2.35999 0.439998,-0.908 1.195995,-1.67999 2.187991,-2.13999 1.215995,-0.564 2.551989,-0.548 3.711984,-0.0678 -0.008,0.352 0.06,0.71599 0.219999,1.05599 0.096,0.216 0.22,0.404 0.363999,0.572 0.267999,0.328 0.499998,0.696 0.687997,1.096 1.171995,2.51999 0.068,5.51597 -2.44799,6.68397 -0.667997,0.30784 -1.367994,0.46 -2.059991,0.468" />

<path id="leeuw_links_klauw14_rood" style="fill:#e2001a;stroke:#000000;stroke-width:1"
       d="m 27.444002,206.13074 c -0.179999,0.016 -0.355998,-0.0842 -0.439998,-0.25599 -0.048,-0.10784 -0.048,-0.216 -0.016,-0.31616 0.363999,-1.54 0.239999,-3.20399 -0.475998,-4.74798 -0.423998,-0.924 -1.023996,-1.716 -1.739993,-2.35599 0.447999,-0.908 1.195995,-1.676 2.191991,-2.13999 1.219995,-0.56 2.55599,-0.548 3.707985,-0.0682 0,0.35599 0.064,0.71599 0.223999,1.05999 0.096,0.208 0.215999,0.404 0.363998,0.572 0.263999,0.324 0.499998,0.696 0.683998,1.09599 1.171995,2.51999 0.08,5.51198 -2.44799,6.68398 -0.667997,0.30816 -1.367995,0.45999 -2.051992,0.46799" />

<path id="leeuw_links_klauw15_rood" style="fill:#e2001a;stroke:#000000;stroke-width:1"
       d="m 17.204445,206.82633 c -0.179999,0.016 -0.355999,-0.0842 -0.443998,-0.256 -0.044,-0.10784 -0.048,-0.216 -0.01216,-0.32 0.359998,-1.536 0.235999,-3.19999 -0.479998,-4.73998 -0.423998,-0.924 -1.019996,-1.72 -1.735993,-2.36399 0.443998,-0.904 1.195995,-1.676 2.191991,-2.13599 1.215995,-0.568 2.551989,-0.552 3.703984,-0.072 0,0.36 0.064,0.71599 0.224,1.06399 0.1,0.208 0.219999,0.4 0.367998,0.572 0.259999,0.324 0.495998,0.688 0.683997,1.096 1.171995,2.51998 0.072,5.51597 -2.44799,6.67997 -0.667997,0.312 -1.367994,0.46 -2.055991,0.472" />

<path id="leeuw_links_klauw16_rood" style="fill:#e2001a;stroke:#000000;stroke-width:1"
       d="m 7.416486,185.72683 c -0.751997,-1.37199 -1.155996,-2.85999 -1.235995,-4.33998 -0.164,-3.12399 1.123995,-6.23998 3.631985,-8.33597 l 0.008,0 c 1.075995,0.29216 2.039991,0.968 2.675988,1.96799 1.259995,1.98 0.811997,4.54798 -0.939996,6.00398 -0.04,0.0358 -0.084,0.072 -0.127999,0.104 -1.491994,1.20799 -2.559989,2.77199 -3.175987,4.48798 -0.01984,0.112 -0.092,0.216 -0.2,0.28 -0.212,0.136 -0.484,0.0762 -0.615997,-0.136 -0.008,-0.006 -0.01216,-0.0224 -0.02016,-0.032" />

</g>

<use id="leeuw_rechts" xlink:href="#leeuw" transform="matrix(-1,0,0,1,360,0)" />

</svg>