<?xml version="1.0" encoding="utf-8"?>
<!-- Generator: Adobe Illustrator 16.0.4, SVG Export Plug-In . SVG Version: 6.00 Build 0)  -->
<!DOCTYPE svg PUBLIC "-//W3C//DTD SVG 1.1//EN" "http://www.w3.org/Graphics/SVG/1.1/DTD/svg11.dtd">
<svg version="1.1" id="Layer_1" xmlns="http://www.w3.org/2000/svg" xmlns:xlink="http://www.w3.org/1999/xlink" x="0px" y="0px"
	 width="400px" height="55px" viewBox="0 0 400 55" enable-background="new 0 0 400 55" xml:space="preserve">
<g>
	<path fill="#887439" d="M88.006,47.579c4.494,0,6.532-2.037,6.532-6.292V38.65c-1.678,1.797-4.135,3.176-7.371,3.176
		c-6.771,0-11.146-5.154-11.146-14.322c0-8.928,5.513-14.681,14.741-14.681c4.254,0,8.27,0.719,12.044,2.097v26.366
		c0,8.029-4.255,13.363-14.441,13.363c-4.255,0-8.209-0.839-11.505-2.218l2.157-6.531C82.313,47.1,85.13,47.579,88.006,47.579z
		 M94.538,31.28V20.254c-1.139-0.239-2.457-0.359-3.835-0.359c-4.015,0-6.052,2.457-6.052,7.61c0,5.333,1.798,7.25,4.375,7.25
		C91.482,34.755,93.339,33.317,94.538,31.28z"/>
	<path fill="#887439" d="M121.801,12.824c9.108,0,14.261,5.513,14.261,14.801c0,9.288-5.153,14.801-14.261,14.801
		c-9.049,0-14.202-5.513-14.202-14.801C107.599,18.336,112.752,12.824,121.801,12.824z M127.434,27.625
		c0-5.154-2.158-7.73-5.633-7.73c-3.416,0-5.573,2.576-5.573,7.73c0,5.153,2.157,7.73,5.573,7.73
		C125.276,35.354,127.434,32.778,127.434,27.625z"/>
	<path fill="#887439" d="M153.737,12.824c9.108,0,14.262,5.513,14.262,14.801c0,9.288-5.154,14.801-14.262,14.801
		c-9.048,0-14.202-5.513-14.202-14.801C139.535,18.336,144.688,12.824,153.737,12.824z M159.37,27.625
		c0-5.154-2.158-7.73-5.633-7.73c-3.416,0-5.573,2.576-5.573,7.73c0,5.153,2.157,7.73,5.573,7.73
		C157.212,35.354,159.37,32.778,159.37,27.625z"/>
	<path fill="#887439" d="M174.708,19.355l-4.614-0.479v-5.453h12.884v28.403h-8.27V19.355z M174.168,4.555
		c0-2.518,2.217-4.555,4.674-4.555s4.614,2.037,4.614,4.555c0,2.576-2.157,4.613-4.614,4.613S174.168,7.191,174.168,4.555z"/>
	<path fill="#887439" d="M190.166,33.377c3.116,1.139,6.472,1.978,9.108,1.978c2.037,0,3.116-0.6,3.116-1.978
		c0-3.596-13.303-2.097-13.303-11.745c0-4.854,4.134-8.809,11.146-8.809c4.075,0,7.011,0.779,10.366,2.217l-2.517,6.352
		c-2.457-0.959-5.273-1.498-7.25-1.498c-2.038,0-2.936,0.539-2.936,1.797c0,3.595,13.243,2.158,13.243,11.505
		c0,5.273-3.116,9.229-11.445,9.229c-4.075,0-7.97-1.079-11.625-2.397L190.166,33.377z"/>
	<path fill="#887439" d="M228.634,12.824c8.569,0,12.584,6.471,12.584,16.179l-0.419,0.659h-17.078
		c0.419,3.775,2.396,5.693,7.07,5.693c2.876,0,5.573-0.719,7.79-1.678l1.978,6.352c-3.236,1.558-6.231,2.397-10.786,2.397
		c-9.887,0-14.621-6.112-14.621-14.681C215.152,18.336,220.305,12.824,228.634,12.824z M233.189,24.388
		c-0.3-3.056-1.618-4.854-4.315-4.854c-2.876,0-4.674,1.738-5.033,4.854H233.189z"/>
	<path fill="#441D42" d="M245.709,13.423h6.651l0.779,3.715c1.797-2.756,4.494-4.314,8.029-4.314c4.315,0,7.071,1.977,8.39,4.854
		c1.857-2.816,4.434-4.854,8.449-4.854c6.711,0,9.767,4.554,9.767,11.505v17.498h-8.269V24.928c0-3.356-1.199-5.033-3.655-5.033
		c-1.978,0-3.775,1.318-4.974,3.895v18.037h-8.27V24.928c0-3.356-1.139-5.033-3.356-5.033c-2.217,0-4.134,1.438-5.273,3.895v18.037
		h-8.27V13.423z"/>
	<path fill="#441D42" d="M305.568,12.824c8.569,0,12.584,6.471,12.584,16.179l-0.419,0.659h-17.078
		c0.419,3.775,2.397,5.693,7.07,5.693c2.877,0,5.573-0.719,7.79-1.678l1.978,6.352c-3.236,1.558-6.231,2.397-10.786,2.397
		c-9.887,0-14.621-6.112-14.621-14.681C292.086,18.336,297.239,12.824,305.568,12.824z M310.123,24.388
		c-0.3-3.056-1.618-4.854-4.315-4.854c-2.876,0-4.673,1.738-5.033,4.854H310.123z"/>
	<path fill="#441D42" d="M322.884,13.423h6.651l0.959,4.375c1.977-3.116,4.614-4.974,8.029-4.974c1.498,0,2.757,0.24,3.955,0.659
		l-1.618,6.771c-0.899-0.239-1.798-0.419-3.116-0.419c-3.536,0-5.812,3.116-6.591,7.071v14.921h-8.27V13.423z"/>
	<path fill="#441D42" d="M356.978,12.824c8.569,0,12.584,6.471,12.584,16.179l-0.42,0.659h-17.078
		c0.419,3.775,2.397,5.693,7.07,5.693c2.877,0,5.573-0.719,7.79-1.678l1.978,6.352c-3.236,1.558-6.231,2.397-10.786,2.397
		c-9.887,0-14.621-6.112-14.621-14.681C343.496,18.336,348.648,12.824,356.978,12.824z M361.532,24.388
		c-0.3-3.056-1.618-4.854-4.315-4.854c-2.876,0-4.673,1.738-5.033,4.854H361.532z"/>
	<path fill="#441D42" d="M374.293,13.423h6.652l0.719,3.536c1.917-2.577,4.434-4.135,8.569-4.135c6.711,0,9.767,4.554,9.767,11.505
		v17.498h-8.269V24.928c0-3.356-1.199-5.033-3.655-5.033c-2.397,0-4.254,1.438-5.513,3.895v18.037h-8.27V13.423z"/>
</g>
<polygon fill="#441D42" points="18.391,41.73 18.391,41.73 18.391,41.73 "/>
<path fill="#887439" d="M18.392,41.73l8.235-6.806L18.42,12.988c-1.126-0.088-2.293-0.127-3.765-0.127C5.48,12.861,0,18.58,0,27.457
	c0,9.115,4.349,14.238,11.081,14.238c3.217,0,5.659-1.371,7.328-3.157v2.621C18.409,41.356,18.4,41.542,18.392,41.73L18.392,41.73
	L18.392,41.73z M12.928,34.665c-2.562,0-4.349-1.906-4.349-7.208c0-5.123,2.026-7.282,6.018-7.282c1.37,0,2.681,0.12,3.812,0.357
	V31.21C17.216,33.235,15.371,34.665,12.928,34.665z"/>
<path fill="#887439" d="M18.391,41.73L18.391,41.73c-0.181,3.837-2.216,5.684-6.476,5.684c-2.859,0-5.66-0.478-8.937-1.668
	L0.833,52.24c3.277,1.37,7.209,2.204,11.439,2.204c9.773,0,14.053-4.938,14.34-12.713H18.391L18.391,41.73z"/>
<polygon fill="#441D42" points="18.391,41.73 18.392,41.73 18.391,41.73 "/>
<path fill="#441D42" d="M18.392,41.73h8.221c0.011-0.282,0.017-6.795,0.017-6.795l-0.003-0.01L18.392,41.73z"/>
<polygon fill="#441D42" points="26.63,34.935 26.63,34.922 26.626,34.925 "/>
<path fill="#441D42" d="M50.455,12.908c-3.992,0-6.553,2.026-8.4,4.826c-1.31-2.859-4.05-4.826-8.34-4.826
	c-2.971,0-5.342,1.111-7.085,3.107l-0.742-1.961c-3.454-0.571-5.393-0.903-7.468-1.066l8.206,21.937l0.003-0.002v-11.24
	c1.138-2.362,3.013-3.744,5.178-3.744c2.204,0,3.336,1.667,3.336,5.004v16.8h8.222V23.81c1.191-2.561,2.979-3.872,4.945-3.872
	c2.442,0,3.634,1.667,3.634,5.004v16.8h8.222V24.347C60.166,17.436,57.127,12.908,50.455,12.908z"/>
<rect x="18.371" y="41.734" transform="matrix(0.8732 -0.4874 0.4874 0.8732 -18.0099 14.2513)" fill="none" width="0.024" height="0.004"/>
<polygon fill="none" points="18.374,41.742 18.391,41.742 18.391,41.731 18.391,41.73 "/>
<rect x="18.391" y="41.73" fill="#441D42" width="0" height="0"/>
<polygon fill="#441D42" points="18.391,41.73 18.391,41.731 18.391,41.73 "/>
</svg>
