<?xml version="1.0" encoding="UTF-8" standalone="no"?>
<svg
   xmlns:dc="http://purl.org/dc/elements/1.1/"
   xmlns:cc="http://creativecommons.org/ns#"
   xmlns:rdf="http://www.w3.org/1999/02/22-rdf-syntax-ns#"
   xmlns:svg="http://www.w3.org/2000/svg"
   xmlns="http://www.w3.org/2000/svg"
   xmlns:sodipodi="http://sodipodi.sourceforge.net/DTD/sodipodi-0.dtd"
   xmlns:inkscape="http://www.inkscape.org/namespaces/inkscape"
   version="1.1"
   id="svg2"
   xml:space="preserve"
   width="702.98669"
   height="183.02667"
   viewBox="0 0 702.98669 183.02667"
   sodipodi:docname="lan-logo-1-.pms.horizontaal.eps"><metadata
     id="metadata8"><rdf:RDF><cc:Work
         rdf:about=""><dc:format>image/svg+xml</dc:format><dc:type
           rdf:resource="http://purl.org/dc/dcmitype/StillImage" /></cc:Work></rdf:RDF></metadata><defs
     id="defs6" /><sodipodi:namedview
     pagecolor="#ffffff"
     bordercolor="#666666"
     borderopacity="1"
     objecttolerance="10"
     gridtolerance="10"
     guidetolerance="10"
     inkscape:pageopacity="0"
     inkscape:pageshadow="2"
     inkscape:window-width="640"
     inkscape:window-height="480"
     id="namedview4" /><g
     id="g10"
     inkscape:groupmode="layer"
     inkscape:label="ink_ext_XXXXXX"
     transform="matrix(1.3333333,0,0,-1.3333333,0,183.02667)"><g
       id="g12"
       transform="scale(0.1)"><path
         d="M 2051.24,720.805 1903,750.543 1340.4,606.645 l 177.84,-61.758 533,175.918"
         style="fill:#d41042;fill-opacity:1;fill-rule:nonzero;stroke:none"
         id="path14" /><path
         d="M 2414.06,648.004 2225.53,685.922 1745.64,465.602 2013.25,373.746 1746.47,191.238 2151.59,0 l 418.08,527.973 -247.74,57.031 92.13,63"
         style="fill:#d41042;fill-opacity:1;fill-rule:nonzero;stroke:none"
         id="path16" /><path
         d="m 1967.65,901.758 c -3.94,14.211 -119.35,448.202 -570.73,380.722 l -0.02,0.04 c 0,0 -38.55,-6.7 -86.85,-16.99 0,0 -2.32,-11.04 3.84,-14.56 53.83,-30.78 101.34,-36.77 124.46,-71.61 74.35,-112.08 210.17,-343.887 497.36,-285.137 7.62,-23.332 16.69,-58.45 15.47,-90.91 29.01,-0.008 41.86,3.855 39.85,17.703 -2.67,18.339 -13.86,46.433 -23.38,80.742"
         style="fill:#46ae33;fill-opacity:1;fill-rule:nonzero;stroke:none"
         id="path18" /><path
         d="m 2382.26,1372.71 c 0,0 -7.83,-2.81 -17.79,-4.18 -45.23,-7.2 -356.61,-65.23 -414.08,-413.057 -2.37,-14.317 -8.31,-58.371 13.81,-41.934 -4.65,11.926 -1.77,25.578 5.15,39.981 65.58,-1.231 282.09,22.878 389.89,378.27 5.11,10.42 16.92,18.29 21.96,27.22 6.31,11.2 1.06,13.7 1.06,13.7"
         style="fill:#46ae33;fill-opacity:1;fill-rule:nonzero;stroke:none"
         id="path20" /><path
         d="m 2875.41,584.578 h -141.84 c -5.04,0 -7.2,2.16 -7.2,7.293 v 285.391 c 0,5.129 2.16,7.199 7.2,7.199 h 38.25 c 5.13,0 7.2,-2.07 7.2,-7.199 V 619.41 h 96.39 c 5.13,0 7.29,-2.07 7.29,-7.199 v -20.34 c 0,-5.133 -2.16,-7.293 -7.29,-7.293"
         style="fill:#231f20;fill-opacity:1;fill-rule:nonzero;stroke:none"
         id="path22" /><path
         d="m 3005.82,579.09 c -49.23,0 -90,18.719 -90,59.941 0,57.328 70.02,71.731 122.67,81.899 v 28.89 c 0,21.239 -12.69,34.379 -30.96,34.379 -23.76,0 -35.28,-19.527 -39.06,-33.121 -2.61,-8.906 -11.07,-14.398 -21.69,-14.398 -11.43,0 -21.69,6.39 -21.69,19.531 0,18.719 25.11,53.91 89.19,53.91 38.7,0 71.01,-20.793 71.01,-64.082 V 626.25 c 0,-18.27 -4.32,-25.922 -16.2,-34.02 -9.36,-6.3 -36.54,-13.14 -63.27,-13.14 m 32.67,120.238 c -39.42,-8.098 -75.96,-19.527 -75.96,-56.519 0,-20.34 14.85,-37.348 42.48,-37.348 16.11,0 33.48,5.488 33.48,23.758 v 70.109"
         style="fill:#231f20;fill-opacity:1;fill-rule:nonzero;stroke:none"
         id="path24" /><path
         d="m 3313.71,584.578 h -33.93 c -5.13,0 -7.2,2.16 -7.2,7.293 v 150.75 c 0,20.789 -10.26,41.219 -44.19,41.219 -34.38,0 -37.8,-14.488 -37.8,-28.078 V 591.871 c 0,-5.133 -2.52,-7.293 -7.65,-7.293 h -33.57 c -5.13,0 -7.65,2.16 -7.65,7.293 v 179.188 c 0,14.043 4.23,19.98 17.01,26.371 14.04,6.75 39.96,12.691 71.37,12.691 45,0 90.9,-14.402 90.9,-65.34 v -152.91 c 0,-5.133 -2.16,-7.293 -7.29,-7.293"
         style="fill:#231f20;fill-opacity:1;fill-rule:nonzero;stroke:none"
         id="path26" /><path
         d="m 3448.8,579.09 c -57.33,0 -81.54,34.832 -81.54,53.551 0,13.589 8.46,20.339 20.34,20.339 10.71,0 19.62,-5.492 22.95,-13.949 6.84,-17.011 16.2,-32.312 39.06,-32.312 17.01,0 31.86,12.332 31.86,32.312 0,50.938 -109.98,40.77 -109.98,108.719 0,39.422 31.86,62.371 76.86,62.371 52.29,0 73.08,-30.152 73.08,-47.16 0,-12.691 -8.46,-19.082 -19.08,-19.082 -9.81,0 -17.91,5.492 -21.24,14.492 -5.58,13.141 -14.49,27.988 -33.57,27.988 -19.98,0 -31.41,-11.429 -31.41,-30.148 0,-49.68 111.69,-37.352 111.69,-109.981 0,-40.41 -30.6,-67.14 -79.02,-67.14"
         style="fill:#231f20;fill-opacity:1;fill-rule:nonzero;stroke:none"
         id="path28" /><path
         d="m 3617.82,584.578 h -33.93 c -5.13,0 -7.2,2.16 -7.2,7.293 V 797.43 c 0,5.039 2.07,7.199 7.2,7.199 h 33.93 c 5.13,0 7.2,-2.16 7.2,-7.199 V 591.871 c 0,-5.133 -2.07,-7.293 -7.2,-7.293 m -17.01,257.043 c -16.56,0 -27.99,10.168 -27.99,22.859 0,12.782 11.43,22.95 27.99,22.95 16.56,0 28.08,-10.168 28.08,-22.95 0,-12.691 -11.52,-22.859 -28.08,-22.859"
         style="fill:#231f20;fill-opacity:1;fill-rule:nonzero;stroke:none"
         id="path30" /><path
         d="m 3856.14,584.578 h -34.02 c -5.04,0 -7.2,2.16 -7.2,7.293 v 150.75 c 0,20.789 -10.17,41.219 -44.19,41.219 -34.38,0 -37.8,-14.488 -37.8,-28.078 V 591.871 c 0,-5.133 -2.52,-7.293 -7.65,-7.293 h -33.57 c -5.04,0 -7.65,2.16 -7.65,7.293 v 179.188 c 0,14.043 4.32,19.98 17.01,26.371 14.04,6.75 39.96,12.691 71.37,12.691 45,0 90.9,-14.402 90.9,-65.34 v -152.91 c 0,-5.133 -2.16,-7.293 -7.2,-7.293"
         style="fill:#231f20;fill-opacity:1;fill-rule:nonzero;stroke:none"
         id="path32" /><path
         d="m 3992.4,480.18 c -55.62,0 -86.22,22.859 -86.22,56.429 0,27.629 25.11,45.45 40.41,54 -16.56,3.782 -32.76,13.141 -32.76,33.121 0,21.598 27.18,40.321 37.44,45.809 -22.95,13.231 -36.99,36.09 -36.99,64.621 0,44.551 34.02,75.961 85.41,75.961 34.38,0 47.52,-13.141 65.79,-13.141 13.14,0 24.21,2.969 31.05,5.942 1.62,0.808 3.78,0.808 5.49,0.808 2.52,0 3.42,-1.621 4.68,-6.3 1.26,-3.418 2.52,-6.84 2.52,-8.551 0,-2.07 -1.26,-4.231 -4.68,-5.938 -6.39,-3.332 -18.27,-7.203 -32.22,-8.91 7.65,-10.621 12.69,-24.66 12.69,-39.871 0,-44.191 -33.93,-75.601 -85.32,-75.601 -11.07,0 -18.72,1.261 -26.37,3.781 -5.49,-3.418 -17.82,-14.852 -17.82,-25.02 0,-18.718 27.63,-18.718 59.49,-19.172 43.74,-0.449 95.94,-1.257 95.94,-53.457 0,-46.8 -50.49,-84.511 -118.53,-84.511 m -19.89,105.75 c -11.52,-7.649 -24.21,-21.239 -24.21,-37.801 0,-24.207 19.08,-40.41 56.07,-40.41 34.38,0 63.27,21.691 63.27,46.351 0,36.899 -52.29,27.989 -95.13,31.86 m 27.18,199.621 c -25.92,0 -41.22,-18.723 -41.22,-43.742 0,-26.821 13.59,-56.52 42.03,-56.52 25.92,0 41.22,18.27 41.22,44.191 0,26.731 -13.59,56.071 -42.03,56.071"
         style="fill:#231f20;fill-opacity:1;fill-rule:nonzero;stroke:none"
         id="path34" /><path
         d="m 4228.11,579.09 c -51.39,0 -97.29,33.57 -97.29,116.82 0,79.02 46.71,114.211 97.29,114.211 53.1,0 83.16,-41.133 83.16,-84.062 0,-9.36 -3.78,-12.329 -12.69,-13.59 l -123.57,-20.43 c 2.52,-39.867 22.05,-74.34 62.82,-74.34 27.18,0 45,20.43 53.91,36.18 2.16,3.781 6.03,7.652 11.07,7.652 5.49,0 9.81,-5.133 9.81,-10.621 0,-25.469 -30.15,-71.82 -84.51,-71.82 m -5.13,204.301 c -33.93,0 -48.42,-34.02 -50.13,-67.141 l 92.16,15.75 c -1.26,26.371 -11.88,51.391 -42.03,51.391"
         style="fill:#231f20;fill-opacity:1;fill-rule:nonzero;stroke:none"
         id="path36" /><path
         d="m 4400.91,584.578 h -33.57 c -5.04,0 -7.65,2.16 -7.65,7.293 v 179.188 c 0,14.043 4.68,20.793 17.46,26.73 13.14,5.941 37.8,12.332 64.98,12.332 39.51,0 55.62,-13.949 55.62,-30.961 0,-12.781 -7.2,-21.238 -20.34,-21.238 -22.95,0 -18.27,25.469 -42.48,25.469 -16.2,0 -26.37,-8.102 -26.37,-21.692 V 591.871 c 0,-5.133 -2.52,-7.293 -7.65,-7.293"
         style="fill:#231f20;fill-opacity:1;fill-rule:nonzero;stroke:none"
         id="path38" /><path
         d="m 4573.8,584.578 h -34.02 c -5.04,0 -7.2,2.16 -7.2,7.293 v 310.41 c 0,5.129 2.16,7.289 7.2,7.289 h 34.02 c 5.04,0 7.2,-2.16 7.2,-7.289 v -310.41 c 0,-5.133 -2.16,-7.293 -7.2,-7.293"
         style="fill:#231f20;fill-opacity:1;fill-rule:nonzero;stroke:none"
         id="path40" /><path
         d="m 4719.87,579.09 c -49.23,0 -90,18.719 -90,59.941 0,57.328 70.02,71.731 122.67,81.899 v 28.89 c 0,21.239 -12.69,34.379 -30.96,34.379 -23.76,0 -35.28,-19.527 -39.06,-33.121 -2.52,-8.906 -11.07,-14.398 -21.69,-14.398 -11.43,0 -21.69,6.39 -21.69,19.531 0,18.719 25.11,53.91 89.28,53.91 38.61,0 70.92,-20.793 70.92,-64.082 V 626.25 c 0,-18.27 -4.32,-25.922 -16.2,-34.02 -9.36,-6.3 -36.45,-13.14 -63.27,-13.14 m 32.67,120.238 c -39.42,-8.098 -75.96,-19.527 -75.96,-56.519 0,-20.34 14.85,-37.348 42.48,-37.348 16.11,0 33.48,5.488 33.48,23.758 v 70.109"
         style="fill:#231f20;fill-opacity:1;fill-rule:nonzero;stroke:none"
         id="path42" /><path
         d="m 5027.76,584.578 h -33.93 c -5.13,0 -7.2,2.16 -7.2,7.293 v 150.75 c 0,20.789 -10.26,41.219 -44.19,41.219 -34.38,0 -37.8,-14.488 -37.8,-28.078 V 591.871 c 0,-5.133 -2.52,-7.293 -7.65,-7.293 h -33.57 c -5.04,0 -7.65,2.16 -7.65,7.293 v 179.188 c 0,14.043 4.23,19.98 17.01,26.371 14.04,6.75 39.96,12.691 71.37,12.691 45,0 90.9,-14.402 90.9,-65.34 v -152.91 c 0,-5.133 -2.16,-7.293 -7.29,-7.293"
         style="fill:#231f20;fill-opacity:1;fill-rule:nonzero;stroke:none"
         id="path44" /><path
         d="m 5191.29,579.09 c -78.57,0 -107.82,50.129 -107.82,109.621 0,59.039 32.67,121.051 99.36,121.051 21.24,0 35.64,-7.653 41.22,-11.524 v 104.043 c 0,5.129 2.52,7.289 7.65,7.289 h 33.48 c 5.13,0 7.29,-2.16 7.29,-7.289 V 624.539 c 0,-15.301 -3.87,-22.949 -15.75,-30.961 -11.43,-7.648 -38.61,-14.488 -65.43,-14.488 m 0,204.75 c -35.64,0 -59.04,-36.09 -59.04,-89.641 0,-58.23 31.05,-85.41 60.3,-85.41 21.24,0 31.5,8.102 31.5,23.402 v 141.028 c -6.84,5.492 -16.2,10.621 -32.76,10.621"
         style="fill:#231f20;fill-opacity:1;fill-rule:nonzero;stroke:none"
         id="path46" /><path
         d="M 69.6602,652.98 C 27.9883,652.98 0,677.102 0,731.371 c 0,46.801 28.8008,77.399 73.8008,77.399 11.789,0 27.2692,-3.872 39.3282,-10.079 l -10.801,-23.132 c -12.5975,4.679 -21.328,6.929 -29.0663,6.929 -17.1914,0 -40.3203,-10.797 -40.3203,-49.859 0,-42.391 16.3789,-55.258 37.5274,-55.258 6.6601,0 11.7929,0.539 16.3828,1.258 v 50.402 h 30.8674 v -65.25 C 107.461,658.828 87.1211,652.98 69.6602,652.98"
         style="fill:#231f20;fill-opacity:1;fill-rule:nonzero;stroke:none"
         id="path48" /><path
         d="M 256.051,656.578 H 160.109 V 804.629 H 249.57 V 779.16 h -57.511 v -33.93 h 48.062 v -25.199 h -48.062 v -37.98 h 63.992 v -25.473"
         style="fill:#231f20;fill-opacity:1;fill-rule:nonzero;stroke:none"
         id="path50" /><path
         d="m 423.09,655.5 -4.59,93.059 -29.789,-91.981 h -27.27 l -29.339,92.25 -5.403,-93.328 -30.871,1.352 11.344,147.777 h 36 l 33.117,-103.59 33.211,103.59 h 35.191 L 455.039,656.852 423.09,655.5"
         style="fill:#231f20;fill-opacity:1;fill-rule:nonzero;stroke:none"
         id="path52" /><path
         d="m 603.539,656.578 h -95.848 v 148.051 h 89.457 V 779.16 h -57.597 v -33.93 h 48.058 v -25.199 h -48.058 v -37.98 h 63.988 v -25.473"
         style="fill:#231f20;fill-opacity:1;fill-rule:nonzero;stroke:none"
         id="path54" /><path
         d="m 742.59,656.578 h -95.942 v 148.051 h 89.461 V 779.16 h -57.507 v -33.93 h 48.058 v -25.199 h -48.058 v -37.98 h 63.988 v -25.473"
         style="fill:#231f20;fill-opacity:1;fill-rule:nonzero;stroke:none"
         id="path56" /><path
         d="m 906.84,656.578 h -29.52 l -61.468,96.934 0.718,-96.934 h -30.332 v 148.051 h 32.672 l 58.86,-92.52 -0.989,92.52 H 906.84 V 656.578"
         style="fill:#231f20;fill-opacity:1;fill-rule:nonzero;stroke:none"
         id="path58" /><path
         d="m 1014.3,656.578 h -31.859 v 121.594 h -43.472 v 26.457 H 1058.49 V 778.172 H 1014.3 V 656.578"
         style="fill:#231f20;fill-opacity:1;fill-rule:nonzero;stroke:none"
         id="path60" /><path
         d="m 1186.38,656.578 h -95.85 v 148.051 h 89.46 V 779.16 h -57.6 v -33.93 h 48.06 v -25.199 h -48.06 v -37.98 h 63.99 v -25.473"
         style="fill:#231f20;fill-opacity:1;fill-rule:nonzero;stroke:none"
         id="path62" /></g></g></svg>
