<?xml version="1.0" encoding="UTF-8" standalone="no"?>
<!-- Created with Inkscape (http://www.inkscape.org/) -->

<svg
   xmlns:dc="http://purl.org/dc/elements/1.1/"
   xmlns:cc="http://creativecommons.org/ns#"
   xmlns:rdf="http://www.w3.org/1999/02/22-rdf-syntax-ns#"
   xmlns:svg="http://www.w3.org/2000/svg"
   xmlns="http://www.w3.org/2000/svg"
   xmlns:xlink="http://www.w3.org/1999/xlink"
   xmlns:sodipodi="http://sodipodi.sourceforge.net/DTD/sodipodi-0.dtd"
   xmlns:inkscape="http://www.inkscape.org/namespaces/inkscape"
   width="414.59375"
   height="671.37317"
   id="svg4999"
   version="1.1"
   inkscape:version="0.48.4 r9939"
   sodipodi:docname="007.svg">
  <defs
     id="defs5001">
    <linearGradient
       id="linearGradient4053-4-2">
      <stop
         style="stop-color:#cc992d;stop-opacity:1;"
         offset="0"
         id="stop4055-9-4" />
      <stop
         style="stop-color:#e1a832;stop-opacity:1;"
         offset="0.14285725"
         id="stop4057-8-5" />
      <stop
         id="stop4059-2-8"
         offset="0.32142863"
         style="stop-color:#e5cf5c;stop-opacity:1;" />
      <stop
         style="stop-color:#e5c547;stop-opacity:1;"
         offset="0.5"
         id="stop4061-4-8" />
      <stop
         id="stop4063-5-1"
         offset="0.75"
         style="stop-color:#ffffa3;stop-opacity:1;" />
      <stop
         style="stop-color:#ffd94d;stop-opacity:1;"
         offset="0.875"
         id="stop4065-2-2" />
      <stop
         id="stop4067-9-1"
         offset="1"
         style="stop-color:#ffdb4e;stop-opacity:1;" />
    </linearGradient>
    <linearGradient
       id="linearGradient4070-9-0-5">
      <stop
         style="stop-color:#a3a3a3;stop-opacity:1;"
         offset="0"
         id="stop4072-5-5-3" />
      <stop
         style="stop-color:#b0b0b0;stop-opacity:1;"
         offset="0.14285725"
         id="stop4074-5-2-2" />
      <stop
         id="stop4076-40-4-9"
         offset="0.32142863"
         style="stop-color:#d1d1d1;stop-opacity:1;" />
      <stop
         style="stop-color:#bdbdbd;stop-opacity:1;"
         offset="0.5"
         id="stop4078-3-2-7" />
      <stop
         id="stop4080-4-3-3"
         offset="0.75"
         style="stop-color:#e5e5e5;stop-opacity:1;" />
      <stop
         style="stop-color:#cccccc;stop-opacity:1;"
         offset="0.875"
         id="stop4082-1-8-7" />
      <stop
         id="stop4084-2-5-4"
         offset="1"
         style="stop-color:#cccccc;stop-opacity:1;" />
    </linearGradient>
    <linearGradient
       gradientUnits="userSpaceOnUse"
       y2="148.85265"
       x2="320.71429"
       y1="148.85265"
       x1="309.28571"
       id="linearGradient5702"
       xlink:href="#linearGradient4070-9-0-5"
       inkscape:collect="always" />
    <linearGradient
       id="linearGradient4053-4">
      <stop
         style="stop-color:#cc992d;stop-opacity:1;"
         offset="0"
         id="stop4055-9" />
      <stop
         style="stop-color:#e1a832;stop-opacity:1;"
         offset="0.14285725"
         id="stop4057-8" />
      <stop
         id="stop4059-2"
         offset="0.32142863"
         style="stop-color:#e5cf5c;stop-opacity:1;" />
      <stop
         style="stop-color:#e5c547;stop-opacity:1;"
         offset="0.5"
         id="stop4061-4" />
      <stop
         id="stop4063-5"
         offset="0.75"
         style="stop-color:#ffffa3;stop-opacity:1;" />
      <stop
         style="stop-color:#ffd94d;stop-opacity:1;"
         offset="0.875"
         id="stop4065-2" />
      <stop
         id="stop4067-9"
         offset="1"
         style="stop-color:#ffdb4e;stop-opacity:1;" />
    </linearGradient>
    <linearGradient
       inkscape:collect="always"
       xlink:href="#linearGradient4070-9-0-5"
       id="linearGradient5778"
       x1="105.39519"
       y1="599.13831"
       x2="569.05804"
       y2="594.08752"
       gradientUnits="userSpaceOnUse" />
    <linearGradient
       inkscape:collect="always"
       xlink:href="#linearGradient4053-4"
       id="linearGradient5786"
       x1="104.23843"
       y1="460.88806"
       x2="575.60956"
       y2="455.83731"
       gradientUnits="userSpaceOnUse" />
    <linearGradient
       inkscape:collect="always"
       xlink:href="#linearGradient4053-4"
       id="linearGradient5794"
       x1="192.97574"
       y1="273.22357"
       x2="543.72626"
       y2="273.22357"
       gradientUnits="userSpaceOnUse" />
  </defs>
  <sodipodi:namedview
     id="base"
     pagecolor="#ffffff"
     bordercolor="#666666"
     borderopacity="1.0"
     inkscape:pageopacity="0.0"
     inkscape:pageshadow="2"
     inkscape:zoom="0.49497475"
     inkscape:cx="-98.763519"
     inkscape:cy="420.88423"
     inkscape:document-units="px"
     inkscape:current-layer="layer1"
     showgrid="false"
     fit-margin-top="0"
     fit-margin-left="0"
     fit-margin-right="0"
     fit-margin-bottom="0"
     inkscape:window-width="1600"
     inkscape:window-height="837"
     inkscape:window-x="-8"
     inkscape:window-y="-8"
     inkscape:window-maximized="1" />
  <metadata
     id="metadata5004">
    <rdf:RDF>
      <cc:Work
         rdf:about="">
        <dc:format>image/svg+xml</dc:format>
        <dc:type
           rdf:resource="http://purl.org/dc/dcmitype/StillImage" />
        <dc:title></dc:title>
      </cc:Work>
    </rdf:RDF>
  </metadata>
  <g
     inkscape:label="Laag 1"
     inkscape:groupmode="layer"
     id="layer1"
     transform="translate(-164.21875,-179.03307)">
    <path
       sodipodi:type="arc"
       style="fill:#8b0202;fill-opacity:1;fill-rule:evenodd;stroke:none"
       id="path4119"
       sodipodi:cx="9600.4902"
       sodipodi:cy="-3541.8115"
       sodipodi:rx="1236.4268"
       sodipodi:ry="311.12698"
       d="m 10836.917,-3541.8115 c 0,171.8307 -553.567,311.127 -1236.4268,311.127 -682.8596,0 -1236.4267,-139.2963 -1236.4267,-311.127 0,-171.8307 553.5671,-311.127 1236.4267,-311.127 682.8598,0 1236.4268,139.2963 1236.4268,311.127 z"
       transform="matrix(0.10890803,0,0,0.1050209,-677.45257,698.93856)" />
    <path
       sodipodi:type="arc"
       style="fill:#ce0200;fill-opacity:1;fill-rule:evenodd;stroke:none"
       id="path4121"
       sodipodi:cx="9792.4189"
       sodipodi:cy="-3594.3396"
       sodipodi:rx="668.72101"
       sodipodi:ry="230.31477"
       d="m 10461.14,-3594.3396 c 0,127.1993 -299.397,230.3148 -668.7211,230.3148 -369.3244,0 -668.721,-103.1155 -668.721,-230.3148 0,-127.1993 299.3966,-230.3148 668.721,-230.3148 369.3241,0 668.7211,103.1155 668.7211,230.3148 z"
       transform="matrix(0.11722272,0,0,0.11239078,-770.16867,730.52056)" />
    <path
       style="fill:url(#linearGradient5794);fill-opacity:1.0"
       d="m 234.32824,333.24626 c -3.1418,-1.3111 -4.8949,-4.2435 -4.6999,-7.8604 0.082,-1.613 0.4091,-2.8175 1.1307,-4.224 0.7017,-1.3676 1.9682,-2.7102 3.1354,-3.3247 l 0.6497,-0.3417 0.073,-1.8779 c 0.082,-1.9803 0,-5.1575 -0.1649,-7.2682 -0.5395,-6.6166 -2.2671,-11.9068 -5.4543,-16.6983 -0.4229,-0.6354 -0.8047,-1.1946 -0.8484,-1.2426 -0.045,-0.048 -0.2624,0.01 -0.4857,0.1233 -0.4637,0.2403 -1.3886,0.4901 -2.1685,0.5858 -1.2602,0.1546 -3.4753,-0.3447 -4.7956,-1.0813 -1.3468,-0.7511 -2.5359,-2.0263 -3.0161,-3.2347 -0.3106,-0.7801 -0.3398,-2.4611 -0.054,-3.122 0.098,-0.2256 0.1603,-0.427 0.1402,-0.4477 -0.018,-0.021 -0.2614,0.063 -0.5357,0.186 -0.4155,0.1864 -0.6406,0.216 -1.3577,0.1777 -0.7517,-0.039 -0.9677,-0.1006 -1.7357,-0.4865 -1.5627,-0.7863 -2.894,-2.4153 -3.562,-4.3597 -0.225,-0.6549 -0.2596,-0.9393 -0.2678,-2.2214 -0.01,-1.6105 0.1513,-2.3354 0.7692,-3.4722 l 0.2887,-0.5319 -8.5852,-11.283 c -4.7226,-6.2057 -8.8603,-11.6443 -9.1965,-12.0858 l -0.6114,-0.8025 2.1959,-1.2693 2.1968,-1.2693 1.6557,1.6663 c 3.9964,4.0217 8.0877,7.0701 12.6364,9.4142 6.338,3.2663 12.31,4.309 17.0071,2.9691 1.1354,-0.3235 2.9505,-1.2384 3.9027,-1.9667 3.0415,-2.3262 4.8839,-6.2004 5.5254,-11.6148 0.082,-0.7011 0.1348,-2.2498 0.1321,-3.9384 0,-2.8091 -0.1294,-4.488 -0.5431,-7.3255 l -0.1877,-1.2871 1.6549,-4.0998 c 0.9102,-2.2549 1.6873,-4.0626 1.7275,-4.0167 0.036,0.045 0.7115,1.5699 1.4934,3.3866 1.8004,4.1861 3.2356,6.7542 5.5199,9.8769 6.1514,8.4122 13.9202,12.9882 21.52039,12.6767 2.8119,-0.1154 5.2284,-0.7846 7.5746,-2.0987 3.1044,-1.7386 5.8345,-4.6823 7.5346,-8.126 1.3596,-2.7536 2.1405,-5.3595 2.6042,-8.7008 0.2743,-1.9738 0.38,-5.4583 0.2242,-7.418 l -0.113,-1.4318 1.3841,-3.208 c 0.7617,-1.7644 1.4287,-3.2875 1.4816,-3.3844 0.082,-0.1421 0.4137,0.2861 1.7358,2.2171 1.406,2.0521 1.7294,2.6034 2.2761,3.8707 4.6243,10.7215 11.8756,18.1184 19.966,20.3679 2.1285,0.5918 4.9395,0.7652 6.975,0.4301 8.9943,-1.4804 15.4445,-10.3413 17.9695,-24.6846 l 0.2788,-1.584 2.2788,-2.0393 c 1.2539,-1.1217 2.4767,-2.2171 2.719,-2.4343 l 0.4393,-0.3947 0.6233,1.9176 c 0.482,1.4833 0.6606,2.2148 0.7909,3.2303 1.7667,13.8599 6.2744,21.7358 14.1498,24.7208 2.4382,0.9242 4.5895,1.2618 8.0448,1.2618 3.4551,0 5.6074,-0.3376 8.0457,-1.2618 2.4047,-0.9117 4.1387,-2.027 6.011,-3.8677 4.2198,-4.1461 6.8768,-10.9548 8.1388,-20.8531 0.1294,-1.0155 0.308,-1.747 0.7901,-3.2303 l 0.6232,-1.9176 0.4401,0.3947 c 0.2414,0.2172 1.4652,1.3126 2.718,2.4343 l 2.2789,2.0393 0.2788,1.584 c 2.1668,12.3064 7.2804,20.6959 14.4423,23.6917 3.1162,1.3034 6.7956,1.5254 10.2955,0.6213 3.949,-1.02 7.9082,-3.4473 11.3816,-6.9769 3.6157,-3.674 6.4357,-7.9894 8.7912,-13.4495 0.5466,-1.2673 0.871,-1.8186 2.2761,-3.8707 1.3221,-1.931 1.6574,-2.3592 1.7357,-2.2171 0.055,0.097 0.72,1.62 1.4816,3.3844 l 1.3841,3.208 -0.113,1.4318 c -0.1548,1.9597 -0.054,5.4442 0.2242,7.418 0.8866,6.3756 3.3814,11.4277 7.3377,14.8564 4.1369,3.5849 9.6368,4.8929 15.2177,3.6191 7.5619,-1.726 14.6583,-7.9052 19.9914,-17.4074 0.462,-0.8229 1.4234,-2.8706 2.2197,-4.7259 0.7727,-1.8003 1.4378,-3.3106 1.4779,-3.3559 0.045,-0.045 0.8192,1.7622 1.7294,4.0163 l 1.6557,4.0984 -0.1876,1.2875 c -0.4128,2.8379 -0.5377,4.5167 -0.5423,7.3259 0,1.6886 0.045,3.2373 0.1313,3.9384 0.7726,6.5235 3.2338,10.7252 7.5044,12.8107 1.9318,0.9435 3.736,1.3296 6.1843,1.324 2.0466,-0.01 3.5563,-0.2028 5.705,-0.7489 3.9354,-0.9998 8.8722,-3.4454 12.9889,-6.4346 2.5485,-1.8498 4.3545,-3.4031 6.6899,-5.753 l 1.6555,-1.6663 2.196,1.2693 2.1969,1.2693 -0.6114,0.8025 c -0.3362,0.4415 -4.4748,5.8801 -9.1966,12.0858 l -8.586,11.283 0.2897,0.5319 c 0.6177,1.1368 0.7781,1.8617 0.7681,3.4722 0,1.2821 -0.045,1.5665 -0.267,2.2214 -0.7171,2.0874 -2.1951,3.8051 -3.9144,4.5507 -0.8365,0.3627 -2.0775,0.416 -2.7417,0.1178 -0.2743,-0.123 -0.5149,-0.2067 -0.535,-0.186 -0.019,0.021 0.045,0.2221 0.1394,0.4477 0.2844,0.6609 0.2552,2.3419 -0.054,3.122 -0.4802,1.2084 -1.6692,2.4836 -3.016,3.2347 -2.1795,1.2155 -5.1645,1.4277 -6.965,0.4955 -0.2233,-0.1159 -0.4419,-0.1713 -0.4857,-0.1233 -0.045,0.048 -0.4246,0.6072 -0.8474,1.2426 -3.1873,4.7915 -4.9158,10.0817 -5.4552,16.6983 -0.1713,2.1107 -0.2442,5.2879 -0.1649,7.2682 l 0.073,1.8779 0.6487,0.3417 c 1.1681,0.6145 2.4338,1.9571 3.1354,3.3247 0.7217,1.4065 1.0442,2.611 1.1317,4.224 0.1959,3.6304 -1.5745,6.5756 -4.73,7.8691 l -0.6241,0.2562 -0.801,-0.7155 c -6.9832,-6.2413 -19.6706,-11.3335 -36.8082,-14.7732 -17.3936,-3.4913 -38.5923,-5.4653 -68.8583,-6.4126 -2.7599,-0.086 -9.9483,-0.2814 -15.974,-0.4331 l -10.955,-0.2759 -10.9279,0.2756 c -6.0112,0.1515 -13.1868,0.3465 -15.9467,0.4333 -30.3688,0.9545 -51.4418,2.917 -68.8582,6.4127 -17.14489,3.4413 -29.81939,8.5273 -36.80279,14.7684 -0.4374,0.3911 -0.81,0.7099 -0.8273,0.7085 -0.018,0 -0.3025,-0.1152 -0.6323,-0.2531 z"
       id="path3801"
       inkscape:connector-curvature="0" />
    <path
       style="fill:#ffffff;fill-opacity:0.759434"
       d="m 234.21704,333.32736 c -0.9385,-0.3963 -1.9043,-1.0783 -2.6251,-1.8535 -0.8393,-0.9036 -1.2129,-1.5496 -1.6356,-2.833 -0.3125,-0.9472 -0.3289,-1.0801 -0.3325,-2.6255 0,-1.6798 0.082,-2.2089 0.5649,-3.5467 0.4719,-1.3051 1.2802,-2.5843 2.1577,-3.418 0.5202,-0.4935 1.6336,-1.2744 1.9754,-1.3843 0.1658,-0.053 0.1931,-0.2662 0.2606,-2.0077 0.095,-2.438 -0.091,-6.9984 -0.3663,-9.1773 -0.5285,-4.1213 -1.5281,-7.6755 -3.0571,-10.8696 -0.6387,-1.3342 -1.7676,-3.3135 -2.2715,-3.9847 l -0.2524,-0.3361 0.6452,-0.2299 c 0.3544,-0.1264 0.7216,-0.2294 0.8164,-0.2288 0.1028,0 0.4774,0.4699 0.9429,1.1825 2.6525,4.0637 4.2107,8.1052 5.0307,13.049 0.3945,2.3771 0.5449,4.3416 0.6033,7.8503 0.028,1.8916 0.064,3.4394 0.082,3.4394 0.01,0 0.8319,-0.3969 1.8223,-0.8819 3.828,-1.8745 7.9291,-3.4755 12.9753,-5.0658 34.11389,-10.7494 96.10809,-15.656 153.02989,-12.1117 37.6575,2.345 69.3785,7.989 92.97,16.5418 3.015,1.0932 4.9687,1.8871 4.6707,1.8952 -0.082,0 2.8201,1.2402 -0.5868,0.2159 -40.1542,-12.0731 -91.9403,-18.4688 -144.1321,-17.8006 -45.6568,0.5845 -87.9714,6.8872 -116.60899,17.3683 -5.0324,1.8418 -5.5135,2.0526 -6.2516,2.739 -1.2192,1.1338 -2.041,2.4847 -2.5612,4.2109 -0.2571,0.8512 -0.2789,1.0659 -0.2807,2.7608 0,1.7129 0.019,1.8952 0.2751,2.6804 0.4857,1.4816 1.4287,2.8218 2.6006,3.6956 0.3471,0.2587 0.6496,0.4891 0.6734,0.5121 0.064,0.066 -0.3208,0.4638 -0.4465,0.459 -0.064,0 -0.3699,-0.1128 -0.6844,-0.2451 z m 266.84229,-0.2591 c -4.3518,-3.9243 -10.845,-7.3814 -19.2925,-10.271 -5.0516,-1.7284 -9.8918,-3.0208 -17.0201,-4.5456 -2.5113,-0.5371 -2.1768,-0.5387 0.6233,0 6.833,1.307 13.9274,3.1907 19.605,5.2053 7.141,2.5339 13.4373,5.8396 17.1267,8.9916 l 0.7599,0.649 -0.5112,0.2398 c -0.2805,0.1319 -0.5594,0.2403 -0.6186,0.2411 -0.064,0 -0.3627,-0.2275 -0.6725,-0.5071 z m -39.0543,-15.3496 c -0.277,-0.072 -0.2825,-0.08 -0.054,-0.08 0.1421,0 0.3982,0.035 0.5686,0.08 0.277,0.072 0.2825,0.08 0.054,0.08 -0.1421,0 -0.3981,-0.035 -0.5685,-0.08 z m -1.1381,-0.21 c -0.2769,-0.072 -0.2824,-0.08 -0.054,-0.08 0.1421,0 0.3981,0.036 0.5686,0.08 0.2769,0.072 0.2824,0.08 0.054,0.08 -0.1421,0 -0.3981,-0.036 -0.5686,-0.08 z m -1.139,-0.2101 c -0.276,-0.072 -0.2824,-0.08 -0.054,-0.08 0.1421,0 0.3982,0.036 0.5686,0.08 0.277,0.072 0.2824,0.08 0.054,0.08 -0.1421,0 -0.3983,-0.036 -0.5696,-0.08 z m -0.8037,-0.1739 c 0.073,-0.029 0.2096,-0.031 0.3108,0 0.1002,0.027 0.045,0.05 -0.1276,0.052 -0.1703,0 -0.2533,-0.02 -0.1832,-0.048 z m -0.5147,-0.1056 c 0.073,-0.03 0.1877,-0.03 0.2587,0 0.073,0.03 0.01,0.053 -0.1294,0.053 -0.143,0 -0.2004,-0.024 -0.1293,-0.053 z m -0.6706,-0.099 c 0.037,-0.035 0.1238,-0.039 0.1986,-0.01 0.082,0.035 0.054,0.058 -0.064,0.063 -0.1093,0 -0.1703,-0.02 -0.1357,-0.055 z m -0.6207,-0.1049 c 0.037,-0.035 0.1231,-0.038 0.1978,-0.01 0.082,0.034 0.055,0.058 -0.064,0.063 -0.1094,0 -0.1705,-0.02 -0.1358,-0.055 z m -233.77169,-25.7192 c -2.8847,-0.5837 -5.1718,-2.4077 -5.847,-4.6631 -0.1468,-0.4925 -0.175,-1.5954 -0.054,-2.1634 0.064,-0.3087 0.082,-0.3145 0.635,-0.283 0.3726,0.021 0.7718,-0.039 1.1627,-0.1781 0.3271,-0.1156 0.5941,-0.2009 0.5932,-0.1896 0,0.012 -0.073,0.2806 -0.154,0.5983 -0.3089,1.1692 -0.1431,2.6723 0.3972,3.5984 0.4237,0.7263 1.243,1.5796 2.0521,2.1374 0.8619,0.5942 1.0915,0.7087 2.1039,1.0482 l 0.7243,0.243 -0.4656,-0.01 c -0.256,0 -0.7718,-0.067 -1.1463,-0.1428 z m 287.42329,0.081 c -0.2816,-0.031 -0.3672,-0.081 -0.3253,-0.1923 0.073,-0.2022 0.4008,-0.1825 0.9667,0.058 l 0.4658,0.1984 -0.3627,-0.012 c -0.1987,-0.01 -0.534,-0.031 -0.7445,-0.053 z m -296.02939,-7.6535 c -0.7471,-0.2332 -2.0137,-1.1637 -2.6797,-1.9684 -0.657,-0.7935 -1.3122,-2.0056 -1.5992,-2.9569 -0.144,-0.4764 -0.1914,-0.9762 -0.1932,-2.0479 0,-1.55 0.1667,-2.3015 0.7718,-3.4152 l 0.2871,-0.527 -8.2691,-10.8677 c -4.5486,-5.9773 -8.6836,-11.415 -9.1884,-12.084 l -0.9193,-1.2164 2.1904,-1.273 2.1914,-1.2731 0.4656,0.4731 c 0.555,0.5643 0.6707,0.4256 -1.3148,1.5715 -0.7626,0.4401 -1.3723,0.8362 -1.3549,0.8801 0.018,0.043 3.9363,5.2104 8.71,11.4806 l 8.6781,11.4008 0.996,-0.4734 c 23.9422,-11.3814 58.14989,-19.027 98.56639,-22.0299 61.2955,-4.5543 131.0894,1.9645 195.1157,18.2237 7.0489,1.7903 18.4534,4.9015 18.3504,5.0066 -0.028,0.023 -2.176,-0.4801 -4.7857,-1.1175 -41.2583,-10.0826 -86.4112,-16.9135 -129.1649,-19.5409 -21.4019,-1.3152 -42.8166,-1.6025 -62.6157,-0.84 -44.3702,1.7087 -82.48419,8.6032 -110.74539,20.0328 -3.8789,1.5685 -4.6479,1.9152 -4.8822,2.2004 -0.1239,0.1513 -0.3782,0.6565 -0.5648,1.1228 -0.3372,0.8389 -0.3409,0.8659 -0.3427,2.5807 0,1.7105 0,1.7438 0.3307,2.5729 0.657,1.6556 1.9318,3.2174 3.191,3.911 l 0.6124,0.3368 -0.6726,0 c -0.3699,0 -0.8938,-0.074 -1.1644,-0.1581 z m 310.97739,-11.0275 c 0.037,-0.035 0.1238,-0.039 0.1986,-0.01 0.082,0.034 0.054,0.058 -0.064,0.063 -0.1093,0 -0.1703,-0.02 -0.1357,-0.055 z m -301.89739,-11.8455 -0.8283,-0.1203 1.4488,-0.01 c 7.1027,-0.046 11.7178,-4.1598 13.2405,-11.801 0.4164,-2.089 0.5183,-3.3462 0.5093,-6.3013 0,-2.804 -0.1367,-4.5376 -0.5431,-7.3256 l -0.1868,-1.287 1.6547,-4.0999 c 0.9094,-2.2549 1.6857,-4.0624 1.7249,-4.0167 0.037,0.046 0.308,0.638 0.5977,1.3156 l 0.5277,1.2323 -1.1892,2.916 -1.1899,2.9162 0.2642,2.0478 c 1.3139,10.1666 -0.1549,17.4443 -4.3145,21.374 -1.7878,1.6888 -4.1733,2.8176 -6.7556,3.1963 -0.9403,0.138 -3.908,0.1158 -4.9604,-0.037 z m 288.31519,0.048 c -0.4381,-0.1015 -0.5065,-0.091 1.3777,-0.2207 3.5647,-0.2462 7.0071,-1.2646 10.9863,-3.2502 4.6433,-2.317 8.8794,-5.4225 12.9862,-9.5214 l 1.8122,-1.8079 0.7583,0.4392 0.7571,0.4392 -1.6384,1.6278 c -2.4966,2.4795 -4.8029,4.3692 -7.6102,6.2367 -4.667,3.1032 -9.1937,5.0673 -13.5893,5.8958 -1.0232,0.1929 -5.2057,0.3086 -5.8399,0.1615 z m -0.9057,-0.184 c 0.099,-0.027 0.2625,-0.027 0.3618,0 0.1002,0.027 0.019,0.048 -0.1805,0.048 -0.1996,0 -0.2806,-0.022 -0.1813,-0.048 z m -242.6585,-8.6576 c -0.4264,-0.05 -0.8219,-0.1071 -0.8793,-0.1269 -0.054,-0.02 0.6634,-0.063 1.6028,-0.098 2.6469,-0.096 4.6452,-0.5892 6.8804,-1.6974 4.1359,-2.0513 7.3241,-5.719 9.2476,-10.6395 1.5872,-4.0579 2.2605,-9.1486 1.8761,-14.1707 l -0.099,-1.2783 1.4296,-3.3178 c 0.7864,-1.8249 1.4551,-3.3434 1.4852,-3.3745 0.028,-0.032 0.3609,0.39 0.7336,0.9359 l 0.6769,0.9927 -1.0734,2.4638 -1.0723,2.4638 0.064,2.6667 c 0.133,5.8436 -0.564,9.9297 -2.3992,14.0612 -2.4575,5.5337 -6.7317,9.3593 -11.9766,10.7184 -1.8287,0.4739 -4.4775,0.6375 -6.4931,0.4006 z m 199.0209,-0.037 -0.8282,-0.1296 1.2939,-0.017 c 8.1651,-0.1052 16.2055,-5.5583 22.3951,-15.1883 1.4516,-2.2594 2.4,-4.0945 3.8389,-7.431 0.7781,-1.8045 1.4459,-3.316 1.4842,-3.3586 0.036,-0.042 0.3099,0.5144 0.6015,1.2379 l 0.5303,1.3152 -0.8565,1.913 c -1.0497,2.3433 -1.6456,3.5535 -2.3455,4.7649 -0.8829,1.5264 -2.6998,4.1953 -3.8853,5.7069 -1.3138,1.6754 -4.1086,4.5492 -5.5809,5.7405 -3.7687,3.0483 -7.8089,4.9131 -11.7926,5.4431 -1.3959,0.1857 -3.6785,0.187 -4.8549,0 z m -149.1491,-7.3138 c -1.1571,-0.1359 -1.1107,-0.1613 0.3225,-0.1776 4.2089,-0.048 7.8483,-1.6209 11.1694,-4.8284 4.3775,-4.2278 7.4518,-11.0363 9.0435,-20.0283 0.154,-0.8663 0.2871,-1.5829 0.2961,-1.5922 0.01,-0.01 1.2265,-1.1046 2.7064,-2.4343 l 2.6907,-2.4174 0.2223,0.6663 c 0.123,0.3665 0.2514,0.7561 0.2852,0.8655 0.045,0.1587 -0.3317,0.5521 -1.878,1.9383 l -1.9409,1.7393 -0.3407,1.8776 c -1.9992,11.0156 -6.3546,18.8268 -12.4897,22.3974 -1.6965,0.9874 -3.3995,1.6092 -5.3204,1.9427 -1.0596,0.1839 -3.4205,0.2092 -4.7664,0.051 z m 99.4841,0.01 c -1.0095,-0.158 -0.9903,-0.1676 0.3645,-0.1804 3.7295,-0.035 7.6785,-1.4299 11.3269,-4.0001 5.2322,-3.6856 9.922,-9.8577 12.9289,-17.0148 0.512,-1.219 0.8072,-1.72 2.2424,-3.807 0.9093,-1.3219 1.6683,-2.4034 1.6884,-2.4034 0.018,0 0.2287,0.4615 0.4664,1.0256 l 0.4311,1.0256 -1.0042,1.5117 c -0.655,0.9851 -1.2892,2.1189 -1.8205,3.254 -1.6091,3.4337 -2.3581,4.8265 -3.7623,6.9969 -4.6652,7.2105 -10.8011,11.9932 -17.1758,13.3889 -0.8009,0.1754 -1.4787,0.2338 -3.0479,0.2628 -1.1098,0.021 -2.2971,-0.01 -2.6379,-0.059 z m -49.7169,-0.1054 c -2.3235,-0.1481 -2.78,-0.2812 -0.7764,-0.2261 8.0932,0.222 13.8382,-2.5729 17.7271,-8.6239 2.4447,-3.8046 4.2271,-9.4367 5.1974,-16.4234 0.2851,-2.0541 0.3828,-2.4868 0.9413,-4.2086 l 0.6242,-1.9192 0.8182,0.7488 c 0.4501,0.4118 0.8183,0.798 0.8183,0.8582 0,0.06 -0.1604,0.6576 -0.3555,1.3278 -0.3717,1.2778 -0.5248,2.051 -0.8856,4.4742 -0.8045,5.402 -2.2934,10.4227 -4.0784,13.7453 -1.1627,2.1654 -2.3691,3.7806 -3.9947,5.3495 -2.8192,2.7207 -6.2862,4.3253 -10.3447,4.788 -1.3559,0.1544 -4.1432,0.208 -5.6912,0.1094 z"
       id="path3850"
       inkscape:connector-curvature="0"
       sodipodi:nodetypes="csssssssssscccsssssssscssssssscccccsscscccccccscsccscsccscscccccccscsccssccscsccsccscsccccccscccssssscsscccsscscssscssssssscsccssccscccssscscscccssscccsscccccsscccscccsssscssscccssscccscccccccccsccsssscscscscsssscscccscccsssscssssscsscsssss" />
    <path
       style="fill:#000000;fill-opacity:0.12735847"
       d="m 234.52594,333.32276 c -0.2131,-0.089 -0.3872,-0.1988 -0.3872,-0.2443 0,-0.1291 1.2829,-1.1804 2.503,-2.0504 4.5057,-3.2143 10.5269,-6.0481 18.0351,-8.4884 2.1339,-0.6937 5.4461,-1.6501 5.5691,-1.6084 0.064,0.02 -0.5184,0.2168 -1.282,0.4376 -0.7645,0.2208 -2.5304,0.7916 -3.9245,1.2687 -6.6152,2.2632 -11.1985,4.4179 -15.4455,7.2613 -1.5172,1.0161 -3.9062,2.8694 -4.3591,3.3828 -0.226,0.2557 -0.1969,0.254 -0.7089,0.04 z m 267.02639,0.037 c -0.1613,-0.1192 -0.1084,-0.1843 0.5002,-0.6256 2.0311,-1.4707 3.0725,-3.6827 3.0689,-6.5161 0,-3.2551 -1.5983,-6.3297 -4.0394,-7.793 -0.6578,-0.3943 -0.8228,-0.5427 -0.8228,-0.7406 0,-0.1362 0.037,-0.2476 0.082,-0.2476 0.045,0 0.655,0.1679 1.3567,0.373 0.7025,0.2051 1.292,0.3572 1.3113,0.3381 0.018,-0.019 -0.6042,-0.2963 -1.3832,-0.616 -1.2876,-0.5279 -1.4206,-0.6066 -1.4497,-0.8619 -0.037,-0.3148 -0.2042,-0.3775 -3.2785,-1.2295 -1.8333,-0.5081 -3.4169,-0.9886 -4.1477,-1.259 -0.9567,-0.3537 -6.0558,-1.9666 -8.4239,-2.6645 -23.3108,-6.8702 -53.1777,-11.3666 -87.276,-13.1391 -12.26,-0.6371 -16.1954,-0.7272 -31.7648,-0.7265 -15.5776,0 -19.7928,0.097 -32.0237,0.7294 -23.4593,1.2136 -45.4399,3.7542 -63.2042,7.3053 -1.1582,0.2315 -2.124,0.4028 -2.1458,0.3806 -0.1021,-0.1034 6.7099,-1.4352 12.1678,-2.379 21.4193,-3.7036 47.0682,-5.9397 74.9077,-6.5304 7.1582,-0.1518 23.8266,-0.065 30.8372,0.1602 43.2885,1.3919 79.4772,6.7092 106.9347,15.7119 1.2776,0.4189 6.1461,2.1547 7.2021,2.568 0.1495,0.058 0.1722,-0.2529 0.226,-3.1173 0.1284,-6.7887 1.1034,-11.6018 3.2911,-16.2513 1.1145,-2.3676 2.9587,-5.3623 3.3022,-5.3623 0.103,0 0.401,0.093 0.6615,0.2061 l 0.4738,0.2061 -0.6569,1.028 c -2.8547,4.4685 -4.4876,9.6691 -5.0234,15.9933 -0.1539,1.8219 -0.2532,6.0237 -0.1694,7.161 l 0.073,1.0055 0.01,0.01 c 0.1904,1.5235 -0.6469,0.7672 0.1822,1.0845 -1.5891,-0.5349 0.7253,-0.2996 -0.1913,-0.5852 l -0.019,-0.041 0,0.2774 c 0,0.2292 0.096,0.3257 0.544,0.5542 0.2979,0.1522 0.5311,0.3277 0.5175,0.39 -0.01,0.062 0.037,0.09 0.1103,0.06 0.174,-0.068 1.4224,1.0933 1.9408,1.8052 2.2205,3.0511 2.463,7.5323 0.5641,10.4317 -0.7909,1.2074 -2.1149,2.2663 -3.5363,2.8287 -0.4392,0.1736 -0.5632,0.187 -0.7108,0.078 z m -240.97739,-12.5621 c 0.1138,-0.049 0.276,-0.091 0.3617,-0.091 0.099,0 0.082,0.034 -0.054,0.091 -0.1139,0.049 -0.276,0.09 -0.3617,0.09 -0.098,0 -0.082,-0.034 0.054,-0.09 z m 0.5968,-0.1685 c 0.037,-0.035 0.1238,-0.039 0.1986,-0.01 0.082,0.034 0.054,0.058 -0.064,0.063 -0.1093,0 -0.1703,-0.02 -0.1357,-0.055 z m 0.4136,-0.1051 c 0.037,-0.035 0.124,-0.038 0.1986,-0.01 0.082,0.034 0.054,0.058 -0.064,0.063 -0.1092,0 -0.1703,-0.02 -0.1357,-0.054 z m 0.4136,-0.105 c 0.037,-0.034 0.124,-0.038 0.1987,-0.01 0.082,0.034 0.055,0.058 -0.064,0.063 -0.1085,0 -0.1696,-0.02 -0.1358,-0.054 z m 0.4147,-0.105 c 0.037,-0.035 0.123,-0.038 0.1978,-0.01 0.082,0.034 0.054,0.058 -0.064,0.063 -0.1094,0 -0.1703,-0.02 -0.1357,-0.055 z m -27.4995,-1.931 c 2.2588,-0.9482 8.4794,-3.121 12.5843,-4.3954 3.4479,-1.0705 6.5031,-1.9446 6.5678,-1.8792 0.028,0.025 -0.3416,0.1507 -0.8109,0.2809 -4.2107,1.1674 -11.1146,3.4947 -15.7626,5.3133 -1.1336,0.4435 -2.2132,0.7991 -2.5349,0.835 l -0.5603,0.062 z m 19.4519,-6.4071 c 0.1139,-0.05 0.277,-0.091 0.3628,-0.091 0.098,0 0.082,0.034 -0.054,0.091 -0.1138,0.049 -0.277,0.09 -0.3617,0.09 -0.099,0 -0.082,-0.034 0.054,-0.09 z m 0.5978,-0.1686 c 0.037,-0.034 0.123,-0.038 0.1977,-0.01 0.082,0.034 0.054,0.058 -0.064,0.063 -0.1093,0 -0.1703,-0.02 -0.1357,-0.055 z m 0.5412,-0.1465 c 0.113,-0.049 0.2761,-0.09 0.3618,-0.09 0.098,0 0.082,0.034 -0.055,0.09 -0.1138,0.049 -0.2769,0.09 -0.3616,0.09 -0.099,0 -0.082,-0.034 0.054,-0.09 z m 0.7234,-0.1961 c 0.1139,-0.05 0.37,-0.1218 0.5696,-0.1585 0.2487,-0.045 0.2969,-0.037 0.1548,0.026 -0.1139,0.05 -0.3699,0.1219 -0.5685,0.1587 -0.2488,0.045 -0.298,0.037 -0.1559,-0.026 z m 1.0115,-0.2876 c 0.037,-0.035 0.124,-0.039 0.1987,-0.01 0.082,0.034 0.054,0.058 -0.064,0.063 -0.1093,0 -0.1704,-0.02 -0.1358,-0.054 z m 6.9323,-4.3058 c 0.037,-0.035 0.1239,-0.039 0.1986,-0.01 0.082,0.034 0.054,0.058 -0.064,0.063 -0.1093,0 -0.1704,-0.02 -0.1358,-0.055 z m 0.4136,-0.1051 c 0.037,-0.034 0.1239,-0.038 0.1987,-0.01 0.082,0.034 0.054,0.058 -0.064,0.063 -0.1084,0 -0.1695,-0.02 -0.1357,-0.054 z m 0.5176,-0.1049 c 0.037,-0.035 0.124,-0.039 0.1987,-0.01 0.082,0.034 0.055,0.058 -0.064,0.063 -0.1093,0 -0.1704,-0.02 -0.1358,-0.055 z m 0.4639,-0.1111 c 0.073,-0.03 0.1868,-0.03 0.2587,0 0.073,0.03 0.01,0.053 -0.1293,0.053 -0.1432,0 -0.2006,-0.024 -0.1294,-0.053 z m 0.46729,-0.099 c 0.037,-0.035 0.124,-0.038 0.1987,-0.01 0.082,0.034 0.055,0.058 -0.064,0.063 -0.1094,0 -0.1705,-0.02 -0.1358,-0.055 z m 0.4639,-0.1111 c 0.073,-0.03 0.1868,-0.03 0.2578,0 0.073,0.03 0.01,0.053 -0.1284,0.053 -0.1431,0 -0.2005,-0.024 -0.1294,-0.053 z m 0.4673,-0.099 c 0.037,-0.035 0.124,-0.039 0.1987,-0.01 0.082,0.034 0.054,0.058 -0.064,0.063 -0.1093,0 -0.1704,-0.02 -0.1357,-0.054 z m 0.464,-0.1111 c 0.073,-0.03 0.1867,-0.03 0.2578,0 0.073,0.03 0.01,0.053 -0.1285,0.053 -0.143,0 -0.2005,-0.024 -0.1293,-0.053 z m 237.6925,-15.108 c -0.3126,-0.079 -1.2812,-0.4039 -2.1523,-0.7239 -20.4069,-7.4962 -51.389,-13.2929 -87.296,-16.3333 -18.7248,-1.5855 -36.9239,-2.3343 -56.5974,-2.3289 -16.7639,0 -29.4713,0.4056 -43.6976,1.3788 -38.7336,2.6494 -68.82459,8.6077 -86.67289,17.162 -1.1308,0.5419 -1.5125,0.6575 -2.8456,0.8605 -0.6633,0.1012 3.8844,-2.2303 7.2949,-3.739 21.2707,-9.4109 54.89989,-15.3531 97.15699,-17.1669 9.7533,-0.4187 15.0409,-0.522 26.7978,-0.5235 11.195,0 15.9869,0.084 25.9707,0.4661 40.9613,1.5655 79.7761,6.7583 106.0556,14.1886 7.1902,2.0329 16.045,5.2018 16.9981,6.0834 0.3363,0.3102 0.338,0.3173 0.1559,0.5716 -0.2097,0.2915 -0.3636,0.3053 -1.1682,0.1045 z m 8.2025,-0.1969 c 1.3322,-0.5623 2.7882,-1.8182 3.4643,-2.9887 0.3371,-0.5822 0.5394,-1.4559 0.5394,-2.3259 0,-0.9602 -0.064,-1.1303 -0.4465,-1.2144 -0.1795,-0.039 -1.2574,-0.4482 -2.3955,-0.9092 -7.3615,-2.9812 -14.6828,-5.4023 -23.9013,-7.9037 -40.4785,-10.984 -99.9488,-16.4738 -156.393,-14.4372 -38.1923,1.378 -71.36489,6.0199 -95.39469,13.3487 -8.0585,2.4576 -14.1078,4.8345 -20.4379,8.0305 -1.651,0.8331 -3.1636,1.5406 -3.3632,1.5723 -0.2223,0.036 -0.4309,0 -0.5421,-0.081 -0.1594,-0.1233 0.01,-0.2524 1.5526,-1.1573 22.9464,-13.4933 63.64169,-22.008 115.34049,-24.1322 15.7664,-0.6479 35.0743,-0.6091 52.0962,0.1046 44.4895,1.8652 87.0109,8.1647 115.264,17.0761 6.6907,2.1105 13.1967,4.586 17.6932,6.733 1.0507,0.5018 1.8626,1.1321 1.7796,1.3828 -0.028,0.076 0.1468,0.1168 0.483,0.1168 0.5139,0 0.5221,0.01 0.5896,0.3683 0.113,0.6084 -0.01,1.7458 -0.2598,2.3964 -0.4783,1.2531 -1.7193,2.5532 -3.1326,3.2822 -0.811,0.4186 -2.0055,0.8327 -2.6671,0.9252 l -0.4656,0.065 z m 7.9992,-7.7076 c 1.2411,-0.895 2.1522,-2.0978 2.75,-3.6305 0.3226,-0.8263 0.3344,-0.9089 0.34,-2.4306 0,-1.7526 -0.082,-2.2034 -0.6353,-3.3388 -0.1922,-0.3923 -0.3152,-0.7704 -0.2743,-0.8402 0.045,-0.07 4.1688,-5.5054 9.1721,-12.079 5.0033,-6.5734 9.0799,-11.9668 9.0599,-11.9848 -0.019,-0.018 -0.5959,-0.3559 -1.2792,-0.7507 -0.6825,-0.3949 -1.4371,-0.8425 -1.6758,-0.9948 l -0.4337,-0.277 0.4866,-0.4866 0.4865,-0.4866 2.1951,1.2687 2.196,1.2687 -0.4511,0.5927 c -0.2478,0.3261 -4.3865,5.7638 -9.1975,12.0839 l -8.7464,11.4909 0.2897,0.5339 c 0.6086,1.1202 0.7791,1.8697 0.7763,3.4219 0,1.1848 -0.045,1.5411 -0.2387,2.167 -0.2798,0.8839 -0.9658,2.1436 -1.5298,2.8092 -0.9523,1.1237 -2.3974,2.0097 -3.4771,2.1308 l -0.5458,0.061 z m -299.86079,-22.2513 c -3.5993,-0.2294 -7.428,-1.3665 -11.4527,-3.4013 -3.2803,-1.6584 -6.1706,-3.5762 -9.1374,-6.063 -1.2237,-1.0256 -4.3263,-3.9527 -4.6589,-4.3943 l -0.2605,-0.3469 0.235,-0.1479 c 0.1294,-0.081 0.4419,-0.2695 0.6952,-0.4181 l 0.4593,-0.2701 1.7658,1.7531 c 5.6457,5.604 11.7343,9.5387 17.8875,11.5599 2.8174,0.9254 4.8403,1.2676 7.5109,1.2709 0.9339,0 1.6766,0.024 1.6501,0.051 -0.195,0.1974 -3.4934,0.4835 -4.6943,0.4068 z m 288.00539,0 c -3.3113,-0.1493 -6.1852,-1.3635 -8.3629,-3.533 -2.2524,-2.2442 -3.5335,-5.0977 -4.277,-9.5222 -0.215,-1.2811 -0.2378,-1.7467 -0.2369,-4.8309 0,-3.4365 0.054,-4.2406 0.471,-7.2486 l 0.2123,-1.5249 -1.2564,-3.0959 -1.2566,-3.0961 0.4875,-1.1553 c 0.2679,-0.6353 0.5202,-1.1925 0.5594,-1.2381 0.036,-0.045 0.8165,1.7593 1.7276,4.0107 l 1.6557,4.0939 -0.1886,1.2928 c -0.4082,2.8058 -0.5359,4.5245 -0.5432,7.3313 -0.01,3.6836 0.2498,5.7853 1.0398,8.4017 1.6355,5.4155 5.0689,8.5953 10.2618,9.5027 1.086,0.1898 3.7831,0.22 4.8794,0.054 0.9229,-0.1391 1.0961,-0.1161 0.4145,0.055 -1.232,0.3089 -4.1204,0.5685 -5.5874,0.5023 z m -283.16609,-0.5162 c 0.037,-0.034 0.1239,-0.039 0.1986,-0.01 0.082,0.034 0.054,0.058 -0.064,0.063 -0.1084,0 -0.1695,-0.02 -0.1357,-0.055 z m 38.359,-8.4063 c -1.8542,-0.2473 -4.3217,-0.9578 -6.0467,-1.7408 -5.6064,-2.5463 -10.9569,-7.6934 -14.9834,-14.4168 -0.8456,-1.4114 -2.4986,-4.7304 -3.3267,-6.6808 l -0.4729,-1.1147 0.4884,-1.218 c 0.2687,-0.67 0.522,-1.1846 0.5612,-1.1435 0.036,0.041 0.6596,1.4407 1.3787,3.1098 1.7649,4.1006 2.2041,4.9487 4.0492,7.8115 6.3738,9.8908 14.8123,15.3552 23.17959,15.0111 0.8284,-0.034 1.489,-0.045 1.4689,-0.024 -0.018,0.021 -0.4565,0.1163 -0.9685,0.2119 -0.9104,0.17 -4.52139,0.3016 -5.32779,0.1942 z m 198.50439,-0.1375 c -1.3678,-0.249 -2.1932,-0.4751 -3.264,-0.8939 -7.0616,-2.7637 -11.6676,-10.0675 -12.4211,-19.6946 -0.073,-0.9355 -0.098,-2.5962 -0.064,-4.3059 l 0.054,-2.7831 -1.0305,-2.3907 c -0.5668,-1.3148 -1.0725,-2.5013 -1.1226,-2.6367 -0.073,-0.2066 0,-0.3862 0.5194,-1.1275 0.3371,-0.4848 0.6378,-0.8815 0.6697,-0.8815 0.028,0 0.7071,1.5077 1.5007,3.3505 l 1.4442,3.3504 -0.1039,1.3756 c -0.2542,3.3852 0,7.1886 0.6871,10.1447 1.1189,4.838 3.0707,8.4939 6.1141,11.4537 2.5321,2.4634 5.3404,3.9191 8.8229,4.5732 1.0297,0.1934 3.991,0.267 5.2247,0.1297 l 0.6206,-0.069 -0.5686,0.1449 c -1.9134,0.4873 -5.1811,0.6073 -7.0881,0.2603 z m -48.1643,-7.1119 c -2.3163,-0.2206 -4.1142,-0.7355 -6.0011,-1.7195 -4.2252,-2.2029 -7.6877,-6.3887 -10.1771,-12.3052 -1.1699,-2.7792 -2.3243,-6.803 -3.0042,-10.4659 -0.1968,-1.0612 -0.3963,-1.965 -0.4428,-2.0085 -0.045,-0.043 -0.9239,-0.8228 -1.948,-1.7322 -1.0243,-0.9094 -1.8971,-1.6856 -1.9399,-1.7249 -0.045,-0.039 0.054,-0.4557 0.2068,-0.9252 l 0.2842,-0.8536 2.6635,2.3888 c 1.4642,1.3139 2.6815,2.4092 2.7061,2.4341 0.028,0.025 0.164,0.7307 0.3125,1.5682 0.8767,4.9415 2.1377,9.0366 3.9046,12.6837 3.4387,7.0947 8.3874,11.243 14.444,12.1083 0.493,0.07 1.5955,0.1047 2.6069,0.081 0.9632,-0.023 1.7403,-0.029 1.7257,-0.013 -0.018,0.015 -0.5594,0.119 -1.2099,0.2313 -1.1163,0.1927 -3.3359,0.3285 -4.1313,0.2529 z m -100.7643,-0.1472 c -2.6925,-0.3544 -5.9875,-1.723 -8.8614,-3.6801 -1.6391,-1.1168 -2.6369,-1.9502 -4.1758,-3.4868 -3.4553,-3.4517 -6.1406,-7.4325 -8.5862,-12.7322 -0.7873,-1.7061 -1.2802,-2.6058 -2.1586,-3.9388 l -1.1372,-1.7275 0.4174,-0.9743 c 0.3326,-0.7772 0.4428,-0.9469 0.5439,-0.8396 0.073,0.074 0.822,1.1515 1.6721,2.3945 1.3385,1.9562 1.6338,2.4641 2.1951,3.7808 4.4985,10.5467 11.9693,18.1499 19.9568,20.3107 1.7202,0.4652 2.9677,0.6109 4.8894,0.5706 1.8031,-0.037 1.835,0 0.2605,0.2739 -0.995,0.1753 -3.8433,0.2031 -5.016,0.049 z m 49.2886,-0.102 c -2.3162,-0.2156 -4.6032,-0.849 -6.6225,-1.8341 -6.7609,-3.2986 -10.7865,-10.7086 -12.5215,-23.0506 -0.2305,-1.6354 -0.4009,-2.4335 -0.8264,-3.8589 -0.1986,-0.6648 -0.3617,-1.2442 -0.3617,-1.2877 0,-0.043 0.3454,-0.3924 0.7672,-0.7756 l 0.7673,-0.6967 0.625,1.9179 c 0.5349,1.6449 0.6615,2.1885 0.8866,3.8198 0.8602,6.2324 2.1248,10.8028 4.0548,14.6566 2.6743,5.3397 6.6379,8.6997 11.8626,10.0556 1.889,0.4904 3.3969,0.6682 5.7661,0.6804 1.1662,0.01 2.5868,-0.022 3.1554,-0.06 1.2583,-0.087 0.9185,0.048 -0.7244,0.2881 -1.3604,0.1989 -5.3468,0.2841 -6.8285,0.1461 z m 8.7173,-0.5895 c 0.073,-0.03 0.1877,-0.03 0.2588,0 0.073,0.03 0.01,0.053 -0.1294,0.053 -0.1421,0 -0.2005,-0.024 -0.1294,-0.053 z"
       id="path3890"
       inkscape:connector-curvature="0"
       sodipodi:nodetypes="sssscsssssccssssscccccsscsscssssccssccscsccccccccccccccssssscccccccccccccccccccccscsscccssssssccsssssscccccsccssccssccssccssssssccssssssccsssssccsssssssssscccccccsssssccssssccscccscccccccscscccccccsccccccccssssccscssccsscscccccscccscscscssccsssssccssssccsscccccccsccccscccsssssscssscscsssssssssssscscsssssssssssscssssssssssss" />
    <path
       style="fill:#000000;fill-opacity:0.05188676"
       d="m 234.61614,314.28316 c 0,-1.6609 -0.045,-3.6108 -0.1075,-4.3328 -0.3772,-4.5317 -1.2812,-8.5403 -2.8429,-12.6024 -0.544,-1.4167 -2.2023,-4.7905 -2.9942,-6.0912 -0.369,-0.6066 -0.6387,-1.1348 -0.5996,-1.174 0.092,-0.092 6.0476,-2.26 9.326,-3.3951 4.1623,-1.4411 8.383,-2.7652 12.8878,-4.0435 3.3969,-0.9637 8.8732,-2.4225 8.9196,-2.3756 0.019,0.023 -0.2524,0.2048 -0.6114,0.4049 -4.6425,2.5913 -7.9318,6.8974 -8.8712,11.6136 -0.4138,2.0744 -0.3838,3.8327 0.096,5.7377 0.7371,2.9251 2.7517,5.392 5.5372,6.7801 2.6835,1.337 5.6958,1.8469 9.3988,1.5906 1.0343,-0.072 2.01919,-0.1524 2.18959,-0.1799 0.2596,-0.041 0.277,-0.034 0.1039,0.054 -0.1139,0.057 -1.23099,0.3438 -2.48309,0.6359 -7.4351,1.7347 -15.0581,4.1545 -22.0906,7.0126 -1.447,0.5879 -4.5067,1.904 -7.5255,3.2366 l -0.3344,0.1476 0,-3.0199 z m 266.52969,2.0649 c -3.077,-1.323 -8.8676,-3.3778 -13.2441,-4.6999 -13.7752,-4.1617 -28.9401,-7.2276 -50.4932,-10.209 -0.9385,-0.1298 -1.7532,-0.2813 -1.8106,-0.3367 -0.064,-0.064 0.045,-0.076 0.3235,-0.031 0.6597,0.1087 3.1672,-0.1311 4.4739,-0.4278 4.042,-0.9177 7.2476,-3.2281 8.7446,-6.3028 0.6981,-1.4323 0.8412,-2.106 0.8348,-3.9252 0,-1.9752 -0.1832,-2.7349 -1.0334,-4.4627 -1.5918,-3.2321 -4.8421,-6.2737 -9.376,-8.773 -1.1509,-0.6347 -1.2785,-0.7419 -0.8028,-0.6746 0.195,0.028 1.8898,0.2402 3.7677,0.4728 17.3955,2.1535 34.9868,5.7884 54.0625,11.1709 4.0037,1.1297 11.2677,3.2713 11.3378,3.3428 0.019,0.017 -0.2861,0.5268 -0.6742,1.1318 -2.7855,4.3395 -4.2517,8.7174 -4.9414,14.7528 -0.1403,1.231 -0.1786,2.4306 -0.1768,5.4874 0,2.1515 0,3.9106 0,3.9089 0,0 -0.4491,-0.1932 -0.9896,-0.4256 z m -96.4844,-18.0088 c -4.5323,-0.426 -9.8244,-0.7136 -17.2797,-0.9388 -2.9596,-0.09 -5.5418,-0.1733 -5.7396,-0.1863 l -0.359,-0.024 0.7199,-0.5776 c 1.0515,-0.8441 2.5139,-2.249 3.2802,-3.1506 3.222,-3.7925 4.0639,-7.7876 2.6023,-12.34 -0.7681,-2.3927 -2.5814,-5.4176 -4.9304,-8.2252 -0.4501,-0.5383 -0.7991,-0.9986 -0.7754,-1.0228 0.037,-0.039 12.0422,0.4917 14.3594,0.6361 2.3636,0.1474 5.335,0.3831 6.6735,0.5294 1.6028,0.1752 4.3217,0.5669 4.3855,0.632 0.019,0.023 -0.2596,0.3855 -0.6287,0.8055 -2.8985,3.307 -4.7318,6.6265 -5.5244,10.0057 -0.2187,0.9317 -0.3108,3.5303 -0.164,4.6306 0.3799,2.8478 1.8158,5.6645 4.3462,8.5232 0.421,0.4766 0.7026,0.8602 0.6242,0.8526 -0.082,-0.01 -0.7936,-0.075 -1.59,-0.15 z"
       id="path3900"
       inkscape:connector-curvature="0" />
    <path
       style="fill:#ffffff;fill-opacity:0.24528306"
       d="m 281.99223,303.92886 c -2.2434,-2.7064 -5.048,-22.5529 -3.7449,-26.501 0.8519,-2.5805 2.9832,4.3139 4.2087,13.613 0.5669,4.3034 0.8247,8.6905 0.6379,10.8839 -0.1267,1.4957 -0.3682,2.3447 -0.667,2.3447 -0.082,0 -0.2788,-0.1533 -0.4347,-0.3406 z m 10.0941,-2.5738 c 0,-0.1011 -0.6286,-5.9693 -1.3968,-13.0403 -0.7682,-7.0712 -1.385,-12.8667 -1.3714,-12.8789 0.073,-0.065 15.4255,-1.7282 15.4756,-1.6767 0.054,0.058 2.9104,26.0164 2.8657,26.0746 -0.028,0.04 -14.9525,1.704 -15.2887,1.7045 -0.2023,0 -0.2844,-0.053 -0.2844,-0.1832 z m 48.6299,-16.0944 0,-12.2875 3.1044,0 3.1035,0 0,12.2875 0,12.2873 -3.1035,0 -3.1044,0 0,-12.2873 z"
       id="path3910"
       inkscape:connector-curvature="0" />
    <path
       sodipodi:type="arc"
       style="fill:#ffffff;fill-opacity:0.13207547;fill-rule:evenodd;stroke:none"
       id="path3930"
       sodipodi:cx="9893.5713"
       sodipodi:cy="-4414.7808"
       sodipodi:rx="182.14285"
       sodipodi:ry="108.57143"
       d="m 10075.714,-4414.7808 c 0,59.9624 -81.548,108.5715 -182.1427,108.5715 -100.5947,0 -182.1429,-48.6091 -182.1429,-108.5715 0,-59.9623 81.5482,-108.5714 182.1429,-108.5714 100.5947,0 182.1427,48.6091 182.1427,108.5714 z"
       transform="matrix(0.10244254,0.0147534,-0.01453534,0.10397944,-652.53777,601.14046)" />
    <path
       sodipodi:type="arc"
       style="fill:#ffffff;fill-opacity:0.13207547;fill-rule:evenodd;stroke:none"
       id="path3932"
       sodipodi:cx="9362.8574"
       sodipodi:cy="-4430.4951"
       sodipodi:rx="80"
       sodipodi:ry="111.42857"
       d="m 9442.8574,-4430.4951 c 0,61.5403 -35.8172,111.4286 -80,111.4286 -44.1828,0 -80,-49.8883 -80,-111.4286 0,-61.5403 35.8172,-111.4286 80,-111.4286 44.1828,0 80,49.8883 80,111.4286 z"
       transform="matrix(0.1034686,0,0,0.1050209,-596.42837,750.00456)" />
    <path
       sodipodi:type="arc"
       style="fill:#ffffff;fill-opacity:0.15094341;fill-rule:evenodd;stroke:none"
       id="path3932-2"
       sodipodi:cx="9362.8574"
       sodipodi:cy="-4430.4951"
       sodipodi:rx="80"
       sodipodi:ry="111.42857"
       d="m 9442.8574,-4430.4951 c 0,61.5403 -35.8172,111.4286 -80,111.4286 -44.1828,0 -80,-49.8883 -80,-111.4286 0,-61.5403 35.8172,-111.4286 80,-111.4286 44.1828,0 80,49.8883 80,111.4286 z"
       transform="matrix(0.08032005,-0.03254685,0.01419241,0.03608324,-469.48917,740.10536)" />
    <path
       sodipodi:type="arc"
       style="fill:#ffffff;fill-opacity:0.15094341;fill-rule:evenodd;stroke:none"
       id="path3932-2-4"
       sodipodi:cx="9362.8574"
       sodipodi:cy="-4430.4951"
       sodipodi:rx="80"
       sodipodi:ry="111.42857"
       d="m 9442.8574,-4430.4951 c 0,61.5403 -35.8172,111.4286 -80,111.4286 -44.1828,0 -80,-49.8883 -80,-111.4286 0,-61.5403 35.8172,-111.4286 80,-111.4286 44.1828,0 80,49.8883 80,111.4286 z"
       transform="matrix(0.08032005,-0.03254685,0.01419241,0.03608324,-462.27727,749.17566)" />
    <path
       sodipodi:type="arc"
       style="fill:#ffffff;fill-opacity:0.28773582;fill-rule:evenodd;stroke:none"
       id="path3932-2-5"
       sodipodi:cx="9362.8574"
       sodipodi:cy="-4430.4951"
       sodipodi:rx="80"
       sodipodi:ry="111.42857"
       d="m 9442.8574,-4430.4951 c 0,61.5403 -35.8172,111.4286 -80,111.4286 -44.1828,0 -80,-49.8883 -80,-111.4286 0,-61.5403 35.8172,-111.4286 80,-111.4286 44.1828,0 80,49.8883 80,111.4286 z"
       transform="matrix(0.08569738,-0.01181448,0.00515183,0.03849894,-494.59147,539.98866)" />
    <path
       sodipodi:type="arc"
       style="fill:#ffffff;fill-opacity:0.15094341;fill-rule:evenodd;stroke:none"
       id="path3932-2-9"
       sodipodi:cx="9362.8574"
       sodipodi:cy="-4430.4951"
       sodipodi:rx="80"
       sodipodi:ry="111.42857"
       d="m 9442.8574,-4430.4951 c 0,61.5403 -35.8172,111.4286 -80,111.4286 -44.1828,0 -80,-49.8883 -80,-111.4286 0,-61.5403 35.8172,-111.4286 80,-111.4286 44.1828,0 80,49.8883 80,111.4286 z"
       transform="matrix(0.0562217,-0.02389813,0.00993428,0.02649478,-263.87487,616.48786)" />
    <path
       sodipodi:type="arc"
       style="fill:#ffffff;fill-opacity:0.15094341;fill-rule:evenodd;stroke:none"
       id="path3932-2-9-4"
       sodipodi:cx="9362.8574"
       sodipodi:cy="-4430.4951"
       sodipodi:rx="80"
       sodipodi:ry="111.42857"
       d="m 9442.8574,-4430.4951 c 0,61.5403 -35.8172,111.4286 -80,111.4286 -44.1828,0 -80,-49.8883 -80,-111.4286 0,-61.5403 35.8172,-111.4286 80,-111.4286 44.1828,0 80,49.8883 80,111.4286 z"
       transform="matrix(0.0562217,-0.02389813,0.00993428,0.02649478,-256.76767,625.71726)" />
    <path
       sodipodi:type="arc"
       style="fill:#ffffff;fill-opacity:0.15094341;fill-rule:evenodd;stroke:none"
       id="path3932-2-9-6"
       sodipodi:cx="9362.8574"
       sodipodi:cy="-4430.4951"
       sodipodi:rx="80"
       sodipodi:ry="111.42857"
       d="m 9442.8574,-4430.4951 c 0,61.5403 -35.8172,111.4286 -80,111.4286 -44.1828,0 -80,-49.8883 -80,-111.4286 0,-61.5403 35.8172,-111.4286 80,-111.4286 44.1828,0 80,49.8883 80,111.4286 z"
       transform="matrix(0.03751377,-0.01651068,0.00662862,0.01830464,-104.11857,511.27246)" />
    <path
       sodipodi:type="arc"
       style="fill:#ffffff;fill-opacity:0.15094341;fill-rule:evenodd;stroke:none"
       id="path3932-2-9-6-0"
       sodipodi:cx="9362.8574"
       sodipodi:cy="-4430.4951"
       sodipodi:rx="80"
       sodipodi:ry="111.42857"
       d="m 9442.8574,-4430.4951 c 0,61.5403 -35.8172,111.4286 -80,111.4286 -44.1828,0 -80,-49.8883 -80,-111.4286 0,-61.5403 35.8172,-111.4286 80,-111.4286 44.1828,0 80,49.8883 80,111.4286 z"
       transform="matrix(0.03751377,-0.01651068,0.00662862,0.01830464,-96.567667,519.83896)" />
    <path
       sodipodi:type="arc"
       style="fill:#ffffff;fill-opacity:0.15094341;fill-rule:evenodd;stroke:none"
       id="path3932-2-9-6-3"
       sodipodi:cx="9362.8574"
       sodipodi:cy="-4430.4951"
       sodipodi:rx="80"
       sodipodi:ry="111.42857"
       d="m 9442.8574,-4430.4951 c 0,61.5403 -35.8172,111.4286 -80,111.4286 -44.1828,0 -80,-49.8883 -80,-111.4286 0,-61.5403 35.8172,-111.4286 80,-111.4286 44.1828,0 80,49.8883 80,111.4286 z"
       transform="matrix(0.04066854,-0.004301,9.0088244e-4,0.01948052,-93.453167,385.15486)" />
    <g
       transform="matrix(0.31804112,0,0,0.32806228,263.15984,86.517961)"
       id="layer1-9"
       inkscape:label="Laag 1">
      <path
         transform="translate(-12630.714,12731.047)"
         d="m 13122.857,-12384.399 c 0,35.701 -29.741,64.642 -66.428,64.642 -36.688,0 -66.429,-28.941 -66.429,-64.642 0,-35.702 29.741,-64.643 66.429,-64.643 36.687,0 66.428,28.941 66.428,64.643 z"
         sodipodi:ry="64.64286"
         sodipodi:rx="66.428574"
         sodipodi:cy="-12384.399"
         sodipodi:cx="13056.429"
         id="path5092"
         style="fill:#6e9999;fill-opacity:1;fill-rule:evenodd;stroke:none"
         sodipodi:type="arc" />
      <path
         transform="matrix(1.0452489,0,0,1.0154525,-13164.822,13509.601)"
         d="m 13053.949,-12966.673 c 0,31.591 -24.988,57.2 -55.811,57.2 -30.824,0 -55.811,-25.609 -55.811,-57.2 0,-31.59 24.987,-57.2 55.811,-57.2 30.823,0 55.811,25.61 55.811,57.2 z"
         sodipodi:ry="57.199886"
         sodipodi:rx="55.810928"
         sodipodi:cy="-12966.673"
         sodipodi:cx="12998.138"
         id="path5094"
         style="fill:#ffffff;fill-opacity:0.08018871;fill-rule:evenodd;stroke:none"
         sodipodi:type="arc" />
      <path
         transform="matrix(1.0464481,0,0,1.0576923,-13191.735,14050.83)"
         d="m 13051.675,-12963.769 c 0,25.385 -20.691,45.962 -46.214,45.962 -25.524,0 -46.215,-20.577 -46.215,-45.962 0,-25.384 20.691,-45.961 46.215,-45.961 25.523,0 46.214,20.577 46.214,45.961 z"
         sodipodi:ry="45.961941"
         sodipodi:rx="46.214478"
         sodipodi:cy="-12963.769"
         sodipodi:cx="13005.461"
         id="path5096"
         style="fill:#ffffff;fill-opacity:0.08018871;fill-rule:evenodd;stroke:none"
         sodipodi:type="arc" />
      <path
         transform="matrix(1.0359712,0,0,1.027027,-13058.328,13651.446)"
         d="m 13039.049,-12965.537 c 0,20.642 -15.716,37.376 -35.103,37.376 -19.386,0 -35.103,-16.734 -35.103,-37.376 0,-20.642 15.717,-37.376 35.103,-37.376 19.387,0 35.103,16.734 35.103,37.376 z"
         sodipodi:ry="37.375645"
         sodipodi:rx="35.102802"
         sodipodi:cy="-12965.537"
         sodipodi:cx="13003.946"
         id="path5098"
         style="fill:#ffffff;fill-opacity:0.08018871;fill-rule:evenodd;stroke:none"
         sodipodi:type="arc" />
      <path
         transform="translate(-12595.106,13305.066)"
         d="m 13031.473,-12972.481 c 0,14.435 -11.985,26.137 -26.769,26.137 -14.784,0 -26.769,-11.702 -26.769,-26.137 0,-14.436 11.985,-26.138 26.769,-26.138 14.784,0 26.769,11.702 26.769,26.138 z"
         sodipodi:ry="26.137697"
         sodipodi:rx="26.769043"
         sodipodi:cy="-12972.481"
         sodipodi:cx="13004.704"
         id="path5100"
         style="fill:#ffffff;fill-opacity:0.08018871;fill-rule:evenodd;stroke:none"
         sodipodi:type="arc" />
      <path
         d="m 13014.806,-12975.512 c 0,8.299 -6.615,15.026 -14.774,15.026 -8.159,0 -14.773,-6.727 -14.773,-15.026 0,-8.298 6.614,-15.026 14.773,-15.026 8.159,0 14.774,6.728 14.774,15.026 z"
         sodipodi:ry="15.026019"
         sodipodi:rx="14.773481"
         sodipodi:cy="-12975.512"
         sodipodi:cx="13000.032"
         id="path5102"
         style="fill:#ffffff;fill-opacity:0.08018871;fill-rule:evenodd;stroke:none"
         sodipodi:type="arc"
         transform="translate(-12590.308,13304.814)" />
      <path
         sodipodi:nodetypes="ccc"
         transform="translate(359.28614,282.00473)"
         inkscape:connector-curvature="0"
         id="path5145"
         d="M 112.37947,16.653712 C 174.38611,89.018773 91.892249,157.26866 32.324881,120.19435 116.02444,148.28016 150.69955,60.295816 112.37947,16.653712 z"
         style="fill:#000000;fill-opacity:0.06132076;stroke:none" />
    </g>
    <g
       transform="matrix(0.31804112,0,0,0.32806228,205.73064,86.963761)"
       id="layer1-9-8"
       inkscape:label="Laag 1">
      <path
         transform="translate(-12630.714,12731.047)"
         d="m 13122.857,-12384.399 c 0,35.701 -29.741,64.642 -66.428,64.642 -36.688,0 -66.429,-28.941 -66.429,-64.642 0,-35.702 29.741,-64.643 66.429,-64.643 36.687,0 66.428,28.941 66.428,64.643 z"
         sodipodi:ry="64.64286"
         sodipodi:rx="66.428574"
         sodipodi:cy="-12384.399"
         sodipodi:cx="13056.429"
         id="path5092-2"
         style="fill:#6e9999;fill-opacity:1;fill-rule:evenodd;stroke:none"
         sodipodi:type="arc" />
      <path
         transform="matrix(1.0452489,0,0,1.0154525,-13164.822,13509.601)"
         d="m 13053.949,-12966.673 c 0,31.591 -24.988,57.2 -55.811,57.2 -30.824,0 -55.811,-25.609 -55.811,-57.2 0,-31.59 24.987,-57.2 55.811,-57.2 30.823,0 55.811,25.61 55.811,57.2 z"
         sodipodi:ry="57.199886"
         sodipodi:rx="55.810928"
         sodipodi:cy="-12966.673"
         sodipodi:cx="12998.138"
         id="path5094-4"
         style="fill:#ffffff;fill-opacity:0.08018871;fill-rule:evenodd;stroke:none"
         sodipodi:type="arc" />
      <path
         transform="matrix(1.0464481,0,0,1.0576923,-13191.735,14050.83)"
         d="m 13051.675,-12963.769 c 0,25.385 -20.691,45.962 -46.214,45.962 -25.524,0 -46.215,-20.577 -46.215,-45.962 0,-25.384 20.691,-45.961 46.215,-45.961 25.523,0 46.214,20.577 46.214,45.961 z"
         sodipodi:ry="45.961941"
         sodipodi:rx="46.214478"
         sodipodi:cy="-12963.769"
         sodipodi:cx="13005.461"
         id="path5096-5"
         style="fill:#ffffff;fill-opacity:0.08018871;fill-rule:evenodd;stroke:none"
         sodipodi:type="arc" />
      <path
         transform="matrix(1.0359712,0,0,1.027027,-13058.328,13651.446)"
         d="m 13039.049,-12965.537 c 0,20.642 -15.716,37.376 -35.103,37.376 -19.386,0 -35.103,-16.734 -35.103,-37.376 0,-20.642 15.717,-37.376 35.103,-37.376 19.387,0 35.103,16.734 35.103,37.376 z"
         sodipodi:ry="37.375645"
         sodipodi:rx="35.102802"
         sodipodi:cy="-12965.537"
         sodipodi:cx="13003.946"
         id="path5098-2"
         style="fill:#ffffff;fill-opacity:0.08018871;fill-rule:evenodd;stroke:none"
         sodipodi:type="arc" />
      <path
         transform="translate(-12595.106,13305.066)"
         d="m 13031.473,-12972.481 c 0,14.435 -11.985,26.137 -26.769,26.137 -14.784,0 -26.769,-11.702 -26.769,-26.137 0,-14.436 11.985,-26.138 26.769,-26.138 14.784,0 26.769,11.702 26.769,26.138 z"
         sodipodi:ry="26.137697"
         sodipodi:rx="26.769043"
         sodipodi:cy="-12972.481"
         sodipodi:cx="13004.704"
         id="path5100-9"
         style="fill:#ffffff;fill-opacity:0.08018871;fill-rule:evenodd;stroke:none"
         sodipodi:type="arc" />
      <path
         d="m 13014.806,-12975.512 c 0,8.299 -6.615,15.026 -14.774,15.026 -8.159,0 -14.773,-6.727 -14.773,-15.026 0,-8.298 6.614,-15.026 14.773,-15.026 8.159,0 14.774,6.728 14.774,15.026 z"
         sodipodi:ry="15.026019"
         sodipodi:rx="14.773481"
         sodipodi:cy="-12975.512"
         sodipodi:cx="13000.032"
         id="path5102-9"
         style="fill:#ffffff;fill-opacity:0.08018871;fill-rule:evenodd;stroke:none"
         sodipodi:type="arc"
         transform="translate(-12590.308,13304.814)" />
      <path
         sodipodi:nodetypes="ccc"
         transform="translate(359.28614,282.00473)"
         inkscape:connector-curvature="0"
         id="path5145-8"
         d="M 112.37947,16.653712 C 174.38611,89.018773 91.892249,157.26866 32.324881,120.19435 116.02444,148.28016 150.69955,60.295816 112.37947,16.653712 z"
         style="fill:#000000;fill-opacity:0.06132076;stroke:none" />
    </g>
    <g
       transform="matrix(0.31804112,0,0,0.32806228,151.58984,91.419261)"
       id="layer1-9-3"
       inkscape:label="Laag 1">
      <path
         transform="translate(-12630.714,12731.047)"
         d="m 13122.857,-12384.399 c 0,35.701 -29.741,64.642 -66.428,64.642 -36.688,0 -66.429,-28.941 -66.429,-64.642 0,-35.702 29.741,-64.643 66.429,-64.643 36.687,0 66.428,28.941 66.428,64.643 z"
         sodipodi:ry="64.64286"
         sodipodi:rx="66.428574"
         sodipodi:cy="-12384.399"
         sodipodi:cx="13056.429"
         id="path5092-8"
         style="fill:#6e9999;fill-opacity:1;fill-rule:evenodd;stroke:none"
         sodipodi:type="arc" />
      <path
         transform="matrix(1.0452489,0,0,1.0154525,-13164.822,13509.601)"
         d="m 13053.949,-12966.673 c 0,31.591 -24.988,57.2 -55.811,57.2 -30.824,0 -55.811,-25.609 -55.811,-57.2 0,-31.59 24.987,-57.2 55.811,-57.2 30.823,0 55.811,25.61 55.811,57.2 z"
         sodipodi:ry="57.199886"
         sodipodi:rx="55.810928"
         sodipodi:cy="-12966.673"
         sodipodi:cx="12998.138"
         id="path5094-6"
         style="fill:#ffffff;fill-opacity:0.08018871;fill-rule:evenodd;stroke:none"
         sodipodi:type="arc" />
      <path
         transform="matrix(1.0464481,0,0,1.0576923,-13191.735,14050.83)"
         d="m 13051.675,-12963.769 c 0,25.385 -20.691,45.962 -46.214,45.962 -25.524,0 -46.215,-20.577 -46.215,-45.962 0,-25.384 20.691,-45.961 46.215,-45.961 25.523,0 46.214,20.577 46.214,45.961 z"
         sodipodi:ry="45.961941"
         sodipodi:rx="46.214478"
         sodipodi:cy="-12963.769"
         sodipodi:cx="13005.461"
         id="path5096-9"
         style="fill:#ffffff;fill-opacity:0.08018871;fill-rule:evenodd;stroke:none"
         sodipodi:type="arc" />
      <path
         transform="matrix(1.0359712,0,0,1.027027,-13058.328,13651.446)"
         d="m 13039.049,-12965.537 c 0,20.642 -15.716,37.376 -35.103,37.376 -19.386,0 -35.103,-16.734 -35.103,-37.376 0,-20.642 15.717,-37.376 35.103,-37.376 19.387,0 35.103,16.734 35.103,37.376 z"
         sodipodi:ry="37.375645"
         sodipodi:rx="35.102802"
         sodipodi:cy="-12965.537"
         sodipodi:cx="13003.946"
         id="path5098-8"
         style="fill:#ffffff;fill-opacity:0.08018871;fill-rule:evenodd;stroke:none"
         sodipodi:type="arc" />
      <path
         transform="translate(-12595.106,13305.066)"
         d="m 13031.473,-12972.481 c 0,14.435 -11.985,26.137 -26.769,26.137 -14.784,0 -26.769,-11.702 -26.769,-26.137 0,-14.436 11.985,-26.138 26.769,-26.138 14.784,0 26.769,11.702 26.769,26.138 z"
         sodipodi:ry="26.137697"
         sodipodi:rx="26.769043"
         sodipodi:cy="-12972.481"
         sodipodi:cx="13004.704"
         id="path5100-6"
         style="fill:#ffffff;fill-opacity:0.08018871;fill-rule:evenodd;stroke:none"
         sodipodi:type="arc" />
      <path
         d="m 13014.806,-12975.512 c 0,8.299 -6.615,15.026 -14.774,15.026 -8.159,0 -14.773,-6.727 -14.773,-15.026 0,-8.298 6.614,-15.026 14.773,-15.026 8.159,0 14.774,6.728 14.774,15.026 z"
         sodipodi:ry="15.026019"
         sodipodi:rx="14.773481"
         sodipodi:cy="-12975.512"
         sodipodi:cx="13000.032"
         id="path5102-6"
         style="fill:#ffffff;fill-opacity:0.08018871;fill-rule:evenodd;stroke:none"
         sodipodi:type="arc"
         transform="translate(-12590.308,13304.814)" />
      <path
         sodipodi:nodetypes="ccc"
         transform="translate(359.28614,282.00473)"
         inkscape:connector-curvature="0"
         id="path5145-2"
         d="M 112.37947,16.653712 C 174.38611,89.018773 91.892249,157.26866 32.324881,120.19435 116.02444,148.28016 150.69955,60.295816 112.37947,16.653712 z"
         style="fill:#000000;fill-opacity:0.06132076;stroke:none" />
    </g>
    <g
       transform="matrix(0.31804112,0,0,0.32806228,317.98403,88.873261)"
       id="layer1-9-38"
       inkscape:label="Laag 1">
      <path
         transform="translate(-12630.714,12731.047)"
         d="m 13122.857,-12384.399 c 0,35.701 -29.741,64.642 -66.428,64.642 -36.688,0 -66.429,-28.941 -66.429,-64.642 0,-35.702 29.741,-64.643 66.429,-64.643 36.687,0 66.428,28.941 66.428,64.643 z"
         sodipodi:ry="64.64286"
         sodipodi:rx="66.428574"
         sodipodi:cy="-12384.399"
         sodipodi:cx="13056.429"
         id="path5092-26"
         style="fill:#6e9999;fill-opacity:1;fill-rule:evenodd;stroke:none"
         sodipodi:type="arc" />
      <path
         transform="matrix(1.0452489,0,0,1.0154525,-13164.822,13509.601)"
         d="m 13053.949,-12966.673 c 0,31.591 -24.988,57.2 -55.811,57.2 -30.824,0 -55.811,-25.609 -55.811,-57.2 0,-31.59 24.987,-57.2 55.811,-57.2 30.823,0 55.811,25.61 55.811,57.2 z"
         sodipodi:ry="57.199886"
         sodipodi:rx="55.810928"
         sodipodi:cy="-12966.673"
         sodipodi:cx="12998.138"
         id="path5094-2"
         style="fill:#ffffff;fill-opacity:0.08018871;fill-rule:evenodd;stroke:none"
         sodipodi:type="arc" />
      <path
         transform="matrix(1.0464481,0,0,1.0576923,-13191.735,14050.83)"
         d="m 13051.675,-12963.769 c 0,25.385 -20.691,45.962 -46.214,45.962 -25.524,0 -46.215,-20.577 -46.215,-45.962 0,-25.384 20.691,-45.961 46.215,-45.961 25.523,0 46.214,20.577 46.214,45.961 z"
         sodipodi:ry="45.961941"
         sodipodi:rx="46.214478"
         sodipodi:cy="-12963.769"
         sodipodi:cx="13005.461"
         id="path5096-7"
         style="fill:#ffffff;fill-opacity:0.08018871;fill-rule:evenodd;stroke:none"
         sodipodi:type="arc" />
      <path
         transform="matrix(1.0359712,0,0,1.027027,-13058.328,13651.446)"
         d="m 13039.049,-12965.537 c 0,20.642 -15.716,37.376 -35.103,37.376 -19.386,0 -35.103,-16.734 -35.103,-37.376 0,-20.642 15.717,-37.376 35.103,-37.376 19.387,0 35.103,16.734 35.103,37.376 z"
         sodipodi:ry="37.375645"
         sodipodi:rx="35.102802"
         sodipodi:cy="-12965.537"
         sodipodi:cx="13003.946"
         id="path5098-5"
         style="fill:#ffffff;fill-opacity:0.08018871;fill-rule:evenodd;stroke:none"
         sodipodi:type="arc" />
      <path
         transform="translate(-12595.106,13305.066)"
         d="m 13031.473,-12972.481 c 0,14.435 -11.985,26.137 -26.769,26.137 -14.784,0 -26.769,-11.702 -26.769,-26.137 0,-14.436 11.985,-26.138 26.769,-26.138 14.784,0 26.769,11.702 26.769,26.138 z"
         sodipodi:ry="26.137697"
         sodipodi:rx="26.769043"
         sodipodi:cy="-12972.481"
         sodipodi:cx="13004.704"
         id="path5100-7"
         style="fill:#ffffff;fill-opacity:0.08018871;fill-rule:evenodd;stroke:none"
         sodipodi:type="arc" />
      <path
         d="m 13014.806,-12975.512 c 0,8.299 -6.615,15.026 -14.774,15.026 -8.159,0 -14.773,-6.727 -14.773,-15.026 0,-8.298 6.614,-15.026 14.773,-15.026 8.159,0 14.774,6.728 14.774,15.026 z"
         sodipodi:ry="15.026019"
         sodipodi:rx="14.773481"
         sodipodi:cy="-12975.512"
         sodipodi:cx="13000.032"
         id="path5102-8"
         style="fill:#ffffff;fill-opacity:0.08018871;fill-rule:evenodd;stroke:none"
         sodipodi:type="arc"
         transform="translate(-12590.308,13304.814)" />
      <path
         sodipodi:nodetypes="ccc"
         transform="translate(359.28614,282.00473)"
         inkscape:connector-curvature="0"
         id="path5145-27"
         d="M 112.37947,16.653712 C 174.38611,89.018773 91.892249,157.26866 32.324881,120.19435 116.02444,148.28016 150.69955,60.295816 112.37947,16.653712 z"
         style="fill:#000000;fill-opacity:0.06132076;stroke:none" />
    </g>
    <g
       transform="matrix(0.31804112,0,0,0.32806228,99.320637,103.20016)"
       id="layer1-9-80"
       inkscape:label="Laag 1">
      <path
         transform="translate(-12630.714,12731.047)"
         d="m 13122.857,-12384.399 c 0,35.701 -29.741,64.642 -66.428,64.642 -36.688,0 -66.429,-28.941 -66.429,-64.642 0,-35.702 29.741,-64.643 66.429,-64.643 36.687,0 66.428,28.941 66.428,64.643 z"
         sodipodi:ry="64.64286"
         sodipodi:rx="66.428574"
         sodipodi:cy="-12384.399"
         sodipodi:cx="13056.429"
         id="path5092-20"
         style="fill:#6e9999;fill-opacity:1;fill-rule:evenodd;stroke:none"
         sodipodi:type="arc" />
      <path
         transform="matrix(1.0452489,0,0,1.0154525,-13164.822,13509.601)"
         d="m 13053.949,-12966.673 c 0,31.591 -24.988,57.2 -55.811,57.2 -30.824,0 -55.811,-25.609 -55.811,-57.2 0,-31.59 24.987,-57.2 55.811,-57.2 30.823,0 55.811,25.61 55.811,57.2 z"
         sodipodi:ry="57.199886"
         sodipodi:rx="55.810928"
         sodipodi:cy="-12966.673"
         sodipodi:cx="12998.138"
         id="path5094-8"
         style="fill:#ffffff;fill-opacity:0.08018871;fill-rule:evenodd;stroke:none"
         sodipodi:type="arc" />
      <path
         transform="matrix(1.0464481,0,0,1.0576923,-13191.735,14050.83)"
         d="m 13051.675,-12963.769 c 0,25.385 -20.691,45.962 -46.214,45.962 -25.524,0 -46.215,-20.577 -46.215,-45.962 0,-25.384 20.691,-45.961 46.215,-45.961 25.523,0 46.214,20.577 46.214,45.961 z"
         sodipodi:ry="45.961941"
         sodipodi:rx="46.214478"
         sodipodi:cy="-12963.769"
         sodipodi:cx="13005.461"
         id="path5096-92"
         style="fill:#ffffff;fill-opacity:0.08018871;fill-rule:evenodd;stroke:none"
         sodipodi:type="arc" />
      <path
         transform="matrix(1.0359712,0,0,1.027027,-13058.328,13651.446)"
         d="m 13039.049,-12965.537 c 0,20.642 -15.716,37.376 -35.103,37.376 -19.386,0 -35.103,-16.734 -35.103,-37.376 0,-20.642 15.717,-37.376 35.103,-37.376 19.387,0 35.103,16.734 35.103,37.376 z"
         sodipodi:ry="37.375645"
         sodipodi:rx="35.102802"
         sodipodi:cy="-12965.537"
         sodipodi:cx="13003.946"
         id="path5098-82"
         style="fill:#ffffff;fill-opacity:0.08018871;fill-rule:evenodd;stroke:none"
         sodipodi:type="arc" />
      <path
         transform="translate(-12595.106,13305.066)"
         d="m 13031.473,-12972.481 c 0,14.435 -11.985,26.137 -26.769,26.137 -14.784,0 -26.769,-11.702 -26.769,-26.137 0,-14.436 11.985,-26.138 26.769,-26.138 14.784,0 26.769,11.702 26.769,26.138 z"
         sodipodi:ry="26.137697"
         sodipodi:rx="26.769043"
         sodipodi:cy="-12972.481"
         sodipodi:cx="13004.704"
         id="path5100-0"
         style="fill:#ffffff;fill-opacity:0.08018871;fill-rule:evenodd;stroke:none"
         sodipodi:type="arc" />
      <path
         d="m 13014.806,-12975.512 c 0,8.299 -6.615,15.026 -14.774,15.026 -8.159,0 -14.773,-6.727 -14.773,-15.026 0,-8.298 6.614,-15.026 14.773,-15.026 8.159,0 14.774,6.728 14.774,15.026 z"
         sodipodi:ry="15.026019"
         sodipodi:rx="14.773481"
         sodipodi:cy="-12975.512"
         sodipodi:cx="13000.032"
         id="path5102-5"
         style="fill:#ffffff;fill-opacity:0.08018871;fill-rule:evenodd;stroke:none"
         sodipodi:type="arc"
         transform="translate(-12590.308,13304.814)" />
      <path
         sodipodi:nodetypes="ccc"
         transform="translate(359.28614,282.00473)"
         inkscape:connector-curvature="0"
         id="path5145-5"
         d="M 112.37947,16.653712 C 174.38611,89.018773 91.892249,157.26866 32.324881,120.19435 116.02444,148.28016 150.69955,60.295816 112.37947,16.653712 z"
         style="fill:#000000;fill-opacity:0.06132076;stroke:none" />
    </g>
    <g
       transform="matrix(0.31804112,0,0,0.32806228,51.725833,120.90366)"
       id="layer1-9-2"
       inkscape:label="Laag 1">
      <path
         transform="translate(-12630.714,12731.047)"
         d="m 13122.857,-12384.399 c 0,35.701 -29.741,64.642 -66.428,64.642 -36.688,0 -66.429,-28.941 -66.429,-64.642 0,-35.702 29.741,-64.643 66.429,-64.643 36.687,0 66.428,28.941 66.428,64.643 z"
         sodipodi:ry="64.64286"
         sodipodi:rx="66.428574"
         sodipodi:cy="-12384.399"
         sodipodi:cx="13056.429"
         id="path5092-7"
         style="fill:#6e9999;fill-opacity:1;fill-rule:evenodd;stroke:none"
         sodipodi:type="arc" />
      <path
         transform="matrix(1.0452489,0,0,1.0154525,-13164.822,13509.601)"
         d="m 13053.949,-12966.673 c 0,31.591 -24.988,57.2 -55.811,57.2 -30.824,0 -55.811,-25.609 -55.811,-57.2 0,-31.59 24.987,-57.2 55.811,-57.2 30.823,0 55.811,25.61 55.811,57.2 z"
         sodipodi:ry="57.199886"
         sodipodi:rx="55.810928"
         sodipodi:cy="-12966.673"
         sodipodi:cx="12998.138"
         id="path5094-67"
         style="fill:#ffffff;fill-opacity:0.08018871;fill-rule:evenodd;stroke:none"
         sodipodi:type="arc" />
      <path
         transform="matrix(1.0464481,0,0,1.0576923,-13191.735,14050.83)"
         d="m 13051.675,-12963.769 c 0,25.385 -20.691,45.962 -46.214,45.962 -25.524,0 -46.215,-20.577 -46.215,-45.962 0,-25.384 20.691,-45.961 46.215,-45.961 25.523,0 46.214,20.577 46.214,45.961 z"
         sodipodi:ry="45.961941"
         sodipodi:rx="46.214478"
         sodipodi:cy="-12963.769"
         sodipodi:cx="13005.461"
         id="path5096-8"
         style="fill:#ffffff;fill-opacity:0.08018871;fill-rule:evenodd;stroke:none"
         sodipodi:type="arc" />
      <path
         transform="matrix(1.0359712,0,0,1.027027,-13058.328,13651.446)"
         d="m 13039.049,-12965.537 c 0,20.642 -15.716,37.376 -35.103,37.376 -19.386,0 -35.103,-16.734 -35.103,-37.376 0,-20.642 15.717,-37.376 35.103,-37.376 19.387,0 35.103,16.734 35.103,37.376 z"
         sodipodi:ry="37.375645"
         sodipodi:rx="35.102802"
         sodipodi:cy="-12965.537"
         sodipodi:cx="13003.946"
         id="path5098-7"
         style="fill:#ffffff;fill-opacity:0.08018871;fill-rule:evenodd;stroke:none"
         sodipodi:type="arc" />
      <path
         transform="translate(-12595.106,13305.066)"
         d="m 13031.473,-12972.481 c 0,14.435 -11.985,26.137 -26.769,26.137 -14.784,0 -26.769,-11.702 -26.769,-26.137 0,-14.436 11.985,-26.138 26.769,-26.138 14.784,0 26.769,11.702 26.769,26.138 z"
         sodipodi:ry="26.137697"
         sodipodi:rx="26.769043"
         sodipodi:cy="-12972.481"
         sodipodi:cx="13004.704"
         id="path5100-8"
         style="fill:#ffffff;fill-opacity:0.08018871;fill-rule:evenodd;stroke:none"
         sodipodi:type="arc" />
      <path
         d="m 13014.806,-12975.512 c 0,8.299 -6.615,15.026 -14.774,15.026 -8.159,0 -14.773,-6.727 -14.773,-15.026 0,-8.298 6.614,-15.026 14.773,-15.026 8.159,0 14.774,6.728 14.774,15.026 z"
         sodipodi:ry="15.026019"
         sodipodi:rx="14.773481"
         sodipodi:cy="-12975.512"
         sodipodi:cx="13000.032"
         id="path5102-1"
         style="fill:#ffffff;fill-opacity:0.08018871;fill-rule:evenodd;stroke:none"
         sodipodi:type="arc"
         transform="translate(-12590.308,13304.814)" />
      <path
         sodipodi:nodetypes="ccc"
         transform="translate(359.28614,282.00473)"
         inkscape:connector-curvature="0"
         id="path5145-6"
         d="M 112.37947,16.653712 C 174.38611,89.018773 91.892249,157.26866 32.324881,120.19435 116.02444,148.28016 150.69955,60.295816 112.37947,16.653712 z"
         style="fill:#000000;fill-opacity:0.06132076;stroke:none" />
    </g>
    <g
       transform="matrix(0.31804112,0,0,0.32806228,369.81773,100.49956)"
       id="layer1-9-0"
       inkscape:label="Laag 1">
      <path
         transform="translate(-12630.714,12731.047)"
         d="m 13122.857,-12384.399 c 0,35.701 -29.741,64.642 -66.428,64.642 -36.688,0 -66.429,-28.941 -66.429,-64.642 0,-35.702 29.741,-64.643 66.429,-64.643 36.687,0 66.428,28.941 66.428,64.643 z"
         sodipodi:ry="64.64286"
         sodipodi:rx="66.428574"
         sodipodi:cy="-12384.399"
         sodipodi:cx="13056.429"
         id="path5092-9"
         style="fill:#6e9999;fill-opacity:1;fill-rule:evenodd;stroke:none"
         sodipodi:type="arc" />
      <path
         transform="matrix(1.0452489,0,0,1.0154525,-13164.822,13509.601)"
         d="m 13053.949,-12966.673 c 0,31.591 -24.988,57.2 -55.811,57.2 -30.824,0 -55.811,-25.609 -55.811,-57.2 0,-31.59 24.987,-57.2 55.811,-57.2 30.823,0 55.811,25.61 55.811,57.2 z"
         sodipodi:ry="57.199886"
         sodipodi:rx="55.810928"
         sodipodi:cy="-12966.673"
         sodipodi:cx="12998.138"
         id="path5094-5"
         style="fill:#ffffff;fill-opacity:0.08018871;fill-rule:evenodd;stroke:none"
         sodipodi:type="arc" />
      <path
         transform="matrix(1.0464481,0,0,1.0576923,-13191.735,14050.83)"
         d="m 13051.675,-12963.769 c 0,25.385 -20.691,45.962 -46.214,45.962 -25.524,0 -46.215,-20.577 -46.215,-45.962 0,-25.384 20.691,-45.961 46.215,-45.961 25.523,0 46.214,20.577 46.214,45.961 z"
         sodipodi:ry="45.961941"
         sodipodi:rx="46.214478"
         sodipodi:cy="-12963.769"
         sodipodi:cx="13005.461"
         id="path5096-89"
         style="fill:#ffffff;fill-opacity:0.08018871;fill-rule:evenodd;stroke:none"
         sodipodi:type="arc" />
      <path
         transform="matrix(1.0359712,0,0,1.027027,-13058.328,13651.446)"
         d="m 13039.049,-12965.537 c 0,20.642 -15.716,37.376 -35.103,37.376 -19.386,0 -35.103,-16.734 -35.103,-37.376 0,-20.642 15.717,-37.376 35.103,-37.376 19.387,0 35.103,16.734 35.103,37.376 z"
         sodipodi:ry="37.375645"
         sodipodi:rx="35.102802"
         sodipodi:cy="-12965.537"
         sodipodi:cx="13003.946"
         id="path5098-0"
         style="fill:#ffffff;fill-opacity:0.08018871;fill-rule:evenodd;stroke:none"
         sodipodi:type="arc" />
      <path
         transform="translate(-12595.106,13305.066)"
         d="m 13031.473,-12972.481 c 0,14.435 -11.985,26.137 -26.769,26.137 -14.784,0 -26.769,-11.702 -26.769,-26.137 0,-14.436 11.985,-26.138 26.769,-26.138 14.784,0 26.769,11.702 26.769,26.138 z"
         sodipodi:ry="26.137697"
         sodipodi:rx="26.769043"
         sodipodi:cy="-12972.481"
         sodipodi:cx="13004.704"
         id="path5100-00"
         style="fill:#ffffff;fill-opacity:0.08018871;fill-rule:evenodd;stroke:none"
         sodipodi:type="arc" />
      <path
         d="m 13014.806,-12975.512 c 0,8.299 -6.615,15.026 -14.774,15.026 -8.159,0 -14.773,-6.727 -14.773,-15.026 0,-8.298 6.614,-15.026 14.773,-15.026 8.159,0 14.774,6.728 14.774,15.026 z"
         sodipodi:ry="15.026019"
         sodipodi:rx="14.773481"
         sodipodi:cy="-12975.512"
         sodipodi:cx="13000.032"
         id="path5102-7"
         style="fill:#ffffff;fill-opacity:0.08018871;fill-rule:evenodd;stroke:none"
         sodipodi:type="arc"
         transform="translate(-12590.308,13304.814)" />
      <path
         sodipodi:nodetypes="ccc"
         transform="translate(359.28614,282.00473)"
         inkscape:connector-curvature="0"
         id="path5145-25"
         d="M 112.37947,16.653712 C 174.38611,89.018773 91.892249,157.26866 32.324881,120.19435 116.02444,148.28016 150.69955,60.295816 112.37947,16.653712 z"
         style="fill:#000000;fill-opacity:0.06132076;stroke:none" />
    </g>
    <g
       transform="matrix(0.31804112,0,0,0.32806228,418.30003,119.70336)"
       id="layer1-9-5"
       inkscape:label="Laag 1">
      <path
         transform="translate(-12630.714,12731.047)"
         d="m 13122.857,-12384.399 c 0,35.701 -29.741,64.642 -66.428,64.642 -36.688,0 -66.429,-28.941 -66.429,-64.642 0,-35.702 29.741,-64.643 66.429,-64.643 36.687,0 66.428,28.941 66.428,64.643 z"
         sodipodi:ry="64.64286"
         sodipodi:rx="66.428574"
         sodipodi:cy="-12384.399"
         sodipodi:cx="13056.429"
         id="path5092-21"
         style="fill:#6e9999;fill-opacity:1;fill-rule:evenodd;stroke:none"
         sodipodi:type="arc" />
      <path
         transform="matrix(1.0452489,0,0,1.0154525,-13164.822,13509.601)"
         d="m 13053.949,-12966.673 c 0,31.591 -24.988,57.2 -55.811,57.2 -30.824,0 -55.811,-25.609 -55.811,-57.2 0,-31.59 24.987,-57.2 55.811,-57.2 30.823,0 55.811,25.61 55.811,57.2 z"
         sodipodi:ry="57.199886"
         sodipodi:rx="55.810928"
         sodipodi:cy="-12966.673"
         sodipodi:cx="12998.138"
         id="path5094-48"
         style="fill:#ffffff;fill-opacity:0.08018871;fill-rule:evenodd;stroke:none"
         sodipodi:type="arc" />
      <path
         transform="matrix(1.0464481,0,0,1.0576923,-13191.735,14050.83)"
         d="m 13051.675,-12963.769 c 0,25.385 -20.691,45.962 -46.214,45.962 -25.524,0 -46.215,-20.577 -46.215,-45.962 0,-25.384 20.691,-45.961 46.215,-45.961 25.523,0 46.214,20.577 46.214,45.961 z"
         sodipodi:ry="45.961941"
         sodipodi:rx="46.214478"
         sodipodi:cy="-12963.769"
         sodipodi:cx="13005.461"
         id="path5096-6"
         style="fill:#ffffff;fill-opacity:0.08018871;fill-rule:evenodd;stroke:none"
         sodipodi:type="arc" />
      <path
         transform="matrix(1.0359712,0,0,1.027027,-13058.328,13651.446)"
         d="m 13039.049,-12965.537 c 0,20.642 -15.716,37.376 -35.103,37.376 -19.386,0 -35.103,-16.734 -35.103,-37.376 0,-20.642 15.717,-37.376 35.103,-37.376 19.387,0 35.103,16.734 35.103,37.376 z"
         sodipodi:ry="37.375645"
         sodipodi:rx="35.102802"
         sodipodi:cy="-12965.537"
         sodipodi:cx="13003.946"
         id="path5098-4"
         style="fill:#ffffff;fill-opacity:0.08018871;fill-rule:evenodd;stroke:none"
         sodipodi:type="arc" />
      <path
         transform="translate(-12595.106,13305.066)"
         d="m 13031.473,-12972.481 c 0,14.435 -11.985,26.137 -26.769,26.137 -14.784,0 -26.769,-11.702 -26.769,-26.137 0,-14.436 11.985,-26.138 26.769,-26.138 14.784,0 26.769,11.702 26.769,26.138 z"
         sodipodi:ry="26.137697"
         sodipodi:rx="26.769043"
         sodipodi:cy="-12972.481"
         sodipodi:cx="13004.704"
         id="path5100-68"
         style="fill:#ffffff;fill-opacity:0.08018871;fill-rule:evenodd;stroke:none"
         sodipodi:type="arc" />
      <path
         d="m 13014.806,-12975.512 c 0,8.299 -6.615,15.026 -14.774,15.026 -8.159,0 -14.773,-6.727 -14.773,-15.026 0,-8.298 6.614,-15.026 14.773,-15.026 8.159,0 14.774,6.728 14.774,15.026 z"
         sodipodi:ry="15.026019"
         sodipodi:rx="14.773481"
         sodipodi:cy="-12975.512"
         sodipodi:cx="13000.032"
         id="path5102-98"
         style="fill:#ffffff;fill-opacity:0.08018871;fill-rule:evenodd;stroke:none"
         sodipodi:type="arc"
         transform="translate(-12590.308,13304.814)" />
      <path
         sodipodi:nodetypes="ccc"
         transform="translate(359.28614,282.00473)"
         inkscape:connector-curvature="0"
         id="path5145-3"
         d="M 112.37947,16.653712 C 174.38611,89.018773 91.892249,157.26866 32.324881,120.19435 116.02444,148.28016 150.69955,60.295816 112.37947,16.653712 z"
         style="fill:#000000;fill-opacity:0.06132076;stroke:none" />
    </g>
    <path
       style="fill:url(#linearGradient5786);fill-opacity:1"
       d="m 174.40954,577.47186 c 0,-0.2777 -0.8373,-31.8116 -1.8605,-70.0753 -1.0243,-38.2637 -2.4648,-92.2785 -3.202,-120.033 -0.7371,-27.7543 -1.3695,-51.1832 -1.405,-52.0641 l -0.064,-1.6016 203.86569,0 203.8658,0 -0.036,1.1817 c -0.1157,4.2311 -3.1053,116.5566 -4.626,173.836 -1.0051,37.8337 -1.847,68.895 -1.8716,69.0249 l -0.045,0.2363 -197.3126,0 -197.31339,0 0,-0.5048 z"
       id="path4598"
       inkscape:connector-curvature="0" />
    <path
       style="fill:url(#linearGradient5778);fill-opacity:1"
       d="m 371.52983,849.21776 c -0.6478,-3.6126 -2.3372,-8.1609 -4.268,-11.4876 -7.2603,-12.5123 -21.5969,-21.6994 -45.8398,-29.3751 -9.8135,-3.1074 -19.1376,-5.5169 -41.0598,-10.611 -23.18789,-5.3881 -33.89159,-8.2702 -44.68649,-12.0319 -1.4659,-0.5108 -3.4068,-1.1256 -4.3135,-1.3664 -14.26,-3.7855 -26.0426,-10.2287 -34.5958,-18.9186 -10.9506,-11.1268 -17.0602,-25.8619 -18.6319,-44.9372 -0.2269,-2.7585 -0.3116,-5.5792 -0.3116,-10.3971 0,-3.7786 -0.4001,-19.9921 -1.6484,-66.8459 -0.9066,-34.0215 -1.6784,-62.6489 -1.7149,-63.6163 l -0.064,-1.7591 197.33159,-0.027 197.3308,-0.027 -0.064,1.7854 c -0.037,0.982 -0.8082,29.6211 -1.7149,63.6426 -1.2483,46.8592 -1.6482,63.0668 -1.6482,66.8459 0,2.7437 -0.045,5.9101 -0.1021,7.0363 -1.3604,27.3517 -12.0422,46.811 -32.1402,58.5534 -6.1314,3.5821 -13.5976,6.6192 -21.2971,8.6632 -0.9077,0.2408 -2.8484,0.8556 -4.3137,1.3664 -10.7947,3.7617 -21.4993,6.6438 -44.6862,12.0319 -18.4351,4.2837 -27.3046,6.5114 -35.5417,8.9265 -27.9314,8.1898 -43.5793,17.6527 -51.3589,31.0596 -1.8963,3.2676 -3.4488,7.3986 -4.2107,11.2003 -0.099,0.4909 -0.2086,0.9274 -0.2451,0.9699 -0.037,0.043 -0.1266,-0.2646 -0.2014,-0.6826 z M 173.39184,539.85396 c 0,-0.1445 0.028,-0.2035 0.054,-0.1313 0.028,0.072 0.028,0.1903 0,0.2625 -0.028,0.072 -0.054,0.014 -0.054,-0.1312 z m -0.096,-3.9908 c 0,-0.2022 0.018,-0.2849 0.045,-0.1838 0.028,0.1011 0.028,0.2665 0,0.3675 -0.028,0.1011 -0.045,0.019 -0.045,-0.1837 z m -0.102,-3.8334 c 0,-0.231 0.019,-0.3379 0.045,-0.2374 0.028,0.1005 0.028,0.2894 0,0.42 -0.028,0.1307 -0.045,0.048 -0.045,-0.1826 z m -0.1012,-3.8332 c 0,-0.2599 0.019,-0.3662 0.045,-0.2363 0.028,0.1299 0.028,0.3427 0,0.4727 -0.028,0.1299 -0.045,0.024 -0.045,-0.2364 z m -0.102,-3.9382 c 0,-0.2888 0.019,-0.3946 0.045,-0.2349 0.028,0.1596 0.028,0.3959 0,0.5251 -0.028,0.1292 -0.045,0 -0.045,-0.2902 z m -0.103,-3.8858 c 0,-0.2888 0.019,-0.3946 0.045,-0.2349 0.028,0.1597 0.019,0.3959 0,0.5251 -0.028,0.1292 -0.045,0 -0.045,-0.2902 z m -0.102,-3.8333 c 0,-0.3177 0.019,-0.4476 0.045,-0.2888 0.028,0.1588 0.028,0.4187 0,0.5777 -0.028,0.1587 -0.045,0.03 -0.045,-0.2889 z m -0.103,-3.9382 c 0,-0.3466 0.018,-0.501 0.045,-0.3433 0.028,0.1578 0.028,0.4414 0,0.6302 -0.019,0.1887 -0.045,0.059 -0.045,-0.2869 z m -0.103,-3.8858 c 0,-0.3466 0.019,-0.501 0.045,-0.3432 0.028,0.1578 0.028,0.4413 0,0.6301 -0.028,0.1887 -0.045,0.059 -0.045,-0.2869 z m -0.1029,-3.8334 c 0,-0.3754 0.019,-0.5289 0.045,-0.3413 0.028,0.1878 0.028,0.495 0,0.6827 -0.019,0.1878 -0.045,0.035 -0.045,-0.3414 z m -0.103,-3.8857 c 0,-0.3754 0.019,-0.529 0.045,-0.3414 0.019,0.1878 0.019,0.495 0,0.6827 -0.028,0.1878 -0.045,0.035 -0.045,-0.3413 z m -0.104,-3.8858 c 0,-0.3754 0.019,-0.529 0.045,-0.3413 0.019,0.1878 0.019,0.4949 0,0.6826 -0.018,0.1878 -0.045,0.034 -0.045,-0.3413 z m -0.102,-3.8332 c 0,-0.4044 0.019,-0.5826 0.037,-0.3962 0.019,0.1864 0.028,0.5172 0,0.7351 -0.019,0.2179 -0.045,0.065 -0.045,-0.3389 z m -0.1039,-3.8858 c 0,-0.4044 0.018,-0.5826 0.045,-0.3962 0.019,0.1866 0.019,0.5172 0,0.7352 -0.019,0.2179 -0.045,0.065 -0.045,-0.339 z m -0.1038,-3.8858 c 0,-0.4043 0.019,-0.5825 0.045,-0.3961 0.019,0.1864 0.028,0.5172 0,0.7351 -0.019,0.2179 -0.045,0.065 -0.045,-0.339 z m -0.1021,-3.8332 c 0,-0.4332 0.019,-0.6104 0.037,-0.3939 0.019,0.2166 0.019,0.5711 0,0.7876 -0.019,0.2168 -0.037,0.039 -0.037,-0.3937 z m -0.1039,-3.8858 c 0,-0.4332 0.019,-0.6104 0.045,-0.3939 0.019,0.2167 0.019,0.5711 0,0.7877 -0.018,0.2167 -0.045,0.039 -0.045,-0.3938 z m -0.1029,-3.8858 c 0,-0.4331 0.019,-0.6104 0.037,-0.3938 0.018,0.2166 0.018,0.5711 0,0.7876 -0.019,0.2167 -0.037,0.039 -0.037,-0.3938 z m -0.1039,-3.8857 c 0,-0.4332 0.018,-0.6105 0.045,-0.3939 0.019,0.2166 0.019,0.5711 0,0.7876 -0.019,0.2168 -0.045,0.04 -0.045,-0.3937 z m -0.1029,-3.8858 c 0,-0.4332 0.019,-0.6104 0.037,-0.3939 0.019,0.2166 0.019,0.5711 0,0.7878 -0.018,0.2166 -0.037,0.039 -0.037,-0.3939 z m -0.1039,-3.8858 c 0,-0.4332 0.018,-0.6104 0.045,-0.3939 0.018,0.2167 0.018,0.5711 0,0.7878 -0.019,0.2166 -0.045,0.039 -0.045,-0.3939 z m -0.103,-3.8332 c 0,-0.4621 0.018,-0.6381 0.045,-0.3911 0.018,0.247 0.018,0.6251 0,0.8401 -0.018,0.2153 -0.037,0.013 -0.037,-0.449 z m -0.1029,-3.8858 c 0,-0.4621 0.019,-0.6381 0.037,-0.3911 0.019,0.247 0.019,0.6251 0,0.8402 -0.018,0.2152 -0.037,0.013 -0.037,-0.4491 z m -0.1039,-3.8858 c 0,-0.4621 0.018,-0.638 0.037,-0.3911 0.028,0.2471 0.019,0.6251 0,0.8402 -0.018,0.2151 -0.037,0.013 -0.037,-0.4491 z m -0.1039,-3.8333 c 0,-0.4332 0.019,-0.6104 0.037,-0.3938 0.018,0.2165 0.018,0.571 0,0.7876 -0.019,0.2167 -0.037,0.039 -0.037,-0.3938 z m -0.103,-3.8333 c 0,-0.462 0.019,-0.638 0.037,-0.391 0.019,0.247 0.019,0.6251 0,0.8402 -0.019,0.2152 -0.037,0.013 -0.037,-0.4492 z m -0.1029,-3.8857 c 0,-0.462 0.019,-0.6381 0.036,-0.391 0.019,0.2469 0.019,0.6251 0,0.8401 -0.019,0.2152 -0.036,0.013 -0.036,-0.4491 z m -0.1039,-3.8858 c 0,-0.4621 0.019,-0.6381 0.037,-0.391 0.019,0.2469 0.019,0.6251 0,0.8402 -0.019,0.2151 -0.037,0.013 -0.037,-0.4492 z m -0.1038,-3.8858 c 0,-0.4621 0.018,-0.638 0.045,-0.3911 0.019,0.2471 0.019,0.6252 0,0.8403 -0.019,0.2151 -0.037,0.013 -0.037,-0.4492 z m -0.103,-3.8858 c 0,-0.4621 0.019,-0.638 0.037,-0.3911 0.018,0.2471 0.018,0.6253 0,0.8402 -0.019,0.2153 -0.037,0.013 -0.037,-0.4491 z m -0.103,-3.8332 c 0,-0.4909 0.019,-0.6918 0.037,-0.4463 0.018,0.2455 0.018,0.6471 0,0.8927 -0.019,0.2456 -0.037,0.044 -0.037,-0.4464 z m -0.1038,-3.8858 c 0,-0.4909 0.019,-0.6917 0.037,-0.4463 0.019,0.2455 0.019,0.6472 0,0.8927 -0.018,0.2456 -0.037,0.044 -0.037,-0.4464 z m -0.103,-3.8857 c 0,-0.491 0.019,-0.6919 0.037,-0.4463 0.019,0.2454 0.019,0.6471 0,0.8927 -0.018,0.2455 -0.037,0.044 -0.037,-0.4464 z m -0.1038,-3.8858 c 0,-0.4909 0.018,-0.6919 0.036,-0.4463 0.019,0.2454 0.019,0.6471 0,0.8927 -0.018,0.2456 -0.036,0.044 -0.036,-0.4464 z m -0.103,-3.8333 c 0,-0.5198 0.019,-0.7457 0.037,-0.502 0.019,0.2437 0.019,0.669 0,0.9453 -0.018,0.2761 -0.037,0.077 -0.037,-0.4433 z m -0.103,-3.8857 c 0,-0.5199 0.019,-0.7458 0.037,-0.5021 0.019,0.2438 0.019,0.669 0,0.9453 -0.018,0.2761 -0.037,0.077 -0.037,-0.4432 z m -0.1039,-3.8858 c 0,-0.5199 0.018,-0.7458 0.037,-0.5021 0.019,0.2438 0.019,0.6691 0,0.9453 -0.019,0.2761 -0.037,0.077 -0.037,-0.4432 z m -0.103,-3.8858 c 0,-0.5198 0.018,-0.7457 0.037,-0.5021 0.019,0.2438 0.028,0.6691 0,0.9454 -0.019,0.276 -0.037,0.077 -0.037,-0.4433 z m -0.1039,-3.8857 c 0,-0.5199 0.019,-0.7458 0.037,-0.5021 0.019,0.2438 0.019,0.669 0,0.9453 -0.018,0.2761 -0.037,0.077 -0.037,-0.4432 z m -0.103,-3.8334 c 0,-0.5487 0.019,-0.7731 0.037,-0.4987 0.018,0.2743 0.018,0.7232 0,0.9976 -0.019,0.2744 -0.037,0.05 -0.037,-0.4989 z m -0.1038,-3.8332 c 0,-0.5198 0.019,-0.7458 0.036,-0.502 0.019,0.2438 0.019,0.6691 0,0.9453 -0.019,0.2761 -0.036,0.077 -0.036,-0.4433 z m -0.103,-3.8858 c 0,-0.5198 0.019,-0.7458 0.037,-0.502 0.019,0.2437 0.019,0.6692 0,0.9453 -0.019,0.2761 -0.037,0.077 -0.037,-0.4433 z m -0.1047,-3.8332 c 0,-0.491 0.019,-0.6918 0.036,-0.4463 0.019,0.2454 0.019,0.6471 0,0.8927 -0.018,0.2455 -0.036,0.044 -0.036,-0.4464 z m -0.1039,-3.9383 c 0,-0.4621 0.018,-0.6381 0.037,-0.3911 0.018,0.247 0.018,0.6252 0,0.8403 -0.019,0.2151 -0.037,0.013 -0.037,-0.4492 z m -0.103,-3.7809 c 0,-0.462 0.018,-0.6379 0.037,-0.3909 0.019,0.2471 0.019,0.6252 0,0.8402 -0.019,0.2152 -0.037,0.013 -0.037,-0.4493 z m -0.1038,-3.8856 c 0,-0.4621 0.018,-0.6381 0.037,-0.391 0.019,0.247 0.019,0.6251 0,0.8401 -0.019,0.2152 -0.037,0.014 -0.037,-0.4491 z m -0.1049,-3.8858 c 0,-0.4043 0.019,-0.5826 0.037,-0.3961 0.028,0.1864 0.028,0.5172 0,0.7352 -0.019,0.2178 -0.045,0.065 -0.045,-0.3391 z m -0.1038,-3.8858 c 0,-0.4043 0.018,-0.5826 0.045,-0.3961 0.019,0.1864 0.019,0.5172 0,0.7352 -0.019,0.2179 -0.045,0.065 -0.045,-0.3391 z m -0.1039,-3.8333 c 0,-0.3754 0.018,-0.529 0.037,-0.3413 0.028,0.1878 0.028,0.4949 0,0.6827 -0.019,0.1878 -0.037,0.035 -0.037,-0.3414 z m -0.1039,-3.8858 c 0,-0.3753 0.019,-0.5289 0.045,-0.3412 0.019,0.1877 0.019,0.4948 0,0.6826 -0.018,0.1879 -0.045,0.034 -0.045,-0.3414 z m -0.1047,-3.8331 c 0,-0.3467 0.019,-0.5011 0.045,-0.3433 0.028,0.1578 0.028,0.4413 0,0.6302 -0.028,0.1888 -0.045,0.059 -0.045,-0.2869 z m -0.103,-3.8858 c 0,-0.3467 0.018,-0.5011 0.045,-0.3432 0.028,0.1578 0.028,0.4412 0,0.6301 -0.028,0.1888 -0.045,0.059 -0.045,-0.2869 z m -0.1057,-3.7808 c 0,-0.2888 0.019,-0.3945 0.045,-0.2348 0.028,0.1596 0.028,0.3959 0,0.5252 -0.028,0.129 -0.045,0 -0.045,-0.2904 z"
       id="path4602"
       inkscape:connector-curvature="0" />
    <path
       style="fill:#007d21;fill-opacity:1"
       d="m 175.82474,637.11926 c 0,-0.4547 -0.7691,-29.5439 -1.7076,-64.6426 -0.9394,-35.0985 -1.7075,-64.1691 -1.7075,-64.6011 l 0,-0.7855 199.33249,0 199.3318,0 0,1.0765 c 0,0.5919 -0.7837,30.0229 -1.7332,65.4018 l -1.7267,64.3253 -195.8919,0.027 -195.89199,0.027 0,-0.827 z"
       id="path4708"
       inkscape:connector-curvature="0" />
    <path
       inkscape:connector-curvature="0"
       style="fill:#ffffff;fill-opacity:0.21698113;stroke:#000000;stroke-width:2.48782348999999980px;stroke-linecap:butt;stroke-linejoin:miter;stroke-opacity:0"
       d="m 167.87374,333.57136 5.7659,5.4017 9.6631,379.9392 c 2.0256,30.8455 20.0288,52.6027 57.083,63.5228 46.11969,14.3504 104.76989,17.9351 131.38369,49.0435 l 0,18.6831 c -8.8312,-44.5302 -83.8719,-45.9488 -134.10169,-63.5227 -44.3629,-11.2177 -57.4866,-37.1587 -59.802,-68.1938 l -9.992,-384.8738 z"
       id="path15981-7-2"
       sodipodi:nodetypes="ccccccccc" />
    <path
       inkscape:connector-curvature="0"
       style="fill:#000000;fill-opacity:0.09905661;stroke:#000000;stroke-width:2.48782348999999980px;stroke-linecap:butt;stroke-linejoin:miter;stroke-opacity:0"
       d="m 575.59783,333.57036 -5.7669,5.4016 -9.6622,379.9392 c -2.0255,30.8454 -20.0286,52.6028 -57.0829,63.5229 -46.1196,14.3503 -104.77,17.9349 -131.3838,49.0435 l 0,18.6832 c 8.8313,-44.5304 83.8719,-45.949 134.1018,-63.5229 44.3629,-11.2177 57.4867,-37.1587 59.802,-68.1937 l 9.992,-384.8738 z"
       id="path15981-3-4-9"
       sodipodi:nodetypes="ccccccccc" />
    <path
       inkscape:connector-curvature="0"
       style="fill:#ffffff;fill-opacity:0.37264147;stroke:#000000;stroke-width:2.48782348999999980px;stroke-linecap:butt;stroke-linejoin:miter;stroke-opacity:0"
       d="m 167.42534,333.57036 5.89,5.4016 396.41449,0 5.8898,-5.4016 -408.19429,0 z"
       id="path16005-7-0" />
    <path
       style="fill:#000000;fill-opacity:0.21698112"
       d="m 349.72703,767.06236 c -12.9561,-18.3333 -23.5779,-33.3964 -23.6043,-33.4735 -0.054,-0.1561 47.0381,-66.8363 47.1875,-66.8157 0.082,0.012 47.2121,66.6095 47.2177,66.7278 0,0.029 -10.5707,15.0101 -23.4922,33.2916 -12.9225,18.2815 -23.5532,33.3208 -23.6234,33.4209 -0.112,0.1587 -3.1253,-4.0583 -23.6853,-33.1511 z m 16.8487,-289.4122 c -3.6912,-7.989 -6.7237,-14.5419 -6.7383,-14.562 -0.01,-0.02 -6.8101,2.4504 -15.1018,5.49 -8.2919,3.0397 -15.0856,5.5136 -15.0984,5.4976 -0.01,-0.016 2.4793,-6.7633 5.5355,-14.9943 3.0569,-8.2312 5.529,-14.9984 5.4944,-15.0383 -0.045,-0.056 -26.8162,-12.4098 -28.6604,-13.2266 -0.2506,-0.1107 -0.4283,-0.2282 -0.3955,-0.2613 0.037,-0.034 6.5924,-3.0528 14.578,-6.7107 9.716,-4.4504 14.5079,-6.6966 14.487,-6.7898 -0.019,-0.077 -2.504,-6.8153 -5.5254,-14.9749 -3.0215,-8.1596 -5.4698,-14.8601 -5.4407,-14.8901 0.028,-0.031 6.7892,2.4282 15.0218,5.4625 8.2316,3.0344 15.0008,5.516 15.0427,5.5149 0.045,0 3.0862,-6.5113 6.7665,-14.4667 3.6803,-7.9555 6.73,-14.4479 6.7774,-14.4276 0.045,0.02 3.0871,6.5303 6.7555,14.4666 3.6693,7.9364 6.7255,14.4297 6.7919,14.4297 0.064,0 6.8349,-2.461 15.041,-5.4689 8.207,-3.0079 14.9471,-5.4428 14.9781,-5.4108 0.028,0.032 -2.3217,6.4745 -5.2303,14.3169 -2.9075,7.8424 -5.4033,14.572 -5.5445,14.955 l -0.2579,0.6961 14.5835,6.707 c 8.0212,3.6889 14.5817,6.7311 14.58,6.7605 0,0.03 -6.567,3.054 -14.5891,6.7217 -8.022,3.6677 -14.5845,6.6686 -14.5826,6.6688 0.019,0 11.1393,30.0435 11.1247,30.0616 -0.01,0.014 -6.7911,-2.4736 -15.0674,-5.5281 -8.2754,-3.0543 -15.0783,-5.5231 -15.1174,-5.4862 -0.037,0.037 -3.0334,6.4675 -6.6545,14.2905 -3.621,7.8229 -6.6415,14.3359 -6.7126,14.4731 -0.1185,0.2297 -0.6624,-0.906 -6.8412,-14.2762 z"
       id="path4807"
       inkscape:connector-curvature="0" />
    <path
       style="fill:#e40001;fill-opacity:1"
       d="m 345.19303,763.97126 c -12.9562,-18.3332 -23.5778,-33.3963 -23.6042,-33.4734 -0.055,-0.1562 47.038,-66.8363 47.1865,-66.8157 0.091,0.012 47.2121,66.6095 47.2175,66.7278 0,0.03 -10.5696,15.0101 -23.4921,33.2916 -12.9224,18.2816 -23.5523,33.321 -23.6233,33.4209 -0.1121,0.1588 -3.1244,-4.0581 -23.6844,-33.1512 z m 16.8486,-289.4119 c -3.6921,-7.9892 -6.7236,-14.5421 -6.7382,-14.5622 -0.018,-0.02 -6.8102,2.4504 -15.1019,5.49 -8.2927,3.0397 -15.0865,5.5137 -15.0984,5.4977 -0.01,-0.016 2.4793,-6.7635 5.5354,-14.9944 3.0562,-8.2311 5.5282,-14.9983 5.4945,-15.0383 -0.054,-0.057 -26.817,-12.4098 -28.6613,-13.2265 -0.2496,-0.1107 -0.4273,-0.2283 -0.3945,-0.2614 0.028,-0.034 6.5924,-3.0528 14.5771,-6.7106 9.7159,-4.4505 14.5087,-6.6968 14.4869,-6.7899 -0.018,-0.077 -2.5039,-6.8153 -5.5255,-14.9749 -3.0214,-8.1596 -5.4698,-14.8601 -5.4397,-14.8902 0.028,-0.031 6.7893,2.4282 15.0209,5.4627 8.2325,3.0342 15.0018,5.5159 15.0428,5.5147 0.045,0 3.0862,-6.5111 6.7663,-14.4666 3.6804,-7.9555 6.7302,-14.4478 6.7775,-14.4275 0.045,0.02 3.088,6.5302 6.7564,14.4665 3.6685,7.9364 6.7245,14.4298 6.7911,14.4298 0.064,0 6.8348,-2.4611 15.0419,-5.4689 8.206,-3.0079 14.9461,-5.4428 14.978,-5.4109 0.028,0.032 -2.3227,6.4745 -5.2302,14.3169 -2.9085,7.8424 -5.4033,14.5721 -5.5454,14.955 l -0.257,0.696 14.5835,6.7072 c 8.0202,3.6889 14.5817,6.731 14.5798,6.7603 0,0.03 -6.5669,3.0541 -14.589,6.7218 -8.0221,3.6676 -14.5843,6.6686 -14.5824,6.6688 0.018,0 11.1382,30.0436 11.1236,30.0618 -0.01,0.014 -6.7911,-2.4738 -15.0664,-5.5282 -8.2763,-3.0544 -15.0793,-5.5232 -15.1184,-5.4864 -0.037,0.037 -3.0333,6.4675 -6.6543,14.2905 -3.6212,7.823 -6.6418,14.3359 -6.7128,14.4732 -0.1184,0.2297 -0.6624,-0.9059 -6.8403,-14.276 z"
       id="path4807-9"
       inkscape:connector-curvature="0" />
    <path
       style="fill:#000000;fill-opacity:0.16509435"
       d="m 367.81493,795.94356 c -0.5386,-0.7581 -0.9778,-1.4515 -0.9768,-1.5408 0,-0.089 3.9782,-5.7864 8.8368,-12.66 19.4045,-27.4496 36.7316,-52.0521 36.7316,-52.1548 0,-0.1221 -20.0643,-28.5835 -35.1518,-49.8635 l -9.9337,-14.0106 0.729,-1.0335 c 0.4018,-0.5686 0.7563,-1.031 0.7891,-1.0275 0.1075,0.011 47.1374,66.6935 47.1264,66.8203 0,0.099 -46.8576,66.5142 -47.1046,66.7782 -0.037,0.039 -0.5075,-0.5496 -1.046,-1.3078 z m 0,-308.9439 -0.9686,-2.097 1.7905,-3.8604 c 5.9838,-12.9002 10.0513,-21.6167 10.1214,-21.6881 0.1258,-0.128 3.2775,1.0311 3.2584,1.1986 -0.018,0.1576 -13.0527,28.3479 -13.163,28.4677 -0.036,0.041 -0.5056,-0.8675 -1.0387,-2.0208 z m 42.7436,-16.5318 c -0.9849,-0.3662 -1.8049,-0.6829 -1.8231,-0.7039 -0.064,-0.072 -10.9243,-29.5313 -10.8979,-29.5555 0.019,-0.013 3.5409,-1.6333 7.8371,-3.6002 18.7669,-8.591 21.2507,-9.7553 21.0448,-9.8646 -0.3044,-0.1618 -15.8574,-7.3639 -22.6995,-10.5119 -4.2625,-1.9606 -6.1487,-2.8779 -6.1304,-2.9809 0.019,-0.081 2.2078,-6.0523 4.8739,-13.2677 2.6661,-7.2155 4.9259,-13.3602 5.0206,-13.655 l 0.174,-0.5361 2.2243,-0.817 c 1.2237,-0.4495 2.2388,-0.7989 2.2561,-0.7768 0.018,0.022 -2.4685,6.7748 -5.5236,15.0058 l -5.5555,14.9655 0.6323,0.3154 c 0.3472,0.1733 6.9041,3.1979 14.5709,6.7212 7.6666,3.5234 13.941,6.4297 13.9419,6.4585 0,0.03 -3.2921,1.5604 -7.3177,3.4032 -4.0265,1.8428 -10.5679,4.8384 -14.5371,6.6566 -3.9691,1.8181 -7.2165,3.3636 -7.2165,3.4342 0,0.098 10.1442,27.5946 10.9168,29.591 0.082,0.2166 0.1176,0.3916 0.073,0.3889 -0.045,0 -0.883,-0.3045 -1.867,-0.6707 z m -85.3423,0.4027 c 0.036,-0.1098 0.2395,-0.6724 0.4555,-1.2499 l 0.3936,-1.0503 0.616,-0.2266 c 5.735,-2.1091 24.9664,-9.0958 25.0649,-9.1062 0.073,-0.01 0.3152,0.3779 0.5386,0.8567 l 0.4054,0.8707 -0.2797,0.1085 c -0.1541,0.059 -6.2873,2.3094 -13.6278,4.9993 -7.3414,2.6901 -13.4108,4.915 -13.4891,4.9443 -0.099,0.037 -0.1221,-0.01 -0.073,-0.1465 z m 16.0495,-80.4227 c -5.6904,-2.0923 -11.6112,-4.2674 -13.1575,-4.8338 -2.3108,-0.8471 -2.8201,-1.069 -2.8666,-1.2505 -0.028,-0.1215 -0.045,-0.2362 -0.028,-0.255 0.028,-0.026 25.0065,9.154 26.4698,9.7272 0.1915,0.075 0.2634,0.1626 0.2224,0.2714 -0.036,0.089 -0.1139,0.1572 -0.1795,0.1528 -0.064,0 -4.7737,-1.7201 -10.465,-3.8121 z m 36.2405,1.0635 c -2.7326,-5.7373 -10.2179,-21.867 -10.2179,-22.0157 0,-0.2577 1.4816,-3.3822 1.5627,-3.2958 0.1129,0.1205 12.5087,26.9672 12.5087,27.0919 0,0.085 -2.2725,0.978 -2.4858,0.9768 -0.028,0 -0.646,-1.241 -1.3677,-2.7572 z"
       id="path4865"
       inkscape:connector-curvature="0" />
    <path
       style="fill:#ffffff;fill-opacity:0.28773582"
       d="m 366.95473,794.62206 c -20.9563,-29.5852 -45.325,-64.1268 -45.3259,-64.2477 0,-0.1094 41.2002,-58.5243 46.9051,-66.5021 l 0.2797,-0.3916 0.8446,1.1986 c 0.4647,0.659 0.8447,1.2524 0.8447,1.3184 0,0.066 -1.4579,2.1605 -3.2402,4.6543 -9.7068,13.5846 -41.9099,59.2594 -42.5286,60.321 -0.045,0.076 4.7928,7.0254 12.1707,17.486 12.784,18.1243 29.342,41.5232 31.6828,44.7706 0.749,1.0396 1.3968,1.9508 1.4396,2.0247 0.045,0.083 -0.1494,0.4544 -0.5212,0.9791 -0.3298,0.4646 -0.6323,0.8654 -0.6733,0.8907 -0.037,0.026 -0.8847,-1.1006 -1.878,-2.502 z m -4.5377,-319.3768 c -3.5062,-7.5773 -6.3636,-13.7894 -6.3509,-13.8049 0.037,-0.046 2.2689,-0.8581 2.2889,-0.834 0.01,0.012 1.6247,3.4955 3.5882,7.741 1.9636,4.2454 4.6215,9.9786 5.9054,12.7404 l 2.3346,5.0215 -0.6562,1.4166 c -0.3608,0.7792 -0.6743,1.4345 -0.6952,1.4563 -0.019,0.022 -2.9085,-6.1597 -6.4148,-13.7369 z m 36.3937,-9.2165 c -7.5064,-2.7669 -13.6614,-5.0444 -13.6779,-5.0612 -0.018,-0.017 0.01,-0.095 0.054,-0.1728 0.1066,-0.1745 0.3197,-0.099 15.7005,5.5315 9.8701,3.6129 11.4173,4.2075 11.5157,4.4239 0.064,0.1374 0.099,0.2632 0.082,0.2796 -0.019,0.016 -6.1714,-2.2342 -13.6778,-5.001 z m -70.7781,-2.9586 c 1.6119,-4.3467 4.1159,-11.093 5.5645,-14.9919 1.4489,-3.8989 2.6006,-7.1253 2.5605,-7.1699 -0.037,-0.044 -6.5888,-3.077 -14.5516,-6.7388 -7.9628,-3.6618 -14.4778,-6.6877 -14.4778,-6.7243 0,-0.037 6.5414,-3.0611 14.5371,-6.7213 9.7013,-4.4409 14.5278,-6.7014 14.5087,-6.7949 -0.019,-0.078 -2.5021,-6.8168 -5.5245,-14.9773 -3.0224,-8.1602 -5.4716,-14.861 -5.4425,-14.8904 0.073,-0.071 2.9978,0.9994 3.1418,1.1494 0.064,0.064 0.3115,0.6847 0.5548,1.3777 0.2425,0.6932 2.648,7.2474 5.3452,14.565 2.6961,7.3174 4.903,13.3481 4.903,13.4014 0,0.053 -0.8966,0.526 -1.9919,1.0504 -1.6091,0.7703 -17.9476,8.3146 -25.3008,11.6826 -1.3077,0.5987 -1.6547,0.7984 -1.5518,0.8925 0.073,0.066 6.5806,3.0904 14.4624,6.7196 7.8817,3.6294 14.3492,6.614 14.3729,6.6324 0.028,0.019 -0.2988,0.9909 -0.7161,2.1609 -1.0133,2.8371 -9.4928,25.8182 -9.5474,25.874 -0.045,0.041 -3.6758,1.4056 -3.745,1.4056 -0.018,0 1.2866,-3.5563 2.8985,-7.9027 z m 28.7414,-67.8946 -1.261,-0.4731 0.2397,-0.5387 c 0.4091,-0.9225 12.6426,-27.306 12.8604,-27.7373 0.2433,-0.4815 0.1185,-0.654 1.1545,1.6007 l 0.7363,1.6026 -0.4165,0.8404 c -0.2287,0.4622 -2.576,5.4831 -5.2147,11.1575 -6.2644,13.4663 -6.5414,14.0474 -6.7026,14.033 -0.073,-0.01 -0.7025,-0.2249 -1.3961,-0.4851 z m 28.2313,-0.1977 c -0.1859,-0.3823 -0.3235,-0.7082 -0.307,-0.7242 0.1357,-0.1276 27.8148,-10.1833 27.782,-10.093 -0.6169,1.7163 -0.7262,1.9433 -0.9886,2.0489 -0.6115,0.2454 -26.0126,9.4632 -26.0782,9.4632 -0.037,0 -0.2223,-0.3127 -0.4082,-0.6949 z"
       id="path4845"
       inkscape:connector-curvature="0" />
    <rect
       style="fill:#ffffff;fill-opacity:0.25943394;fill-rule:evenodd;stroke:none"
       id="rect4867"
       width="398.53116"
       height="4.2434845"
       x="172.36514"
       y="507.078" />
    <rect
       style="fill:#0e0e0e;fill-opacity:0.25943394;fill-rule:evenodd;stroke:none"
       id="rect4867-5"
       width="391.58398"
       height="7.244082"
       x="176.03555"
       y="634.02136" />
  </g>
</svg>
