<?xml version="1.0" encoding="UTF-8"?>
<svg id="Laag_1" data-name="Laag 1" xmlns="http://www.w3.org/2000/svg" version="1.1" viewBox="0 0 296.9 182">
  <defs>
    <style>
      .cls-1 {
        stroke-width: 0px;
      }

      .cls-1, .cls-2 {
        fill: #1d1d1b;
      }

      .cls-2 {
        stroke: #1d1d1b;
        stroke-miterlimit: 10;
        stroke-width: .4px;
      }
    </style>
  </defs>
  <g>
    <path class="cls-1" d="M76.6,153c-1.1,0-2.1-.2-3.1-.6-.9-.4-1.8-.9-2.4-1.6s-1.2-1.5-1.6-2.5c-.4-.9-.6-2-.6-3.1s.2-2.2.6-3.1c.4-.9.9-1.8,1.6-2.5.7-.7,1.5-1.2,2.4-1.6.9-.4,1.9-.6,3.1-.6s2.1.2,3.1.6,1.7.9,2.4,1.6c.7.7,1.2,1.5,1.6,2.5.4.9.6,2,.6,3.1s-.2,2.1-.6,3.1c-.4.9-.9,1.8-1.6,2.5s-1.5,1.2-2.4,1.6c-.9.4-1.9.6-3.1.6ZM76.6,149.9c.6,0,1.2-.1,1.8-.3s1-.6,1.4-1c.4-.4.7-.9.9-1.5s.3-1.2.3-1.9-.1-1.3-.3-1.9-.5-1.1-.9-1.5c-.4-.4-.9-.8-1.4-1s-1.1-.4-1.8-.4-1.2.1-1.7.4-1,.6-1.4,1-.7.9-.9,1.5c-.2.6-.3,1.2-.3,1.9s0,1.3.3,1.9c.2.6.5,1.1.9,1.5s.9.8,1.4,1,1.1.3,1.7.3Z"/>
    <path class="cls-1" d="M87.1,152.8v-11.4h2.9v2.2c0,0-.4,0-.4,0,.2-.4.4-.7.6-1,.3-.3.6-.6.9-.8s.7-.4,1.1-.5.8-.2,1.2-.2c.6,0,1.1,0,1.6.3s.9.5,1.2.9.6.9.8,1.6h-.5s.1-.4.1-.4c.2-.3.4-.7.7-.9.3-.3.6-.5,1-.7s.7-.4,1.1-.5c.4-.1.8-.2,1.1-.2.9,0,1.6.2,2.2.5.6.4,1,.9,1.3,1.6.3.7.4,1.6.4,2.6v6.9h-3.1v-6.7c0-.5,0-.9-.2-1.3-.1-.3-.4-.6-.6-.7-.3-.2-.6-.2-1.1-.2s-.6,0-.9.2-.5.3-.7.4-.4.4-.5.7c-.1.3-.2.5-.2.9v6.8h-3.1v-6.7c0-.5,0-.9-.2-1.2s-.4-.6-.6-.8-.6-.3-1-.3-.6,0-.9.2-.5.3-.7.4-.4.4-.5.7-.2.5-.2.8v6.8h-3.1Z"/>
    <path class="cls-1" d="M113.2,157.7c-.9,0-1.8-.1-2.7-.4-.9-.3-1.6-.6-2.1-1l1.1-2.2c.3.2.6.4,1,.5.4.2.8.3,1.2.4s.8.1,1.3.1c.8,0,1.4-.1,1.8-.3.5-.2.8-.6,1.1-1,.2-.4.4-1,.4-1.7v-2h.5c0,.6-.3,1-.7,1.4s-.9.7-1.5.9c-.6.2-1.2.4-1.8.4-1.1,0-2-.2-2.8-.7-.8-.5-1.5-1.2-1.9-2s-.7-1.9-.7-3,.2-2.2.7-3c.5-.9,1.1-1.6,1.9-2.1s1.7-.8,2.8-.8.8,0,1.2.1c.4.1.8.2,1.1.4.3.2.6.4.9.6s.5.5.7.7.3.5.3.8l-.6.2v-2.6h3v10.5c0,.9-.1,1.8-.4,2.5s-.7,1.3-1.2,1.8c-.5.5-1.2.9-1.9,1.1-.8.2-1.6.4-2.5.4ZM113.2,150.3c.6,0,1.1-.1,1.6-.4s.8-.6,1-1.1c.2-.5.4-1.1.4-1.7s-.1-1.2-.4-1.7c-.2-.5-.6-.9-1-1.1s-1-.4-1.6-.4-1.1.1-1.6.4-.8.7-1,1.1c-.2.5-.4,1.1-.4,1.7s.1,1.2.4,1.7c.2.5.6.9,1,1.1.4.3,1,.4,1.6.4Z"/>
    <path class="cls-1" d="M128.1,153c-1.2,0-2.3-.2-3.2-.8-.9-.5-1.6-1.2-2.1-2.1s-.8-1.9-.8-3,.1-1.7.4-2.4c.3-.7.7-1.4,1.2-1.9.5-.5,1.1-.9,1.8-1.2.7-.3,1.5-.4,2.3-.4s1.5.1,2.1.4c.7.3,1.2.7,1.7,1.2.5.5.9,1.1,1.1,1.8.3.7.4,1.4.3,2.3v.9h-9.2l-.5-1.9h7.1l-.3.4v-.5c0-.4-.1-.7-.4-1.1s-.5-.6-.9-.7c-.3-.2-.7-.3-1.2-.3-.6,0-1.2.1-1.6.4-.4.2-.8.6-1,1.1s-.3,1.1-.3,1.7.1,1.3.4,1.8c.3.5.7.9,1.2,1.2s1.2.4,1.9.4,1,0,1.4-.2.9-.4,1.3-.8l1.5,2c-.4.4-.9.7-1.4.9s-1,.4-1.6.6-1,.2-1.6.2Z"/>
    <path class="cls-1" d="M139,152.8l-4.8-11.4h3.4l3,8.5h-.7c0,.1,3.2-8.5,3.2-8.5h3.3l-5,11.4h-2.3Z"/>
    <path class="cls-1" d="M150.4,139.1c-.6,0-1.1-.1-1.4-.4s-.5-.7-.5-1.2.2-.9.5-1.2c.3-.3.8-.5,1.4-.5s1.1.1,1.4.4.5.7.5,1.2-.2.9-.5,1.2-.8.4-1.4.4ZM148.9,152.8v-11.4h3.1v11.4h-3.1Z"/>
    <path class="cls-1" d="M155.7,152.8v-11.4h2.9v2.3c0,0-.5.3-.5.3.2-.5.4-1,.9-1.4.4-.4.9-.8,1.5-1,.6-.3,1.2-.4,1.8-.4s1.6.2,2.2.5c.6.3,1,.9,1.3,1.6s.4,1.6.4,2.6v7h-3.1v-6.7c0-.5,0-.9-.2-1.3s-.4-.6-.7-.8c-.3-.2-.7-.2-1.1-.2-.3,0-.7,0-1,.2-.3.1-.5.3-.8.5-.2.2-.4.4-.5.7-.1.3-.2.5-.2.8v6.8h-2.4c-.3,0-.5,0-.7,0Z"/>
    <path class="cls-1" d="M174.7,157.7c-.9,0-1.8-.1-2.7-.4-.9-.3-1.6-.6-2.1-1l1.1-2.2c.3.2.6.4,1,.5.4.2.8.3,1.2.4s.8.1,1.3.1c.8,0,1.4-.1,1.8-.3.5-.2.8-.6,1.1-1,.2-.4.4-1,.4-1.7v-2h.5c0,.6-.3,1-.7,1.4s-.9.7-1.5.9-1.2.4-1.8.4c-1.1,0-2-.2-2.8-.7-.8-.5-1.5-1.2-1.9-2-.5-.9-.7-1.9-.7-3s.2-2.2.7-3c.5-.9,1.1-1.6,1.9-2.1.8-.5,1.7-.8,2.8-.8s.8,0,1.2.1c.4.1.8.2,1.1.4.3.2.6.4.9.6.3.2.5.5.7.7s.3.5.3.8l-.6.2v-2.6h3v10.5c0,.9-.1,1.8-.4,2.5s-.7,1.3-1.2,1.8c-.5.5-1.2.9-1.9,1.1-.8.2-1.6.4-2.5.4ZM174.8,150.3c.6,0,1.1-.1,1.6-.4s.8-.6,1-1.1c.2-.5.4-1.1.4-1.7s-.1-1.2-.4-1.7c-.2-.5-.6-.9-1-1.1-.4-.3-1-.4-1.6-.4s-1.1.1-1.6.4-.8.7-1,1.1c-.2.5-.4,1.1-.4,1.7s.1,1.2.4,1.7c.2.5.6.9,1,1.1s1,.4,1.6.4Z"/>
    <path class="cls-1" d="M187.8,153c-1.1,0-2-.2-2.8-.5-.8-.4-1.5-.8-2-1.4l1.9-1.6c.4.5.9.8,1.5,1s1.1.3,1.6.3.4,0,.6,0c.2,0,.3-.1.5-.2.1,0,.2-.2.3-.3,0-.1.1-.3.1-.4,0-.3-.1-.6-.4-.8-.1,0-.4-.2-.7-.3s-.7-.2-1.2-.4c-.7-.2-1.4-.4-1.9-.7s-.9-.5-1.2-.9c-.3-.3-.5-.6-.6-1-.1-.4-.2-.7-.2-1.2s.1-1,.3-1.4.6-.8,1-1.1.9-.5,1.4-.7,1.1-.2,1.7-.2,1.2,0,1.7.2c.6.1,1.1.4,1.6.6.5.3.9.6,1.3.9l-1.6,1.8c-.3-.2-.6-.5-.9-.7-.3-.2-.7-.4-1-.5s-.6-.2-.9-.2-.5,0-.7,0-.4.1-.5.2c-.1,0-.2.2-.3.3,0,.1-.1.3-.1.4s0,.3.1.4.2.3.3.4c.2,0,.4.2.7.3s.7.2,1.3.4c.7.2,1.3.4,1.8.6s.9.5,1.1.8c.2.3.4.6.5.9s.2.7.2,1.1c0,.7-.2,1.3-.6,1.9s-.9,1-1.6,1.3c-.7.3-1.5.5-2.3.5Z"/>
    <path class="cls-1" d="M199.4,153c-1,0-1.9-.2-2.7-.8s-1.4-1.2-1.9-2.1c-.4-.9-.7-1.9-.7-3.1s.2-2.1.7-3,1.1-1.6,1.9-2.1,1.7-.8,2.7-.8,1,0,1.5.2c.5.2.9.4,1.3.7.4.3.7.6,1,1,.2.4.4.7.4,1.1h-.8c0,.1,0-7.3,0-7.3h3v15.9h-2.9v-2.6c-.1,0,.5,0,.5,0,0,.4-.2.7-.4,1s-.5.6-.9.9-.8.5-1.3.6c-.5.1-1,.2-1.5.2ZM200.1,150.5c.6,0,1.1-.1,1.5-.4.4-.3.8-.7,1-1.2.2-.5.4-1.1.4-1.8s-.1-1.2-.4-1.8c-.2-.5-.6-.9-1-1.2-.4-.3-.9-.4-1.5-.4s-1.1.1-1.5.4-.8.7-1,1.2-.4,1.1-.4,1.8.1,1.3.4,1.8c.2.5.6.9,1,1.2.4.3.9.4,1.5.4Z"/>
    <path class="cls-1" d="M211.1,139.1c-.6,0-1-.1-1.4-.4-.3-.3-.5-.7-.5-1.2s.2-.9.5-1.2c.3-.3.8-.5,1.4-.5s1,.1,1.4.4.5.7.5,1.2-.2.9-.5,1.2-.8.4-1.4.4ZM209.6,152.8v-11.4h3v11.4h-3Z"/>
    <path class="cls-1" d="M221.7,153c-1.2,0-2.3-.2-3.2-.8s-1.6-1.2-2.1-2.1-.8-1.9-.8-3,.1-1.7.4-2.4.7-1.4,1.2-1.9c.5-.5,1.1-.9,1.8-1.2.7-.3,1.5-.4,2.3-.4s1.5.1,2.1.4,1.2.7,1.7,1.2.9,1.1,1.1,1.8c.3.7.4,1.4.3,2.3v.9h-9.2l-.5-1.9h7.1l-.3.4v-.5c0-.4-.1-.7-.4-1.1-.2-.3-.5-.6-.9-.7s-.7-.3-1.2-.3c-.6,0-1.2.1-1.6.4-.4.2-.8.6-1,1.1s-.3,1.1-.3,1.7.1,1.3.4,1.8.7.9,1.2,1.2,1.2.4,1.9.4,1,0,1.4-.2.9-.4,1.3-.8l1.5,2c-.4.4-.9.7-1.4.9-.5.2-1,.4-1.5.6-.5.1-1.1.2-1.6.2Z"/>
    <path class="cls-1" d="M229.3,152.8v-11.4h2.9v2.3c0,0-.5.3-.5.3.2-.5.4-1,.9-1.4.4-.4.9-.8,1.5-1,.6-.3,1.2-.4,1.8-.4s1.6.2,2.2.5c.6.3,1,.9,1.3,1.6s.4,1.6.4,2.6v7h-3v-6.7c0-.5,0-.9-.2-1.3-.1-.3-.4-.6-.7-.8-.3-.2-.7-.2-1.1-.2-.3,0-.7,0-1,.2-.3.1-.5.3-.8.5-.2.2-.4.4-.5.7-.1.3-.2.5-.2.8v6.8h-2.4c-.3,0-.5,0-.7,0Z"/>
    <path class="cls-1" d="M247,153c-1.1,0-2-.2-2.8-.5-.8-.4-1.5-.8-2-1.4l1.9-1.6c.4.5.9.8,1.5,1s1.1.3,1.6.3.4,0,.6,0c.2,0,.3-.1.5-.2.1,0,.2-.2.3-.3,0-.1.1-.3.1-.4,0-.3-.1-.6-.4-.8-.1,0-.4-.2-.7-.3-.3-.1-.7-.2-1.2-.4-.7-.2-1.4-.4-1.9-.7-.5-.2-.9-.5-1.2-.9-.3-.3-.5-.6-.6-1-.1-.4-.2-.7-.2-1.2s.1-1,.3-1.4.5-.8,1-1.1.9-.5,1.4-.7,1.1-.2,1.7-.2,1.2,0,1.7.2c.6.1,1.1.4,1.6.6.5.3.9.6,1.3.9l-1.6,1.8c-.3-.2-.5-.5-.9-.7s-.7-.4-1-.5-.6-.2-.9-.2-.5,0-.7,0-.4.1-.5.2c-.1,0-.2.2-.3.3,0,.1-.1.3-.1.4s0,.3.1.4.2.3.3.4c.2,0,.4.2.7.3s.7.2,1.3.4c.7.2,1.3.4,1.8.6s.9.5,1.1.8c.2.3.4.6.5.9s.2.7.2,1.1c0,.7-.2,1.3-.6,1.9s-.9,1-1.6,1.3c-.7.3-1.5.5-2.3.5Z"/>
    <path class="cls-1" d="M253.1,144.1v-2.7h7.5v2.7h-7.5ZM255.2,152.8v-14.2h3v14.2h-3Z"/>
    <path class="cls-1" d="M70.2,181.8v-15.1h1.6l5.8,9.4h-.8s5.9-9.4,5.9-9.4h1.5v15.1h-1.7v-6.9c0-1.3,0-2.4,0-3.5s.1-2.1.2-3.1l.3.6-5.4,8.5h-1.2l-5.2-8.4.2-.7c.1,1,.2,1.9.2,3s0,2.2,0,3.6v6.9h-1.7Z"/>
    <path class="cls-1" d="M89.6,168.1c-.4,0-.7-.1-.9-.3s-.3-.5-.3-.9.1-.6.3-.9.5-.3.9-.3.7.1.9.3.3.5.3.9-.1.6-.3.8c-.2.2-.5.3-.9.3ZM88.8,181.8v-11.2h1.6v11.2h-1.6Z"/>
    <path class="cls-1" d="M98.9,182c-1,0-1.9-.2-2.7-.8s-1.4-1.2-1.9-2.1-.7-1.9-.7-3,.2-2.1.7-3,1.1-1.6,1.9-2.1,1.7-.8,2.7-.8,1.1,0,1.6.3c.5.2,1,.4,1.4.7s.8.7,1,1.1.4.8.5,1.2l-.5-.2v-7.6h1.6v15.9h-1.6v-2.8s.4-.1.4-.1c0,.4-.2.8-.5,1.2s-.6.7-1,1-.9.5-1.4.7-1,.3-1.6.3ZM99.2,180.5c.8,0,1.4-.2,2-.6s1.1-.9,1.4-1.6.5-1.4.5-2.3-.2-1.6-.5-2.2-.8-1.2-1.4-1.6-1.2-.6-2-.6-1.4.2-2,.6-1,.9-1.4,1.6-.5,1.4-.5,2.2.2,1.6.5,2.2.8,1.2,1.4,1.6,1.3.6,2,.6Z"/>
    <path class="cls-1" d="M112.7,182c-1,0-1.9-.2-2.7-.8s-1.4-1.2-1.9-2.1-.7-1.9-.7-3,.2-2.1.7-3,1.1-1.6,1.9-2.1,1.7-.8,2.7-.8,1.1,0,1.6.3c.5.2,1,.4,1.4.7s.8.7,1,1.1.4.8.5,1.2l-.5-.2v-7.6h1.6v15.9h-1.6v-2.8s.4-.1.4-.1c0,.4-.2.8-.5,1.2s-.6.7-1,1-.9.5-1.4.7-1,.3-1.6.3ZM113,180.5c.8,0,1.4-.2,2-.6s1.1-.9,1.4-1.6.5-1.4.5-2.3-.2-1.6-.5-2.2-.8-1.2-1.4-1.6-1.2-.6-2-.6-1.4.2-2,.6-1,.9-1.4,1.6-.5,1.4-.5,2.2.2,1.6.5,2.2.8,1.2,1.4,1.6,1.3.6,2,.6Z"/>
    <path class="cls-1" d="M126.9,182c-1.1,0-2.1-.2-3-.7s-1.5-1.2-2-2-.7-1.9-.7-3,.1-1.7.4-2.4.7-1.3,1.1-1.9c.5-.5,1.1-.9,1.8-1.2.7-.3,1.4-.4,2.2-.4s1.4.1,2.1.4,1.2.6,1.6,1.1c.4.5.8,1.1,1,1.7s.3,1.4.3,2.2v.8h-9.4l-.2-1.4h8.4l-.4.4v-.5c0-.5-.2-1-.4-1.5-.3-.5-.7-.9-1.1-1.2-.5-.3-1.1-.4-1.8-.4s-1.5.2-2.1.5-1,.8-1.4,1.4-.5,1.4-.5,2.3.2,1.7.5,2.3c.3.6.8,1.2,1.5,1.5s1.4.5,2.3.5,1.1,0,1.6-.3,1.1-.5,1.7-1.1l.8,1.2c-.3.3-.7.6-1.2.9s-1,.4-1.5.6c-.6.2-1.1.2-1.7.2Z"/>
    <path class="cls-1" d="M134.5,181.8v-11.2h1.6v2.3c0,0-.2.1-.2.1.1-.5.4-.9.8-1.3.4-.4.9-.7,1.5-1s1.2-.4,1.8-.4,1.5.2,2.1.5,1,.8,1.3,1.5c.3.7.4,1.6.4,2.6v6.8h-1.6v-6.7c0-.8-.1-1.4-.3-1.8-.2-.5-.5-.8-.9-1.1s-.9-.3-1.5-.3c-.5,0-.9,0-1.4.2-.4.2-.8.4-1.1.7-.3.3-.5.6-.7,1-.2.4-.3.8-.3,1.2v6.8h-1.1c-.1,0-.3,0-.5,0Z"/>
    <path class="cls-1" d="M146.9,176.6v-1.6h6.1v1.6h-6.1Z"/>
    <path class="cls-1" d="M156.8,181.8v-15.1h1.7v15.1h-1.7ZM157.6,175.1v-1.6h9.9v1.6h-9.9ZM166.9,181.8v-15.1h1.7v15.1h-1.7Z"/>
    <path class="cls-1" d="M177.7,182c-1.1,0-2.1-.2-3-.8s-1.6-1.2-2-2.1-.7-1.9-.7-3,.2-2.1.7-3,1.2-1.6,2-2.1,1.9-.8,3-.8,2.1.2,3,.8,1.6,1.2,2,2.1c.5.9.7,1.9.7,3s-.2,2.1-.7,3-1.2,1.6-2,2.1-1.9.8-3,.8ZM177.7,180.5c.8,0,1.5-.2,2.1-.6s1.1-.9,1.4-1.6c.3-.6.5-1.4.5-2.2s-.2-1.6-.5-2.2c-.3-.6-.8-1.1-1.4-1.5s-1.3-.6-2.1-.6-1.5.2-2.1.6c-.6.4-1.1.9-1.5,1.5-.4.6-.5,1.4-.5,2.2,0,.8.1,1.6.5,2.2s.8,1.2,1.5,1.6c.6.4,1.3.6,2.1.6Z"/>
    <path class="cls-1" d="M186.3,181.8v-15.9h1.6v15.9h-1.6Z"/>
    <path class="cls-1" d="M191.6,181.8v-15.9h1.6v15.9h-1.6Z"/>
    <path class="cls-1" d="M201,182c-1,0-1.9-.2-2.6-.8-.8-.5-1.4-1.2-1.9-2.1s-.7-1.9-.7-3,.2-2.1.7-3c.5-.9,1.1-1.6,1.9-2.1s1.7-.8,2.7-.8,1.1,0,1.6.3,1,.4,1.3.7c.4.3.7.7,1,1.1.3.4.5.9.5,1.3l-.5-.2v-2.9h1.7v11.2h-1.6v-2.8l.4-.3c-.1.4-.3.8-.6,1.2-.3.4-.6.7-1,1-.4.3-.9.5-1.4.7s-1,.2-1.6.2ZM201.3,180.4c.8,0,1.4-.2,2-.6.6-.4,1-.9,1.4-1.5.3-.6.5-1.4.5-2.2s-.2-1.6-.5-2.2-.8-1.1-1.4-1.5c-.6-.4-1.2-.6-2-.6s-1.4.2-2,.6-1,.9-1.4,1.5c-.3.6-.5,1.4-.5,2.2s.2,1.6.5,2.2c.3.6.8,1.2,1.4,1.5.6.4,1.3.6,2,.6Z"/>
    <path class="cls-1" d="M210.3,181.8v-11.2h1.6v2.3c0,0-.2.1-.2.1.1-.5.4-.9.8-1.3.4-.4.9-.7,1.5-1s1.2-.4,1.8-.4,1.5.2,2.1.5,1,.8,1.3,1.5c.3.7.4,1.6.4,2.6v6.8h-1.6v-6.7c0-.8-.1-1.4-.3-1.8s-.5-.8-.9-1.1c-.4-.2-.9-.3-1.5-.3-.5,0-.9,0-1.4.2-.4.2-.8.4-1.1.7-.3.3-.5.6-.7,1-.2.4-.3.8-.3,1.2v6.8h-1.1c-.1,0-.3,0-.5,0Z"/>
    <path class="cls-1" d="M227.7,182c-1,0-1.9-.2-2.7-.8s-1.5-1.2-1.9-2.1-.7-1.9-.7-3,.2-2.1.7-3,1.1-1.6,1.9-2.1,1.7-.8,2.7-.8,1.1,0,1.6.3,1,.4,1.4.7.8.7,1,1.1.4.8.5,1.2l-.5-.2v-7.6h1.6v15.9h-1.6v-2.8s.4-.1.4-.1c0,.4-.2.8-.5,1.2s-.6.7-1,1-.9.5-1.4.7-1,.3-1.6.3ZM227.9,180.5c.8,0,1.4-.2,2-.6s1-.9,1.4-1.6c.3-.7.5-1.4.5-2.3s-.2-1.6-.5-2.2-.8-1.2-1.4-1.6-1.2-.6-2-.6-1.5.2-2,.6-1,.9-1.4,1.6-.5,1.4-.5,2.2.2,1.6.5,2.2.8,1.2,1.4,1.6,1.3.6,2,.6Z"/>
  </g>
  <g>
    <path class="cls-2" d="M90.5,121.3c-3.6,0-6.9-.6-9.8-1.8-3-1.2-5.5-2.9-7.7-5.1-2.1-2.1-3.7-4.7-4.9-7.7-1.2-3-1.8-6.2-1.8-9.7s.6-6.7,1.8-9.7c1.2-3,2.8-5.5,4.9-7.7,2.1-2.1,4.7-3.8,7.7-5.1s6.2-1.8,9.8-1.8,7,.6,10,1.8c3,1.2,5.6,2.9,7.7,5.1,2.1,2.1,3.7,4.7,4.9,7.7,1.1,3,1.7,6.2,1.7,9.7s-.6,6.7-1.7,9.7-2.8,5.6-4.9,7.7c-2.1,2.2-4.6,3.9-7.6,5.1-3,1.2-6.3,1.9-9.9,1.9ZM90.6,113.6c3.1,0,5.8-.7,8-2s3.9-3.3,5.1-5.8c1.2-2.5,1.7-5.5,1.7-8.9s-.6-6.3-1.8-8.8-2.9-4.4-5.1-5.8c-2.2-1.4-4.9-2.1-8-2.1s-5.8.7-8,2.1-3.9,3.3-5.1,5.8c-1.2,2.5-1.8,5.4-1.8,8.8s.6,6.3,1.8,8.9c1.2,2.5,2.9,4.5,5.1,5.8,2.2,1.4,4.9,2,8,2Z"/>
    <path class="cls-2" d="M128.3,73.1l-.9,6.7-3.8-.8c-.6-.1-1.1-.4-1.4-.7s-.5-.8-.5-1.4v-3.8h6.5ZM121.8,120.7v-3.8c0-.6.2-1.1.5-1.4s.8-.5,1.4-.7l3.8-.8.9,6.6h-6.5ZM126.7,120.7v-47.6h18.2c3.6,0,6.9.6,9.9,1.8,3,1.2,5.6,2.8,7.7,4.9,2.1,2.1,3.8,4.7,4.9,7.6,1.1,2.9,1.7,6.1,1.7,9.6s-.6,6.7-1.7,9.6-2.8,5.4-4.9,7.5c-2.1,2.1-4.7,3.8-7.7,4.9s-6.3,1.8-9.9,1.8h-18.2ZM135.8,113.6h9.1c3.2,0,5.8-.7,8-2,2.2-1.4,3.9-3.3,5.1-5.8,1.2-2.5,1.8-5.5,1.8-8.9s-.6-6.3-1.8-8.8c-1.2-2.5-2.9-4.4-5.1-5.8-2.2-1.4-4.9-2.1-8-2.1h-9.1v33.4Z"/>
    <path class="cls-2" d="M182.7,73.1l-.9,6.7-3.8-.8c-.6-.1-1.1-.4-1.4-.7s-.5-.8-.5-1.4v-3.8h6.5ZM176.1,120.7v-3.8c0-.6.2-1.1.5-1.4s.8-.5,1.4-.7l3.8-.8.9,6.6h-6.5ZM181,120.7v-47.6h6.9c.8,0,1.4,0,1.8.2s.8.6,1.2,1.2l14.1,26.4c.4.7.7,1.4,1,2.2.3.8.6,1.5.9,2.3.3-.7.6-1.4,1-2.2.4-.8.7-1.6,1-2.4l13.9-26.2c.4-.7.8-1.1,1.2-1.2s1-.2,1.9-.2h6.8v47.6h-8v-30.6c0-.6,0-1.2,0-1.9,0-.6,0-1.3.1-1.9l-14.2,26.7c-.7,1.3-1.7,2-3.2,2h-1.2c-1.5,0-2.5-.7-3.2-2l-14.4-26.8c0,.7.1,1.4.2,2,0,.7,0,1.3,0,1.8v30.6h-8ZM187.7,120.7l.9-6.6,3.8.8c.6.1,1,.4,1.4.7s.5.8.5,1.4v3.8h-6.6ZM219.6,120.7v-3.8c0-.6.2-1.1.5-1.4s.8-.5,1.4-.7l3.8-.8.9,6.6h-6.5ZM237.8,73.1v3.8c0,.6-.2,1.1-.5,1.4-.4.3-.8.5-1.4.7l-3.8.8-.8-6.7h6.5ZM231.3,120.7l.8-6.6,3.8.8c.6.1,1,.4,1.4.7s.5.8.5,1.4v3.8h-6.5Z"/>
    <path class="cls-2" d="M253.1,73.1l-.9,6.7-3.8-.8c-.6-.1-1.1-.4-1.4-.7s-.5-.8-.5-1.4v-3.8h6.5ZM246.5,120.7v-3.8c0-.6.2-1.1.5-1.4s.8-.5,1.4-.7l3.8-.8.9,6.6h-6.5ZM251.4,120.7v-47.6h9.1v20.5h22v-20.5h9.1v47.6h-9.1v-20.8h-22v20.8h-9.1ZM265.5,73.1v3.8c0,.6-.2,1.1-.5,1.4s-.8.5-1.4.7l-3.8.8-.9-6.7h6.5ZM259,120.7l.9-6.6,3.8.8c.6.1,1.1.4,1.4.7s.5.8.5,1.4v3.8h-6.5ZM284.2,73.1l-.9,6.7-3.8-.8c-.6-.1-1.1-.4-1.4-.7-.3-.3-.5-.8-.5-1.4v-3.8h6.5ZM277.7,120.7v-3.8c0-.6.2-1.1.5-1.4s.8-.5,1.4-.7l3.8-.8.9,6.6h-6.5ZM296.7,73.1v3.8c0,.6-.2,1.1-.5,1.4s-.8.5-1.4.7l-3.8.8-.9-6.7h6.5ZM290.2,120.7l.9-6.6,3.8.8c.6.1,1.1.4,1.4.7s.5.8.5,1.4v3.8h-6.5Z"/>
  </g>
  <g>
    <path class="cls-1" d="M50.9,61.6c17.6-20.7,34.8-41.5,31.1-40.3-7.5,2.5-56,49.1-82,74.4,14.1-11.9,31.8-23.9,50.9-34.1"/>
    <path class="cls-1" d="M75.8,49.8c4.4-1.8,8.6-3.5,12.6-4.9,11.3-17,20.9-32.5,17.5-31.4-5,1.7-24,21.6-42.2,41.7,4-1.9,8-3.7,12-5.4"/>
    <path class="cls-1" d="M117.9,36.7c5.6-15.7,9.7-30.4,4.8-28.8-3.4,1.1-14.6,17.1-25.8,34,7.7-2.4,14.7-4.2,21.1-5.2"/>
    <path class="cls-1" d="M148.9,41.2c2.1-17.9,4-43.2-2.7-41-3.7,1.2-11.9,18.5-19.2,35.5,10.7-.7,18.4,1.2,21.9,5.5"/>
  </g>
</svg>