<svg xmlns="http://www.w3.org/2000/svg" width="264" height="85.262"><path fill="#c8102e" fill-rule="evenodd" d="M14.3 75.651c7.912 0 14.3-2.071 14.3-4.624 0-2.5-6.39-4.564-14.3-4.505-7.91 0-14.3 2.071-14.3 4.623 0 2.494 6.39 4.564 14.3 4.505Z" data-name="Path 7969"/><path fill="#c8102e" fill-rule="evenodd" d="M21.841 30.92c5.173 0 9.433-1.344 9.433-3.043 0-1.648-4.26-2.984-9.433-2.984-5.232 0-9.492 1.4-9.433 3.043 0 1.64 4.2 2.984 9.433 2.984Z" data-name="Path 7970"/><path fill="#c8102e" fill-rule="evenodd" d="M13.755 50.396c6.027 0 10.828-1.521 10.828-3.474 0-1.885-4.8-3.466-10.828-3.466-5.968 0-10.777 1.581-10.777 3.466s4.807 3.474 10.777 3.474Z" data-name="Path 7971"/><path fill="#c8102e" fill-rule="evenodd" d="M34.994 16.127c4.015 0 7.3-.913 7.3-2.071 0-1.217-3.288-2.129-7.3-2.129s-7.244.913-7.3 2.071c0 1.158 3.28 2.13 7.3 2.13Z" data-name="Path 7972"/><path fill="#c8102e" fill-rule="evenodd" d="M54.773 4.083c-3.111 0-5.6.668-5.6 1.454s2.494 1.462 5.6 1.462 5.6-.668 5.6-1.462-2.494-1.454-5.6-1.454Z" data-name="Path 7973"/><path fill="#c8102e" fill-rule="evenodd" d="M72.785 1.826c2.248.059 4.074-.363 4.074-.913 0-.482-1.826-.913-4.015-.913-2.248 0-4.074.363-4.074.913 0 .49 1.826.913 4.015.913Z" data-name="Path 7974"/><path fill="#046a38" fill-rule="evenodd" d="M86.174 37.428c0-3.9-.127-3.9-3.778-4.505v-.845h9.737c2.925 0 11.14 0 11.14 7.058 0 4.438-2.925 5.96-6.027 6.449l7.244 13.025h-4.564l-7-12.3h-2.434v12.3h-4.319V37.428Zm4.319 7.058h2.248c2.561 0 6.213-.727 6.213-5.105 0-4.26-2.493-5.477-5.782-5.477-2.679 0-2.679.727-2.679 3.584v7Z" data-name="Path 7975"/><path fill="#046a38" fill-rule="evenodd" d="M106.739 49.422c0-6.576 2.739-9.56 8.52-9.56 5.722 0 8.52 3.9 8.52 9.56 0 6.45-2.671 9.611-8.52 9.611-6.39 0-8.52-4.073-8.52-9.611Zm8.52 8.275c3.9 0 4.2-4.318 4.2-8.275 0-3.592-.363-8.216-4.2-8.216-3.888 0-4.192 4.743-4.192 8.216 0 3.28.3 8.275 4.192 8.275Z" data-name="Path 7976"/><path fill="#046a38" fill-rule="evenodd" d="M126.822 49.422c0-6.576 2.806-9.56 8.521-9.56s8.52 3.9 8.52 9.56c0 6.45-2.671 9.611-8.52 9.611-6.323 0-8.521-4.073-8.521-9.611Zm8.521 8.275c3.837 0 4.2-4.318 4.2-8.275 0-3.592-.363-8.216-4.2-8.216-3.889 0-4.133 4.743-4.133 8.216 0 3.28.245 8.275 4.133 8.275Z" data-name="Path 7977"/><path fill="#046a38" fill-rule="evenodd" d="M158.351 43.454a8.515 8.515 0 0 0-4.683-1.885c-1.285 0-2.805.423-2.805 2.13 0 3.77 8.646 3.83 8.646 9.915 0 3.837-3.17 5.418-7.126 5.418a19.142 19.142 0 0 1-5.046-.668v-3.1a9.634 9.634 0 0 0 5.231 2.071c2.494 0 3.406-1.285 3.406-2.679 0-3.837-8.639-4.083-8.639-9.56 0-2.858 1.884-5.233 6.568-5.233a17.19 17.19 0 0 1 4.446.668v2.925Z" data-name="Path 7978"/><path fill="#046a38" fill-rule="evenodd" d="M177.58 58.002a16.684 16.684 0 0 1-5.536 1.031c-6.086 0-9.737-3.651-9.737-10.287 0-6.2 3.043-8.884 8.333-8.884 6.762 0 7.3 4.81 7.3 7.49h-11.254c0 3.956 1.648 9.551 7.185 9.551a9.834 9.834 0 0 0 3.711-.668v1.767Zm-3.594-12.231c0-.913-.058-4.565-3.525-4.565-2.925 0-3.778 3.043-3.778 4.565Z" data-name="Path 7979"/><path fill="#046a38" fill-rule="evenodd" d="M182.272 45.339c0-2.739-.677-3.347-3.17-3.406v-.8l7.126-1.276v5h.059c.609-1.4 2.679-5 6.635-5 3.584 0 4.742 2.434 4.742 5.477v13.275h-3.953V48.381c0-3.1 0-5.9-2.612-5.9s-4.869 3.652-4.869 6.508v9.619h-3.959v-13.27Z" data-name="Path 7980"/><path fill="#046a38" fill-rule="evenodd" d="M214.586 56.421a7.631 7.631 0 0 1-5.476 2.608c-5.115 0-7.059-4.26-7.059-9.246s2-9.924 7.236-9.924a5.493 5.493 0 0 1 5.24 2.925h.059v-6.39c0-2.865-.668-3.533-2.984-3.652v-.795l6.94-.972V58.61h-3.956v-2.189Zm0-8.156c0-2.19-.431-6.273-4.2-6.273-3.652 0-4.015 4.505-4.015 7.244 0 3.044.363 7.666 4.073 7.666 3.779 0 4.142-4.928 4.142-7v-1.637Z" data-name="Path 7981"/><path fill="#046a38" fill-rule="evenodd" d="M232.785 56.295a5.971 5.971 0 0 1-5.055 2.738c-3.1 0-5.291-2.189-5.291-4.505 0-5.6 7.844-6.018 10.346-6.085V46.38c0-2.5 0-5.174-2.5-5.174-2.553 0-2.739 2.248-2.739 3.956h-4.683c.423-2.62 1.707-5.3 7.421-5.3 5.6 0 6.458 2.8 6.458 6.754V58.61h-3.956v-2.315Zm0-6.45c-1.4.059-6.027.245-6.027 4.015 0 1.767.913 3.044 2.375 3.044 2.308 0 3.651-2.071 3.651-4.742v-2.317Z" data-name="Path 7982"/><path fill="#046a38" fill-rule="evenodd" d="M250.738 56.295a6.2 6.2 0 0 1-5.115 2.738c-3.1 0-5.3-2.189-5.3-4.505 0-5.6 7.852-6.018 10.414-6.085V46.38c0-2.5 0-5.174-2.5-5.174-2.613 0-2.8 2.248-2.8 3.956h-4.683c.423-2.62 1.767-5.3 7.421-5.3s6.517 2.8 6.517 6.754V58.61h-3.956v-2.315Zm0-6.45c-1.462.059-6.086.245-6.086 4.015 0 1.767.913 3.044 2.367 3.044 2.316 0 3.719-2.071 3.719-4.742v-2.317Z" data-name="Path 7983"/><path fill="#046a38" fill-rule="evenodd" d="M260.039 36.397c0-2.865-.668-3.533-2.984-3.652v-.795l6.94-.972V58.61h-3.956V36.397Z" data-name="Path 7984"/><path fill="#046a38" fill-rule="evenodd" d="M55.745 85.262C9.306 25.443 85.811 1.04 85.811 1.04s-80.1 22.822-37.369 84.222Z" data-name="Path 7985"/><path fill="#046a38" fill-rule="evenodd" d="M122.444 29.035a16.224 16.224 0 0 1-4.75.845c-4.624 0-6.086-2.916-6.086-7.54 0-4.2 1.344-7.126 5.968-7.126 3.161 0 4.505 1.462 4.683 3.17h-2.553a2.308 2.308 0 0 0-2.434-2.2c-2.984 0-3.288 3.592-3.288 6.331 0 3.474.854 6.39 4.142 6.39a4.877 4.877 0 0 0 2-.363v-4.257c0-1.944-.3-1.885-2.13-2.248v-.432h4.446v7.43Z" data-name="Path 7986"/><path fill="#046a38" fill-rule="evenodd" d="M133.094 29.339a9.593 9.593 0 0 1-2.984.541c-3.288 0-5.173-1.944-5.173-5.477 0-3.347 1.581-4.8 4.387-4.8 3.652 0 3.957 2.612 3.957 4.074h-6.027c0 2.071.854 5.114 3.829 5.114a6.686 6.686 0 0 0 2.012-.363v.913Zm-1.944-6.517c0-.482-.068-2.494-1.893-2.494-1.581 0-2 1.707-2 2.494Z" data-name="Path 7987"/><path fill="#046a38" fill-rule="evenodd" d="M135.411 22.577c0-1.454-.372-1.826-1.589-1.885v-.423l3.719-.668v2.553h.058c.364-.727 1.336-2.553 3.221-2.553a2.546 2.546 0 0 1 2.62 2.367c.49-.786 1.276-2.367 3.161-2.367 2.679 0 2.679 2.494 2.679 3.956v6.145h-2.129v-5.781c0-1.344 0-2.865-1.394-2.865-1.589 0-2.375 2.2-2.375 3.719v4.928h-2.071v-5.477c0-1.707 0-3.17-1.461-3.17s-2.375 1.953-2.375 3.474v5.173h-2.062v-7.126Z" data-name="Path 7988"/><path fill="#046a38" fill-rule="evenodd" d="M159.628 29.339a9.6 9.6 0 0 1-2.984.541c-3.22 0-5.173-1.944-5.173-5.477 0-3.347 1.589-4.8 4.446-4.8 3.592 0 3.9 2.612 3.9 4.074h-6.027c0 2.071.854 5.114 3.837 5.114a6.253 6.253 0 0 0 2-.363v.913Zm-1.945-6.517c0-.482-.058-2.494-1.884-2.494-1.589 0-2.012 1.707-2.012 2.494Z" data-name="Path 7989"/><path fill="#046a38" fill-rule="evenodd" d="M169.188 29.339a9.651 9.651 0 0 1-2.984.541c-3.228 0-5.173-1.944-5.173-5.477 0-3.347 1.581-4.8 4.438-4.8 3.592 0 3.9 2.612 3.9 4.074h-6.027c0 2.071.854 5.114 3.837 5.114a6.363 6.363 0 0 0 2.012-.363v.913Zm-1.953-6.517c0-.482 0-2.494-1.886-2.494-1.581 0-2.012 1.707-2.012 2.494h3.9Z" data-name="Path 7990"/><path fill="#046a38" fill-rule="evenodd" d="M171.683 22.577c0-1.454-.363-1.826-1.708-1.885v-.423l3.837-.668v2.739c.3-.735 1.462-2.739 3.525-2.739 1.953 0 2.561 1.395 2.561 2.975v7.126h-2.071v-5.476c0-1.707 0-3.17-1.461-3.17-1.395 0-2.553 1.953-2.553 3.474v5.173h-2.13v-7.126Z" data-name="Path 7991"/><path fill="#046a38" fill-rule="evenodd" d="M188.11 29.761a12.21 12.21 0 0 1-1.4.118c-2.071 0-3.221-.3-3.221-2.671v-6.517h-1.649v-.854h1.648v-1.64l2.131-1.885v3.525h2.738v.854h-2.738v6.145c0 1.462.058 2.13 1.7 2.13a3.589 3.589 0 0 0 .794-.059v.854Z" data-name="Path 7992"/><path fill="#046a38" fill-rule="evenodd" d="M197.487 29.339a9.262 9.262 0 0 1-2.984.541c-3.229 0-5.173-1.944-5.173-5.477 0-3.347 1.639-4.8 4.438-4.8 3.652 0 3.9 2.612 3.9 4.074h-5.96c0 2.071.845 5.114 3.829 5.114a6.3 6.3 0 0 0 1.953-.363v.913Zm-1.893-6.517c0-.482-.059-2.494-1.885-2.494-1.581 0-2 1.707-2 2.494h3.889Z" data-name="Path 7993"/></svg>
