<svg id="Laag_1" data-name="Laag 1" xmlns="http://www.w3.org/2000/svg" viewBox="0 0 209.42 188.93"><defs><style>.cls-1{fill:#7c7c7b;}.cls-2{fill:#004a93;}</style></defs><path class="cls-1" d="M86.29,55.93V73.09a2,2,0,0,0,4,0V55.93a2,2,0,1,0-4,0Z"/><path class="cls-1" d="M109.33,41.76V62.88a2,2,0,0,0,4,0V41.76a2,2,0,0,0-4,0Z"/><path class="cls-1" d="M125.52,41.76V62.88a2,2,0,1,0,4,0V41.76a2,2,0,0,0-4,0Z"/><path class="cls-1" d="M62.7,87.45v17.17a2,2,0,0,0,4,0V87.45a2,2,0,0,0-4,0Z"/><path class="cls-1" d="M56.77,103.46v16a2,2,0,0,0,4,0v-16a2,2,0,0,0-4,0Z"/><path class="cls-1" d="M95.12,55.93V73.09a2,2,0,0,0,4,0V55.93a2,2,0,0,0-4,0Z"/><path class="cls-1" d="M103,79.35v40.28a2,2,0,0,0,4,0V79.35a2,2,0,0,0-4,0Z"/><path class="cls-1" d="M138.6,81.56v38.05a2,2,0,0,0,4,0v-38a2,2,0,0,0-4,0Z"/><path class="cls-1" d="M86.32,51.25a2,2,0,0,0,4,0c0-1.71,1.09-3.16,2.38-3.16s2.37,1.45,2.37,3.16a2,2,0,0,0,4,0c0-4-2.86-7.16-6.37-7.16S86.32,47.3,86.32,51.25Z"/><path class="cls-1" d="M110.57,31.87a2,2,0,1,0,4,0c0-7.95,2.8-13.23,4.66-13.23s4.65,5.28,4.65,13.23a2,2,0,1,0,4,0c0-9.82-3.72-17.23-8.65-17.23S110.57,22.05,110.57,31.87Z"/><path class="cls-1" d="M85.69,97.41a2,2,0,0,0,2-1.74,1.89,1.89,0,0,0,.08-.53V78a2,2,0,0,0-4,0V93.8a6.66,6.66,0,0,0,0,12v13.86a2,2,0,0,0,4,0v-15a1.76,1.76,0,0,0-.06-.46s0,0,0,0a2,2,0,0,0-2-2c-.94,0-1.72-1.09-1.72-2.39S84.75,97.41,85.69,97.41Z"/><path class="cls-1" d="M62.43,77.72a2,2,0,1,0,4,0,3.48,3.48,0,0,1,6.93,0,2,2,0,0,0,4,0,7.47,7.47,0,0,0-14.93,0Z"/><path class="cls-1" d="M109.17,34.79a2,2,0,0,0,0,4H130a2,2,0,0,0,0-4Z"/><path class="cls-1" d="M90.78,37.26V41.4a2,2,0,1,0,4,0V37.26a2,2,0,1,0-4,0Z"/><path class="cls-1" d="M67.67,57.79v4.14a2,2,0,0,0,4,0V57.79a2,2,0,0,0-4,0Z"/><path class="cls-1" d="M61.39,80.8a2,2,0,0,0,0,4H78.6a2,2,0,0,0,0-4Z"/><path class="cls-1" d="M108.15,66.24,104,73.66a2,2,0,0,0,3.49,2l4.14-7.42a2,2,0,1,0-3.49-2Z"/><path class="cls-1" d="M147.53,20.3a2,2,0,0,0-2,1.76L139,76.43a2,2,0,1,0,4,.48s2.66-22.15,4.59-38.13c2,16,4.75,38.29,4.75,38.29a2,2,0,0,0,4-.49l-6.77-54.53A2,2,0,0,0,147.53,20.3Z"/><path class="cls-1" d="M128.5,65.47a2,2,0,0,0-.77,2.72l4.14,7.42a2,2,0,1,0,3.49-2l-4.13-7.42A2,2,0,0,0,128.5,65.47Z"/><path class="cls-1" d="M145.57,11.79V17.6a2,2,0,0,0,4,0V11.79a2,2,0,1,0-4,0Z"/><path class="cls-1" d="M164.31,55.09l-11.12,50.09a2,2,0,0,0,3.91.87l9.13-41.18,8.84,40.86a2,2,0,0,0,3.91-.84L168.21,55.1a2,2,0,0,0-3.9,0Z"/><path class="cls-1" d="M155.82,110.24v9.37a2,2,0,1,0,4,0v-9.37a2,2,0,0,0-4,0Z"/><path class="cls-1" d="M172.7,110.24v9.37a2,2,0,1,0,4,0v-9.37a2,2,0,0,0-4,0Z"/><path class="cls-1" d="M115,0a3.19,3.19,0,0,0-2.2,1.45.81.81,0,0,0,1,1.18c1.07-.44,1.94.74,3.83,3.75l.21.34a1.77,1.77,0,0,0,1.64,1c1.61-.13,2.9-2.86,3.26-3.69a.82.82,0,0,0-.29-1,.8.8,0,0,0-1,.09,1.14,1.14,0,0,1-.83.43c-.8,0-1.91-1.18-3.09-2.41A3.06,3.06,0,0,0,115,0Z"/><path class="cls-1" d="M72,67.12a2.3,2.3,0,1,1-2.3-2.3A2.3,2.3,0,0,1,72,67.12Z"/><path class="cls-1" d="M168.49,50a2.3,2.3,0,1,1-2.29-2.29A2.29,2.29,0,0,1,168.49,50Z"/><path class="cls-1" d="M121.46,11.1a2.3,2.3,0,1,1-2.29-2.29A2.29,2.29,0,0,1,121.46,11.1Z"/><path class="cls-2" d="M44.7,126.62,10.13,176.07H31.7c3.31,0,5.84-.72,7.62-2.18s3.34-4.38,4.71-8.81l1.28.23-2.48,14H0v-1.45l33.75-48.1H16.89a14.86,14.86,0,0,0-6.08.91,6.33,6.33,0,0,0-2.87,2.63,21.7,21.7,0,0,0-1.81,6.46H4.65l1.14-13.11Z"/><path class="cls-2" d="M68.3,139.83v17a40.28,40.28,0,0,0,.23,5.86,2.63,2.63,0,0,0,.73,1.49,1.8,1.8,0,0,0,1.18.43,5.63,5.63,0,0,0,2.16-.52l.43,1.14-8.41,3.42H63.24v-5.85a24.93,24.93,0,0,1-5.5,4.86,8.48,8.48,0,0,1-4,1,6.37,6.37,0,0,1-4.08-1.36,7,7,0,0,1-2.4-3.49,21.18,21.18,0,0,1-.67-6.06V145.3a6.12,6.12,0,0,0-.43-2.76,2.75,2.75,0,0,0-1.27-1.18,7.3,7.3,0,0,0-3-.39v-1.14h9.79v18.82q0,3.93,1.36,5.16A4.74,4.74,0,0,0,56.3,165a6.82,6.82,0,0,0,3-.82,16.32,16.32,0,0,0,4-3.17V145.13a4.51,4.51,0,0,0-.89-3.25c-.59-.56-1.81-.87-3.68-.91v-1.14Z"/><path class="cls-2" d="M83.22,130.61v9.22h6.55V142H83.22v18.21c0,1.82.26,3.05.78,3.68a2.47,2.47,0,0,0,2,.95,3.54,3.54,0,0,0,2-.62,3.94,3.94,0,0,0,1.47-1.83h1.22a9.51,9.51,0,0,1-3,4.52,6.57,6.57,0,0,1-4,1.52,5.46,5.46,0,0,1-2.76-.78,4.75,4.75,0,0,1-2-2.25,11.75,11.75,0,0,1-.64-4.49V142H73.76v-1a11.33,11.33,0,0,0,3.42-2.27,18.48,18.48,0,0,0,3.12-3.81,34.53,34.53,0,0,0,1.94-4.26Z"/><path class="cls-2" d="M130.72,124.33v20.5a23.41,23.41,0,0,1,5.4-4.76,8.52,8.52,0,0,1,4-1.06,6.57,6.57,0,0,1,4.12,1.32,7.79,7.79,0,0,1,2.55,4.13,29.63,29.63,0,0,1,.58,7.16v9.91a10.18,10.18,0,0,0,.43,3.63,2.38,2.38,0,0,0,1,1.16,5.94,5.94,0,0,0,2.69.43v1.14H137.74v-1.14h.64a4.66,4.66,0,0,0,2.75-.6,3.17,3.17,0,0,0,1.08-1.75,24.8,24.8,0,0,0,.09-2.87V151.6a23.51,23.51,0,0,0-.48-6,4,4,0,0,0-1.52-2.17,4.43,4.43,0,0,0-2.53-.72,7.2,7.2,0,0,0-3.14.8,15.19,15.19,0,0,0-3.91,3.22v14.83a11.2,11.2,0,0,0,.33,3.57,2.52,2.52,0,0,0,1.2,1.17,6.87,6.87,0,0,0,3,.48v1.14H121.34v-1.14a6.42,6.42,0,0,0,3-.58,2.18,2.18,0,0,0,1-1.16,10.35,10.35,0,0,0,.37-3.48V136.16a40.48,40.48,0,0,0-.23-5.86,2.62,2.62,0,0,0-.7-1.49,1.91,1.91,0,0,0-1.28-.4,7.84,7.84,0,0,0-2.09.49l-.42-1.14,8.37-3.43Z"/><path class="cls-2" d="M159.58,143.18a6.39,6.39,0,0,1,4.57-2,5.84,5.84,0,0,1,3.19,1,6.06,6.06,0,0,1,2.29,2.68,11.61,11.61,0,0,1,.65,3.77H157.23A8.46,8.46,0,0,1,159.58,143.18Zm17.06,7.25a11.39,11.39,0,0,0-3-8.31,10.36,10.36,0,0,0-7.75-3.11,12,12,0,0,0-9.26,4q-3.69,4-3.69,11.2,0,6.63,3.59,10.55a11.33,11.33,0,0,0,8.66,3.92,10,10,0,0,0,7.75-3.44,14.58,14.58,0,0,0,3.73-7.69l-1-.61a11,11,0,0,1-3.41,5.2,7.93,7.93,0,0,1-4.79,1.49,9.26,9.26,0,0,1-7.2-3.52q-3.06-3.51-3-9.7Z"/><path class="cls-2" d="M188.46,144.87q4.92-5.85,9.39-5.86a6.76,6.76,0,0,1,3.94,1.15,7.72,7.72,0,0,1,2.63,3.78,17.39,17.39,0,0,1,.68,5.63v12a9.91,9.91,0,0,0,.43,3.6,2.51,2.51,0,0,0,1.09,1.19,6.38,6.38,0,0,0,2.8.43v1.14H195.47v-1.14h.59a4.73,4.73,0,0,0,2.76-.6,3.14,3.14,0,0,0,1.1-1.75,18.27,18.27,0,0,0,.12-2.87V150a11.81,11.81,0,0,0-1-5.58,3.55,3.55,0,0,0-3.35-1.74c-2.43,0-4.84,1.34-7.24,4v14.85a10.73,10.73,0,0,0,.33,3.51,2.85,2.85,0,0,0,1.19,1.3,7.34,7.34,0,0,0,3,.41v1.14H179.24v-1.14h.6a3.18,3.18,0,0,0,2.83-1.09c.49-.72.73-2.1.73-4.13V151.17a45.73,45.73,0,0,0-.23-6.15,2.59,2.59,0,0,0-.71-1.5,2,2,0,0,0-1.27-.4,6.05,6.05,0,0,0-2.06.46l-.46-1.14,8.47-3.43h1.32Z"/><path class="cls-2" d="M162.15,186.56c-20.76,1-26.91-2.08-37.5-4.22a151.81,151.81,0,0,0-21.86-2.87,2.5,2.5,0,0,1-.92-1.05,11.7,11.7,0,0,1-.35-3.68v-8.56a9,9,0,0,0,2.76,1.87,10.56,10.56,0,0,0,3.92.65,11,11,0,0,0,8.65-3.88,17.52,17.52,0,0,0,4.17-12q0-6.5-3.47-10.52a8.9,8.9,0,0,0-7-3.31,8.16,8.16,0,0,0-4.61,1.48,15.75,15.75,0,0,0-4.37,5.16v-6.47h-1.16l-8.63,3.42.37,1a5.72,5.72,0,0,1,1.88-.42,2.61,2.61,0,0,1,1.46.36,2.11,2.11,0,0,1,.78,1.1,14.45,14.45,0,0,1,.25,3.45v26.51a12.7,12.7,0,0,1-.33,3.81,2.4,2.4,0,0,1-.62.85c-2.72,0-5.57,0-8.53.16-18.54.86-43,7.4-43.2,7.47.24-.07,25-4.51,43.29-5.36,15.44-.71,27.54,1.87,37.1,3.8,10.74,2.17,16,4.38,38.07,3.36,21.31-1,39.42-9.34,40-9.57C202.13,179.16,186.92,185.41,162.15,186.56Zm-60.63-39.11a17.25,17.25,0,0,1,3.65-3.3,6.45,6.45,0,0,1,2.9-.73,5.85,5.85,0,0,1,4.66,2.38c1.88,2.3,2.82,5.6,2.82,9.87,0,3.77-.83,6.7-2.48,8.77a6.05,6.05,0,0,1-5,2.39,6.51,6.51,0,0,1-4.22-1.35,5.65,5.65,0,0,1-2.09-3.11,22.64,22.64,0,0,1-.28-4.47Z"/></svg>