<?xml version='1.0' encoding='UTF-8'?>
<svg width="37mm" height="37mm" version="1.1" viewBox="0 0 37 37" xmlns="http://www.w3.org/2000/svg"><path d="M2,2H3V3H2zM3,2H4V3H3zM4,2H5V3H4zM5,2H6V3H5zM6,2H7V3H6zM7,2H8V3H7zM8,2H9V3H8zM13,2H14V3H13zM16,2H17V3H16zM17,2H18V3H17zM20,2H21V3H20zM21,2H22V3H21zM24,2H25V3H24zM25,2H26V3H25zM28,2H29V3H28zM29,2H30V3H29zM30,2H31V3H30zM31,2H32V3H31zM32,2H33V3H32zM33,2H34V3H33zM34,2H35V3H34zM2,3H3V4H2zM8,3H9V4H8zM13,3H14V4H13zM14,3H15V4H14zM17,3H18V4H17zM18,3H19V4H18zM19,3H20V4H19zM24,3H25V4H24zM25,3H26V4H25zM28,3H29V4H28zM34,3H35V4H34zM2,4H3V5H2zM4,4H5V5H4zM5,4H6V5H5zM6,4H7V5H6zM8,4H9V5H8zM11,4H12V5H11zM14,4H15V5H14zM16,4H17V5H16zM18,4H19V5H18zM19,4H20V5H19zM21,4H22V5H21zM22,4H23V5H22zM24,4H25V5H24zM25,4H26V5H25zM28,4H29V5H28zM30,4H31V5H30zM31,4H32V5H31zM32,4H33V5H32zM34,4H35V5H34zM2,5H3V6H2zM4,5H5V6H4zM5,5H6V6H5zM6,5H7V6H6zM8,5H9V6H8zM11,5H12V6H11zM14,5H15V6H14zM15,5H16V6H15zM17,5H18V6H17zM19,5H20V6H19zM24,5H25V6H24zM28,5H29V6H28zM30,5H31V6H30zM31,5H32V6H31zM32,5H33V6H32zM34,5H35V6H34zM2,6H3V7H2zM4,6H5V7H4zM5,6H6V7H5zM6,6H7V7H6zM8,6H9V7H8zM12,6H13V7H12zM13,6H14V7H13zM15,6H16V7H15zM18,6H19V7H18zM21,6H22V7H21zM23,6H24V7H23zM24,6H25V7H24zM25,6H26V7H25zM28,6H29V7H28zM30,6H31V7H30zM31,6H32V7H31zM32,6H33V7H32zM34,6H35V7H34zM2,7H3V8H2zM8,7H9V8H8zM10,7H11V8H10zM11,7H12V8H11zM12,7H13V8H12zM13,7H14V8H13zM15,7H16V8H15zM16,7H17V8H16zM19,7H20V8H19zM22,7H23V8H22zM23,7H24V8H23zM26,7H27V8H26zM28,7H29V8H28zM34,7H35V8H34zM2,8H3V9H2zM3,8H4V9H3zM4,8H5V9H4zM5,8H6V9H5zM6,8H7V9H6zM7,8H8V9H7zM8,8H9V9H8zM10,8H11V9H10zM12,8H13V9H12zM14,8H15V9H14zM16,8H17V9H16zM18,8H19V9H18zM20,8H21V9H20zM22,8H23V9H22zM24,8H25V9H24zM26,8H27V9H26zM28,8H29V9H28zM29,8H30V9H29zM30,8H31V9H30zM31,8H32V9H31zM32,8H33V9H32zM33,8H34V9H33zM34,8H35V9H34zM16,9H17V10H16zM19,9H20V10H19zM20,9H21V10H20zM21,9H22V10H21zM22,9H23V10H22zM23,9H24V10H23zM25,9H26V10H25zM26,9H27V10H26zM2,10H3V11H2zM5,10H6V11H5zM7,10H8V11H7zM8,10H9V11H8zM10,10H11V11H10zM11,10H12V11H11zM13,10H14V11H13zM15,10H16V11H15zM16,10H17V11H16zM17,10H18V11H17zM21,10H22V11H21zM23,10H24V11H23zM26,10H27V11H26zM27,10H28V11H27zM29,10H30V11H29zM4,11H5V12H4zM5,11H6V12H5zM7,11H8V12H7zM10,11H11V12H10zM11,11H12V12H11zM13,11H14V12H13zM14,11H15V12H14zM18,11H19V12H18zM23,11H24V12H23zM26,11H27V12H26zM27,11H28V12H27zM28,11H29V12H28zM29,11H30V12H29zM33,11H34V12H33zM34,11H35V12H34zM3,12H4V13H3zM6,12H7V13H6zM8,12H9V13H8zM9,12H10V13H9zM18,12H19V13H18zM19,12H20V13H19zM21,12H22V13H21zM22,12H23V13H22zM23,12H24V13H23zM24,12H25V13H24zM26,12H27V13H26zM27,12H28V13H27zM28,12H29V13H28zM29,12H30V13H29zM30,12H31V13H30zM32,12H33V13H32zM34,12H35V13H34zM5,13H6V14H5zM6,13H7V14H6zM7,13H8V14H7zM9,13H10V14H9zM13,13H14V14H13zM14,13H15V14H14zM16,13H17V14H16zM17,13H18V14H17zM18,13H19V14H18zM19,13H20V14H19zM23,13H24V14H23zM25,13H26V14H25zM26,13H27V14H26zM30,13H31V14H30zM31,13H32V14H31zM2,14H3V15H2zM4,14H5V15H4zM8,14H9V15H8zM10,14H11V15H10zM11,14H12V15H11zM13,14H14V15H13zM17,14H18V15H17zM21,14H22V15H21zM23,14H24V15H23zM24,14H25V15H24zM25,14H26V15H25zM26,14H27V15H26zM27,14H28V15H27zM28,14H29V15H28zM31,14H32V15H31zM33,14H34V15H33zM4,15H5V16H4zM5,15H6V16H5zM7,15H8V16H7zM9,15H10V16H9zM11,15H12V16H11zM12,15H13V16H12zM14,15H15V16H14zM15,15H16V16H15zM17,15H18V16H17zM18,15H19V16H18zM24,15H25V16H24zM27,15H28V16H27zM28,15H29V16H28zM30,15H31V16H30zM31,15H32V16H31zM33,15H34V16H33zM34,15H35V16H34zM2,16H3V17H2zM4,16H5V17H4zM5,16H6V17H5zM6,16H7V17H6zM7,16H8V17H7zM8,16H9V17H8zM9,16H10V17H9zM10,16H11V17H10zM12,16H13V17H12zM16,16H17V17H16zM22,16H23V17H22zM23,16H24V17H23zM25,16H26V17H25zM26,16H27V17H26zM27,16H28V17H27zM28,16H29V17H28zM29,16H30V17H29zM30,16H31V17H30zM33,16H34V17H33zM3,17H4V18H3zM7,17H8V18H7zM10,17H11V18H10zM11,17H12V18H11zM13,17H14V18H13zM17,17H18V18H17zM19,17H20V18H19zM20,17H21V18H20zM21,17H22V18H21zM23,17H24V18H23zM26,17H27V18H26zM28,17H29V18H28zM33,17H34V18H33zM4,18H5V19H4zM6,18H7V19H6zM8,18H9V19H8zM9,18H10V19H9zM10,18H11V19H10zM13,18H14V19H13zM19,18H20V19H19zM21,18H22V19H21zM22,18H23V19H22zM23,18H24V19H23zM24,18H25V19H24zM25,18H26V19H25zM26,18H27V19H26zM28,18H29V19H28zM30,18H31V19H30zM33,18H34V19H33zM2,19H3V20H2zM3,19H4V20H3zM5,19H6V20H5zM10,19H11V20H10zM14,19H15V20H14zM15,19H16V20H15zM16,19H17V20H16zM18,19H19V20H18zM25,19H26V20H25zM29,19H30V20H29zM31,19H32V20H31zM33,19H34V20H33zM2,20H3V21H2zM5,20H6V21H5zM6,20H7V21H6zM7,20H8V21H7zM8,20H9V21H8zM11,20H12V21H11zM12,20H13V21H12zM13,20H14V21H13zM16,20H17V21H16zM20,20H21V21H20zM23,20H24V21H23zM27,20H28V21H27zM28,20H29V21H28zM32,20H33V21H32zM34,20H35V21H34zM2,21H3V22H2zM3,21H4V22H3zM4,21H5V22H4zM5,21H6V22H5zM6,21H7V22H6zM9,21H10V22H9zM13,21H14V22H13zM16,21H17V22H16zM19,21H20V22H19zM20,21H21V22H20zM23,21H24V22H23zM26,21H27V22H26zM29,21H30V22H29zM33,21H34V22H33zM3,22H4V23H3zM4,22H5V23H4zM5,22H6V23H5zM6,22H7V23H6zM7,22H8V23H7zM8,22H9V23H8zM9,22H10V23H9zM11,22H12V23H11zM17,22H18V23H17zM18,22H19V23H18zM19,22H20V23H19zM20,22H21V23H20zM21,22H22V23H21zM24,22H25V23H24zM25,22H26V23H25zM26,22H27V23H26zM27,22H28V23H27zM29,22H30V23H29zM34,22H35V23H34zM3,23H4V24H3zM5,23H6V24H5zM9,23H10V24H9zM12,23H13V24H12zM13,23H14V24H13zM15,23H16V24H15zM16,23H17V24H16zM17,23H18V24H17zM18,23H19V24H18zM20,23H21V24H20zM21,23H22V24H21zM22,23H23V24H22zM26,23H27V24H26zM27,23H28V24H27zM28,23H29V24H28zM32,23H33V24H32zM33,23H34V24H33zM34,23H35V24H34zM2,24H3V25H2zM3,24H4V25H3zM8,24H9V25H8zM9,24H10V25H9zM11,24H12V25H11zM15,24H16V25H15zM17,24H18V25H17zM22,24H23V25H22zM23,24H24V25H23zM28,24H29V25H28zM31,24H32V25H31zM34,24H35V25H34zM3,25H4V26H3zM4,25H5V26H4zM5,25H6V26H5zM6,25H7V26H6zM9,25H10V26H9zM10,25H11V26H10zM11,25H12V26H11zM16,25H17V26H16zM18,25H19V26H18zM20,25H21V26H20zM23,25H24V26H23zM24,25H25V26H24zM25,25H26V26H25zM26,25H27V26H26zM31,25H32V26H31zM2,26H3V27H2zM4,26H5V27H4zM6,26H7V27H6zM8,26H9V27H8zM9,26H10V27H9zM10,26H11V27H10zM11,26H12V27H11zM12,26H13V27H12zM13,26H14V27H13zM15,26H16V27H15zM16,26H17V27H16zM17,26H18V27H17zM18,26H19V27H18zM19,26H20V27H19zM20,26H21V27H20zM21,26H22V27H21zM22,26H23V27H22zM23,26H24V27H23zM25,26H26V27H25zM26,26H27V27H26zM27,26H28V27H27zM28,26H29V27H28zM29,26H30V27H29zM30,26H31V27H30zM33,26H34V27H33zM10,27H11V28H10zM13,27H14V28H13zM14,27H15V28H14zM21,27H22V28H21zM22,27H23V28H22zM24,27H25V28H24zM26,27H27V28H26zM30,27H31V28H30zM31,27H32V28H31zM33,27H34V28H33zM34,27H35V28H34zM2,28H3V29H2zM3,28H4V29H3zM4,28H5V29H4zM5,28H6V29H5zM6,28H7V29H6zM7,28H8V29H7zM8,28H9V29H8zM11,28H12V29H11zM12,28H13V29H12zM14,28H15V29H14zM15,28H16V29H15zM16,28H17V29H16zM23,28H24V29H23zM26,28H27V29H26zM28,28H29V29H28zM30,28H31V29H30zM31,28H32V29H31zM32,28H33V29H32zM33,28H34V29H33zM2,29H3V30H2zM8,29H9V30H8zM10,29H11V30H10zM11,29H12V30H11zM15,29H16V30H15zM21,29H22V30H21zM22,29H23V30H22zM26,29H27V30H26zM30,29H31V30H30zM33,29H34V30H33zM34,29H35V30H34zM2,30H3V31H2zM4,30H5V31H4zM5,30H6V31H5zM6,30H7V31H6zM8,30H9V31H8zM13,30H14V31H13zM14,30H15V31H14zM15,30H16V31H15zM16,30H17V31H16zM18,30H19V31H18zM21,30H22V31H21zM24,30H25V31H24zM26,30H27V31H26zM27,30H28V31H27zM28,30H29V31H28zM29,30H30V31H29zM30,30H31V31H30zM31,30H32V31H31zM2,31H3V32H2zM4,31H5V32H4zM5,31H6V32H5zM6,31H7V32H6zM8,31H9V32H8zM10,31H11V32H10zM11,31H12V32H11zM12,31H13V32H12zM16,31H17V32H16zM17,31H18V32H17zM19,31H20V32H19zM21,31H22V32H21zM22,31H23V32H22zM23,31H24V32H23zM25,31H26V32H25zM26,31H27V32H26zM28,31H29V32H28zM30,31H31V32H30zM31,31H32V32H31zM32,31H33V32H32zM33,31H34V32H33zM2,32H3V33H2zM4,32H5V33H4zM5,32H6V33H5zM6,32H7V33H6zM8,32H9V33H8zM11,32H12V33H11zM12,32H13V33H12zM16,32H17V33H16zM19,32H20V33H19zM25,32H26V33H25zM26,32H27V33H26zM27,32H28V33H27zM30,32H31V33H30zM34,32H35V33H34zM2,33H3V34H2zM8,33H9V34H8zM12,33H13V34H12zM14,33H15V34H14zM15,33H16V34H15zM17,33H18V34H17zM18,33H19V34H18zM19,33H20V34H19zM20,33H21V34H20zM23,33H24V34H23zM25,33H26V34H25zM26,33H27V34H26zM28,33H29V34H28zM2,34H3V35H2zM3,34H4V35H3zM4,34H5V35H4zM5,34H6V35H5zM6,34H7V35H6zM7,34H8V35H7zM8,34H9V35H8zM10,34H11V35H10zM11,34H12V35H11zM13,34H14V35H13zM18,34H19V35H18zM23,34H24V35H23zM26,34H27V35H26zM27,34H28V35H27zM30,34H31V35H30zM31,34H32V35H31zM33,34H34V35H33z" id="qr-path" fill="#000000" fill-opacity="1" fill-rule="nonzero" stroke="none" /></svg>