<svg xmlns="http://www.w3.org/2000/svg" viewBox="0 0 210 297" width="210mm" height="297mm" preserveAspectRatio="xMidYMid slice" role="img" aria-label="Quotation honeycomb watermark">
  <title>Quotation watermark, smaller hexes, logo in top-right, payoff zone clear</title>
  <!-- Same R=14 grid as the invoice watermark, but drawn-R=10 so
       each hex is smaller and there's more breathing room. The
       rows behind the outcome block (y between 50 and 130) are
       skipped so the "wat je krijgt" panel sits on a clean ground.
       The top-right hex position holds the Conduction logo as a
       solid cobalt hex with the white avatar geometry inlaid. -->
  <defs>
    <polygon id="hx" points="0,-10 8.66,-5 8.66,5 0,10 -8.66,5 -8.66,-5"/>
  </defs>

  <!-- Bulk hexes: cobalt-100 outline, solid stroke. -->
  <g fill="none" stroke="#DCE3F0" stroke-width="0.4">
    <!-- Row 0 (type A, y=14) — note: top-right cx=181.87 omitted, replaced by logo cell below -->
    <use href="#hx" x="12.124"  y="14"/>
    <use href="#hx" x="36.373"  y="14"/>
    <use href="#hx" x="60.622"  y="14"/>
    <use href="#hx" x="84.871"  y="14"/>
    <use href="#hx" x="109.12"  y="14"/>
    <use href="#hx" x="133.37"  y="14"/>
    <use href="#hx" x="157.62"  y="14"/>

    <!-- Row 1 (type B, y=35) -->
    <use href="#hx" x="0"       y="35"/>
    <use href="#hx" x="24.249"  y="35"/>
    <use href="#hx" x="48.498"  y="35"/>
    <use href="#hx" x="72.747"  y="35"/>
    <use href="#hx" x="96.996"  y="35"/>
    <use href="#hx" x="121.245" y="35"/>
    <use href="#hx" x="145.494" y="35"/>
    <use href="#hx" x="169.743" y="35"/>
    <use href="#hx" x="193.992" y="35"/>

    <!-- Rows y=56, 77, 98, 119 are SKIPPED — the outcome block sits there. -->

    <!-- Row 6 (type A, y=140) -->
    <use href="#hx" x="12.124"  y="140"/>
    <use href="#hx" x="36.373"  y="140"/>
    <use href="#hx" x="60.622"  y="140"/>
    <use href="#hx" x="84.871"  y="140"/>
    <use href="#hx" x="109.12"  y="140"/>
    <use href="#hx" x="133.37"  y="140"/>
    <use href="#hx" x="157.62"  y="140"/>
    <use href="#hx" x="181.87"  y="140"/>

    <!-- Row 7 (type B, y=161) -->
    <use href="#hx" x="0"       y="161"/>
    <use href="#hx" x="24.249"  y="161"/>
    <use href="#hx" x="48.498"  y="161"/>
    <use href="#hx" x="72.747"  y="161"/>
    <use href="#hx" x="96.996"  y="161"/>
    <use href="#hx" x="121.245" y="161"/>
    <use href="#hx" x="145.494" y="161"/>
    <use href="#hx" x="169.743" y="161"/>
    <use href="#hx" x="193.992" y="161"/>

    <!-- Row 8 (type A, y=182) -->
    <use href="#hx" x="12.124"  y="182"/>
    <use href="#hx" x="36.373"  y="182"/>
    <use href="#hx" x="60.622"  y="182"/>
    <use href="#hx" x="84.871"  y="182"/>
    <use href="#hx" x="109.12"  y="182"/>
    <use href="#hx" x="133.37"  y="182"/>
    <use href="#hx" x="157.62"  y="182"/>
    <use href="#hx" x="181.87"  y="182"/>

    <!-- Row 9 (type B, y=203) -->
    <use href="#hx" x="0"       y="203"/>
    <use href="#hx" x="24.249"  y="203"/>
    <use href="#hx" x="48.498"  y="203"/>
    <use href="#hx" x="72.747"  y="203"/>
    <use href="#hx" x="96.996"  y="203"/>
    <use href="#hx" x="121.245" y="203"/>
    <use href="#hx" x="145.494" y="203"/>
    <use href="#hx" x="169.743" y="203"/>
    <use href="#hx" x="193.992" y="203"/>

    <!-- Row 10 (type A, y=224) -->
    <use href="#hx" x="12.124"  y="224"/>
    <use href="#hx" x="36.373"  y="224"/>
    <use href="#hx" x="60.622"  y="224"/>
    <use href="#hx" x="84.871"  y="224"/>
    <use href="#hx" x="109.12"  y="224"/>
    <use href="#hx" x="133.37"  y="224"/>
    <use href="#hx" x="157.62"  y="224"/>
    <use href="#hx" x="181.87"  y="224"/>

    <!-- Row 11 (type B, y=245) -->
    <use href="#hx" x="0"       y="245"/>
    <use href="#hx" x="24.249"  y="245"/>
    <use href="#hx" x="48.498"  y="245"/>
    <use href="#hx" x="72.747"  y="245"/>
    <use href="#hx" x="96.996"  y="245"/>
    <use href="#hx" x="121.245" y="245"/>
    <use href="#hx" x="145.494" y="245"/>
    <use href="#hx" x="169.743" y="245"/>
    <use href="#hx" x="193.992" y="245"/>

    <!-- Row 12 (type A, y=266) -->
    <use href="#hx" x="12.124"  y="266"/>
    <use href="#hx" x="36.373"  y="266"/>
    <use href="#hx" x="60.622"  y="266"/>
    <use href="#hx" x="84.871"  y="266"/>
    <use href="#hx" x="109.12"  y="266"/>
    <use href="#hx" x="133.37"  y="266"/>
    <use href="#hx" x="157.62"  y="266"/>
    <use href="#hx" x="181.87"  y="266"/>

    <!-- Row 13 (type B, y=287) -->
    <use href="#hx" x="0"       y="287"/>
    <use href="#hx" x="24.249"  y="287"/>
    <use href="#hx" x="48.498"  y="287"/>
    <use href="#hx" x="72.747"  y="287"/>
    <use href="#hx" x="96.996"  y="287"/>
    <use href="#hx" x="121.245" y="287"/>
    <use href="#hx" x="145.494" y="287"/>
    <use href="#hx" x="169.743" y="287"/>
    <use href="#hx" x="193.992" y="287"/>
  </g>

  <!-- Logo cell, top-right: solid cobalt hex with white logo geometry. -->
  <g>
    <use href="#hx" x="181.87" y="14" fill="#21468B" stroke="none"/>
    <g fill="#FFFFFF" transform="translate(173.87 6) scale(0.0533)">
      <path d="M149.7,28L38,92.5v129l111.7,64.5,111.7-64.5V92.5L149.7,28ZM233,205.1l-83.2,48.1-83.2-48.1v-96.1l83.2-48.1,83.2,48.1v96.1Z"/>
      <polygon points="149.4,124.5 175.6,139.6 206.1,122 149.4,89.4 90.9,123.2 90.9,190.8 149.4,224.6 206.1,192 175.6,174.4 149.4,189.5 121.3,173.2 121.3,140.8 149.4,124.5"/>
    </g>
  </g>
</svg>
