<svg xmlns="http://www.w3.org/2000/svg" viewBox="0 0 800 450" width="800" height="450" role="img" aria-label="Honeycomb backdrop">
  <title>Honeycomb backdrop · cobalt with orange accent</title>
  <rect x="0" y="0" width="800" height="450" fill="#21468B"/>
  <g fill="#FFFFFF">
    <polygon points="100,40 145,66 145,118 100,144 55,118 55,66" fill-opacity="0.10"/>
    <polygon points="220,90 265,116 265,168 220,194 175,168 175,116" fill-opacity="0.16"/>
    <polygon points="380,30 440,64 440,132 380,166 320,132 320,64" fill-opacity="0.20"/>
    <polygon points="560,90 605,116 605,168 560,194 515,168 515,116" fill-opacity="0.14"/>
    <polygon points="700,40 740,63 740,109 700,132 660,109 660,63" fill-opacity="0.08"/>
    <polygon points="160,260 205,286 205,338 160,364 115,338 115,286" fill-opacity="0.10"/>
    <polygon points="320,310 360,333 360,379 320,402 280,379 280,333" fill-opacity="0.07"/>
    <polygon points="500,290 550,318 550,374 500,402 450,374 450,318" fill-opacity="0.18"/>
    <polygon points="660,260 700,283 700,329 660,352 620,329 620,283" fill-opacity="0.09"/>
  </g>
  <!-- The single orange accent — never more than one per scene. -->
  <polygon points="430,260 480,288 480,344 430,372 380,344 380,288" fill="#F36C21" fill-opacity="0.85"/>
</svg>
