<svg xmlns="http://www.w3.org/2000/svg" viewBox="0 0 210 297" width="210mm" height="297mm" preserveAspectRatio="xMidYMid slice" role="img" aria-label="Quotation honeycomb watermark">
  <title>Quotation watermark, smaller hexes, logo in top-right, payoff zone clear</title>
  <!-- R=14 grid, drawn-R=8. Hex bounding box 13.86 x 16 mm.
       The brand-block logo on the quotation page uses an avatar
       SVG sized to the same 13.86 x 16 mm, so logo and pattern
       hexes are true-equal in size and drawn from the same
       primitive. Rows behind the outcome block (y between 50
       and 130) are skipped so the "wat je krijgt" panel sits
       on a clean ground. -->
  <defs>
    <polygon id="hx" points="0,-8 6.928,-4 6.928,4 0,8 -6.928,4 -6.928,-4"/>
  </defs>

  <!-- Bulk hexes: cobalt-100 outline, solid stroke. -->
  <g fill="none" stroke="#DCE3F0" stroke-width="0.4">
    <!-- Row 0 (type A, y=14) — full row, logo cell removed -->
    <use href="#hx" x="12.124"  y="14"/>
    <use href="#hx" x="36.373"  y="14"/>
    <use href="#hx" x="60.622"  y="14"/>
    <use href="#hx" x="84.871"  y="14"/>
    <use href="#hx" x="109.12"  y="14"/>
    <use href="#hx" x="133.37"  y="14"/>
    <use href="#hx" x="157.62"  y="14"/>
    <use href="#hx" x="181.87"  y="14"/>

    <!-- Row 1 (type B, y=35) -->
    <use href="#hx" x="0"       y="35"/>
    <use href="#hx" x="24.249"  y="35"/>
    <use href="#hx" x="48.498"  y="35"/>
    <use href="#hx" x="72.747"  y="35"/>
    <use href="#hx" x="96.996"  y="35"/>
    <use href="#hx" x="121.245" y="35"/>
    <use href="#hx" x="145.494" y="35"/>
    <use href="#hx" x="169.743" y="35"/>
    <use href="#hx" x="193.992" y="35"/>

    <!-- Rows y=56, 77, 98, 119 are SKIPPED — the outcome block sits there. -->

    <!-- Row 6 (type A, y=140) -->
    <use href="#hx" x="12.124"  y="140"/>
    <use href="#hx" x="36.373"  y="140"/>
    <use href="#hx" x="60.622"  y="140"/>
    <use href="#hx" x="84.871"  y="140"/>
    <use href="#hx" x="109.12"  y="140"/>
    <use href="#hx" x="133.37"  y="140"/>
    <use href="#hx" x="157.62"  y="140"/>
    <use href="#hx" x="181.87"  y="140"/>

    <!-- Row 7 (type B, y=161) -->
    <use href="#hx" x="0"       y="161"/>
    <use href="#hx" x="24.249"  y="161"/>
    <use href="#hx" x="48.498"  y="161"/>
    <use href="#hx" x="72.747"  y="161"/>
    <use href="#hx" x="96.996"  y="161"/>
    <use href="#hx" x="121.245" y="161"/>
    <use href="#hx" x="145.494" y="161"/>
    <use href="#hx" x="169.743" y="161"/>
    <use href="#hx" x="193.992" y="161"/>

    <!-- Row 8 (type A, y=182) -->
    <use href="#hx" x="12.124"  y="182"/>
    <use href="#hx" x="36.373"  y="182"/>
    <use href="#hx" x="60.622"  y="182"/>
    <use href="#hx" x="84.871"  y="182"/>
    <use href="#hx" x="109.12"  y="182"/>
    <use href="#hx" x="133.37"  y="182"/>
    <use href="#hx" x="157.62"  y="182"/>
    <use href="#hx" x="181.87"  y="182"/>

    <!-- Row 9 (type B, y=203) -->
    <use href="#hx" x="0"       y="203"/>
    <use href="#hx" x="24.249"  y="203"/>
    <use href="#hx" x="48.498"  y="203"/>
    <use href="#hx" x="72.747"  y="203"/>
    <use href="#hx" x="96.996"  y="203"/>
    <use href="#hx" x="121.245" y="203"/>
    <use href="#hx" x="145.494" y="203"/>
    <use href="#hx" x="169.743" y="203"/>
    <use href="#hx" x="193.992" y="203"/>

    <!-- Row 10 (type A, y=224) -->
    <use href="#hx" x="12.124"  y="224"/>
    <use href="#hx" x="36.373"  y="224"/>
    <use href="#hx" x="60.622"  y="224"/>
    <use href="#hx" x="84.871"  y="224"/>
    <use href="#hx" x="109.12"  y="224"/>
    <use href="#hx" x="133.37"  y="224"/>
    <use href="#hx" x="157.62"  y="224"/>
    <use href="#hx" x="181.87"  y="224"/>

    <!-- Row 11 (type B, y=245) -->
    <use href="#hx" x="0"       y="245"/>
    <use href="#hx" x="24.249"  y="245"/>
    <use href="#hx" x="48.498"  y="245"/>
    <use href="#hx" x="72.747"  y="245"/>
    <use href="#hx" x="96.996"  y="245"/>
    <use href="#hx" x="121.245" y="245"/>
    <use href="#hx" x="145.494" y="245"/>
    <use href="#hx" x="169.743" y="245"/>
    <use href="#hx" x="193.992" y="245"/>

    <!-- Row 12 (type A, y=266) -->
    <use href="#hx" x="12.124"  y="266"/>
    <use href="#hx" x="36.373"  y="266"/>
    <use href="#hx" x="60.622"  y="266"/>
    <use href="#hx" x="84.871"  y="266"/>
    <use href="#hx" x="109.12"  y="266"/>
    <use href="#hx" x="133.37"  y="266"/>
    <use href="#hx" x="157.62"  y="266"/>
    <use href="#hx" x="181.87"  y="266"/>

    <!-- Row 13 (type B, y=287) -->
    <use href="#hx" x="0"       y="287"/>
    <use href="#hx" x="24.249"  y="287"/>
    <use href="#hx" x="48.498"  y="287"/>
    <use href="#hx" x="72.747"  y="287"/>
    <use href="#hx" x="96.996"  y="287"/>
    <use href="#hx" x="121.245" y="287"/>
    <use href="#hx" x="145.494" y="287"/>
    <use href="#hx" x="169.743" y="287"/>
    <use href="#hx" x="193.992" y="287"/>
  </g>

  <!-- The brand-block logo on the page is the only Conduction
       mark; the watermark stays a clean comb of outline hexes. -->
</svg>
