<svg xmlns="http://www.w3.org/2000/svg" id="Laag_1" data-name="Laag 1" viewBox="0 0 492.88 495.29">
	<defs>
		<clipPath id="clippath">
			<circle cx="243.31" cy="243.31" r="243.31" fill="none"/>
		</clipPath>
		<style>
			.cls-2{fill:#05857e}.cls-3{fill:#1d1d1b}
		</style>
	</defs>
	<g clip-path="url(#clippath)">
		<path d="M18.61 371.36 410.79-21.09l1.26 1.26L19.87 372.62l-1.26-1.26Zm172.42 172.43 392.18-392.45 1.26 1.26-392.18 392.45-1.26-1.26ZM-92.24 260.51l392.18-392.46 1.26 1.26-392.18 392.45-1.26-1.26Zm73.9 73.9L373.84-58.05l1.26 1.26-392.18 392.46-1.26-1.26Zm160.11 160.12 392.18-392.45 1.26 1.26-392.18 392.45-1.26-1.26Zm-86.21-86.22L447.74 15.86l1.26 1.26L56.82 409.57l-1.26-1.26ZM240.3 593.06l392.18-392.45 1.26 1.26-392.18 392.45-1.26-1.26ZM-42.97 309.77 349.21-82.68l1.26 1.26-392.18 392.45-1.26-1.26Zm160.11 160.12L509.32 77.44l1.26 1.26L118.4 471.15l-1.26-1.26ZM-67.61 285.14l392.18-392.46 1.26 1.26-392.18 392.45-1.26-1.26Zm98.53 98.53L423.1-8.79l1.26 1.26L32.18 384.93l-1.26-1.26Zm184.75 184.76 392.18-392.45 1.26 1.26-392.18 392.45-1.26-1.26ZM-79.91 272.82l392.18-392.45 1.26 1.26-392.18 392.45-1.26-1.26Zm73.9 73.9L386.17-45.73l1.26 1.26L-4.75 347.98l-1.26-1.26ZM166.4 519.15 558.58 126.7l1.26 1.26-392.18 392.45-1.26-1.26ZM-55.29 297.46 336.89-95l1.26 1.26-392.18 392.46-1.26-1.26ZM80.2 432.94 472.38 40.49l1.26 1.26L81.46 434.2l-1.26-1.26Zm184.73 184.75 392.18-392.45 1.26 1.26-392.18 392.45-1.26-1.26Zm-369.48-369.5 392.18-392.45 1.26 1.26-392.18 392.45-1.26-1.26Zm209.37 209.39L497 65.12l1.26 1.26-392.18 392.46-1.26-1.26Zm98.53 98.53 392.18-392.45 1.26 1.26-392.18 392.45-1.26-1.26Zm-49.25-49.27 392.18-392.45 1.26 1.26L155.35 508.1l-1.26-1.26Zm-86.22-86.22L460.06 28.17l1.26 1.26L69.14 421.88l-1.26-1.26Zm184.74 184.76L644.8 212.93l1.26 1.26-392.18 392.45-1.26-1.26ZM-30.65 322.09 361.53-70.37l1.26 1.26-392.18 392.46-1.26-1.26Zm160.11 160.12L521.64 89.75l1.26 1.26-392.18 392.46-1.26-1.26Zm-86.22-86.22L435.42 3.53l1.26 1.26L44.5 397.25l-1.26-1.26Zm184.75 184.75 392.18-392.45 1.26 1.26L229.25 582l-1.26-1.26ZM6.29 359.04 398.46-33.42l1.26 1.26L7.54 360.29l-1.26-1.26Zm172.43 172.44L570.9 139.03l1.26 1.26-392.18 392.45-1.26-1.26Zm-86.21-86.22L484.69 52.81l1.26 1.26L93.77 446.52l-1.26-1.26Z" class="cls-2"/>
	</g>
	<path fill="#fff" d="M271.99 495.29c121.99 0 220.89-98.9 220.89-220.89S393.98 53.51 271.99 53.51 51.1 152.41 51.1 274.4 150 495.29 271.99 495.29"/>
	<path d="M410.03 309.99c.87-4.98 3.82-8.22 8.37-8.22s7.5 3.32 8.15 8.22h-16.52Zm9.45 23.23c7 0 12.19-2.74 15.8-7.21l-6.28-5.55c-3.03 2.81-5.7 3.97-9.38 3.97-4.9 0-8.37-2.6-9.45-7.57h26.91c.07-1.01.14-2.02.14-2.89 0-10.96-5.92-20.99-18.83-20.99-11.25 0-19.12 9.09-19.12 20.13v.14c0 11.83 8.58 19.98 20.2 19.98m-31.96-.22c3.68 0 6.35-.87 8.66-2.24v-8.8c-1.66.91-3.52 1.38-5.41 1.37-2.45 0-3.54-1.23-3.54-3.75v-16.52h9.09v-9.38h-9.09v-9.88h-10.96v9.88h-4.62v9.38h4.62v18.32c0 8.94 4.55 11.61 11.25 11.61m-55.83-.65h10.96v-21.57c0-5.19 2.67-7.86 6.85-7.86s6.64 2.67 6.64 7.86v21.57h10.96v-25.03c0-8.87-4.83-14.35-13.13-14.35-5.55 0-8.8 2.96-11.33 6.2v-5.48h-10.96v38.66Zm-33.18-22.36c.87-4.98 3.82-8.22 8.37-8.22s7.5 3.32 8.15 8.22H298.5Zm9.45 23.23c7 0 12.19-2.74 15.8-7.21l-6.27-5.55c-3.03 2.81-5.7 3.97-9.38 3.97-4.91 0-8.37-2.6-9.45-7.57h26.91c.07-1.01.14-2.02.14-2.89 0-10.96-5.92-20.99-18.83-20.99-11.25 0-19.12 9.09-19.12 20.13v.14c0 11.83 8.58 19.98 20.2 19.98m-67.74-.58h9.81l7.57-23.73 7.43 23.73h9.88l12.05-38.95h-10.89l-6.35 23.52-7.36-23.66h-9.45l-7.28 23.59-6.2-23.44h-11.11l11.9 38.95Zm-37.51-.29h11.11v-40.25h15.37v-10.24h-41.84v10.24h15.37v40.25Zm118.97-68.15h10.96v-21.57c0-5.19 2.67-7.86 6.85-7.86s6.64 2.67 6.64 7.86v21.57h10.96v-25.03c0-8.87-4.83-14.36-13.13-14.36-5.55 0-8.8 2.96-11.32 6.2v-5.48h-10.96v38.66Zm-26.26-6.85c-3.54 0-5.99-1.73-5.99-4.69v-.14c0-3.46 2.89-5.34 7.58-5.34 2.67 0 5.12.58 7 1.44v1.95c0 3.97-3.46 6.78-8.58 6.78m-3.32 7.57c5.34 0 9.02-1.95 11.69-4.9v4.18h10.6v-22.43c0-5.19-1.3-9.45-4.18-12.33-2.74-2.74-7.07-4.33-13.06-4.33-6.56 0-10.75 1.23-15 3.1l2.74 8.37c3.53-1.3 6.49-2.09 10.68-2.09 5.48 0 8.29 2.52 8.29 7.07v.65c-2.74-.94-5.55-1.59-9.45-1.59-9.16 0-15.58 3.89-15.58 12.33v.14c0 7.65 5.99 11.83 13.27 11.83m-38.52-.43h9.95l15.22-38.95h-11.4l-8.73 25.9-8.66-25.9h-11.61l15.22 38.95Zm-51.27-.29h10.97v-29.29h8.73v-8.95h-8.87v-1.51c0-2.89 1.44-4.18 3.97-4.18 1.88 0 3.39.36 4.98.94v-9.09c-2.02-.65-4.33-1.08-7.79-1.08-3.9 0-6.85 1.01-8.87 3.03s-3.1 5.12-3.1 9.38v2.45h-4.54v9.02h4.54v29.29h-.02Zm-28.49-8.58c-6.06 0-10.17-4.98-10.17-10.68v-.14c0-5.7 3.75-10.53 10.03-10.53s10.17 4.98 10.17 10.68v.14c0 5.7-3.75 10.53-10.03 10.53m-.14 9.45c12.05 0 20.99-9.02 20.99-20.13v-.14c0-11.11-8.87-19.98-20.85-19.98s-20.99 9.02-20.99 20.13v.14c0 11.11 8.87 19.98 20.85 19.98m-69.03-.87h11.11v-20.27h20.49v20.27h11.11v-50.5h-11.11v19.98h-20.49v-19.98h-11.11v50.5Z" class="cls-3"/>
	<path d="M129.05 337.36c14.69 0 26.6-11.91 26.6-26.6s-11.91-26.6-26.6-26.6-26.6 11.91-26.6 26.6 11.91 26.6 26.6 26.6m25.43 56.48c11.28 0 20.42-9.14 20.42-20.42S165.76 353 154.48 353s-20.42 9.14-20.42 20.42 9.14 20.42 20.42 20.42m34.99 32.27c8.73 0 15.8-7.07 15.8-15.8s-7.07-15.8-15.8-15.8-15.8 7.07-15.8 15.8 7.07 15.8 15.8 15.8m39.68 18.41c6.87 0 12.43-5.56 12.43-12.43s-5.57-12.43-12.43-12.43-12.43 5.57-12.43 12.43 5.57 12.43 12.43 12.43m36.92 6.05c5.01 0 9.09-4.05 9.1-9.06 0-5.01-4.05-9.09-9.06-9.1h-.03c-5.01 0-9.07 4.08-9.06 9.1 0 5 4.06 9.06 9.06 9.06" class="cls-2"/>
	<path d="m189.24 190.6 9.4-8.29c3.96-3.55 5.4-5.55 5.4-8.14 0-3.03-2.41-4.96-5.22-4.96-2.96 0-4.88 1.55-6.96 4.44l-2.15-1.55c2.33-3.48 4.77-5.51 9.32-5.51s8.03 3.11 8.03 7.33v.07c0 3.77-2 6.1-6.55 10.06l-6.92 6.14h13.73v2.66h-18.09v-2.26Zm23.46-1.4 1.92-2.11c2.26 2.18 4.74 3.55 7.36 3.55 3.7 0 6.25-2.44 6.25-5.74v-.07c0-3.22-2.66-5.44-6.44-5.44-2.18 0-3.92.67-5.44 1.48l-1.96-1.29.74-12.62h14.91v2.7h-12.36l-.56 8.29c1.52-.67 2.96-1.15 5.11-1.15 5.03 0 8.95 3 8.95 7.92v.07c0 5.07-3.85 8.51-9.25 8.51-3.7 0-6.92-1.78-9.25-4.11h.02Zm33.86 9.51v-2.33c.44.07 1 .11 1.41.11 1.29 0 2.18-.78 2.18-2.55v-20.2H253v20.24c0 3.37-1.78 4.92-4.66 4.92-.67 0-1.15-.04-1.78-.19m3.4-32.3h3.26v3.15h-3.26v-3.15Zm9.32 20.9v-.07c0-4.03 3.33-6.18 8.18-6.18 2.44 0 4.18.33 5.88.81v-.67c0-3.44-2.11-5.22-5.7-5.22-2.26 0-4.03.59-5.81 1.41l-.85-2.33c2.11-.96 4.18-1.59 6.96-1.59s4.77.7 6.18 2.11c1.29 1.3 1.96 3.15 1.96 5.59v11.69h-2.74v-2.89c-1.33 1.74-3.55 3.29-6.92 3.29-3.55 0-7.14-2.04-7.14-5.96Zm14.1-1.48v-1.85a19.79 19.79 0 0 0-5.62-.81c-3.59 0-5.59 1.55-5.59 3.96v.07c0 2.41 2.22 3.81 4.81 3.81 3.51 0 6.4-2.15 6.4-5.18m8.44 1.48v-.07c0-4.03 3.33-6.18 8.18-6.18 2.44 0 4.18.33 5.88.81v-.67c0-3.44-2.11-5.22-5.7-5.22-2.26 0-4.03.59-5.81 1.41l-.85-2.33c2.11-.96 4.18-1.59 6.96-1.59s4.77.7 6.18 2.11c1.29 1.3 1.96 3.15 1.96 5.59v11.69h-2.74v-2.89c-1.33 1.74-3.55 3.29-6.92 3.29-3.55 0-7.14-2.04-7.14-5.96Zm14.1-1.48v-1.85a19.79 19.79 0 0 0-5.62-.81c-3.59 0-5.59 1.55-5.59 3.96v.07c0 2.41 2.22 3.81 4.81 3.81 3.52 0 6.4-2.15 6.4-5.18m9.87-12.1h2.85v5c1.41-3.18 4.18-5.48 7.81-5.33v3.07h-.22c-4.18 0-7.59 3-7.59 8.77v7.62h-2.85v-19.13Z" class="cls-3"/>
</svg>
