<svg xmlns="http://www.w3.org/2000/svg" viewBox="0 0 259 80" role="img" aria-label="ConNext (inverse)"><title>ConNext (inverse)</title><g transform="translate(2, 60)"><path d="M24.64 0.77Q18.11 0.77 13.06-2.21Q8-5.18 5.12-10.40Q2.24-15.62 2.24-22.40Q2.24-29.18 5.12-34.40Q8-39.62 13.02-42.59Q18.05-45.57 24.58-45.57Q29.18-45.57 33.15-43.94Q37.12-42.30 40.10-39.39Q43.07-36.48 44.67-32.70L36.54-29.70Q35.46-32.06 33.66-33.82Q31.87-35.58 29.57-36.58Q27.26-37.57 24.58-37.57Q20.67-37.57 17.63-35.62Q14.59-33.66 12.90-30.27Q11.20-26.88 11.20-22.40Q11.20-17.92 12.93-14.50Q14.66-11.07 17.73-9.12Q20.80-7.17 24.77-7.17Q27.52-7.17 29.79-8.22Q32.06-9.28 33.82-11.14Q35.58-12.99 36.67-15.42L44.80-12.48Q43.20-8.58 40.22-5.57Q37.25-2.56 33.28-0.90Q29.31 0.77 24.64 0.77M63.49 0.77Q58.62 0.77 54.82-1.38Q51.01-3.52 48.86-7.30Q46.72-11.07 46.72-16Q46.72-20.93 48.83-24.70Q50.94-28.48 54.72-30.62Q58.50-32.77 63.36-32.77Q68.29-32.77 72.06-30.62Q75.84-28.48 77.95-24.70Q80.06-20.93 80.06-16Q80.06-11.07 77.95-7.30Q75.84-3.52 72.10-1.38Q68.35 0.77 63.49 0.77M63.49-7.04Q65.86-7.04 67.65-8.19Q69.44-9.34 70.43-11.36Q71.42-13.38 71.42-16Q71.42-18.62 70.40-20.64Q69.38-22.66 67.55-23.81Q65.73-24.96 63.36-24.96Q61.06-24.96 59.23-23.81Q57.41-22.66 56.38-20.64Q55.36-18.62 55.36-16Q55.36-13.38 56.38-11.36Q57.41-9.34 59.26-8.19Q61.12-7.04 63.49-7.04M92.48 0L84.03 0L84.03-32L91.97-32L92.35-27.65Q93.89-30.14 96.29-31.46Q98.69-32.77 101.76-32.77Q105.54-32.77 108.22-31.23Q110.91-29.70 112.32-26.46Q113.73-23.23 113.66-18.11L113.66 0L105.22 0L105.22-16.38Q105.22-19.65 104.48-21.44Q103.74-23.23 102.40-24.03Q101.06-24.83 99.26-24.83Q96-24.90 94.24-22.85Q92.48-20.80 92.48-16.77" fill="#FFFFFF"/><path d="M128.77 0L120 0L120-44.80L129.15-44.80L151.04-14.72L151.04-44.80L159.74-44.80L159.74 0L151.04 0L128.77-30.66L128.77 0M181.12 0.77Q176.38 0.77 172.74-1.38Q169.09-3.52 167.01-7.30Q164.93-11.07 164.93-16Q164.93-20.93 167.07-24.70Q169.22-28.48 172.96-30.62Q176.70-32.77 181.57-32.77Q185.79-32.77 189.34-30.56Q192.90-28.35 195.04-24.10Q197.18-19.84 197.18-13.76L173.76-13.76Q174.08-10.56 176.51-8.67Q178.94-6.78 182.02-6.78Q184.64-6.78 186.30-7.90Q187.97-9.02 188.86-10.82L196.42-7.87Q195.07-5.18 192.93-3.23Q190.78-1.28 187.84-0.26Q184.90 0.77 181.12 0.77M174.21-20.03L188.03-20.03Q187.84-22.02 186.75-23.23Q185.66-24.45 184.19-25.02Q182.72-25.60 181.31-25.60Q179.97-25.60 178.40-25.06Q176.83-24.51 175.65-23.30Q174.46-22.08 174.21-20.03M206.46 0L196.35 0L208.26-16.58L197.18-32L207.17-32L212.93-23.42L218.62-32L228.61-32L217.60-16.51L229.38 0L219.33 0L212.93-9.66L206.46 0M245.25 0.77Q239.94 0.77 237.22-1.86Q234.50-4.48 234.50-9.34L234.50-24.83L229.31-24.83L229.31-32L234.50-32L234.50-41.98L242.94-41.98L242.94-32L250.94-32L250.94-24.83L242.94-24.83L242.94-11.20Q242.94-9.15 243.84-8.10Q244.74-7.04 246.46-7.04Q247.10-7.04 247.87-7.33Q248.64-7.62 249.47-8.19L252.42-1.86Q250.88-0.70 248.99 0.03Q247.10 0.77 245.25 0.77" fill="#0082C9"/></g></svg>
