<svg xmlns="http://www.w3.org/2000/svg" viewBox="0 0 24 24" fill="currentColor" aria-hidden="true">
  <!-- "OP" stacked rectangle silhouette, representational. -->
  <path d="M19.35.37h-1.86a4.628 4.628 0 0 0-4.652 4.624v5.609H4.652A4.628 4.628 0 0 0 0 15.23v3.721c0 2.569 2.083 4.679 4.652 4.679h1.86c2.57 0 4.652-2.11 4.652-4.679v-3.72h-2.791v3.88c0 1.026-.835 1.886-1.861 1.886h-1.86c-1.027 0-1.861-.864-1.861-1.886V15.23a1.839 1.839 0 0 1 1.86-1.833h14.697c2.57 0 4.652-2.11 4.652-4.679V4.997A4.628 4.628 0 0 0 19.35.37z"/>
</svg>
