<?xml version="1.0" encoding="UTF-8"?>
<svg xmlns="http://www.w3.org/2000/svg" viewBox="0 0 196 130" role="img" aria-label="Nextcloud">
  <title>Nextcloud — cloud mark, no wordmark</title>
  <!-- Cloud outline + three transparent "people" cutouts via evenodd -->
  <path fill="#FFFFFF" fill-rule="evenodd"
        d="M153 60 C150 60 147 60.3 144 61 C139 42 121 28 100 28 C79 28 61 42 56 61 C53 60.3 50 60 47 60 C32 60 20 72 20 87 C20 102 32 114 47 114 L153 114 C168 114 180 102 180 87 C180 72 168 60 153 60 Z M62 87 A14 14 0 1 0 90 87 A14 14 0 1 0 62 87 Z M86 87 A14 14 0 1 0 114 87 A14 14 0 1 0 86 87 Z M110 87 A14 14 0 1 0 138 87 A14 14 0 1 0 110 87 Z"/>
</svg>
