<svg xmlns="http://www.w3.org/2000/svg" viewBox="0 0 335 80" role="img" aria-label="Conduction"><title>Conduction</title><g transform="translate(2, 60)"><path d="M24.64 0.77Q18.11 0.77 13.06-2.21Q8-5.18 5.12-10.40Q2.24-15.62 2.24-22.40Q2.24-29.18 5.12-34.40Q8-39.62 13.02-42.59Q18.05-45.57 24.58-45.57Q29.18-45.57 33.15-43.94Q37.12-42.30 40.10-39.39Q43.07-36.48 44.67-32.70L36.54-29.70Q35.46-32.06 33.66-33.82Q31.87-35.58 29.57-36.58Q27.26-37.57 24.58-37.57Q20.67-37.57 17.63-35.62Q14.59-33.66 12.90-30.27Q11.20-26.88 11.20-22.40Q11.20-17.92 12.93-14.50Q14.66-11.07 17.73-9.12Q20.80-7.17 24.77-7.17Q27.52-7.17 29.79-8.22Q32.06-9.28 33.82-11.14Q35.58-12.99 36.67-15.42L44.80-12.48Q43.20-8.58 40.22-5.57Q37.25-2.56 33.28-0.90Q29.31 0.77 24.64 0.77M63.49 0.77Q58.62 0.77 54.82-1.38Q51.01-3.52 48.86-7.30Q46.72-11.07 46.72-16Q46.72-20.93 48.83-24.70Q50.94-28.48 54.72-30.62Q58.50-32.77 63.36-32.77Q68.29-32.77 72.06-30.62Q75.84-28.48 77.95-24.70Q80.06-20.93 80.06-16Q80.06-11.07 77.95-7.30Q75.84-3.52 72.10-1.38Q68.35 0.77 63.49 0.77M63.49-7.04Q65.86-7.04 67.65-8.19Q69.44-9.34 70.43-11.36Q71.42-13.38 71.42-16Q71.42-18.62 70.40-20.64Q69.38-22.66 67.55-23.81Q65.73-24.96 63.36-24.96Q61.06-24.96 59.23-23.81Q57.41-22.66 56.38-20.64Q55.36-18.62 55.36-16Q55.36-13.38 56.38-11.36Q57.41-9.34 59.26-8.19Q61.12-7.04 63.49-7.04M92.48 0L84.03 0L84.03-32L91.97-32L92.35-27.65Q93.89-30.14 96.29-31.46Q98.69-32.77 101.76-32.77Q105.54-32.77 108.22-31.23Q110.91-29.70 112.32-26.46Q113.73-23.23 113.66-18.11L113.66 0L105.22 0L105.22-16.38Q105.22-19.65 104.48-21.44Q103.74-23.23 102.40-24.03Q101.06-24.83 99.26-24.83Q96-24.90 94.24-22.85Q92.48-20.80 92.48-16.77L92.48 0M131.52 0.77Q127.10 0.77 123.87-1.28Q120.64-3.33 118.85-7.10Q117.06-10.88 117.06-16Q117.06-21.18 118.85-24.93Q120.64-28.67 123.87-30.72Q127.10-32.77 131.52-32.77Q134.66-32.77 137.12-31.46Q139.58-30.14 141.12-27.71L141.12-44.80L149.57-44.80L149.57 0L141.57 0L141.31-4.48Q139.71-1.98 137.22-0.61Q134.72 0.77 131.52 0.77M133.70-6.98Q135.81-6.98 137.44-8.03Q139.07-9.09 140.03-11.01Q140.99-12.93 141.12-15.36L141.12-16.64Q140.99-19.07 140.03-20.96Q139.07-22.85 137.41-23.90Q135.74-24.96 133.63-24.96Q131.33-24.96 129.57-23.84Q127.81-22.72 126.82-20.67Q125.82-18.62 125.82-16Q125.82-13.38 126.85-11.33Q127.87-9.28 129.63-8.13Q131.39-6.98 133.70-6.98M166.66 0.77Q162.82 0.77 160.16-0.77Q157.50-2.30 156.10-5.54Q154.69-8.77 154.69-13.89L154.69-32L163.14-32L163.14-15.62Q163.14-12.42 163.87-10.59Q164.61-8.77 165.98-7.97Q167.36-7.17 169.09-7.17Q172.42-7.10 174.14-9.18Q175.87-11.26 175.87-15.23L175.87-32L184.32-32L184.32 0L176.38 0L176.06-4.35Q174.46-1.92 172.06-0.58Q169.66 0.77 166.66 0.77M205.44 0.77Q200.45 0.77 196.54-1.38Q192.64-3.52 190.46-7.33Q188.29-11.14 188.29-16Q188.29-20.93 190.46-24.70Q192.64-28.48 196.48-30.62Q200.32-32.77 205.31-32.77Q210.11-32.77 214.08-30.40Q218.05-28.03 219.84-23.55L211.90-20.74Q211.01-22.59 209.12-23.71Q207.23-24.83 204.93-24.83Q202.56-24.83 200.77-23.71Q198.98-22.59 197.95-20.61Q196.93-18.62 196.93-16Q196.93-13.38 197.95-11.42Q198.98-9.47 200.83-8.32Q202.69-7.17 205.06-7.17Q207.36-7.17 209.25-8.38Q211.14-9.60 212.03-11.58L220.03-8.77Q218.18-4.22 214.24-1.73Q210.30 0.77 205.44 0.77M236.54 0.77Q231.23 0.77 228.51-1.86Q225.79-4.48 225.79-9.34L225.79-24.83L220.61-24.83L220.61-32L225.79-32L225.79-41.98L234.24-41.98L234.24-32L242.24-32L242.24-24.83L234.24-24.83L234.24-11.20Q234.24-9.15 235.14-8.10Q236.03-7.04 237.76-7.04Q238.40-7.04 239.17-7.33Q239.94-7.62 240.77-8.19L243.71-1.86Q242.18-0.70 240.29 0.03Q238.40 0.77 236.54 0.77M256.45 0L248 0L248-32L256.45-32L256.45 0M252.22-37.18Q250.30-37.18 248.83-38.62Q247.36-40.06 247.36-42.05Q247.36-44.03 248.83-45.47Q250.30-46.91 252.22-46.91Q254.21-46.91 255.65-45.47Q257.09-44.03 257.09-42.05Q257.09-40.06 255.65-38.62Q254.21-37.18 252.22-37.18M277.70 0.77Q272.83 0.77 269.02-1.38Q265.22-3.52 263.07-7.30Q260.93-11.07 260.93-16Q260.93-20.93 263.04-24.70Q265.15-28.48 268.93-30.62Q272.70-32.77 277.57-32.77Q282.50-32.77 286.27-30.62Q290.05-28.48 292.16-24.70Q294.27-20.93 294.27-16Q294.27-11.07 292.16-7.30Q290.05-3.52 286.30-1.38Q282.56 0.77 277.70 0.77M277.70-7.04Q280.06-7.04 281.86-8.19Q283.65-9.34 284.64-11.36Q285.63-13.38 285.63-16Q285.63-18.62 284.61-20.64Q283.58-22.66 281.76-23.81Q279.94-24.96 277.57-24.96Q275.26-24.96 273.44-23.81Q271.62-22.66 270.59-20.64Q269.57-18.62 269.57-16Q269.57-13.38 270.59-11.36Q271.62-9.34 273.47-8.19Q275.33-7.04 277.70-7.04M306.69 0L298.24 0L298.24-32L306.18-32L306.56-27.65Q308.10-30.14 310.50-31.46Q312.90-32.77 315.97-32.77Q319.74-32.77 322.43-31.23Q325.12-29.70 326.53-26.46Q327.94-23.23 327.87-18.11L327.87 0L319.42 0L319.42-16.38Q319.42-19.65 318.69-21.44Q317.95-23.23 316.61-24.03Q315.26-24.83 313.47-24.83Q310.21-24.90 308.45-22.85Q306.69-20.80 306.69-16.77" fill="#21468B"/></g></svg>
