<svg width="301" height="59" viewBox="0 0 301 59" fill="none" xmlns="http://www.w3.org/2000/svg">
<path d="M46.3029 0.429313C36.3853 2.2079 29.7529 11.6528 31.6124 21.4657C31.6744 21.7723 31.7364 22.079 31.7984 22.3857C33.7819 19.9324 36.6332 18.2152 40.0424 17.6019C47.6046 16.2526 54.7949 21.159 56.2206 28.6414C56.6545 30.9106 56.4685 33.1798 55.7867 35.2651C64.0927 32.3212 69.2374 23.7963 67.6258 14.9647C65.7663 5.15177 56.2205 -1.34927 46.3029 0.429313Z" fill="#144279"/>
<path d="M68.0597 40.9075C68.0597 50.843 59.8777 58.9387 49.8361 58.9387C39.7945 58.9387 31.6124 50.843 31.6124 40.9075C31.6124 30.9719 39.7945 22.8763 49.8361 22.8763C59.8777 22.8763 68.0597 30.9106 68.0597 40.9075Z" fill="#144279"/>
<path d="M49.8361 22.8763C39.7945 22.8763 31.6124 30.9719 31.6124 40.9075C31.6124 41.1528 31.6124 41.4595 31.6124 41.7048C34.0299 39.7422 37.0671 38.5769 40.4143 38.5769C48.1005 38.5769 54.299 44.71 54.299 52.315C54.299 54.5842 53.7411 56.7921 52.7494 58.6933C61.4273 57.2827 68.0597 49.8617 68.0597 40.9075C68.0597 30.9106 59.8777 22.8763 49.8361 22.8763Z" fill="#C00074"/>
<path d="M99.4242 15.394C99.2383 6.86902 92.1719 0 83.556 0C74.8781 0 67.8738 6.86902 67.6878 15.394V15.5166C67.6878 15.578 67.6878 15.7006 67.6878 15.762C67.6878 15.8233 67.6878 15.9459 67.6878 16.0073V58.8773H85.0437C93.0397 58.8773 99.4862 52.499 99.4862 44.5873L99.4242 15.394Z" fill="#FFD000"/>
<path d="M106.986 19.8098C106.986 9.01559 98.1225 0.183994 87.2131 0.183994C86.8412 0.183994 86.5313 0.183994 86.1594 0.183994C88.3909 2.75988 89.6926 6.13306 89.6926 9.81289C89.6926 18.0312 82.9362 24.7162 74.6301 24.7162C72.0888 24.7162 69.7333 24.1029 67.6258 22.999C69.1755 32.3212 77.2955 39.3742 87.1512 39.3742C98.1225 39.3742 106.986 30.6039 106.986 19.8098Z" fill="#C00074"/>
<path d="M31.8604 17.0499C31.8604 17.0499 31.8604 16.1913 31.8604 15.762C31.8604 7.17568 24.98 0.245324 16.3641 0.061332H16.2401C16.1781 0.061332 16.0542 0.061332 15.9922 0.061332C15.9302 0.061332 15.8062 0.061332 15.7442 0.061332H0V17.0499H0.0619842V43.606C0.24794 52.131 7.31425 59 15.9302 59C24.6081 59 31.6124 52.131 31.7984 43.606V43.4834C31.7984 43.422 31.7984 43.2994 31.7984 43.238C31.7984 43.1767 31.7984 43.0541 31.7984 42.9927V17.0499H31.8604Z" fill="#D4B0D4"/>
<path d="M113.867 17.9699V3.74116H119.012C123.474 3.74116 127.008 6.56237 127.008 10.8555C127.008 15.1486 123.474 17.9699 119.012 17.9699H113.867ZM117.834 14.5353H119.012C121.057 14.5353 122.979 13.4927 122.979 10.8555C122.979 8.27963 121.057 7.17567 119.012 7.17567H117.834V14.5353Z" fill="#144279"/>
<path d="M128.805 17.9699V3.74116H137.793V6.07173H131.409V9.56757H136.677V11.8368H131.409V15.6393H138.041V17.9699H128.805Z" fill="#144279"/>
<path d="M113.867 58.1414V43.9127H118.888C122.545 43.9127 124.714 46.1206 124.714 48.7578C124.714 51.4563 122.607 53.6642 118.888 53.6642H117.896V58.1414H113.867ZM117.834 50.2297H118.888C120.251 50.2297 120.747 49.5551 120.747 48.7578C120.747 47.9605 120.313 47.2859 118.888 47.2859H117.834V50.2297Z" fill="#144279"/>
<path d="M134.756 58.1414L133.702 55.8108H127.318L126.264 58.1414H123.412L130.293 43.6674H130.727L137.607 58.1414H134.756ZM128.309 53.5416H132.71L130.479 48.6351L128.309 53.5416Z" fill="#144279"/>
<path d="M150.128 58.1414H146.905L142.628 52.8669H141.698V58.1414H139.157V43.9127H143.434C146.719 43.9127 148.764 45.8753 148.764 48.3898C148.764 50.3524 147.463 51.947 145.355 52.5603L150.128 58.1414ZM141.698 46.1206V50.659H143.372C145.169 50.659 146.099 49.6164 146.099 48.3898C146.099 47.1019 145.169 46.1206 143.372 46.1206H141.698Z" fill="#144279"/>
<path d="M153.971 58.1414V46.1819H149.942V43.8513H160.542V46.1819H156.575V58.1414H153.971Z" fill="#144279"/>
<path d="M162.463 58.1414V43.6674H162.773L172.195 52.9896C172.195 51.7017 172.133 50.5364 172.133 49.1258V43.9127H174.612V58.448H174.24L164.819 49.1258C164.819 50.4137 164.881 51.7017 164.881 52.9896V58.1414H162.463Z" fill="#144279"/>
<path d="M177.526 58.1414V43.8513H186.513V46.1819H180.129V49.7391H185.398V52.0083H180.129V55.8108H186.761V58.1414H177.526Z" fill="#144279"/>
<path d="M199.778 58.1414H196.555L192.278 52.8669H191.348V58.1414H188.807V43.9127H193.084C196.369 43.9127 198.415 45.8753 198.415 48.3898C198.415 50.3524 197.113 51.947 195.005 52.5603L199.778 58.1414ZM191.348 46.1206V50.659H193.022C194.819 50.659 195.749 49.6164 195.749 48.3898C195.749 47.1019 194.819 46.1206 193.022 46.1206H191.348Z" fill="#144279"/>
<path d="M113.867 38.0863V23.8576H121.181C124.404 23.8576 126.14 25.7588 126.14 27.5374C126.14 29.132 125.148 29.9293 124.28 30.4813C125.21 30.9106 126.698 32.0145 126.698 33.9158C126.698 36.0624 124.9 38.0863 121.429 38.0863H113.867ZM117.71 29.5613H120.933C121.677 29.5613 122.235 29.0707 122.235 28.396C122.235 27.7214 121.739 27.2308 120.933 27.2308H117.772L117.71 29.5613ZM117.71 34.7744H121.243C122.173 34.7744 122.669 34.2838 122.669 33.6091C122.669 32.9345 122.173 32.4439 121.243 32.4439H117.71V34.7744Z" fill="#144279"/>
<path d="M128.805 38.0863V23.8576H137.793V26.1881H131.409V29.684H136.677V32.0145H131.409V35.817H138.041V38.0863H128.805Z" fill="#144279"/>
<path d="M140.21 38.0863V23.8576H144.797C149.694 23.8576 152.669 27.1081 152.669 30.9719C152.669 34.8358 149.694 38.0863 144.797 38.0863H140.21ZM142.814 35.817H144.797C148.083 35.817 150.004 33.7318 150.004 30.9719C150.004 28.2734 148.145 26.1268 144.797 26.1268H142.814V35.817Z" fill="#144279"/>
<path d="M165.934 38.0863H162.711L158.434 32.8118H157.504V38.0863H154.963V23.8576H159.24C162.525 23.8576 164.571 25.8202 164.571 28.3347C164.571 30.2973 163.269 31.8919 161.161 32.5052L165.934 38.0863ZM157.504 26.1268V30.6653H159.178C160.975 30.6653 161.905 29.6227 161.905 28.396C161.905 27.1081 160.975 26.1268 159.178 26.1268H157.504Z" fill="#144279"/>
<path d="M170.025 23.8576H167.422V38.0863H170.025V23.8576Z" fill="#144279"/>
<path d="M171.885 37.5343V34.7744C172.567 35.2651 173.435 35.8784 174.364 35.8784C175.356 35.8784 176.038 35.1424 176.038 34.0998V23.8576H178.579V34.0385C178.579 36.553 176.844 38.2089 174.488 38.2089C173.249 38.2703 172.319 37.841 171.885 37.5343Z" fill="#144279"/>
<path d="M181.431 38.0863V23.8576H190.418V26.1881H184.034V30.2973H189.613V32.6279H184.034V38.0863H181.431Z" fill="#144279"/>
<path d="M191.968 37.105V34.4064C193.332 35.2651 194.881 36.0624 196.617 36.0624C197.981 36.0624 198.848 35.3264 198.848 34.2225C198.848 32.9958 197.919 32.5665 196.059 31.9532C194.138 31.3399 191.968 30.3586 191.968 27.5374C191.968 24.9615 194.2 23.6123 196.741 23.6123C198.6 23.6123 200.088 24.1029 200.956 24.4709V27.1694C199.53 26.3721 198.043 25.9428 196.741 25.9428C195.501 25.9428 194.633 26.4948 194.633 27.5374C194.633 28.7027 195.501 29.1933 197.423 29.7453C199.282 30.3586 201.514 31.2786 201.514 34.2225C201.514 36.921 199.096 38.3929 196.679 38.3929C194.757 38.3929 193.146 37.7183 191.968 37.105Z" fill="#144279"/>
<path d="M208.58 38.3929L202.134 23.8576H204.985L208.89 32.9345L212.733 23.8576H215.584L209.014 38.3929H208.58Z" fill="#144279"/>
<path d="M215.336 30.9719C215.336 26.8628 218.746 23.5509 222.899 23.5509C227.052 23.5509 230.461 26.8628 230.461 30.9719C230.461 35.0811 227.052 38.3929 222.899 38.3929C218.746 38.3929 215.336 35.1424 215.336 30.9719ZM227.857 30.9719C227.857 28.0281 225.75 25.8815 222.961 25.8815C220.171 25.8815 218.064 28.0281 218.064 30.9719C218.064 33.9158 220.171 36.0624 222.961 36.0624C225.75 36.0624 227.857 33.9158 227.857 30.9719Z" fill="#144279"/>
<path d="M232.32 38.0863V23.8576H241.246V26.1881H234.924V29.684H240.193V32.0145H234.924V35.817H241.556V38.0863H232.32Z" fill="#144279"/>
<path d="M254.511 38.0863H251.288L247.011 32.8118H246.081V38.0863H243.54V23.8576H247.817C251.102 23.8576 253.147 25.8202 253.147 28.3347C253.147 30.2973 251.846 31.8919 249.738 32.5052L254.511 38.0863ZM246.143 26.1268V30.6653H247.817C249.614 30.6653 250.544 29.6227 250.544 28.396C250.544 27.1081 249.614 26.1268 247.817 26.1268H246.143Z" fill="#144279"/>
<path d="M258.602 23.8576H255.999V38.0863H258.602V23.8576Z" fill="#144279"/>
<path d="M261.453 38.0863V23.6123H261.763L271.185 32.9345C271.185 31.6466 271.123 30.4813 271.123 29.0707V23.8576H273.603V38.3929H273.231L263.809 29.0707C263.809 30.3586 263.871 31.6466 263.871 32.9345V38.0863H261.453Z" fill="#144279"/>
<path d="M276.082 30.9719C276.082 26.8628 279.429 23.5509 284.016 23.5509C286.248 23.5509 287.921 24.1642 288.975 24.8389V27.5987C287.549 26.6175 286 25.8815 284.016 25.8815C280.793 25.8815 278.747 28.0281 278.747 30.9719C278.747 33.9158 280.793 36.0624 283.892 36.0624C285.07 36.0624 286 35.817 286.743 35.3877V32.8732H283.768V30.6653H289.223V36.737C288.417 37.289 286.557 38.3316 283.892 38.3316C279.429 38.3929 276.082 35.1424 276.082 30.9719Z" fill="#144279"/>
<path d="M291.454 37.105V34.4064C292.818 35.2651 294.368 36.0624 296.103 36.0624C297.467 36.0624 298.335 35.3264 298.335 34.2225C298.335 32.9958 297.405 32.5665 295.545 31.9532C293.624 31.3399 291.454 30.3586 291.454 27.5374C291.454 24.9615 293.686 23.6123 296.227 23.6123C298.087 23.6123 299.574 24.1029 300.442 24.4709V27.1694C299.016 26.3721 297.529 25.9428 296.227 25.9428C294.987 25.9428 294.12 26.4948 294.12 27.5374C294.12 28.7027 294.987 29.1933 296.909 29.7453C298.769 30.3586 301 31.2786 301 34.2225C301 36.921 298.583 38.3929 296.165 38.3929C294.182 38.3929 292.632 37.7183 291.454 37.105Z" fill="#144279"/>
</svg>
