<svg id="logo" xmlns="http://www.w3.org/2000/svg" width="294" height="125" viewBox="0 0 294 125">
  <defs>
    <style>
      .cls-1 {
        fill: #0b4374;
      }

      .cls-2 {
        fill: #fff;
      }
    </style>
  </defs>
  <g>
    <g>
      <rect class="cls-1" x="120.28" y="-0.24" width="49.83" height="100"/>
      <path class="cls-2" d="M146.05,77h-.86V74.63h.86ZM150,66.42h-.86V64H150Zm-16-4.15c-.06,0-.51,0-.51.09s.2,0,.51.1c.69.12,1,.47,1.45.47a.69.69,0,0,0,.72-.94c0-.1-.1-.08-.11,0a.76.76,0,0,1-.79.45A12.59,12.59,0,0,0,133.92,62.27Zm-4.77,2.4c.08.11.89,1.16-.37,1.57-.05,0-.08.07,0,.11a1.07,1.07,0,0,0,1.38-.33,1.41,1.41,0,0,1-.25,1.67,2,2,0,0,0,1.22.67,1.61,1.61,0,0,0,.76-.8,1.49,1.49,0,0,1,0,.91c1.9.17,2.57-1.35,4-1.08,0,0,.07,0,.07-.06a3,3,0,0,0-2.38-3c-1.8-.35-1.32-1.09-1.32-1.09a2,2,0,0,1,1.21.3.46.46,0,0,0-.06-.47,1.21,1.21,0,0,0,.11-.4c-.85,0-1.08-.19-1.08-.19-.14-.51.22-1.23,1.49-.46a1,1,0,0,0,.29-.72.31.31,0,0,0,.15-.26c0-.21-1-.78-1.27-.85-.07-.31-.46-.76-1.65-.6-.57.07-1-.08-.78-.4,0-.06-.07-.07-.12,0s-.31.5.19.75a1.08,1.08,0,0,1,.58.91c0,.12-.14.12-.16,0a1.53,1.53,0,0,0-2.28-.64,1,1,0,0,0,.87.83.43.43,0,0,0,.4-.39c0-.11.06-.1.1,0a.68.68,0,0,1-1.1.6,2,2,0,0,0-.36,2c.13.61-.16,1.19-.7.92,0,0-.06,0-.06,0A.68.68,0,0,0,129.15,64.67Zm4.06-3.73a.58.58,0,0,1-1-.34C132.88,60.56,133.18,60.62,133.21,60.94Zm22,1.48c-.36,0-.72-.17-.78-.45,0-.07-.08-.1-.11,0a.69.69,0,0,0,.72.94c.48,0,.75-.36,1.44-.48.31,0,.52,0,.52-.09s-.45-.1-.52-.1C155.74,62.27,155.64,62.42,155.18,62.42Zm7.13,1.76c0-.07,0-.06-.06,0-.54.27-.83-.31-.7-.92a2,2,0,0,0-.36-2,.68.68,0,0,1-1.1-.6c0-.08.09-.1.09,0a.42.42,0,0,0,.41.39,1,1,0,0,0,.87-.83,1.53,1.53,0,0,0-2.28.64c0,.12-.17.11-.16,0a1.08,1.08,0,0,1,.58-.91c.5-.25.31-.63.19-.75s-.15,0-.12,0c.19.32-.22.47-.78.4-1.19-.16-1.59.29-1.65.6-.26.07-1.27.64-1.27.85a.33.33,0,0,0,.14.26,1,1,0,0,0,.3.72c1.27-.77,1.62-.05,1.49.46,0,0-.23.19-1.08.19a1.21,1.21,0,0,0,.11.4.46.46,0,0,0-.06.47,2,2,0,0,1,1.21-.3s.48.75-1.32,1.09a3.06,3.06,0,0,0-2.38,3s0,.06.07.06c1.46-.27,2.12,1.25,4,1.08a1.49,1.49,0,0,1,0-.91,1.65,1.65,0,0,0,.76.8,2,2,0,0,0,1.22-.67,1.39,1.39,0,0,1-.25-1.67,1.07,1.07,0,0,0,1.38.33c.08,0,.07-.09,0-.11-1.25-.41-.43-1.46-.36-1.57A.68.68,0,0,0,162.31,64.18Zm-4.1-3.58a.58.58,0,0,1-1,.34C157.2,60.62,157.49,60.56,158.21,60.6ZM144.85,49.92a.74.74,0,0,0,.12.38c.11.16.1.24,0,.3s-.13.06-.3,0a.63.63,0,0,0-.37-.13.37.37,0,0,0-.41.34.38.38,0,0,0,.41.34.7.7,0,0,0,.37-.12c.17-.11.25-.09.3,0a3.65,3.65,0,0,1-.08,1,.82.82,0,0,0-.68.67c0,.54.59.85.92,1,.34-.18.92-.5.92-1a.79.79,0,0,0-.67-.67,3.3,3.3,0,0,1-.08-1c0-.05.13-.07.29,0a.78.78,0,0,0,.38.12.36.36,0,0,0,.41-.34.38.38,0,0,0-.41-.34.69.69,0,0,0-.38.13c-.16.1-.24.09-.29,0s-.07-.14,0-.3a.74.74,0,0,0,.12-.38.37.37,0,0,0-.34-.41A.38.38,0,0,0,144.85,49.92Zm.34,4.06a.65.65,0,0,0-.66.66.66.66,0,1,0,.66-.66Zm0,6.4a13.86,13.86,0,0,1,4.15.52c0-1.35,0-2.11.77-2-.42-1.12,1.39-1.57,1.39-3,0-1-.69-1.08-.89-1.08-.59,0-.51.39-1,.39-.07,0-.14,0-.14,0s.15.46.38.46.32-.31.55-.31.25.08.25.4a3.09,3.09,0,0,1-.89,1.86.54.54,0,0,0-.45-.24.62.62,0,0,0-.54.66,1.1,1.1,0,0,0,.07.36,1,1,0,0,1-.41.13.5.5,0,0,1-.54-.57c0-1.07,1.43-2,1.43-3.36A1.24,1.24,0,0,0,148,53.3c-1,0-.79.88-1.63.88,0,0-.06,0-.06,0s.15.54.58.54.59-.8,1-.8c.15,0,.38.1.38.64a4.86,4.86,0,0,1-.52,1.76.61.61,0,0,0-.42-.19.69.69,0,0,0-.6.76.92.92,0,0,0,.28.68c-.22.27-.42.49-.72.49-.58,0-.82-.33-.82-.69s.7-.53.7-1.13a.58.58,0,0,0-.53-.64.71.71,0,0,0-.44.18.8.8,0,0,0-.45-.18.58.58,0,0,0-.53.64c0,.61.71.75.71,1.13s-.26.69-.83.69a1,1,0,0,1-.71-.49,1,1,0,0,0,.28-.68.69.69,0,0,0-.61-.76.65.65,0,0,0-.42.19,5,5,0,0,1-.51-1.76c0-.54.23-.64.38-.64.4,0,.54.8,1,.8s.58-.49.58-.54,0,0-.07,0c-.84,0-.65-.88-1.62-.88a1.24,1.24,0,0,0-1.33,1.29c0,1.35,1.44,2.29,1.44,3.36a.51.51,0,0,1-.54.57,1,1,0,0,1-.42-.13.83.83,0,0,0,.06-.36.62.62,0,0,0-.54-.66.55.55,0,0,0-.44.24,3,3,0,0,1-.9-1.86c0-.32.15-.4.25-.4s.24.31.55.31.38-.29.38-.46-.07,0-.13,0c-.52,0-.42-.39-1-.39-.2,0-.89.1-.89,1.08,0,1.48,1.81,1.91,1.39,3,.77-.1.76.64.77,2A14.26,14.26,0,0,1,145.19,60.38Zm-4.87,2c-.72.17-1.24.32-1.47.38,0-.32.13-.62.41-.67a.05.05,0,0,0,0-.09c-.65-.43-1,.4-1,.43-.23,0-.58,0-.58.36,0,.92-2.11,1.44-2.6,1.52a2.48,2.48,0,0,1,1.22,1.43,5.3,5.3,0,0,1,1.51-1.18c.16,0,.23.2.24.33s.05.06.07,0c.33-.49.18-.6.15-.75a.41.41,0,0,1,.49-.49v6.19l-.25.06c-.1,0-1-.75-2-1.47s-1.58-.29-2.76.35a3.61,3.61,0,0,1-3.09.08c-1.33.95-1.79,3.71-1.79,3.71a3.16,3.16,0,0,1-1.12.23c-1,0-1.2-.61-1.2-1,0-1.57,2-2.24,2-3.78a1.87,1.87,0,0,0-2.06-1.9h-1.69a1,1,0,0,1-1-.71c0-.08-.11,0-.08,0s-.08.32-.08.72a.93.93,0,0,0,1,1,1.58,1.58,0,0,0,.7-.15c.07,0,.1,0,.07.06a1.25,1.25,0,0,0-.2,1.16s.07,0,.07,0A1.69,1.69,0,0,1,126.92,67a1,1,0,0,1,1,1.09c0,1.26-2.2,2.18-2.2,3.91s1.85,2.13,2.92,1.86c-.07,1.75-2.07,2.36-2.12,1.1,0-.06-.06-.07-.09,0-.25.62-.14,1.16.63,1.34.05,0,0,0,0,.08-.77.49-.35,2.43-.31,3,0,.83-.76.72-.83.7s-.06,0,0,.07a.87.87,0,0,0,1.29.06c.54.16.2.62-.15.86-.06,0-.06.09,0,.09s.92.08,1.07-.6a.87.87,0,0,0,1,.22c.16-.09.94-.37,1,.51,0,.07,0,0,.07,0a.72.72,0,0,0-.39-1.26.6.6,0,0,1,.93.1s.05,0,.05,0c.06-.95-.71-1-1.21-.63,0-.09-.19-.62.55-.61,0,0,0,0,0-.06a.71.71,0,0,0-1.17.08c-.26.31-.91.19-1,.17.2-3.28,3.08-2.11,3.47-3.71,0-.09.06-.06.07,0,.11.39,1.08.45,1.27-.33,0,0,0-.08,0,0-.83.84-2.71-1.78-.14-3.91a3.71,3.71,0,0,1,4.89-.2.31.31,0,0,1-.22.38s0,0,0,.06a.53.53,0,0,0,.63-.13c.48.32.07.75-.12.85s0,.07,0,.07a.73.73,0,0,0,.79-.62l.07,0v1.87c0,2.66,3.06,3,6.41,5.28,3.35-2.25,6.41-2.62,6.41-5.28V71.44l.07,0a.76.76,0,0,0,.8.62s.05,0,0-.07-.6-.53-.12-.85a.53.53,0,0,0,.63.13c.06,0,0,0,0-.06a.31.31,0,0,1-.22-.38,3.72,3.72,0,0,1,4.9.2c2.57,2.13.69,4.74-.15,3.91,0,0,0,0,0,0,.18.78,1.16.72,1.27.33,0,0,0-.07.07,0,.39,1.6,3.27.43,3.47,3.71,0,0-.7.14-1-.17a.7.7,0,0,0-1.17-.08s0,.06,0,.06c.75,0,.58.52.56.61-.5-.4-1.26-.32-1.22.63,0,.07,0,.07.05,0a.61.61,0,0,1,.94-.1.72.72,0,0,0-.4,1.26s.07.07.07,0c.08-.88.85-.6,1-.51a.91.91,0,0,0,1-.22c.15.66,1,.6,1.07.6s.07,0,0-.09c-.37-.24-.69-.7-.15-.86a.86.86,0,0,0,1.28-.06c.06-.07,0-.08,0-.07a.64.64,0,0,1-.83-.7c0-.57.46-2.51-.31-3-.05,0-.08-.07,0-.08.79-.18.88-.72.63-1.34,0-.09-.08-.07-.08,0-.06,1.26-2.07.66-2.13-1.1,1.07.28,2.92-.1,2.92-1.86s-2.2-2.66-2.2-3.91a1,1,0,0,1,1-1.09A1.73,1.73,0,0,1,165,68.26s0,0,.06,0a1.22,1.22,0,0,0-.2-1.16s0-.1.07-.06a1.58,1.58,0,0,0,.7.15.94.94,0,0,0,1.06-1c0-.4-.14-.59-.08-.72s0-.11-.09,0a1,1,0,0,1-1,.71h-1.69a1.87,1.87,0,0,0-2.06,1.9c0,1.54,2,2.22,2,3.78,0,.37-.19,1-1.21,1a3.16,3.16,0,0,1-1.12-.23s-.45-2.76-1.79-3.71a3.61,3.61,0,0,1-3.09-.08c-1.18-.64-1.73-1.07-2.76-.35s-1.93,1.48-2,1.47l-.25-.06V63.66a.41.41,0,0,1,.49.49c0,.15-.19.26.15.75,0,0,.07,0,.07,0s.08-.33.24-.33A5.3,5.3,0,0,1,154,65.73a2.57,2.57,0,0,1,1.22-1.43c-.48-.08-2.59-.58-2.59-1.52,0-.31-.36-.38-.59-.36,0,0-.35-.86-1-.43,0,0,0,.07,0,.09.28.06.4.36.42.67a23.33,23.33,0,0,0-6.35-.92,22.64,22.64,0,0,0-4,.38v2.15h-.86v-2h0m-5.73,22a.54.54,0,0,1-.38-.54V82.46a9.38,9.38,0,0,0-3.49-.53c-1.72,0-2.26.39-2.29.53L128,85s.71-.63,3.19-.47c3,.19,6.13,2,6.13.07V83.47C134.92,83.46,134.59,84.21,134.59,84.33Zm18.5-.87v1.11c0,1.9,3.11.12,6.12-.07,2.5-.16,3.19.48,3.19.48l-.46-2.54c0-.13-.56-.53-2.28-.53a9.62,9.62,0,0,0-3.49.53v1.33a.53.53,0,0,1-.38.54C155.79,84.21,155.45,83.46,153.09,83.46Zm-7.9-1.15c4.84,0,9.76.25,10.4,1,0,0,.06,0,.06,0V80.68c0-.75-5.07-1.2-10.48-1.2s-10.48.44-10.48,1.2v2.58s0,.11.07,0C135.42,82.56,140.35,82.31,145.19,82.31Zm-4.32-12.15-.48-.12,0,0-.57-.24h.51c.06,0,.06,0,0,0l-.43-.42.56.2c.05,0,.06,0,0,0L140.1,69l.56.37s.05,0,0,0l-.26-.65.5.48s.06,0,0,0c0-.23-.13-.65-.13-.65l.36.54s.06,0,.06,0,0-.6,0-.6l.23.54s0,0,.07,0,.19-.46.19-.46l0,.61h-.08l-.11.75c.73-.18,1.64-1.43,2.34-1.43s1.14,1,2.68.49a4.49,4.49,0,0,1,.68,1.76c.59.56,1.43.38,1.43-.21,0-.8-.86-1-.86-1.79a.9.9,0,0,1,1-.91c.38,0,.92.16,1.24.16a.48.48,0,0,0,.5-.38c0-.08.14,0,.13,0s0,.19,0,.37c0,.53-.77.6-.87.53s-.07,0,0,0,.09.41-.05.61c0,0,0,0,0,0a1.16,1.16,0,0,0-.91-.84.41.41,0,0,0-.43.42c0,.48.94.91.94,1.89s-1,1.26-2,1c.05,1,1.48,1.55,1.52.86,0-.06,0,0,0,0a.37.37,0,0,1-.16.64c.25.11.29.62.36.92.11.45.6.2.61.19s0,0,0,0a.5.5,0,0,1-.66.29c-.26.18.05.34.28.41,0,0,0,0,0,0-.18.07-.53.18-.7-.12a.5.5,0,0,1-.5.31c-.19,0-.32.19-.27.45,0,0,0,0,0,0a.4.4,0,0,1,0-.73.31.31,0,0,0-.45.22s0,0-.05,0c-.18-.52.23-.67.53-.53a.47.47,0,0,0-.58-.25s0,0,0,0c.06-.17.25-.4.62-.15.19.11.5-.06.53-.07-.65-1.29-1.9-.2-2.18-1.22,0,0,0,0,0,0-.07.22-.61.23-.72-.19,0,0,0,0,0,0s.25.15.47-.18a1.23,1.23,0,0,0,.17-.7,2.23,2.23,0,0,0-2-2.11,3.89,3.89,0,0,0-2.21.75l.57.14a.88.88,0,0,1-1.12.77l.09-.67a.83.83,0,0,0-.43.29h0a.51.51,0,0,1,.3-.61s0,0,0,0a.56.56,0,0,0-.48.25s0,0,0,0A.44.44,0,0,1,140.87,70.16Zm1.69,4.48c-.21.27-.4,0-.7,0a.31.31,0,0,0-.32.32s0,0,0,0c-.31-.42,0-.66.23-.68a.37.37,0,0,0-.53,0s0,0,0,0c0-.51.4-.55.67-.32.06-.19-.08-.33-.3-.34,0,0,0,0,0,0a.41.41,0,0,1,.27-.15c.28,0,.33.37.51.37s.68-.38.72-.42a3.46,3.46,0,0,1-.23-1.19s0,0,0,0-.49.07-.49-.35c0,0,0,0,0,0,.15.21.39,0,.53-.17s.83-1.19,1.79-1.19a1.25,1.25,0,0,1,.69.27c-.32.39,0,.79.25.73a0,0,0,0,1,0,0c-1.26.47-1.81.66-1.81,1.71,0,.56.18.85.51.79,0,0,0,0,0,0a.48.48,0,0,1-.36.19c-.26,0-.31-.15-.45-.15s-.61.28-.61.51a.43.43,0,0,0,.22.31s0,0,0,0A.42.42,0,0,1,142.56,74.64Zm3.3-10.24c-.39,0-.65.06-.63.19C145.42,64.79,145.67,64.76,145.86,64.4Zm-1.44,1a1.68,1.68,0,0,1,.61,0s0,.08,0,.08c-.58.07-.61.34-1,.34a.46.46,0,0,1-.41-.61s.06,0,.06,0S144,65.48,144.42,65.36Zm-7.49,12.85c.37.49.74,0,1.25,0,.25,0,.54.08.6.57,0,0,0,0,.05,0a.72.72,0,0,0-.43-1.23.66.66,0,0,1,.95.09s.05,0,.05,0c0-1-.7-1-1.22-.61a.49.49,0,0,1,.54-.61s.06,0,0-.05c-.63-.68-1.1.17-1.21.31-.26.34-1.17-.3-1.52-.68a3,3,0,0,0,.8-1.61v-.14s0,0,0,0a.7.7,0,0,0,.3.08c.18,0,.52-.06.52-.71,0-.05,0,0,0,0a.33.33,0,0,1-.28.16c-.65,0-2-2.16-3.59-2.16a2.58,2.58,0,0,0-1.59.74.49.49,0,0,1,.2.51.58.58,0,0,1-.47.48s0,0,0,0a15.27,15.27,0,0,1,2.59,1.16c.4.33.32,1,.1,1.87s-.69.73-.87.7c0,0,0,0,0,0a.85.85,0,0,0,.68.35c.42,0,.56-.25.78-.25.37,0,1.12.51,1.12.92a.76.76,0,0,1-.39.57s0,0,0,0S136.79,78.85,136.93,78.21Zm17.55.56s0,0,0,0a.73.73,0,0,1-.39-.57c0-.4.76-.92,1.12-.92s.37.25.79.25a.82.82,0,0,0,.67-.35s0,0,0,0c-.18,0-.65.15-.87-.7s-.29-1.54.1-1.87a15.27,15.27,0,0,1,2.59-1.16s0,0,0,0a.62.62,0,0,1-.47-.48.52.52,0,0,1,.2-.51,2.61,2.61,0,0,0-1.59-.74c-1.58,0-2.94,2.16-3.59,2.16a.35.35,0,0,1-.28-.16s0,0,0,0c0,.65.34.71.53.71a.61.61,0,0,0,.3-.08s0,0,0,0v.14a3,3,0,0,0,.8,1.61c-.37.38-1.27,1-1.51.68-.11-.14-.59-1-1.22-.31,0,0,0,.05,0,.05a.5.5,0,0,1,.54.61c-.51-.4-1.22-.34-1.22.61,0,0,0,0,.06,0a.63.63,0,0,1,.94-.09.72.72,0,0,0-.43,1.23s0,0,.05,0c.06-.49.36-.57.6-.57.5,0,.87.46,1.26,0C153.6,78.85,154.3,78.79,154.48,78.77ZM141.62,66.3c-.06.06-.22,0-.29,0s0,0,0,0,.2.37.45.37a.45.45,0,0,0,.31-.14l1.39.44a1.49,1.49,0,0,0-.31.84c-.38-.23-1.87-1-1.87-1l-.46.63c-.08.11-.44-.16-.36-.27l.35-.48c-.12-.13-.39,0-.47,0s0,0,0,0a.52.52,0,0,1,.67-.26c0-.27-.4-.17-.5-.15s0,0,0,0a.62.62,0,0,1,.79-.16l.17-.22-.33-.34.2-.27.23.3,1.72-2.38a1.91,1.91,0,0,1,.52-.19,1.9,1.9,0,0,1,0,.55l-1.69,2.38.35.13-.21.28-.42-.2Zm6-.38c0,.21.14.53.42.44,0,0,0,0,0,0,0,.24-.47.46-.68.17a.65.65,0,0,0,.25.93,0,0,0,0,1,0,0,.51.51,0,0,1-.75-.19.64.64,0,0,0-.08.9,2,2,0,0,1-1.64.15,2.87,2.87,0,0,0-1.59-.52c.09-.94.55-1.18,1.42-1.32.69-.1.77-.42.68-.66a1.28,1.28,0,0,0-.67.15c-.08-.12,0-.26,0-.26a.66.66,0,0,1-.06-.22c.47,0,.56-.11.56-.11.08-.5-.42-.55-.81-.28a.48.48,0,0,1-.15-.37s-.08-.11-.08-.15.57-.43.72-.47.24-.39.84-.34a1.92,1.92,0,0,0-.12-.91s0-.07.06,0c.22.14.42.62.57.64,0,0,.68-.35.72-.34a7.21,7.21,0,0,1,.12.77c.09.11.61,0,.84.1,0,0,0,.06,0,.08a1.9,1.9,0,0,0-.81.42A2.2,2.2,0,0,1,147.66,65.92Z"/>
    </g>
    <g>
      <path d="M181.5,64.18a1.08,1.08,0,0,0,.9-1.21V55.29l-1-.24v-.34a6.1,6.1,0,0,1,1.77-.25,6,6,0,0,1,1.46.17v.3c-.65.19-.91.46-.91,1.15v7.71l1,.24v.34a5.7,5.7,0,0,1-1.86.27,4.79,4.79,0,0,1-1.38-.16v-.3Zm2.3-4.75,3.69-4.19v0l-.84-.19v-.32a5.06,5.06,0,0,1,1.69-.25,3.38,3.38,0,0,1,1.07.14v.3a3.36,3.36,0,0,0-1.14.83l-3.11,3.48,2.77,3.53a4,4,0,0,0,1.74,1.33v.31a1.81,1.81,0,0,1-1.11.34c-.75,0-1.21-.24-1.95-1.29l-2.81-3.92Z"/>
      <path d="M194.24,60.43V60c0-1.68-.41-2-1.38-2a3.3,3.3,0,0,0-2.34,1,2.42,2.42,0,0,1,0-.47c0-1,.73-1.58,2.55-1.58,1.57,0,2.5.8,2.5,2.09,0,.34,0,1.13-.06,1.58l0,2.52a1.86,1.86,0,0,0,.62.8,3.29,3.29,0,0,1-1.06.8,2.17,2.17,0,0,1-.71-.76,3.23,3.23,0,0,1-2.1.75,1.79,1.79,0,0,1-2-1.74C190.18,61.6,191.68,60.43,194.24,60.43Zm-1.5,3.34a3.22,3.22,0,0,0,1.48-.42V61.17c-1.76,0-2.7.73-2.7,1.57C191.52,63.37,191.94,63.77,192.74,63.77Z"/>
      <path d="M197.16,64.21c.4-.15.82-.47.82-.84V58.1l-1-.42v-.34a7.41,7.41,0,0,1,1.86-.28h.38v.84a3.35,3.35,0,0,1,2.3-.87c1.3,0,2.18.83,2.18,2.43v4.37l.81.23v.3a4.38,4.38,0,0,1-1.64.27,3.16,3.16,0,0,1-1-.14v-.27c.39-.18.55-.46.55-1v-3c0-1.53-.63-2.1-1.55-2.1a2.8,2.8,0,0,0-1.61.49v5.25l.87.23v.3a5,5,0,0,1-1.8.27,4.17,4.17,0,0,1-1.17-.14v-.29Z"/>
      <path d="M205.6,62.8a3.1,3.1,0,0,0,2.19,1c.86,0,1.32-.43,1.32-1s-.31-.89-1.34-1.33l-.78-.32a2.06,2.06,0,0,1-1.41-1.94,2.48,2.48,0,0,1,2.71-2.3c1.24,0,1.74.38,1.74,1a2.82,2.82,0,0,1-.08.65,3.41,3.41,0,0,0-1.77-.6c-1,0-1.46.44-1.46,1s.28.87,1.21,1.24l.84.32c1.13.44,1.55,1,1.55,2,0,1.2-1.15,2.29-2.9,2.29-1.36,0-2-.44-2-1.28A1.3,1.3,0,0,1,205.6,62.8Z"/>
      <path d="M211.36,62.8a3.1,3.1,0,0,0,2.19,1c.86,0,1.32-.43,1.32-1s-.31-.89-1.34-1.33l-.78-.32a2.06,2.06,0,0,1-1.41-1.94,2.48,2.48,0,0,1,2.71-2.3c1.24,0,1.74.38,1.74,1a2.82,2.82,0,0,1-.08.65,3.41,3.41,0,0,0-1.77-.6c-1,0-1.46.44-1.46,1s.28.87,1.22,1.24l.83.32c1.13.44,1.55,1,1.55,2,0,1.2-1.15,2.29-2.9,2.29-1.36,0-2-.44-2-1.28A1.43,1.43,0,0,1,211.36,62.8Z"/>
      <path d="M219.15,67.52l1,.21v.32a6.35,6.35,0,0,1-2,.24,4.05,4.05,0,0,1-1.16-.14v-.27c.41-.13.82-.44.82-.84V58.1l-1-.42v-.34a7.48,7.48,0,0,1,1.87-.28h.38v.71a3.1,3.1,0,0,1,2-.8c1.57,0,2.82,1.16,2.82,3.29,0,2.9-1.8,4.39-3.8,4.39a2.83,2.83,0,0,1-1-.19v3.06Zm1-3.75c1.38,0,2.48-1,2.48-3.17,0-1.73-1-2.59-2-2.59a2.82,2.82,0,0,0-1.44.35v5.29A3.3,3.3,0,0,0,220.13,63.77Z"/>
      <path d="M228.31,56.93a2.61,2.61,0,0,1,2.7,2.92c0,.3,0,.61,0,1h-4.6c0,1.76,1,2.77,2.3,2.77a4,4,0,0,0,2.19-.68,1.38,1.38,0,0,1,.07.41c0,.71-1,1.36-2.68,1.36a3.28,3.28,0,0,1-3.21-3.57C225.06,58.43,226.69,56.93,228.31,56.93ZM229.76,60c0-1.53-.65-2.27-1.57-2.27A2.18,2.18,0,0,0,226.43,60Z"/>
      <path d="M231.7,64.21c.4-.15.82-.47.82-.84V54.31l-1-.42v-.34a7.41,7.41,0,0,1,1.86-.28h.5l-.08.87v9.67l.87.23v.3a5,5,0,0,1-1.8.27,4.05,4.05,0,0,1-1.16-.13Z"/>
      <path d="M239.86,60.43V60c0-1.68-.4-2-1.38-2a3.33,3.33,0,0,0-2.34,1,3.57,3.57,0,0,1,0-.47c0-1,.73-1.58,2.56-1.58,1.57,0,2.5.8,2.5,2.09,0,.34,0,1.13-.07,1.58L241,63.12a2,2,0,0,0,.62.8,3.35,3.35,0,0,1-1,.8,2.11,2.11,0,0,1-.72-.76,3.21,3.21,0,0,1-2.1.75,1.79,1.79,0,0,1-2-1.74C235.82,61.6,237.31,60.43,239.86,60.43Zm-1.48,3.34a3.22,3.22,0,0,0,1.48-.42V61.17c-1.76,0-2.7.73-2.7,1.57C237.16,63.37,237.58,63.77,238.38,63.77Z"/>
      <path d="M243.31,58.1l-.89-.43v-.33a6.79,6.79,0,0,1,1.74-.3h.52l-.1.87v3.53c0,1.64.52,2.17,1.52,2.17a3.07,3.07,0,0,0,1.53-.45V58.1l-.91-.43v-.33a7,7,0,0,1,1.76-.3H249l-.09.87v5.28a2.6,2.6,0,0,0,.59.81,3.91,3.91,0,0,1-1.05.74,2,2,0,0,1-.73-.91,3.66,3.66,0,0,1-2.25.82c-1.32,0-2.15-.76-2.15-2.56Z"/>
      <path d="M251.24,60.22l0-2.08h-.85v-.51L252.11,56l.52-.07-.07,1.41h2.06l-.11.84h-2l0,2c0,.65,0,1.25,0,1.83,0,1.26.38,1.7,1,1.7a1.89,1.89,0,0,0,1.15-.41l.16.07c-.07.92-.61,1.38-1.68,1.38-1.24,0-1.85-.65-1.85-2.17C251.18,61.76,251.22,60.94,251.24,60.22Z"/>
      <path d="M258.9,56.92a3.38,3.38,0,0,1,3.4,3.61,3.88,3.88,0,0,1-3.64,4.19,3.35,3.35,0,0,1-3.41-3.61C255.25,58.56,257,56.92,258.9,56.92Zm-.15,6.91c1.05,0,2.14-1,2.14-3.15,0-1.83-1-2.84-2.08-2.84s-2.14,1.07-2.14,3.14C256.66,62.85,257.65,63.83,258.75,63.83Z"/>
      <path d="M263.31,64.21c.41-.15.83-.47.83-.84V58.1l-1-.42v-.34a7.48,7.48,0,0,1,1.87-.28h.38v1.09h0l.43-.48a1.83,1.83,0,0,1,1.37-.7c.54,0,.81.23.81.68a2.18,2.18,0,0,1-.24.94,1.6,1.6,0,0,0-1-.35,1.93,1.93,0,0,0-1.37.63v5l1.07.23v.3a5.28,5.28,0,0,1-1.93.27,4.39,4.39,0,0,1-1.25-.14Z"/>
      <path d="M268.84,64.21c.42-.15.83-.47.83-.84V58.1l-1-.42v-.33a7.43,7.43,0,0,1,1.85-.29h.5l-.08.84v5.93l.86.23v.3a4.82,4.82,0,0,1-1.79.27,4.21,4.21,0,0,1-1.17-.14v-.28Zm.65-9.49a.88.88,0,0,1,.89-.92.8.8,0,0,1,.82.84.91.91,0,0,1-.87,1A.82.82,0,0,1,269.49,54.72Z"/>
      <path d="M273.32,60.22l.05-2.08h-.86v-.51L274.18,56l.52-.07-.07,1.41h2.06l-.11.84h-2l0,2c0,.65,0,1.25,0,1.83,0,1.26.38,1.7.95,1.7a1.91,1.91,0,0,0,1.15-.41l.14.07c-.06.92-.6,1.38-1.67,1.38-1.25,0-1.86-.65-1.86-2.17C273.28,61.76,273.31,60.94,273.32,60.22Z"/>
      <path d="M280.58,56.93a2.6,2.6,0,0,1,2.69,2.92c0,.3,0,.61,0,1h-4.59c0,1.76,1,2.77,2.3,2.77a4,4,0,0,0,2.19-.68,1.38,1.38,0,0,1,.07.41c0,.71-1,1.36-2.68,1.36a3.28,3.28,0,0,1-3.21-3.57C277.32,58.43,279,56.93,280.58,56.93ZM282,60c0-1.53-.65-2.27-1.57-2.27A2.18,2.18,0,0,0,278.7,60Z"/>
      <path d="M284.3,64.21c.42-.15.82-.47.82-.84V58.1l-1-.42v-.33a7.49,7.49,0,0,1,1.86-.29h.5l-.08.84v5.93l.86.23v.3a4.88,4.88,0,0,1-1.8.27,4.19,4.19,0,0,1-1.16-.14v-.28Zm.66-9.49a.88.88,0,0,1,.89-.92.8.8,0,0,1,.82.84.91.91,0,0,1-.87,1A.81.81,0,0,1,285,54.72Z"/>
      <path d="M288.79,60.22l0-2.08H288v-.51L289.67,56l.51-.07-.07,1.41h2.06l-.11.84h-2l0,2c0,.65,0,1.25,0,1.83,0,1.26.38,1.7,1,1.7a1.87,1.87,0,0,0,1.15-.41l.15.07c-.07.92-.61,1.38-1.68,1.38-1.24,0-1.85-.65-1.85-2.17C288.74,61.76,288.78,60.94,288.79,60.22Z"/>
    </g>
  </g>
</svg>
