<svg xmlns="http://www.w3.org/2000/svg" width="141.077" height="94.106"><defs><clipPath id="a"><path fill="none" d="M0 0h141.077v94.106H0z" data-name="Rectangle 20185"/></clipPath></defs><g fill="#ea5403" clip-path="url(#a)" data-name="Group 13877"><path d="M16.495 54.186a8.411 8.411 0 0 1 8.694-8.49 8.878 8.878 0 0 1 5.846 2.11l-2.212 2.415a5 5 0 0 0-3.558-1.3 5.279 5.279 0 0 0 0 10.549 5.211 5.211 0 0 0 3.787-1.652v-2.415h-2.8V52.81h6.05v6.406a8.8 8.8 0 0 1-15.811-5.033" data-name="Path 13468"/><path d="M44.838 54.975a3.07 3.07 0 0 0-3.076-2.669 3.186 3.186 0 0 0-3.076 2.669Zm-9.558 1.093a6.526 6.526 0 0 1 6.584-6.609 6.354 6.354 0 0 1 6.177 6.558 11.263 11.263 0 0 1-.076 1.22h-9.227a3.362 3.362 0 0 0 3.533 2.593 6.3 6.3 0 0 0 3.432-.991l1.271 2.44a8.561 8.561 0 0 1-4.728 1.4c-3.711 0-6.965-2.415-6.965-6.609" data-name="Path 13469"/><path d="m50.786 51.513 3.33-1.8v1.7a4.6 4.6 0 0 1 3.762-1.957 3.915 3.915 0 0 1 3.915 2.262 4.909 4.909 0 0 1 4.118-2.262c3.584 0 4.7 2.466 4.7 5.719v7.244h-3.406v-6.812c0-1.677-.407-2.923-2.211-2.923-1.678 0-2.593 1.347-2.593 3.025v6.711h-3.406v-6.812c0-1.677-.381-2.923-2.211-2.923-1.729 0-2.593 1.474-2.593 3.152v6.584h-3.406Z" data-name="Path 13470"/><path d="M82.714 54.975a3.07 3.07 0 0 0-3.076-2.669 3.186 3.186 0 0 0-3.076 2.669Zm-9.558 1.093a6.526 6.526 0 0 1 6.584-6.609 6.354 6.354 0 0 1 6.177 6.558 11.254 11.254 0 0 1-.076 1.22h-9.227a3.362 3.362 0 0 0 3.533 2.593 6.3 6.3 0 0 0 3.432-.991l1.271 2.44a8.562 8.562 0 0 1-4.728 1.4c-3.711 0-6.965-2.415-6.965-6.609" data-name="Path 13471"/><path d="M97.838 54.975a3.07 3.07 0 0 0-3.076-2.669 3.187 3.187 0 0 0-3.076 2.669Zm-9.558 1.093a6.526 6.526 0 0 1 6.584-6.609 6.354 6.354 0 0 1 6.177 6.558 11.267 11.267 0 0 1-.076 1.22h-9.227a3.362 3.362 0 0 0 3.533 2.593 6.3 6.3 0 0 0 3.432-.991l1.271 2.44a8.562 8.562 0 0 1-4.728 1.4c-3.711 0-6.965-2.415-6.965-6.609" data-name="Path 13472"/><path d="m103.786 51.457 3.33-1.744v1.7a4.741 4.741 0 0 1 4.016-1.957c3.355 0 4.525 2.161 4.525 5.643v7.321h-3.406v-6.886c0-1.856-.483-2.847-2.211-2.847-1.7 0-2.847 1.373-2.847 3.3v6.431h-3.406Z" data-name="Path 13473"/><path d="M119.445 58.33v-5.868h-2.034v-2.745h2.034v-1.366l3.406-1.837v3.2h2.034v2.748h-2.034v5.821c0 1.093.534 1.449 1.144 1.449a3.113 3.113 0 0 0 1.627-.534l.966 2.516a5.856 5.856 0 0 1-3.228.966c-2.542 0-3.915-1.474-3.915-4.347" data-name="Path 13474"/><path d="M137.874 54.975a3.07 3.07 0 0 0-3.076-2.669 3.186 3.186 0 0 0-3.076 2.669Zm-9.558 1.093a6.526 6.526 0 0 1 6.584-6.609 6.354 6.354 0 0 1 6.177 6.558 11.271 11.271 0 0 1-.076 1.22h-9.227a3.362 3.362 0 0 0 3.533 2.593 6.3 6.3 0 0 0 3.432-.991l1.271 2.44a8.562 8.562 0 0 1-4.728 1.4c-3.711 0-6.965-2.415-6.965-6.609" data-name="Path 13475"/><path d="M16.68 72.228h3.076l2.593 3.661c.966 1.347 2.974 4.271 2.974 4.271s2.033-2.9 2.974-4.245l2.593-3.686h3.076v16.472h-3.559V78.278s-.635 1.042-1.5 2.288l-3.581 5.109-3.609-5.135c-.839-1.195-1.474-2.262-1.474-2.262V88.7H16.68Z" data-name="Path 13476"/><path d="M46.574 81.252a3.07 3.07 0 0 0-3.076-2.669 3.186 3.186 0 0 0-3.076 2.669Zm-9.558 1.093a6.526 6.526 0 0 1 6.584-6.609 6.354 6.354 0 0 1 6.177 6.558 11.261 11.261 0 0 1-.076 1.22h-9.227a3.362 3.362 0 0 0 3.533 2.593 6.306 6.306 0 0 0 3.432-.991l1.271 2.44a8.562 8.562 0 0 1-4.728 1.4c-3.711 0-6.965-2.415-6.965-6.609" data-name="Path 13477"/><path d="M62.08 82.345a3.186 3.186 0 0 0-3.152-3.457 3.152 3.152 0 0 0-3.025 3.457c0 2.008 1.271 3.457 3.025 3.457a3.186 3.186 0 0 0 3.152-3.457m-9.558-4.582 3.228-1.773v1.525a5.171 5.171 0 0 1 4.067-1.78c3.508 0 5.745 2.949 5.745 6.584 0 3.686-2.288 6.634-5.8 6.634a4.939 4.939 0 0 1-3.838-1.7l.012 6.855H52.53Z" data-name="Path 13478"/><path d="M93.219 81.252a3.07 3.07 0 0 0-3.076-2.669 3.186 3.186 0 0 0-3.076 2.669Zm-9.558 1.093a6.526 6.526 0 0 1 6.584-6.609 6.354 6.354 0 0 1 6.177 6.558 11.248 11.248 0 0 1-.076 1.22h-9.227a3.362 3.362 0 0 0 3.533 2.593 6.307 6.307 0 0 0 3.432-.991l1.271 2.44a8.562 8.562 0 0 1-4.728 1.4c-3.711 0-6.965-2.415-6.965-6.609" data-name="Path 13479"/><path d="m99.167 73.811 3.406-1.837V88.7h-3.406Z" data-name="Path 13480"/><path d="M77.84 82.345a3.186 3.186 0 0 0-3.152-3.457 3.152 3.152 0 0 0-3.025 3.457c0 2.008 1.271 3.457 3.025 3.457a3.186 3.186 0 0 0 3.152-3.457m-9.557-4.582 3.228-1.773v1.525a5.171 5.171 0 0 1 4.067-1.78c3.508 0 5.745 2.949 5.745 6.584 0 3.686-2.288 6.634-5.8 6.634a4.939 4.939 0 0 1-3.838-1.7l.012 6.855h-3.406Z" data-name="Path 13481"/><path d="M50.233 26.48V0c-.647.627-.49.468-.647.627q-3.837 3.9-7.67 7.808L31.053 19.488c-1.848 1.881-3.485 3.764-5.333 5.645l-.4.391-.384-.391c-1.848-1.881-3.905-3.764-5.754-5.645L8.324 8.435Q4.488 4.532.653.627C.5.468.653.627.006 0v50.672c0 .588-.011 1.222 0 1.81 0 .1.008.214.008.333h8.164v-.508c0-7.094 0-21.425-.005-28.52v-3.2c0-.123-.008-.5-.009-.619a3.049 3.049 0 0 1 .466.428c.095.1.2.189.292.287q2.451 2.505 4.9 5.01 5.576 5.67 11.154 11.339c.27.275.344.353.344.353 2.006-2.188 4.195-4.553 6.309-6.846q2.385-2.423 4.769-4.846 2.457-2.5 4.9-5.01c.1-.1.2-.191.292-.287a3.048 3.048 0 0 1 .466-.428c0 .122-.01.5-.009.619.009 1.066 0 2.132 0 3.2 0 7.095 0 6.259-.005 13.353v.305l8.166-8.822c0-.119.006-.236.008-.333.011-.587 0-1.222 0-1.81" data-name="Path 13482"/></g></svg>
