<svg xmlns="http://www.w3.org/2000/svg" viewBox="0 0 259 34.142">
  <g fill="#00442b">
    <path d="M37.441 0H27.2l-8.473 8.525-4.249-4.249L10.242 0H0v34.142h10.242l8.472-8.525 8.472 8.525h10.241L37.441 0ZM22.963 21.341l-4.236-4.263-4.249 4.263-8.472 8.525V4.236h.013l-.013.013 4.236 4.263 4.236 4.3 4.236 4.263 4.236-4.263 4.263-4.276 4.236-4.263v25.6Z" data-name="Path 1"/>
    <path d="M74.416 2.949h5.3v28.137h-5.979V12.323l-8.986 11.526-8.955-11.441v18.678h-5.992V2.949h5.389l9.558 12.265Z" data-name="Path 2"/>
    <path d="M88.929 6.667a15.639 15.639 0 0 1 21.529 0 13.992 13.992 0 0 1 4.4 10.357 13.992 13.992 0 0 1-4.4 10.371 15.6 15.6 0 0 1-21.529 0 14.021 14.021 0 0 1-4.4-10.371 13.97 13.97 0 0 1 4.4-10.357Zm4.41 16.92a8.887 8.887 0 0 0 12.708 0 9.028 9.028 0 0 0 2.614-6.563 9.081 9.081 0 0 0-2.614-6.576 8.887 8.887 0 0 0-12.708 0 9.037 9.037 0 0 0-2.614 6.576 9.006 9.006 0 0 0 2.611 6.563Z" data-name="Path 3"/>
    <path d="M140.604 25.669v5.417h-20.953V2.949h20.55v5.43h-14.558v5.633h11.354v5.417h-11.354v6.24Z" data-name="Path 4"/>
    <path d="M145.345 2.949h12.36a9.383 9.383 0 0 1 6.863 2.675 8.864 8.864 0 0 1 2.721 6.565 9.414 9.414 0 0 1-.523 3.161 8.494 8.494 0 0 1-1.233 2.377 10.788 10.788 0 0 1-1.448 1.553 5.222 5.222 0 0 1-1.26.878l-.51.27 5.979 10.658h-6.381l-5.375-9.847h-5.174v9.847h-5.992V2.949Zm14.88 6.511a3.7 3.7 0 0 0-2.721-1.081h-6.166v7.443h6.166a3.759 3.759 0 0 0 2.721-1.054 3.443 3.443 0 0 0 1.086-2.58 3.711 3.711 0 0 0-1.086-2.728Z" data-name="Path 5"/>
    <path d="M183.238 2.949a14.018 14.018 0 0 1 10.228 4.079 13.511 13.511 0 0 1 4.129 9.982 13.49 13.49 0 0 1-4.129 9.982 14 14 0 0 1-10.228 4.079h-10.376V2.949Zm-4.384 5.43v17.29h4.384a7.992 7.992 0 0 0 5.925-2.512 8.44 8.44 0 0 0 2.453-6.133 8.56 8.56 0 0 0-2.4-6.133 7.923 7.923 0 0 0-5.979-2.512Z" data-name="Path 6"/>
    <path d="M202.266 2.949h5.992v28.137h-5.992Z" data-name="Path 7"/>
    <path d="M228.316 2.949v19.083a9.388 9.388 0 0 1-2.694 6.969 9.612 9.612 0 0 1-7.078 2.674 9.164 9.164 0 0 1-3.968-.864 8.59 8.59 0 0 1-2.614-1.7l-.8-.837 3.579-3.633a5.66 5.66 0 0 0 .375.446 4.526 4.526 0 0 0 1.153.729 4.029 4.029 0 0 0 6.046-3.782V2.949Z" data-name="Path 8"/>
    <path d="m240.273 15.214 10.966-12.265h6.971l-10.362 11.657 11.153 16.479h-6.97l-8.177-12.049-3.579 4v8.051h-5.994V2.949h5.992Z" data-name="Path 9"/>
  </g>
</svg>
