<?xml version="1.0" encoding="UTF-8" standalone="no"?>
<!DOCTYPE svg PUBLIC "-//W3C//DTD SVG 1.1//EN" "http://www.w3.org/Graphics/SVG/1.1/DTD/svg11.dtd">
<svg width="100%" height="100%" viewBox="0 0 227 97" version="1.1" xmlns="http://www.w3.org/2000/svg" xmlns:xlink="http://www.w3.org/1999/xlink" xml:space="preserve" xmlns:serif="http://www.serif.com/" style="fill-rule:evenodd;clip-rule:evenodd;stroke-linejoin:round;stroke-miterlimit:2;">
    <g transform="matrix(1.33333,0,0,1.33333,168.03,40.6981)">
        <path d="M0,17.604C0,17.604 -5.182,14.349 -8.138,13.835C-11.094,13.321 -18.535,12.819 -21.245,12.893C-30.711,13.149 -34.565,11.479 -34.565,11.479C-34.565,11.479 -27.054,9.701 -23.001,8.909C-17.518,7.838 -15.816,8.178 -14.263,8.352C-11.372,8.677 -8.866,9.637 -8.866,9.637C-8.866,9.637 -11.693,7.196 -14.52,6.425C-17.347,5.654 -22.102,5.011 -25.699,5.14C-29.297,5.268 -34.565,4.712 -34.565,4.712C-34.565,4.712 -25.828,2.955 -22.487,2.056C-19.146,1.156 -13.032,0.318 -9.809,0.6C-5.397,0.985 -3.341,1.927 -3.341,1.927C-3.341,1.927 -6.939,-1.499 -13.235,-2.313C-17.204,-2.826 -28.655,-2.57 -32.767,-2.955C-36.879,-3.341 -39.063,-3.726 -41.761,-4.497C-44.46,-5.268 -50.884,-8.995 -50.884,-8.995C-50.884,-8.995 -43.502,-0.218 -38.506,10.665C-33.181,22.266 -32.381,26.599 -32.381,26.599C-32.381,26.599 -26.474,24.65 -22.615,24.457C-21.047,24.379 -18.909,24.031 -17.078,24.206C-13.858,24.512 -11.051,25.699 -11.051,25.699C-11.051,25.699 -13.021,23.129 -19.574,21.502C-23.199,20.601 -27.07,20.131 -27.07,20.131C-27.07,20.131 -16.791,17.374 -12.207,16.704C-4.583,15.591 0,17.604 0,17.604" style="fill:rgb(0,119,190);fill-rule:nonzero;"/>
    </g>
    <g transform="matrix(1.33333,0,0,1.33333,4.676,23.0419)">
        <path d="M0,-5.791C0.184,-5.516 0.275,-5.21 0.275,-4.833C0.275,-3.894 -0.551,-3.089 -1.519,-3.089C-1.58,-3.089 -1.672,-3.099 -1.805,-3.109C-1.835,-3.109 -1.886,-3.12 -1.958,-3.12C-2.386,-2.763 -2.559,-2.559 -2.559,-2.426C-2.559,-2.304 -2.457,-2.263 -2.172,-2.263L-0.449,-2.263C0.408,-2.263 0.795,-1.927 0.795,-1.182C0.795,-0.102 -0.316,0.765 -1.703,0.765C-2.671,0.765 -3.507,0.255 -3.507,-0.346C-3.507,-0.479 -3.456,-0.642 -3.365,-0.825C-3.232,-1.08 -3.1,-1.254 -2.753,-1.621C-3.222,-1.753 -3.416,-1.906 -3.416,-2.171C-3.416,-2.467 -3.13,-2.814 -2.508,-3.324C-3.089,-3.64 -3.395,-4.149 -3.395,-4.792C-3.395,-5.832 -2.631,-6.556 -1.55,-6.556C-1.213,-6.556 -1.02,-6.515 -0.571,-6.362L0.133,-6.362L0.969,-6.433L0.969,-5.791L0,-5.791ZM-0.449,-1.56L-2.172,-1.56L-2.325,-1.325C-2.62,-0.866 -2.712,-0.683 -2.712,-0.509C-2.712,-0.163 -2.253,0.082 -1.631,0.082C-0.693,0.082 0.153,-0.469 0.153,-1.091C0.153,-1.407 -0.041,-1.56 -0.449,-1.56M-1.601,-5.974C-2.162,-5.974 -2.62,-5.454 -2.62,-4.822C-2.62,-4.19 -2.162,-3.67 -1.591,-3.67C-1.009,-3.67 -0.561,-4.17 -0.561,-4.822C-0.561,-5.465 -1.02,-5.974 -1.601,-5.974" style="fill:rgb(154,0,87);fill-rule:nonzero;"/>
    </g>
    <g transform="matrix(1.33333,0,0,1.33333,10.42,17.6457)">
        <path d="M0,-0.143C0,0.979 0.571,1.662 1.509,1.662C1.917,1.662 2.212,1.55 2.712,1.203L3.018,1.804C2.335,2.233 1.947,2.365 1.346,2.365C0.061,2.365 -0.806,1.386 -0.806,-0.072C-0.806,-1.54 0.061,-2.508 1.376,-2.508C2.457,-2.508 3.161,-1.744 3.161,-0.592L3.161,-0.143L0,-0.143ZM1.325,-1.815C0.683,-1.815 0.234,-1.428 0.061,-0.714L2.325,-0.714C2.314,-1.428 1.958,-1.815 1.325,-1.815" style="fill:rgb(154,0,87);fill-rule:nonzero;"/>
    </g>
    <g transform="matrix(1.33333,0,0,1.33333,26.8351,14.3013)">
        <path d="M0,4.741L0,1.468C0,1.132 -0.01,1.07 -0.071,0.928C-0.153,0.775 -0.326,0.683 -0.54,0.683C-0.969,0.683 -1.428,0.968 -2.1,1.692L-2.315,1.917L-2.315,4.741L-3.079,4.741L-3.079,1.468C-3.079,1.132 -3.089,1.07 -3.151,0.928C-3.232,0.775 -3.405,0.683 -3.62,0.683C-4.089,0.683 -4.588,1.03 -5.394,1.917L-5.394,4.741L-6.158,4.741L-6.158,0.122L-5.394,0.122L-5.394,1.091C-5.078,0.734 -4.986,0.642 -4.762,0.459C-4.415,0.163 -3.956,0 -3.528,0C-2.763,0 -2.376,0.357 -2.325,1.101C-1.998,0.734 -1.907,0.642 -1.682,0.459C-1.336,0.163 -0.877,0 -0.449,0C0.367,0 0.765,0.418 0.765,1.284L0.765,4.741L0,4.741Z" style="fill:rgb(154,0,87);fill-rule:nonzero;"/>
    </g>
    <g transform="matrix(1.33333,0,0,1.33333,32.9501,17.6457)">
        <path d="M0,-0.143C0,0.979 0.571,1.662 1.509,1.662C1.917,1.662 2.213,1.55 2.712,1.203L3.018,1.804C2.335,2.233 1.948,2.365 1.346,2.365C0.061,2.365 -0.805,1.386 -0.805,-0.072C-0.805,-1.54 0.061,-2.508 1.377,-2.508C2.457,-2.508 3.161,-1.744 3.161,-0.592L3.161,-0.143L0,-0.143ZM1.326,-1.815C0.683,-1.815 0.234,-1.428 0.061,-0.714L2.325,-0.714C2.315,-1.428 1.958,-1.815 1.326,-1.815" style="fill:rgb(154,0,87);fill-rule:nonzero;"/>
    </g>
    <g transform="matrix(1.33333,0,0,1.33333,41.6435,17.6457)">
        <path d="M0,-0.143C0,0.979 0.571,1.662 1.509,1.662C1.917,1.662 2.212,1.55 2.712,1.203L3.018,1.804C2.335,2.233 1.947,2.365 1.346,2.365C0.061,2.365 -0.805,1.386 -0.805,-0.072C-0.805,-1.54 0.061,-2.508 1.376,-2.508C2.457,-2.508 3.161,-1.744 3.161,-0.592L3.161,-0.143L0,-0.143ZM1.325,-1.815C0.683,-1.815 0.235,-1.428 0.061,-0.714L2.325,-0.714C2.314,-1.428 1.958,-1.815 1.325,-1.815" style="fill:rgb(154,0,87);fill-rule:nonzero;"/>
    </g>
    <g transform="matrix(1.33333,0,0,1.33333,53.9529,14.3013)">
        <path d="M0,4.741L0,1.468C0,1.162 -0.02,1.06 -0.071,0.928C-0.143,0.775 -0.326,0.683 -0.54,0.683C-1.009,0.683 -1.509,1.03 -2.314,1.917L-2.314,4.741L-3.079,4.741L-3.079,0.122L-2.314,0.122L-2.314,1.091C-1.998,0.734 -1.907,0.642 -1.682,0.459C-1.336,0.163 -0.877,0 -0.449,0C0.367,0 0.765,0.418 0.765,1.284L0.765,4.741L0,4.741Z" style="fill:rgb(154,0,87);fill-rule:nonzero;"/>
    </g>
    <g transform="matrix(1.33333,0,0,1.33333,60.8935,12.6699)">
        <path d="M0,6.097C-0.53,6.097 -0.887,5.679 -0.887,5.067L-0.887,1.988L-1.662,1.988L-1.662,1.539L-0.887,1.346L-0.887,0L-0.122,0L-0.122,1.346L1.101,1.346L1.101,1.988L-0.122,1.988L-0.122,4.619L-0.112,4.822C-0.102,4.965 -0.102,5.057 -0.092,5.108C-0.082,5.261 0.01,5.332 0.173,5.332C0.367,5.332 0.52,5.251 0.846,5.006L1.162,5.516C0.622,5.965 0.367,6.097 0,6.097" style="fill:rgb(154,0,87);fill-rule:nonzero;"/>
    </g>
    <g transform="matrix(1.33333,0,0,1.33333,66.6212,17.6457)">
        <path d="M0,-0.143C0,0.979 0.571,1.662 1.509,1.662C1.917,1.662 2.212,1.55 2.712,1.203L3.018,1.804C2.335,2.233 1.947,2.365 1.346,2.365C0.061,2.365 -0.806,1.386 -0.806,-0.072C-0.806,-1.54 0.061,-2.508 1.376,-2.508C2.457,-2.508 3.161,-1.744 3.161,-0.592L3.161,-0.143L0,-0.143ZM1.325,-1.815C0.683,-1.815 0.234,-1.428 0.061,-0.714L2.325,-0.714C2.314,-1.428 1.958,-1.815 1.325,-1.815" style="fill:rgb(154,0,87);fill-rule:nonzero;"/>
    </g>
    <g transform="matrix(1.33333,0,0,1.33333,88.7627,1.61307)">
        <path d="M0,14.533C-4.371,14.533 -7.426,11.52 -7.447,7.256C-7.447,2.928 -4.434,0 0,0C4.413,0 7.426,2.928 7.426,7.256C7.426,11.52 4.349,14.533 0,14.533M0,2.313C-2.652,2.313 -4.604,4.434 -4.604,7.256C-4.604,10.099 -2.652,12.199 0,12.199C2.631,12.199 4.583,10.099 4.583,7.256C4.583,4.434 2.631,2.313 0,2.313" style="fill:rgb(154,0,87);fill-rule:nonzero;"/>
    </g>
    <g transform="matrix(1.33333,0,0,1.33333,108.289,7.468)">
        <path d="M0,9.866L-2.525,9.866L-5.834,0L-3.182,0L-1.188,6.535L-1.125,6.959L-1.061,6.535L1.146,0L3.798,0L0,9.866Z" style="fill:rgb(154,0,87);fill-rule:nonzero;"/>
    </g>
    <g transform="matrix(1.33333,0,0,1.33333,125.617,8.03413)">
        <path d="M0,9.017C-1.04,9.484 -2.101,9.717 -3.246,9.717C-6.174,9.717 -8.02,7.786 -8.02,4.774C-8.02,1.655 -5.898,-0.7 -3.077,-0.7C-0.637,-0.7 1.061,1.146 1.061,3.819L1.061,4.901L-5.474,4.901C-5.431,5.729 -5.368,6.068 -5.134,6.471C-4.71,7.192 -3.861,7.659 -2.928,7.659C-2.546,7.659 -2.164,7.617 -1.761,7.49C-1.167,7.32 -0.785,7.129 0.127,6.556L1.061,8.487C0.594,8.741 0.233,8.911 0,9.017M-3.246,1.21C-4.371,1.21 -5.134,1.973 -5.347,3.31L-1.485,3.31C-1.549,1.803 -2.058,1.21 -3.246,1.21" style="fill:rgb(154,0,87);fill-rule:nonzero;"/>
    </g>
    <g transform="matrix(1.33333,0,0,1.33333,136.864,16.4083)">
        <path d="M0,-3.692C-0.276,-3.904 -0.488,-3.989 -0.764,-3.989C-1.167,-3.989 -1.612,-3.713 -1.995,-3.247C-2.461,-2.674 -2.673,-2.101 -2.673,-1.358L-2.673,3.161L-5.198,3.161L-5.198,-6.705L-3.013,-6.705L-2.907,-4.541C-1.952,-6.217 -1.337,-6.853 -0.573,-6.853C-0.043,-6.853 0.403,-6.62 0.806,-6.153L0,-3.692Z" style="fill:rgb(154,0,87);fill-rule:nonzero;"/>
    </g>
    <g transform="matrix(1.33333,0,0,1.33333,144.775,0)">
        <path d="M0,15.764C-0.615,15.764 -1.315,15.679 -1.994,15.552C-2.504,15.467 -2.758,15.403 -3.395,15.191L-3.395,0L-0.87,0L-0.87,5.856C-0.149,5.495 0.679,5.326 1.591,5.326C4.137,5.326 5.771,7.171 5.771,10.078C5.771,13.579 3.564,15.764 0,15.764M0.679,7.278C0.149,7.278 -0.255,7.405 -0.87,7.723L-0.87,13.6C-0.318,13.812 -0.064,13.876 0.297,13.876C1.888,13.876 3.119,12.285 3.119,10.205C3.119,8.423 2.164,7.278 0.679,7.278" style="fill:rgb(154,0,87);fill-rule:nonzero;"/>
    </g>
    <g transform="matrix(1.33333,0,0,1.33333,165.214,8.03413)">
        <path d="M0,9.017C-1.039,9.484 -2.1,9.717 -3.246,9.717C-6.174,9.717 -8.02,7.786 -8.02,4.774C-8.02,1.655 -5.898,-0.7 -3.076,-0.7C-0.636,-0.7 1.061,1.146 1.061,3.819L1.061,4.901L-5.474,4.901C-5.431,5.729 -5.368,6.068 -5.134,6.471C-4.71,7.192 -3.861,7.659 -2.928,7.659C-2.546,7.659 -2.164,7.617 -1.761,7.49C-1.167,7.32 -0.785,7.129 0.127,6.556L1.061,8.487C0.594,8.741 0.234,8.911 0,9.017M-3.246,1.21C-4.37,1.21 -5.134,1.973 -5.346,3.31L-1.485,3.31C-1.549,1.803 -2.058,1.21 -3.246,1.21" style="fill:rgb(154,0,87);fill-rule:nonzero;"/>
    </g>
    <g transform="matrix(1.33333,0,0,1.33333,175.357,4.41347)">
        <path d="M0,11.775C-0.742,12.199 -1.506,12.433 -2.206,12.433C-3.522,12.433 -4.137,11.754 -4.137,10.29L-4.137,4.158L-5.601,4.158L-5.601,2.546L-4.137,2.291L-4.137,-0.658L-1.74,-0.658L-1.74,2.291L0.403,2.291L0.403,4.158L-1.74,4.158L-1.74,8.55C-1.74,9.653 -1.634,9.972 -1.23,9.972C-0.933,9.972 -0.573,9.823 0.128,9.356L0.934,11.202C0.594,11.414 0.276,11.605 0,11.775" style="fill:rgb(154,0,87);fill-rule:nonzero;"/>
    </g>
    <g transform="matrix(1.33333,0,0,1.33333,187.343,7.69467)">
        <path d="M0,9.696L0,8.041C-1.188,9.357 -2.164,9.866 -3.416,9.866C-5.198,9.866 -6.089,8.953 -6.089,7.086L-6.089,-0.17L-3.543,-0.17L-3.543,6.174C-3.543,7.383 -3.331,7.85 -2.737,7.85C-2.185,7.85 -1.443,7.299 -0.339,6.132L0,5.771L0,-0.17L2.546,-0.17L2.546,9.696L0,9.696Z" style="fill:rgb(154,0,87);fill-rule:nonzero;"/>
    </g>
    <g transform="matrix(1.33333,0,0,1.33333,208.855,7.468)">
        <path d="M0,9.866L-2.525,9.866L-3.777,5.474L-4.137,4.159L-4.498,5.474L-5.75,9.866L-8.295,9.866L-11.435,0L-8.762,0L-6.938,6.959L-6.916,7.235L-6.895,6.959L-5.262,1.146L-5.559,0L-3.013,0L-1.316,6.938L-1.316,7.235L-1.294,6.938L0.615,0L3.14,0L0,9.866Z" style="fill:rgb(154,0,87);fill-rule:nonzero;"/>
    </g>
    <g transform="matrix(1.33333,0,0,1.33333,225.357,8.03413)">
        <path d="M0,9.017C-1.039,9.484 -2.1,9.717 -3.246,9.717C-6.174,9.717 -8.02,7.786 -8.02,4.774C-8.02,1.655 -5.898,-0.7 -3.076,-0.7C-0.636,-0.7 1.061,1.146 1.061,3.819L1.061,4.901L-5.474,4.901C-5.431,5.729 -5.368,6.068 -5.134,6.471C-4.71,7.192 -3.861,7.659 -2.928,7.659C-2.546,7.659 -2.164,7.617 -1.761,7.49C-1.167,7.32 -0.785,7.129 0.127,6.556L1.061,8.487C0.594,8.741 0.233,8.911 0,9.017M-3.246,1.21C-4.371,1.21 -5.134,1.973 -5.346,3.31L-1.485,3.31C-1.549,1.803 -2.058,1.21 -3.246,1.21" style="fill:rgb(154,0,87);fill-rule:nonzero;"/>
    </g>
    <g transform="matrix(1.33333,0,0,1.33333,132.572,92.4884)">
        <path d="M0,0C0,-1.647 -1.335,-2.982 -2.982,-2.982C-4.629,-2.982 -5.964,-1.647 -5.964,0C-5.964,1.647 -4.629,2.982 -2.982,2.982C-1.335,2.982 0,1.647 0,0M-1.319,0C-1.319,0.919 -2.063,1.664 -2.982,1.664C-3.901,1.664 -4.646,0.919 -4.646,0C-4.646,-0.919 -3.901,-1.664 -2.982,-1.664C-2.063,-1.664 -1.319,-0.919 -1.319,0" style="fill:rgb(154,0,87);fill-rule:nonzero;"/>
    </g>
</svg>
