<?xml version="1.0" encoding="UTF-8" standalone="no"?>
<svg xmlns="http://www.w3.org/2000/svg" xmlns:xlink="http://www.w3.org/1999/xlink" xmlns:serif="http://www.serif.com/" width="100%" height="100%" viewBox="0 0 1000 253" version="1.1" xml:space="preserve" style="fill-rule:evenodd;clip-rule:evenodd;stroke-linejoin:round;stroke-miterlimit:2;">
    <path d="M356.959,61.384L356.997,61.384L356.959,61.408L356.959,61.384ZM356.959,61.384L352.822,61.384L352.822,36.78L356.548,36.78L356.548,40.233C357.321,39.024 358.343,38.052 359.639,37.329C360.91,36.593 362.369,36.219 364.014,36.219C365.821,36.219 367.329,36.606 368.501,37.366C369.66,38.126 370.47,39.173 370.956,40.544C372.9,37.665 375.431,36.219 378.547,36.219C380.977,36.219 382.859,36.905 384.168,38.263C385.489,39.622 386.137,41.691 386.137,44.508L386.137,61.396L381.987,61.396L381.987,45.904C381.987,44.234 381.849,43.025 381.6,42.302C381.326,41.566 380.827,40.968 380.129,40.532C379.407,40.083 378.571,39.859 377.612,39.859C375.879,39.859 374.446,40.432 373.299,41.579C372.165,42.738 371.567,44.583 371.567,47.113L371.567,61.408L367.416,61.408L367.416,45.43C367.416,43.585 367.067,42.19 366.382,41.255C365.709,40.332 364.587,39.871 363.067,39.871C361.895,39.871 360.786,40.183 359.801,40.794C358.817,41.417 358.081,42.314 357.632,43.498C357.184,44.695 356.959,46.402 356.959,48.646L356.959,61.384ZM4.238,0L168.584,0C170.927,0 172.821,1.907 172.821,4.263L172.821,152.119C172.821,195.181 135.405,200.042 117.42,202.373L116.884,202.435C100.482,204.579 89.402,214.687 89.302,214.786C88.48,215.547 87.445,215.933 86.411,215.933C85.376,215.933 84.329,215.547 83.519,214.786C83.407,214.687 72.451,204.591 55.912,202.435L55.376,202.36C37.403,200.017 0,195.169 0,152.107L0,4.263C0,1.907 1.894,0 4.238,0ZM168.559,152.107L168.546,152.082L168.546,111.886L168.534,111.886C155.547,107.212 142.559,124.188 129.572,114.23C115.189,103.199 100.794,125.235 86.411,114.254C86.398,114.254 86.386,114.242 86.386,114.242L86.386,74.894L59.489,74.894L59.489,4.25L31.097,4.25L31.097,74.894L4.238,74.894L4.238,114.267L31.097,114.267L31.097,192.713C40.008,196.116 49.431,197.287 56.448,198.197C57.482,198.334 58.492,198.496 59.489,198.683L59.489,114.267L86.398,114.267L86.398,211.658C86.398,211.658 98.251,200.553 116.323,198.197C134.396,195.842 168.559,191.803 168.559,152.107ZM168.559,72.339L168.559,4.25L86.398,4.25L86.398,74.894C86.872,75.243 87.345,75.567 87.807,75.879C101.728,84.504 115.663,64.001 129.585,74.682C142.572,84.641 155.559,67.665 168.546,72.339L168.559,72.339ZM300.674,69.41L300.686,69.398C298.879,68.089 297.994,66.107 298.056,63.44L302.107,64.038C302.306,65.285 302.755,66.195 303.528,66.768C304.575,67.541 305.983,67.927 307.765,67.927C309.697,67.927 311.205,67.553 312.24,66.768C313.299,66.008 313.997,64.923 314.384,63.54C314.595,62.692 314.67,60.897 314.67,58.18C312.863,60.324 310.582,61.408 307.865,61.408C304.487,61.408 301.87,60.2 300.025,57.744C298.143,55.301 297.234,52.385 297.234,48.97C297.234,46.614 297.67,44.458 298.505,42.476C299.352,40.482 300.599,38.936 302.207,37.865C303.814,36.768 305.721,36.232 307.89,36.232C310.794,36.232 313.2,37.416 315.082,39.772L315.082,36.805L318.908,36.805L318.908,58.068C318.908,61.932 318.522,64.624 317.749,66.219C316.951,67.827 315.73,69.074 314.022,70.008C312.34,70.918 310.246,71.392 307.79,71.392C304.849,71.392 302.481,70.744 300.674,69.41ZM303.465,41.953L303.453,41.953C302.157,43.461 301.509,45.692 301.509,48.671C301.509,51.886 302.157,54.242 303.428,55.725C304.712,57.221 306.32,57.956 308.239,57.956C310.158,57.956 311.766,57.221 313.075,55.75C314.371,54.267 315.019,51.949 315.019,48.808C315.019,45.792 314.346,43.523 313.013,41.99C311.691,40.457 310.071,39.697 308.189,39.697C306.344,39.697 304.774,40.445 303.465,41.953ZM340.109,57.333C341.218,56.535 342.053,55.251 342.701,53.482L347.013,54.018C346.315,56.548 345.069,58.492 343.224,59.9C341.405,61.284 339.024,61.969 336.183,61.969C332.581,61.969 329.739,60.848 327.62,58.642C325.514,56.423 324.467,53.307 324.467,49.306C324.467,45.168 325.514,41.965 327.657,39.672C329.801,37.379 332.543,36.232 335.958,36.232C339.249,36.232 341.928,37.354 344.01,39.597C346.104,41.841 347.151,44.994 347.151,49.057C347.151,49.306 347.138,49.68 347.126,50.166L328.767,50.166C328.916,52.883 329.689,54.952 331.06,56.386C332.443,57.831 334.151,58.529 336.207,58.529C337.728,58.529 339.024,58.131 340.109,57.333ZM331.172,41.604C329.863,42.887 329.141,44.595 329.003,46.751L342.751,46.751C342.564,44.67 342.028,43.124 341.168,42.09C339.834,40.494 338.114,39.684 335.996,39.684C334.076,39.684 332.468,40.308 331.172,41.604ZM407.201,57.333L407.176,57.333C408.26,56.535 409.107,55.251 409.743,53.482L414.056,54.018C413.395,56.548 412.124,58.492 410.291,59.9C408.447,61.284 406.104,61.969 403.25,61.969C399.648,61.969 396.793,60.848 394.699,58.642C392.556,56.423 391.509,53.307 391.509,49.306C391.509,45.168 392.581,41.965 394.724,39.672C396.843,37.379 399.61,36.232 403.013,36.232C406.303,36.232 408.995,37.354 411.077,39.597C413.158,41.841 414.205,44.994 414.205,49.057C414.205,49.306 414.205,49.68 414.18,50.166L395.834,50.166C395.971,52.883 396.756,54.952 398.127,56.386C399.498,57.831 401.218,58.529 403.274,58.529C404.807,58.529 406.116,58.131 407.201,57.333ZM398.239,41.604C396.943,42.887 396.208,44.595 396.07,46.751L409.818,46.751C409.631,44.67 409.095,43.124 408.247,42.09C406.914,40.494 405.181,39.684 403.075,39.684C401.168,39.684 399.56,40.308 398.239,41.604ZM434.184,57.333L434.147,57.333C435.244,56.535 436.116,55.251 436.739,53.482L441.052,54.018C440.366,56.548 439.12,58.492 437.275,59.9C435.431,61.284 433.088,61.969 430.233,61.969C426.631,61.969 423.777,60.848 421.671,58.642C419.564,56.423 418.518,53.444 418.518,49.306C418.518,45.168 419.589,41.965 421.708,39.672C423.852,37.379 426.606,36.232 430.009,36.232C433.287,36.232 435.979,37.354 438.073,39.597C440.154,41.841 441.201,44.994 441.201,49.057C441.201,49.306 441.201,49.68 441.176,50.166L422.83,50.166C422.992,52.883 423.777,54.952 425.136,56.386C426.532,57.831 428.239,58.529 430.283,58.529C431.816,58.529 433.112,58.131 434.184,57.333ZM425.235,41.604L425.248,41.604C423.939,42.887 423.229,44.595 423.079,46.751L436.827,46.751C436.64,44.67 436.129,43.124 435.244,42.09C433.91,40.494 432.178,39.684 430.071,39.684C428.152,39.684 426.544,40.308 425.235,41.604ZM451.023,61.408L446.823,61.408L446.823,36.805L450.587,36.805L450.587,40.308C452.394,37.59 455.011,36.232 458.414,36.232C459.909,36.232 461.268,36.506 462.502,37.042C463.761,37.578 464.708,38.276 465.319,39.123C465.929,40.008 466.366,41.03 466.59,42.227C466.764,42.987 466.852,44.346 466.852,46.265L466.852,61.396L462.664,61.396L462.664,46.44C462.664,44.745 462.514,43.461 462.19,42.626C461.879,41.791 461.293,41.118 460.47,40.607C459.66,40.108 458.688,39.859 457.566,39.859C455.784,39.859 454.251,40.432 452.967,41.554C451.671,42.676 451.023,44.819 451.023,47.96L451.023,61.408ZM480.661,57.844C481.135,57.844 481.733,57.794 482.494,57.682L483.079,61.359C481.92,61.595 480.848,61.733 479.938,61.733C478.418,61.733 477.234,61.496 476.411,61.022C475.564,60.524 474.99,59.913 474.629,59.128C474.305,58.33 474.13,56.685 474.13,54.192L474.13,40.046L471.077,40.046L471.077,36.793L474.13,36.793L474.13,30.698L478.293,28.193L478.293,36.793L482.481,36.793L482.481,40.046L478.293,40.046L478.293,54.429C478.293,55.625 478.368,56.373 478.505,56.722C478.655,57.071 478.892,57.333 479.241,57.532C479.565,57.744 480.038,57.844 480.661,57.844ZM501.039,57.333L501.027,57.333C502.099,56.535 502.959,55.251 503.595,53.482L507.907,54.018C507.221,56.548 505.975,58.492 504.13,59.9C502.286,61.284 499.943,61.969 497.101,61.969C493.486,61.969 490.632,60.848 488.526,58.642C486.432,56.423 485.373,53.307 485.373,49.306C485.373,45.168 486.445,41.965 488.563,39.672C490.695,37.379 493.474,36.232 496.864,36.232C500.155,36.232 502.847,37.354 504.928,39.597C507.022,41.841 508.069,44.994 508.069,49.057C508.069,49.306 508.032,49.68 508.032,50.166L489.685,50.166C489.835,52.883 490.607,54.952 491.978,56.386C493.337,57.831 495.057,58.529 497.113,58.529C498.646,58.529 499.955,58.131 501.039,57.333ZM492.066,41.604L492.053,41.604C490.757,42.887 490.022,44.595 489.884,46.751L503.632,46.751C503.457,44.67 502.921,43.124 502.074,42.09C500.74,40.494 499.02,39.684 496.914,39.684C494.995,39.684 493.374,40.308 492.066,41.604ZM567.446,146.523C565.377,147.383 563.121,148.019 560.666,148.405C559.631,148.592 558.597,148.804 557.6,149.041C556.627,149.265 555.568,149.39 554.446,149.39C553.387,149.39 552.502,149.016 551.767,148.268C551.044,147.495 550.695,146.598 550.695,145.538C550.695,144.479 551.006,143.694 551.629,143.17C552.265,142.647 553.025,142.198 553.96,141.886C554.745,141.687 555.805,141.488 557.114,141.301C557.649,141.164 558.21,141.064 558.809,141.001C559.394,140.927 559.993,140.827 560.578,140.702C561.762,140.49 562.946,140.216 564.106,139.855C565.265,139.493 566.274,138.97 567.122,138.272C567.969,137.586 568.655,136.639 569.191,135.443C569.739,134.271 570.001,132.788 570.001,131.006C570.001,129.223 569.639,127.528 568.954,125.908C568.256,124.3 567.321,122.904 566.125,121.72C564.941,120.524 563.557,119.589 561.974,118.903C560.391,118.218 558.796,117.869 556.939,117.869C555.082,117.869 553.362,118.205 551.742,118.903C550.121,119.589 548.725,120.524 547.541,121.72C546.357,122.904 545.41,124.3 544.712,125.908C544.039,127.528 543.678,129.223 543.678,131.006L543.678,148.118C543.678,150.087 544.052,151.895 544.762,153.54C545.485,155.185 546.47,156.594 547.728,157.753C548.987,158.899 550.458,159.797 552.178,160.457C553.898,161.118 555.705,161.454 557.612,161.454C559.332,161.454 560.977,161.242 562.573,160.856C564.143,160.457 565.701,159.759 567.222,158.775C567.558,158.513 567.857,158.351 568.156,158.226C568.443,158.127 568.867,158.089 569.39,158.089C570.437,158.089 571.347,158.451 572.107,159.174C572.855,159.909 573.241,160.831 573.241,161.953C573.241,163 572.743,163.96 571.758,164.807C569.839,166.527 567.458,167.661 564.642,168.235C561.8,168.771 559.17,169.057 556.727,169.057C553.885,169.057 551.218,168.509 548.725,167.387C546.208,166.265 544.039,164.757 542.145,162.838C540.275,160.918 538.779,158.687 537.695,156.157C536.611,153.64 536.062,150.947 536.062,148.118L536.062,131.006C536.062,128.176 536.611,125.509 537.695,123.004C538.779,120.486 540.275,118.293 542.182,116.436C544.101,114.541 546.295,113.058 548.813,111.974C551.318,110.877 554.023,110.328 556.927,110.328C559.756,110.328 562.435,110.877 564.928,111.974C567.433,113.058 569.627,114.541 571.497,116.436C573.391,118.293 574.874,120.486 575.946,123.004C577.043,125.509 577.591,128.176 577.591,131.006C577.591,133.698 577.18,136.053 576.357,138.073C575.522,140.092 574.351,141.787 572.83,143.17C571.322,144.541 569.54,145.65 567.446,146.523ZM515.011,168.023L514.974,167.985C512.942,168.658 510.724,169.02 508.343,169.02C508.144,169.02 507.919,168.995 507.658,168.97C507.383,168.945 507.134,168.92 506.872,168.92C503.096,168.658 499.706,167.537 496.652,165.567C493.574,163.586 491.393,161.018 490.059,157.852C489.673,156.868 489.648,155.871 490.022,154.849C490.383,153.814 491.056,153.079 492.041,152.618C492.975,152.231 493.923,152.231 494.907,152.618C495.904,153.029 496.627,153.714 497.088,154.699C497.824,156.494 499.133,157.965 501.052,159.149C502.959,160.333 505.065,161.006 507.371,161.143C510.549,161.33 512.98,160.707 514.687,159.248C516.407,157.803 517.741,155.671 518.663,152.842C518.725,152.593 518.763,152.044 518.8,151.247C518.838,150.461 518.563,149.576 517.965,148.592C517.379,147.595 516.37,146.585 514.961,145.576C513.528,144.554 511.434,143.743 508.68,143.158C504.243,142.161 500.753,140.628 498.185,138.546C495.618,136.502 493.823,134.221 492.801,131.741C491.779,129.286 491.48,126.756 491.904,124.138C492.352,121.533 493.349,119.203 494.92,117.121C496.503,115.04 498.622,113.382 501.251,112.123C503.881,110.877 506.885,110.341 510.25,110.54C514.849,110.877 518.788,112.572 522.016,115.601C522.826,116.323 523.25,117.208 523.362,118.305C523.462,119.402 523.125,120.349 522.415,121.222C521.692,122.007 520.794,122.443 519.747,122.468C518.7,122.505 517.766,122.156 516.98,121.434C515.136,119.651 512.768,118.654 509.876,118.467C506.897,118.33 504.442,118.978 502.548,120.387C500.628,121.807 499.506,123.802 499.182,126.369C499.182,126.506 499.207,126.93 499.282,127.653C499.344,128.388 499.718,129.211 500.416,130.121C501.114,131.043 502.199,131.978 503.669,132.937C505.165,133.897 507.359,134.695 510.263,135.355C516.781,136.876 521.393,139.817 524.11,144.155C524.77,145.339 525.256,146.473 525.593,147.57C525.929,148.654 526.141,149.664 526.229,150.586C526.341,151.496 526.366,152.318 526.278,153.004C526.229,153.689 526.204,154.213 526.204,154.537C525.855,156.718 525.194,158.687 524.209,160.47C523.225,162.24 521.953,163.785 520.408,165.056C518.85,166.353 517.068,167.337 515.011,168.023ZM441.525,167.985C440.778,168.696 439.88,169.07 438.821,169.07C437.699,169.07 436.789,168.696 436.104,167.985C435.406,167.25 435.069,166.365 435.069,165.293L435.069,132.003C435.069,130.183 434.72,128.438 434.022,126.818C433.337,125.198 432.39,123.777 431.168,122.555C429.934,121.334 428.526,120.374 426.918,119.676C425.298,118.991 423.565,118.642 421.721,118.642C419.864,118.642 418.144,118.991 416.523,119.676C414.903,120.387 413.495,121.346 412.261,122.555C411.039,123.789 410.092,125.198 409.407,126.818C408.709,128.438 408.36,130.183 408.36,132.003L408.36,165.293C408.36,166.365 407.986,167.25 407.238,167.985C406.478,168.696 405.58,169.07 404.521,169.07C403.461,169.07 402.564,168.696 401.854,167.985C401.118,167.25 400.757,166.365 400.757,165.306L400.757,87.906C400.757,86.847 401.131,85.962 401.854,85.227C402.564,84.516 403.474,84.142 404.521,84.142C405.568,84.142 406.465,84.504 407.238,85.227C407.986,85.949 408.36,86.834 408.36,87.881L408.36,115.912C410.154,114.416 412.186,113.245 414.504,112.397C416.798,111.562 419.215,111.126 421.708,111.126C424.6,111.126 427.317,111.687 429.859,112.759C432.402,113.856 434.633,115.351 436.54,117.258C438.447,119.178 439.943,121.396 441.039,123.926C442.124,126.481 442.66,129.198 442.66,132.102L442.66,165.306C442.66,166.365 442.298,167.262 441.525,167.985ZM383.619,166.652L383.619,166.702C380.591,168.309 377.338,169.107 373.835,169.107C370.931,169.107 368.214,168.546 365.696,167.474C363.154,166.39 360.935,164.882 359.003,162.987C357.097,161.068 355.601,158.837 354.517,156.307C353.42,153.752 352.871,151.047 352.871,148.156L352.871,131.33C352.871,128.438 353.42,125.721 354.517,123.178C355.588,120.636 357.097,118.417 359.003,116.51C360.935,114.591 363.154,113.095 365.696,112.011C368.214,110.914 370.944,110.366 373.835,110.366C376.615,110.366 379.232,110.877 381.737,111.886C384.255,112.921 386.486,114.416 388.468,116.386C389.203,117.121 389.564,118.031 389.564,119.103C389.564,120.187 389.191,121.085 388.468,121.82C387.745,122.555 386.872,122.904 385.85,122.904C384.828,122.904 383.943,122.555 383.233,121.82C381.912,120.499 380.429,119.527 378.821,118.903C377.213,118.268 375.555,117.969 373.835,117.969C371.991,117.969 370.271,118.305 368.663,118.991C367.03,119.689 365.609,120.636 364.4,121.882C363.166,123.079 362.232,124.5 361.534,126.107C360.848,127.715 360.499,129.46 360.499,131.292L360.499,148.118C360.499,149.95 360.836,151.683 361.534,153.303C362.219,154.911 363.166,156.332 364.4,157.541C365.609,158.775 367.03,159.722 368.663,160.42C370.271,161.105 371.991,161.454 373.835,161.454C376.079,161.454 378.16,160.943 380.117,159.909C382.049,158.899 383.657,157.429 384.903,155.509C385.501,154.649 386.299,154.126 387.271,153.926C388.281,153.739 389.191,153.926 390.05,154.537C390.96,155.11 391.534,155.92 391.721,156.943C391.933,157.977 391.721,158.912 391.135,159.772C389.153,162.738 386.648,165.031 383.619,166.652ZM341.031,167.985C340.283,168.696 339.398,169.07 338.351,169.07C337.292,169.07 336.382,168.696 335.634,167.985C334.861,167.25 334.5,166.365 334.5,165.306L334.5,115.974C334.5,114.927 334.861,114.03 335.634,113.307C336.382,112.584 337.292,112.223 338.351,112.223C339.411,112.223 340.283,112.584 341.031,113.307C341.741,114.03 342.103,114.915 342.103,115.974L342.103,165.306C342.103,166.365 341.754,167.262 341.031,167.985ZM341.031,105.306C340.283,106.041 339.398,106.377 338.351,106.377C337.217,106.377 336.307,106.041 335.572,105.306C334.836,104.57 334.487,103.66 334.487,102.626C334.487,101.591 334.849,100.682 335.572,99.921C336.32,99.148 337.217,98.787 338.351,98.787C339.411,98.787 340.283,99.161 341.031,99.921C341.741,100.669 342.103,101.566 342.103,102.626C342.103,103.685 341.754,104.57 341.031,105.306ZM288.11,153.627L288.148,153.627C286.988,156.407 285.293,158.912 283.087,161.155C280.308,163.847 277.204,165.842 273.764,167.15C270.324,168.422 266.722,169.032 262.958,168.97C260.378,168.97 257.898,168.633 255.518,167.96C253.137,167.262 250.906,166.315 248.837,165.119C246.743,163.922 244.861,162.464 243.191,160.756C241.508,159.049 240.137,157.154 239.091,155.023L239.091,154.936L238.991,154.849C238.991,154.774 238.978,154.736 238.941,154.736C238.904,154.736 238.904,154.699 238.904,154.637L238.904,154.437C238.368,153.191 237.508,152.281 236.274,151.72C235.065,151.159 233.793,151.147 232.485,151.658C231.488,152.007 230.516,151.945 229.556,151.533C228.596,151.097 227.948,150.412 227.636,149.502C227.25,148.492 227.25,147.545 227.686,146.585C228.11,145.638 228.82,144.915 229.805,144.541C231.263,144.005 232.709,143.743 234.155,143.743C235.613,143.743 237.034,143.98 238.418,144.429C239.402,141.612 241.284,139.431 244.039,137.91C244.973,137.375 245.921,137.275 246.93,137.574C247.902,137.861 248.663,138.484 249.199,139.406C249.71,140.316 249.834,141.288 249.535,142.26C249.248,143.245 248.65,143.993 247.715,144.529C246.531,145.264 245.734,146.249 245.335,147.545C244.936,148.841 245.061,150.075 245.734,151.247L245.734,151.359L245.833,151.359C247.341,154.387 249.647,156.818 252.776,158.625C255.867,160.445 259.319,161.367 263.083,161.442C265.838,161.517 268.492,161.043 271.047,160.058C273.602,159.074 275.821,157.653 277.74,155.808C280.844,152.705 282.402,149.103 282.402,145.015C282.402,141.188 280.806,137.873 277.603,135.019C274.413,132.19 269.415,129.734 262.634,127.69C261.712,127.429 260.503,127.055 259.02,126.556C257.537,126.07 255.966,125.409 254.271,124.637C252.601,123.839 250.906,122.867 249.174,121.708C247.466,120.549 245.933,119.203 244.587,117.645C243.216,116.099 242.132,114.279 241.309,112.198C240.486,110.129 240.1,107.786 240.162,105.144C240.25,101.841 240.948,98.837 242.294,96.095C243.652,93.34 245.435,90.997 247.641,89.053C249.859,87.109 252.402,85.613 255.293,84.554C258.197,83.494 261.201,82.971 264.292,82.971C268.256,83.033 271.957,83.943 275.41,85.7C278.862,87.458 281.691,89.913 283.873,93.054C284.471,93.914 284.683,94.849 284.521,95.871C284.359,96.893 283.835,97.715 282.988,98.301C282.065,98.962 281.093,99.198 280.071,98.986C279.037,98.799 278.239,98.251 277.641,97.404C276.045,95.098 274.026,93.378 271.646,92.281C269.215,91.147 266.66,90.561 263.943,90.486C261.687,90.486 259.593,90.873 257.649,91.633C255.705,92.393 253.985,93.428 252.489,94.749C251.006,96.07 249.834,97.603 248.974,99.398C248.102,101.18 247.69,103.099 247.69,105.144C247.69,106.19 247.828,107.362 248.127,108.646C248.426,109.93 249.136,111.263 250.295,112.597C251.442,113.955 253.162,115.289 255.443,116.598C257.711,117.931 260.777,119.19 264.678,120.374C273.054,122.879 279.336,126.17 283.548,130.208C287.774,134.271 289.892,139.194 289.892,144.915C289.892,147.956 289.294,150.873 288.11,153.627ZM321.401,169.07C318.634,169.07 316.029,168.546 313.623,167.499C311.205,166.44 309.099,165.019 307.304,163.237C305.485,161.454 304.064,159.348 303.042,156.943C301.995,154.525 301.471,151.97 301.471,149.252L301.471,118.218L295.725,118.218C294.604,118.218 293.681,117.832 292.946,117.071C292.223,116.311 291.849,115.414 291.849,114.342C291.849,113.27 292.248,112.41 292.996,111.712C293.756,111.026 294.666,110.665 295.725,110.665L318.123,110.665C319.182,110.665 320.067,111.026 320.802,111.712C321.525,112.397 321.899,113.282 321.899,114.342C321.899,115.401 321.525,116.311 320.802,117.071C320.067,117.832 319.182,118.218 318.123,118.218L308.999,118.218L308.999,149.252C308.999,150.972 309.336,152.568 309.984,154.051C310.657,155.547 311.542,156.83 312.664,157.915C313.785,159.011 315.106,159.884 316.59,160.545C318.073,161.205 319.681,161.517 321.388,161.517C322.46,161.517 323.332,161.891 324.018,162.613C324.703,163.349 325.065,164.234 325.065,165.293C325.065,166.353 324.703,167.25 324.018,167.973C323.332,168.696 322.46,169.057 321.388,169.057L321.401,169.07ZM478.966,169.07C476.199,169.07 473.594,168.546 471.189,167.499C468.771,166.44 466.665,165.019 464.857,163.237C463.05,161.454 461.617,159.348 460.595,156.943C459.56,154.525 459.037,151.97 459.037,149.252L459.037,118.218L453.279,118.218C452.169,118.218 451.235,117.832 450.499,117.071C449.776,116.311 449.415,115.414 449.415,114.342C449.415,113.282 449.789,112.41 450.549,111.712C451.297,111.026 452.207,110.665 453.266,110.665L475.676,110.665C476.735,110.665 477.62,111.026 478.356,111.712C479.078,112.397 479.452,113.282 479.452,114.342C479.452,115.401 479.091,116.311 478.356,117.071C477.62,117.832 476.735,118.218 475.676,118.218L466.552,118.218L466.552,149.252C466.552,150.972 466.889,152.568 467.55,154.051C468.21,155.547 469.095,156.83 470.217,157.915C471.351,159.011 472.647,159.884 474.13,160.545C475.639,161.205 477.221,161.517 478.941,161.517C480.001,161.517 480.873,161.891 481.571,162.613C482.257,163.349 482.606,164.234 482.606,165.293C482.606,166.353 482.257,167.25 481.571,167.973C480.873,168.696 480.013,169.057 478.941,169.057L478.966,169.07ZM826.678,167.973L826.665,167.985C825.917,168.708 825.057,169.082 823.948,169.082C822.839,169.082 821.929,168.708 821.231,167.985C820.546,167.262 820.197,166.365 820.197,165.318L820.197,132.04C820.197,130.195 819.848,128.463 819.162,126.843C818.489,125.21 817.517,123.802 816.283,122.58C815.074,121.359 813.666,120.411 812.045,119.714C810.438,119.003 808.705,118.654 806.86,118.654C805.016,118.654 803.283,119.003 801.663,119.714C800.043,120.411 798.659,121.359 797.413,122.58C796.204,123.802 795.244,125.21 794.546,126.843C793.848,128.463 793.512,130.195 793.512,132.04L793.512,165.318C793.512,166.365 793.15,167.262 792.378,167.985C791.617,168.708 790.72,169.082 789.661,169.082C788.601,169.082 787.704,168.708 786.981,167.985C786.246,167.262 785.909,166.365 785.909,165.318L785.909,87.906C785.909,86.847 786.246,85.962 786.981,85.239C787.704,84.504 788.614,84.142 789.661,84.142C790.708,84.142 791.617,84.504 792.378,85.239C793.138,85.949 793.512,86.834 793.512,87.894L793.512,115.9C795.294,114.416 797.338,113.245 799.644,112.385C801.95,111.562 804.355,111.126 806.86,111.126C809.752,111.126 812.469,111.662 815.012,112.759C817.542,113.843 819.76,115.364 821.68,117.258C823.599,119.165 825.107,121.384 826.179,123.939C827.276,126.469 827.812,129.186 827.812,132.09L827.812,165.306C827.812,166.353 827.438,167.25 826.678,167.973ZM768.31,166.664L768.323,166.664C765.282,168.26 762.029,169.057 758.526,169.057C755.622,169.057 752.918,168.534 750.375,167.437C747.845,166.353 745.602,164.857 743.695,162.938C741.788,161.018 740.28,158.812 739.208,156.269C738.111,153.739 737.575,151.022 737.575,148.118L737.575,131.317C737.575,128.401 738.111,125.709 739.208,123.166C740.292,120.611 741.8,118.38 743.695,116.485C745.602,114.566 747.845,113.07 750.375,111.974C752.918,110.889 755.759,110.353 758.526,110.353C761.293,110.353 763.936,110.864 766.428,111.874C768.946,112.896 771.177,114.392 773.146,116.373C773.882,117.109 774.256,118.006 774.256,119.09C774.256,120.187 773.882,121.085 773.146,121.807C772.448,122.53 771.563,122.892 770.541,122.892C769.519,122.892 768.634,122.53 767.924,121.807C766.603,120.499 765.145,119.527 763.524,118.903C761.904,118.28 760.246,117.969 758.526,117.969C756.682,117.969 754.962,118.305 753.341,119.016C751.709,119.689 750.313,120.648 749.091,121.857C747.882,123.091 746.923,124.512 746.225,126.12C745.552,127.728 745.203,129.473 745.203,131.317L745.203,148.118C745.203,149.95 745.539,151.695 746.225,153.303C746.91,154.923 747.882,156.344 749.091,157.566C750.313,158.775 751.709,159.734 753.341,160.42C754.962,161.13 756.682,161.467 758.526,161.467C760.77,161.467 762.876,160.956 764.808,159.934C766.74,158.899 768.335,157.429 769.594,155.522C770.192,154.674 770.978,154.163 771.975,153.951C772.947,153.752 773.882,153.951 774.754,154.537C775.664,155.135 776.225,155.945 776.412,156.967C776.611,158.002 776.412,158.924 775.826,159.797C773.844,162.751 771.339,165.031 768.31,166.664ZM717.658,146.535L717.633,146.498C715.552,147.358 713.296,147.981 710.865,148.38C709.793,148.567 708.771,148.791 707.787,149.028C706.79,149.252 705.743,149.365 704.621,149.365C703.574,149.365 702.677,148.991 701.966,148.23C701.231,147.47 700.869,146.573 700.869,145.513C700.869,144.454 701.194,143.656 701.817,143.133C702.44,142.609 703.213,142.186 704.135,141.849C704.933,141.65 705.992,141.463 707.301,141.263C707.824,141.139 708.373,141.039 708.971,140.964C709.569,140.902 710.167,140.79 710.753,140.665C711.937,140.466 713.121,140.179 714.268,139.817C715.415,139.456 716.424,138.92 717.284,138.235C718.144,137.549 718.817,136.614 719.366,135.418C719.889,134.234 720.163,132.751 720.163,130.981C720.163,129.211 719.814,127.503 719.129,125.871C718.431,124.263 717.496,122.867 716.312,121.683C715.128,120.499 713.732,119.564 712.162,118.866C710.579,118.181 708.971,117.832 707.126,117.832C705.282,117.832 703.549,118.181 701.941,118.866C700.309,119.564 698.9,120.499 697.716,121.683C696.532,122.879 695.585,124.263 694.899,125.871C694.214,127.491 693.865,129.198 693.865,130.981L693.865,148.081C693.865,150.05 694.214,151.87 694.949,153.527C695.685,155.16 696.669,156.556 697.928,157.715C699.162,158.874 700.658,159.772 702.39,160.432C704.098,161.105 705.905,161.429 707.812,161.429C709.532,161.429 711.177,161.23 712.772,160.831C714.33,160.445 715.888,159.759 717.396,158.775C717.745,158.513 718.032,158.326 718.344,158.226C718.643,158.127 719.066,158.077 719.577,158.077C720.624,158.077 721.534,158.438 722.294,159.174C723.055,159.909 723.441,160.831 723.441,161.94C723.441,163.012 722.93,163.972 721.958,164.82C720.039,166.527 717.658,167.661 714.829,168.235C712.012,168.783 709.357,169.045 706.939,169.045C704.11,169.045 701.443,168.509 698.925,167.387C696.42,166.278 694.226,164.757 692.357,162.85C690.475,160.918 688.992,158.7 687.907,156.17C686.823,153.64 686.287,150.947 686.287,148.118L686.287,131.018C686.287,128.176 686.823,125.497 687.907,123.004C688.992,120.499 690.475,118.305 692.394,116.423C694.314,114.554 696.507,113.083 699.025,111.986C701.518,110.902 704.222,110.366 707.139,110.366C709.955,110.366 712.623,110.902 715.14,111.986C717.646,113.083 719.827,114.554 721.709,116.423C723.603,118.305 725.074,120.499 726.158,123.004C727.243,125.497 727.791,128.176 727.791,131.018C727.791,133.698 727.38,136.066 726.557,138.073C725.722,140.092 724.563,141.787 723.042,143.17C721.522,144.566 719.739,145.688 717.658,146.535ZM683.919,89.975L683.956,89.925C683.184,90.661 682.261,91.035 681.127,91.035C679.021,91.035 677.226,91.758 675.73,93.266C674.247,94.736 673.512,96.531 673.512,98.65L673.512,139.668C673.512,142.908 672.851,145.862 671.542,148.517C670.209,151.184 668.539,153.59 666.545,155.684C664.525,157.803 662.344,159.66 660.014,161.267C657.67,162.875 655.464,164.221 653.395,165.281C651.314,166.328 649.569,167.15 648.148,167.711C646.752,168.26 645.942,168.571 645.73,168.646C645.468,168.708 645.244,168.758 645.045,168.783C644.845,168.833 644.646,168.845 644.459,168.845C644.11,168.845 643.823,168.795 643.562,168.746C643.287,168.671 642.988,168.571 642.664,168.446L622.411,158.164C621.725,157.84 621.214,157.354 620.815,156.681C620.441,156.02 620.217,155.347 620.217,154.612L620.217,98.65C620.217,96.531 619.494,94.736 617.986,93.266C616.503,91.758 614.708,91.035 612.602,91.035C611.492,91.035 610.558,90.661 609.835,89.925C609.099,89.202 608.738,88.293 608.738,87.171C608.738,86.049 609.099,85.114 609.835,84.354C610.57,83.594 611.492,83.207 612.602,83.207C614.721,83.207 616.715,83.631 618.584,84.466C620.466,85.276 622.124,86.386 623.545,87.757C624.928,89.153 626.063,90.785 626.898,92.655C627.72,94.549 628.131,96.531 628.131,98.65L628.131,152.231L635.049,155.796L635.049,100.918C635.049,98.874 635.423,96.98 636.195,95.197C636.968,93.428 638.003,91.87 639.349,90.561C640.72,89.227 642.278,88.18 644.048,87.395C645.83,86.598 647.737,86.199 649.781,86.199C650.504,86.199 651.152,86.473 651.713,87.009C652.261,87.532 652.548,88.168 652.548,88.891C652.548,89.676 652.274,90.337 651.713,90.86C651.152,91.384 650.504,91.67 649.781,91.67C648.447,91.67 647.251,91.907 646.117,92.406C645.007,92.904 644.023,93.552 643.2,94.375C642.377,95.197 641.729,96.182 641.231,97.341C640.732,98.475 640.483,99.709 640.483,100.943L640.483,158.588L644.633,160.669C645.88,160.133 647.699,159.286 650.08,158.139C652.436,156.967 654.779,155.522 657.097,153.727C659.403,151.945 661.409,149.888 663.117,147.545C664.825,145.214 665.685,142.597 665.685,139.693L665.685,97.391C665.685,96.992 665.747,96.531 665.871,95.995C666.208,94.238 666.831,92.555 667.753,90.972C668.663,89.389 669.785,88.018 671.106,86.897C672.44,85.8 673.935,84.903 675.655,84.242C677.375,83.594 679.183,83.257 681.09,83.257C682.224,83.257 683.159,83.644 683.919,84.404C684.679,85.164 685.053,86.099 685.053,87.221C685.053,88.342 684.679,89.24 683.919,89.975ZM864.256,169.07C861.489,169.07 858.884,168.546 856.478,167.499C854.06,166.44 851.954,165.019 850.159,163.237C848.352,161.454 846.931,159.348 845.897,156.943C844.85,154.525 844.339,151.97 844.339,149.252L844.339,118.218L838.581,118.218C837.471,118.218 836.536,117.832 835.814,117.071C835.078,116.311 834.717,115.414 834.717,114.342C834.717,113.27 835.103,112.41 835.851,111.712C836.611,111.026 837.521,110.665 838.581,110.665L861.003,110.665C862.05,110.665 862.947,111.026 863.67,111.712C864.393,112.397 864.767,113.282 864.767,114.342C864.767,115.401 864.393,116.311 863.67,117.071C862.947,117.832 862.05,118.218 861.003,118.218L851.879,118.218L851.879,149.252C851.879,150.972 852.203,152.568 852.851,154.051C853.524,155.547 854.409,156.83 855.531,157.915C856.653,159.011 857.962,159.884 859.457,160.545C860.94,161.205 862.536,161.517 864.256,161.517C865.315,161.517 866.212,161.891 866.886,162.613C867.571,163.349 867.92,164.234 867.92,165.293C867.92,166.353 867.559,167.25 866.886,167.973C866.2,168.696 865.315,169.057 864.256,169.057L864.256,169.07Z" style="fill:rgb(6,136,202);"></path>
    <path d="M119.689,240.337L119.689,179.739L99.709,179.739L99.709,165.331L107.624,165.331C111.425,165.331 114.516,164.795 116.897,163.71C119.277,162.626 121.01,160.856 122.094,158.388C123.178,155.92 123.714,152.53 123.714,148.205L139.419,148.205L139.419,240.337L119.689,240.337ZM168.901,186.153C169.705,185.356 170.575,184.617 171.513,183.939C173.719,182.343 176.286,181.085 179.228,180.175C182.169,179.265 185.41,178.816 188.962,178.816C195.368,178.816 200.877,180.162 205.501,182.842C210.125,185.522 213.702,189.198 216.207,193.872C218.712,198.546 219.971,203.818 219.971,209.701C219.971,216.369 218.451,222.165 215.435,227.088C212.406,232.024 208.168,235.8 202.722,238.442C197.275,241.085 190.869,242.406 183.515,242.406L183.528,242.418C175.999,242.418 169.643,241.297 164.446,239.041C159.248,236.797 155.235,233.594 152.381,229.431C149.527,225.268 147.881,220.432 147.445,214.899L167.424,213.989C168.197,217.965 169.955,220.931 172.684,222.875C175.414,224.82 179.016,225.792 183.515,225.792C188.525,225.792 192.489,224.358 195.393,221.504C198.284,218.65 199.743,214.712 199.743,209.689C199.743,206.398 199.07,203.544 197.736,201.126C196.39,198.708 194.508,196.801 192.09,195.418C189.672,194.034 186.768,193.336 183.39,193.336C179.664,193.336 176.473,194.159 173.793,195.804C171.114,197.449 169.257,199.531 168.21,202.036L148.48,202.036L154.836,148.181L213.627,148.181L213.627,164.795L171.587,164.795L168.901,186.153Z" style="fill:rgb(195,146,46);"></path>
    <path d="M240.013,215.522L240.013,241.346C240.013,244.749 239.789,247.142 239.352,248.538C238.904,249.934 238.056,251.031 236.797,251.816C235.538,252.601 233.918,253 231.961,253C231.263,253 230.503,252.938 229.693,252.813C228.883,252.688 228.01,252.501 227.076,252.252L228.309,246.232C228.646,246.295 228.958,246.357 229.257,246.394C229.543,246.432 229.818,246.457 230.067,246.457C230.79,246.457 231.376,246.307 231.837,245.995C232.298,245.684 232.597,245.31 232.759,244.874C232.909,244.437 232.983,243.129 232.983,240.96L232.983,215.522L240.013,215.522ZM240.013,215.522L240.013,215.509L240.038,215.522L240.013,215.522ZM232.958,211.895L232.958,205.364L240.013,205.364L240.013,211.895L232.958,211.895ZM252.663,223.648L246.257,222.489C246.98,219.909 248.214,218.002 249.971,216.768C251.729,215.534 254.346,214.911 257.811,214.911C260.952,214.911 263.295,215.285 264.84,216.033C266.386,216.781 267.458,217.728 268.094,218.874C268.717,220.021 269.041,222.127 269.041,225.194L268.966,233.432C268.966,235.775 269.078,237.508 269.302,238.617C269.527,239.726 269.951,240.923 270.574,242.194L263.594,242.194C263.407,241.72 263.183,241.035 262.921,240.113C262.809,239.689 262.722,239.415 262.672,239.278C261.463,240.449 260.179,241.334 258.808,241.92C257.437,242.506 255.966,242.805 254.408,242.805C251.666,242.805 249.498,242.057 247.915,240.574C246.332,239.078 245.547,237.196 245.547,234.928C245.547,233.42 245.908,232.074 246.631,230.902C247.354,229.718 248.364,228.82 249.66,228.185C250.956,227.562 252.826,227.013 255.268,226.54C258.571,225.916 260.852,225.343 262.123,224.807L262.123,224.109C262.123,222.751 261.787,221.791 261.114,221.205C260.441,220.632 259.182,220.333 257.325,220.333C256.066,220.333 255.094,220.582 254.383,221.068C253.686,221.567 253.112,222.427 252.676,223.661L252.663,223.648ZM262.111,229.369C261.201,229.668 259.78,230.029 257.823,230.453C255.867,230.877 254.583,231.276 253.985,231.687C253.062,232.335 252.601,233.17 252.601,234.18C252.601,235.189 252.963,236.024 253.71,236.735C254.446,237.458 255.381,237.819 256.527,237.819C257.799,237.819 259.007,237.395 260.167,236.56C261.027,235.925 261.575,235.152 261.849,234.23C262.036,233.631 262.123,232.485 262.123,230.79L262.123,229.381L262.111,229.369ZM281.268,223.648L274.861,222.489C275.584,219.909 276.818,218.002 278.575,216.768C280.333,215.534 282.95,214.911 286.415,214.911C289.556,214.911 291.899,215.285 293.445,216.033C294.99,216.781 296.062,217.728 296.698,218.874C297.321,220.021 297.645,222.127 297.645,225.194L297.57,233.432C297.57,235.775 297.682,237.508 297.907,238.617C298.131,239.726 298.555,240.923 299.178,242.194L292.198,242.194C292.011,241.72 291.787,241.035 291.525,240.113C291.413,239.689 291.326,239.415 291.276,239.278C290.067,240.449 288.783,241.334 287.412,241.92C286.041,242.506 284.57,242.805 283.013,242.805C280.271,242.805 278.102,242.057 276.519,240.574C274.936,239.078 274.151,237.196 274.151,234.928C274.151,233.42 274.512,232.074 275.235,230.902C275.958,229.718 276.968,228.82 278.264,228.185C279.56,227.562 281.43,227.013 283.873,226.54C287.175,225.916 289.456,225.343 290.728,224.807L290.728,224.109C290.728,222.751 290.391,221.791 289.718,221.205C289.045,220.632 287.786,220.333 285.929,220.333C284.67,220.333 283.698,220.582 282.988,221.068C282.29,221.567 281.716,222.427 281.28,223.661L281.268,223.648ZM290.703,229.369C289.793,229.668 288.372,230.029 286.415,230.453C284.458,230.877 283.175,231.276 282.576,231.687C281.654,232.335 281.193,233.17 281.193,234.18C281.193,235.189 281.554,236.024 282.302,236.735C283.037,237.458 283.972,237.819 285.119,237.819C286.39,237.819 287.599,237.395 288.758,236.56C289.618,235.925 290.167,235.152 290.441,234.23C290.628,233.631 290.715,232.485 290.715,230.79L290.715,229.381L290.703,229.369ZM311.342,242.169L304.288,242.169L304.288,215.509L310.844,215.509L310.844,219.298C311.966,217.503 312.975,216.332 313.873,215.759C314.77,215.185 315.779,214.911 316.926,214.911C318.534,214.911 320.079,215.36 321.575,216.245L319.394,222.402C318.21,221.629 317.101,221.243 316.079,221.243C315.057,221.243 314.259,221.517 313.573,222.065C312.888,222.614 312.352,223.598 311.953,225.019C311.554,226.44 311.367,229.419 311.367,233.956L311.367,242.194L311.342,242.169Z" style="fill:rgb(0,26,77);"></path>
</svg>
