<svg xmlns="http://www.w3.org/2000/svg" viewBox="0 0 320 80" width="320" height="80" role="img" aria-label="Pipeline arrow with hex stops">
  <title>Pipeline arrow</title>
  <line x1="20" y1="40" x2="290" y2="40" stroke="#21468B" stroke-width="2" stroke-dasharray="4 4"/>
  <polygon points="20,16 40,28 40,52 20,64 0,52 0,28" transform="translate(20 0)" fill="#21468B"/>
  <polygon points="20,16 40,28 40,52 20,64 0,52 0,28" transform="translate(120 0)" fill="#7E66C9"/>
  <polygon points="20,16 40,28 40,52 20,64 0,52 0,28" transform="translate(220 0)" fill="#2E9866"/>
  <polygon points="285,30 305,40 285,50" fill="#21468B"/>
  <text x="40" y="76" font-family="IBM Plex Mono, monospace" font-size="9" fill="#4D69A4">SOURCE</text>
  <text x="140" y="76" font-family="IBM Plex Mono, monospace" font-size="9" fill="#4D69A4">PROCESS</text>
  <text x="240" y="76" font-family="IBM Plex Mono, monospace" font-size="9" fill="#4D69A4">SINK</text>
</svg>
